<?xml version="1.0" encoding="utf-8" standalone="no"?>
<!DOCTYPE svg PUBLIC "-//W3C//DTD SVG 1.1//EN"
  "http://www.w3.org/Graphics/SVG/1.1/DTD/svg11.dtd">
<svg xmlns:xlink="http://www.w3.org/1999/xlink" width="443.390848pt" height="470.741875pt" viewBox="0 0 443.390848 470.741875" xmlns="http://www.w3.org/2000/svg" version="1.1">
 <metadata>
  <rdf:RDF xmlns:dc="http://purl.org/dc/elements/1.1/" xmlns:cc="http://creativecommons.org/ns#" xmlns:rdf="http://www.w3.org/1999/02/22-rdf-syntax-ns#">
   <cc:Work>
    <dc:type rdf:resource="http://purl.org/dc/dcmitype/StillImage"/>
    <dc:date>1980-01-01T00:00:00+00:00</dc:date>
    <dc:format>image/svg+xml</dc:format>
    <dc:creator>
     <cc:Agent>
      <dc:title>Matplotlib v3.8.0, https://matplotlib.org/</dc:title>
     </cc:Agent>
    </dc:creator>
   </cc:Work>
  </rdf:RDF>
 </metadata>
 <defs>
  <style type="text/css">*{stroke-linejoin: round; stroke-linecap: butt}</style>
 </defs>
 <g id="figure_1">
  <g id="patch_1">
   <path d="M 0 470.741875 
L 443.390848 470.741875 
L 443.390848 0 
L 0 0 
L 0 470.741875 
z
" style="fill: none"/>
  </g>
  <g id="axes_1">
   <g id="patch_2">
    <path d="M 74.615625 450.72 
L 431.735625 450.72 
L 431.735625 7.2 
L 74.615625 7.2 
L 74.615625 450.72 
z
" style="fill: none"/>
   </g>
   <g id="matplotlib.axis_1">
    <g id="xtick_1">
     <g id="line2d_1">
      <path d="M 74.615625 450.72 
L 74.615625 7.2 
" clip-path="url(#p32362e940f)" style="fill: none; stroke: #2a3459; stroke-width: 0.8; stroke-linecap: round"/>
     </g>
     <g id="line2d_2"/>
     <g id="text_1">
      <!-- 0.0 -->
      <g style="fill: #e6e6e6" transform="translate(67.665625 461.466875) scale(0.1 -0.1)">
       <defs>
        <path id="LiberationSans-30" d="M 3309 2203 
Q 3309 1100 2920 518 
Q 2531 -63 1772 -63 
Q 1013 -63 631 515 
Q 250 1094 250 2203 
Q 250 3338 620 3903 
Q 991 4469 1791 4469 
Q 2569 4469 2939 3897 
Q 3309 3325 3309 2203 
z
M 2738 2203 
Q 2738 3156 2517 3584 
Q 2297 4013 1791 4013 
Q 1272 4013 1045 3591 
Q 819 3169 819 2203 
Q 819 1266 1048 831 
Q 1278 397 1778 397 
Q 2275 397 2506 840 
Q 2738 1284 2738 2203 
z
" transform="scale(0.015625)"/>
        <path id="LiberationSans-2e" d="M 584 0 
L 584 684 
L 1194 684 
L 1194 0 
L 584 0 
z
" transform="scale(0.015625)"/>
       </defs>
       <use xlink:href="#LiberationSans-30"/>
       <use xlink:href="#LiberationSans-2e" x="55.615234"/>
       <use xlink:href="#LiberationSans-30" x="83.398438"/>
      </g>
     </g>
    </g>
    <g id="xtick_2">
     <g id="line2d_3">
      <path d="M 116.828435 450.72 
L 116.828435 7.2 
" clip-path="url(#p32362e940f)" style="fill: none; stroke: #2a3459; stroke-width: 0.8; stroke-linecap: round"/>
     </g>
     <g id="line2d_4"/>
     <g id="text_2">
      <!-- 0.1 -->
      <g style="fill: #e6e6e6" transform="translate(109.878435 461.466875) scale(0.1 -0.1)">
       <defs>
        <path id="LiberationSans-31" d="M 488 0 
L 488 478 
L 1609 478 
L 1609 3866 
L 616 3156 
L 616 3688 
L 1656 4403 
L 2175 4403 
L 2175 478 
L 3247 478 
L 3247 0 
L 488 0 
z
" transform="scale(0.015625)"/>
       </defs>
       <use xlink:href="#LiberationSans-30"/>
       <use xlink:href="#LiberationSans-2e" x="55.615234"/>
       <use xlink:href="#LiberationSans-31" x="83.398438"/>
      </g>
     </g>
    </g>
    <g id="xtick_3">
     <g id="line2d_5">
      <path d="M 159.041244 450.72 
L 159.041244 7.2 
" clip-path="url(#p32362e940f)" style="fill: none; stroke: #2a3459; stroke-width: 0.8; stroke-linecap: round"/>
     </g>
     <g id="line2d_6"/>
     <g id="text_3">
      <!-- 0.2 -->
      <g style="fill: #e6e6e6" transform="translate(152.091244 461.466875) scale(0.1 -0.1)">
       <defs>
        <path id="LiberationSans-32" d="M 322 0 
L 322 397 
Q 481 763 711 1042 
Q 941 1322 1194 1548 
Q 1447 1775 1695 1969 
Q 1944 2163 2144 2356 
Q 2344 2550 2467 2762 
Q 2591 2975 2591 3244 
Q 2591 3606 2378 3806 
Q 2166 4006 1788 4006 
Q 1428 4006 1195 3811 
Q 963 3616 922 3263 
L 347 3316 
Q 409 3844 795 4156 
Q 1181 4469 1788 4469 
Q 2453 4469 2811 4155 
Q 3169 3841 3169 3263 
Q 3169 3006 3051 2753 
Q 2934 2500 2703 2247 
Q 2472 1994 1819 1463 
Q 1459 1169 1246 933 
Q 1034 697 941 478 
L 3238 478 
L 3238 0 
L 322 0 
z
" transform="scale(0.015625)"/>
       </defs>
       <use xlink:href="#LiberationSans-30"/>
       <use xlink:href="#LiberationSans-2e" x="55.615234"/>
       <use xlink:href="#LiberationSans-32" x="83.398438"/>
      </g>
     </g>
    </g>
    <g id="xtick_4">
     <g id="line2d_7">
      <path d="M 201.254054 450.72 
L 201.254054 7.2 
" clip-path="url(#p32362e940f)" style="fill: none; stroke: #2a3459; stroke-width: 0.8; stroke-linecap: round"/>
     </g>
     <g id="line2d_8"/>
     <g id="text_4">
      <!-- 0.3 -->
      <g style="fill: #e6e6e6" transform="translate(194.304054 461.466875) scale(0.1 -0.1)">
       <defs>
        <path id="LiberationSans-33" d="M 3278 1216 
Q 3278 606 2890 271 
Q 2503 -63 1784 -63 
Q 1116 -63 717 239 
Q 319 541 244 1131 
L 825 1184 
Q 938 403 1784 403 
Q 2209 403 2451 612 
Q 2694 822 2694 1234 
Q 2694 1594 2417 1795 
Q 2141 1997 1619 1997 
L 1300 1997 
L 1300 2484 
L 1606 2484 
Q 2069 2484 2323 2686 
Q 2578 2888 2578 3244 
Q 2578 3597 2370 3801 
Q 2163 4006 1753 4006 
Q 1381 4006 1151 3815 
Q 922 3625 884 3278 
L 319 3322 
Q 381 3863 767 4166 
Q 1153 4469 1759 4469 
Q 2422 4469 2789 4161 
Q 3156 3853 3156 3303 
Q 3156 2881 2920 2617 
Q 2684 2353 2234 2259 
L 2234 2247 
Q 2728 2194 3003 1916 
Q 3278 1638 3278 1216 
z
" transform="scale(0.015625)"/>
       </defs>
       <use xlink:href="#LiberationSans-30"/>
       <use xlink:href="#LiberationSans-2e" x="55.615234"/>
       <use xlink:href="#LiberationSans-33" x="83.398438"/>
      </g>
     </g>
    </g>
    <g id="xtick_5">
     <g id="line2d_9">
      <path d="M 243.466863 450.72 
L 243.466863 7.2 
" clip-path="url(#p32362e940f)" style="fill: none; stroke: #2a3459; stroke-width: 0.8; stroke-linecap: round"/>
     </g>
     <g id="line2d_10"/>
     <g id="text_5">
      <!-- 0.4 -->
      <g style="fill: #e6e6e6" transform="translate(236.516863 461.466875) scale(0.1 -0.1)">
       <defs>
        <path id="LiberationSans-34" d="M 2753 997 
L 2753 0 
L 2222 0 
L 2222 997 
L 147 997 
L 147 1434 
L 2163 4403 
L 2753 4403 
L 2753 1441 
L 3372 1441 
L 3372 997 
L 2753 997 
z
M 2222 3769 
Q 2216 3750 2134 3603 
Q 2053 3456 2013 3397 
L 884 1734 
L 716 1503 
L 666 1441 
L 2222 1441 
L 2222 3769 
z
" transform="scale(0.015625)"/>
       </defs>
       <use xlink:href="#LiberationSans-30"/>
       <use xlink:href="#LiberationSans-2e" x="55.615234"/>
       <use xlink:href="#LiberationSans-34" x="83.398438"/>
      </g>
     </g>
    </g>
    <g id="xtick_6">
     <g id="line2d_11">
      <path d="M 285.679673 450.72 
L 285.679673 7.2 
" clip-path="url(#p32362e940f)" style="fill: none; stroke: #2a3459; stroke-width: 0.8; stroke-linecap: round"/>
     </g>
     <g id="line2d_12"/>
     <g id="text_6">
      <!-- 0.5 -->
      <g style="fill: #e6e6e6" transform="translate(278.729673 461.466875) scale(0.1 -0.1)">
       <defs>
        <path id="LiberationSans-35" d="M 3291 1434 
Q 3291 738 2877 337 
Q 2463 -63 1728 -63 
Q 1113 -63 734 206 
Q 356 475 256 984 
L 825 1050 
Q 1003 397 1741 397 
Q 2194 397 2450 670 
Q 2706 944 2706 1422 
Q 2706 1838 2448 2094 
Q 2191 2350 1753 2350 
Q 1525 2350 1328 2278 
Q 1131 2206 934 2034 
L 384 2034 
L 531 4403 
L 3034 4403 
L 3034 3925 
L 1044 3925 
L 959 2528 
Q 1325 2809 1869 2809 
Q 2519 2809 2905 2428 
Q 3291 2047 3291 1434 
z
" transform="scale(0.015625)"/>
       </defs>
       <use xlink:href="#LiberationSans-30"/>
       <use xlink:href="#LiberationSans-2e" x="55.615234"/>
       <use xlink:href="#LiberationSans-35" x="83.398438"/>
      </g>
     </g>
    </g>
    <g id="xtick_7">
     <g id="line2d_13">
      <path d="M 327.892483 450.72 
L 327.892483 7.2 
" clip-path="url(#p32362e940f)" style="fill: none; stroke: #2a3459; stroke-width: 0.8; stroke-linecap: round"/>
     </g>
     <g id="line2d_14"/>
     <g id="text_7">
      <!-- 0.6 -->
      <g style="fill: #e6e6e6" transform="translate(320.942483 461.466875) scale(0.1 -0.1)">
       <defs>
        <path id="LiberationSans-36" d="M 3278 1441 
Q 3278 744 2900 340 
Q 2522 -63 1856 -63 
Q 1113 -63 719 490 
Q 325 1044 325 2100 
Q 325 3244 734 3856 
Q 1144 4469 1900 4469 
Q 2897 4469 3156 3572 
L 2619 3475 
Q 2453 4013 1894 4013 
Q 1413 4013 1148 3564 
Q 884 3116 884 2266 
Q 1038 2550 1316 2698 
Q 1594 2847 1953 2847 
Q 2563 2847 2920 2465 
Q 3278 2084 3278 1441 
z
M 2706 1416 
Q 2706 1894 2472 2153 
Q 2238 2413 1819 2413 
Q 1425 2413 1183 2183 
Q 941 1953 941 1550 
Q 941 1041 1192 716 
Q 1444 391 1838 391 
Q 2244 391 2475 664 
Q 2706 938 2706 1416 
z
" transform="scale(0.015625)"/>
       </defs>
       <use xlink:href="#LiberationSans-30"/>
       <use xlink:href="#LiberationSans-2e" x="55.615234"/>
       <use xlink:href="#LiberationSans-36" x="83.398438"/>
      </g>
     </g>
    </g>
    <g id="xtick_8">
     <g id="line2d_15">
      <path d="M 370.105292 450.72 
L 370.105292 7.2 
" clip-path="url(#p32362e940f)" style="fill: none; stroke: #2a3459; stroke-width: 0.8; stroke-linecap: round"/>
     </g>
     <g id="line2d_16"/>
     <g id="text_8">
      <!-- 0.7 -->
      <g style="fill: #e6e6e6" transform="translate(363.155292 461.466875) scale(0.1 -0.1)">
       <defs>
        <path id="LiberationSans-37" d="M 3238 3947 
Q 2563 2916 2284 2331 
Q 2006 1747 1867 1178 
Q 1728 609 1728 0 
L 1141 0 
Q 1141 844 1498 1776 
Q 1856 2709 2694 3925 
L 328 3925 
L 328 4403 
L 3238 4403 
L 3238 3947 
z
" transform="scale(0.015625)"/>
       </defs>
       <use xlink:href="#LiberationSans-30"/>
       <use xlink:href="#LiberationSans-2e" x="55.615234"/>
       <use xlink:href="#LiberationSans-37" x="83.398438"/>
      </g>
     </g>
    </g>
    <g id="xtick_9">
     <g id="line2d_17">
      <path d="M 412.318102 450.72 
L 412.318102 7.2 
" clip-path="url(#p32362e940f)" style="fill: none; stroke: #2a3459; stroke-width: 0.8; stroke-linecap: round"/>
     </g>
     <g id="line2d_18"/>
     <g id="text_9">
      <!-- 0.8 -->
      <g style="fill: #e6e6e6" transform="translate(405.368102 461.466875) scale(0.1 -0.1)">
       <defs>
        <path id="LiberationSans-38" d="M 3281 1228 
Q 3281 619 2893 278 
Q 2506 -63 1781 -63 
Q 1075 -63 676 271 
Q 278 606 278 1222 
Q 278 1653 525 1947 
Q 772 2241 1156 2303 
L 1156 2316 
Q 797 2400 589 2681 
Q 381 2963 381 3341 
Q 381 3844 757 4156 
Q 1134 4469 1769 4469 
Q 2419 4469 2795 4162 
Q 3172 3856 3172 3334 
Q 3172 2956 2962 2675 
Q 2753 2394 2391 2322 
L 2391 2309 
Q 2813 2241 3047 1952 
Q 3281 1663 3281 1228 
z
M 2588 3303 
Q 2588 4050 1769 4050 
Q 1372 4050 1164 3862 
Q 956 3675 956 3303 
Q 956 2925 1170 2726 
Q 1384 2528 1775 2528 
Q 2172 2528 2380 2711 
Q 2588 2894 2588 3303 
z
M 2697 1281 
Q 2697 1691 2453 1898 
Q 2209 2106 1769 2106 
Q 1341 2106 1100 1882 
Q 859 1659 859 1269 
Q 859 359 1788 359 
Q 2247 359 2472 579 
Q 2697 800 2697 1281 
z
" transform="scale(0.015625)"/>
       </defs>
       <use xlink:href="#LiberationSans-30"/>
       <use xlink:href="#LiberationSans-2e" x="55.615234"/>
       <use xlink:href="#LiberationSans-38" x="83.398438"/>
      </g>
     </g>
    </g>
   </g>
   <g id="matplotlib.axis_2">
    <g id="ytick_1">
     <g id="line2d_19">
      <path d="M 74.615625 423.783529 
L 431.735625 423.783529 
" clip-path="url(#p32362e940f)" style="fill: none; stroke: #2a3459; stroke-width: 0.8; stroke-linecap: round"/>
     </g>
     <g id="line2d_20"/>
     <g id="text_10">
      <!-- Objective-C++ -->
      <g style="fill: #e6e6e6" transform="translate(7.2 427.406967) scale(0.1 -0.1)">
       <defs>
        <path id="LiberationSans-4f" d="M 4672 2222 
Q 4672 1531 4408 1012 
Q 4144 494 3650 215 
Q 3156 -63 2484 -63 
Q 1806 -63 1314 212 
Q 822 488 562 1008 
Q 303 1528 303 2222 
Q 303 3278 881 3873 
Q 1459 4469 2491 4469 
Q 3163 4469 3656 4201 
Q 4150 3934 4411 3425 
Q 4672 2916 4672 2222 
z
M 4063 2222 
Q 4063 3044 3652 3512 
Q 3241 3981 2491 3981 
Q 1734 3981 1321 3518 
Q 909 3056 909 2222 
Q 909 1394 1326 908 
Q 1744 422 2484 422 
Q 3247 422 3655 892 
Q 4063 1363 4063 2222 
z
" transform="scale(0.015625)"/>
        <path id="LiberationSans-62" d="M 3291 1706 
Q 3291 -63 2047 -63 
Q 1663 -63 1408 76 
Q 1153 216 994 525 
L 988 525 
Q 988 428 975 229 
Q 963 31 956 0 
L 413 0 
Q 431 169 431 697 
L 431 4638 
L 994 4638 
L 994 3316 
Q 994 3113 981 2838 
L 994 2838 
Q 1150 3163 1408 3303 
Q 1666 3444 2047 3444 
Q 2688 3444 2989 3012 
Q 3291 2581 3291 1706 
z
M 2700 1688 
Q 2700 2397 2512 2703 
Q 2325 3009 1903 3009 
Q 1428 3009 1211 2684 
Q 994 2359 994 1653 
Q 994 988 1206 670 
Q 1419 353 1897 353 
Q 2322 353 2511 667 
Q 2700 981 2700 1688 
z
" transform="scale(0.015625)"/>
        <path id="LiberationSans-6a" d="M 428 4100 
L 428 4638 
L 991 4638 
L 991 4100 
L 428 4100 
z
M 991 -419 
Q 991 -897 803 -1112 
Q 616 -1328 241 -1328 
Q 0 -1328 -156 -1300 
L -156 -866 
L 38 -884 
Q 253 -884 340 -771 
Q 428 -659 428 -334 
L 428 3381 
L 991 3381 
L 991 -419 
z
" transform="scale(0.015625)"/>
        <path id="LiberationSans-65" d="M 863 1572 
Q 863 991 1103 675 
Q 1344 359 1806 359 
Q 2172 359 2392 506 
Q 2613 653 2691 878 
L 3184 738 
Q 2881 -63 1806 -63 
Q 1056 -63 664 384 
Q 272 831 272 1713 
Q 272 2550 664 2997 
Q 1056 3444 1784 3444 
Q 3275 3444 3275 1647 
L 3275 1572 
L 863 1572 
z
M 2694 2003 
Q 2647 2538 2422 2783 
Q 2197 3028 1775 3028 
Q 1366 3028 1127 2754 
Q 888 2481 869 2003 
L 2694 2003 
z
" transform="scale(0.015625)"/>
        <path id="LiberationSans-63" d="M 859 1706 
Q 859 1031 1071 706 
Q 1284 381 1713 381 
Q 2013 381 2214 543 
Q 2416 706 2463 1044 
L 3031 1006 
Q 2966 519 2616 228 
Q 2266 -63 1728 -63 
Q 1019 -63 645 385 
Q 272 834 272 1694 
Q 272 2547 647 2995 
Q 1022 3444 1722 3444 
Q 2241 3444 2583 3175 
Q 2925 2906 3013 2434 
L 2434 2391 
Q 2391 2672 2212 2837 
Q 2034 3003 1706 3003 
Q 1259 3003 1059 2706 
Q 859 2409 859 1706 
z
" transform="scale(0.015625)"/>
        <path id="LiberationSans-74" d="M 1731 25 
Q 1453 -50 1163 -50 
Q 488 -50 488 716 
L 488 2972 
L 97 2972 
L 97 3381 
L 509 3381 
L 675 4138 
L 1050 4138 
L 1050 3381 
L 1675 3381 
L 1675 2972 
L 1050 2972 
L 1050 838 
Q 1050 594 1129 495 
Q 1209 397 1406 397 
Q 1519 397 1731 441 
L 1731 25 
z
" transform="scale(0.015625)"/>
        <path id="LiberationSans-69" d="M 428 4100 
L 428 4638 
L 991 4638 
L 991 4100 
L 428 4100 
z
M 428 0 
L 428 3381 
L 991 3381 
L 991 0 
L 428 0 
z
" transform="scale(0.015625)"/>
        <path id="LiberationSans-76" d="M 1916 0 
L 1250 0 
L 22 3381 
L 622 3381 
L 1366 1181 
Q 1406 1056 1581 441 
L 1691 806 
L 1813 1175 
L 2581 3381 
L 3178 3381 
L 1916 0 
z
" transform="scale(0.015625)"/>
        <path id="LiberationSans-2d" d="M 284 1450 
L 284 1950 
L 1847 1950 
L 1847 1450 
L 284 1450 
z
" transform="scale(0.015625)"/>
        <path id="LiberationSans-43" d="M 2475 3981 
Q 1744 3981 1337 3511 
Q 931 3041 931 2222 
Q 931 1413 1354 920 
Q 1778 428 2500 428 
Q 3425 428 3891 1344 
L 4378 1100 
Q 4106 531 3614 234 
Q 3122 -63 2472 -63 
Q 1806 -63 1320 214 
Q 834 491 579 1005 
Q 325 1519 325 2222 
Q 325 3275 894 3872 
Q 1463 4469 2469 4469 
Q 3172 4469 3644 4194 
Q 4116 3919 4338 3378 
L 3772 3191 
Q 3619 3575 3280 3778 
Q 2941 3981 2475 3981 
z
" transform="scale(0.015625)"/>
        <path id="LiberationSans-2b" d="M 2097 1900 
L 2097 563 
L 1638 563 
L 1638 1900 
L 313 1900 
L 313 2356 
L 1638 2356 
L 1638 3694 
L 2097 3694 
L 2097 2356 
L 3422 2356 
L 3422 1900 
L 2097 1900 
z
" transform="scale(0.015625)"/>
       </defs>
       <use xlink:href="#LiberationSans-4f"/>
       <use xlink:href="#LiberationSans-62" x="77.783203"/>
       <use xlink:href="#LiberationSans-6a" x="133.398438"/>
       <use xlink:href="#LiberationSans-65" x="155.615234"/>
       <use xlink:href="#LiberationSans-63" x="211.230469"/>
       <use xlink:href="#LiberationSans-74" x="261.230469"/>
       <use xlink:href="#LiberationSans-69" x="289.013672"/>
       <use xlink:href="#LiberationSans-76" x="311.230469"/>
       <use xlink:href="#LiberationSans-65" x="361.230469"/>
       <use xlink:href="#LiberationSans-2d" x="416.845703"/>
       <use xlink:href="#LiberationSans-43" x="450.146484"/>
       <use xlink:href="#LiberationSans-2b" x="522.363281"/>
       <use xlink:href="#LiberationSans-2b" x="580.761719"/>
      </g>
     </g>
    </g>
    <g id="ytick_2">
     <g id="line2d_21">
      <path d="M 74.615625 406.842353 
L 431.735625 406.842353 
" clip-path="url(#p32362e940f)" style="fill: none; stroke: #2a3459; stroke-width: 0.8; stroke-linecap: round"/>
     </g>
     <g id="line2d_22"/>
     <g id="text_11">
      <!-- CoffeeScript -->
      <g style="fill: #e6e6e6" transform="translate(16.26875 410.46579) scale(0.1 -0.1)">
       <defs>
        <path id="LiberationSans-6f" d="M 3291 1694 
Q 3291 806 2900 371 
Q 2509 -63 1766 -63 
Q 1025 -63 647 389 
Q 269 841 269 1694 
Q 269 3444 1784 3444 
Q 2559 3444 2925 3017 
Q 3291 2591 3291 1694 
z
M 2700 1694 
Q 2700 2394 2492 2711 
Q 2284 3028 1794 3028 
Q 1300 3028 1079 2704 
Q 859 2381 859 1694 
Q 859 1025 1076 689 
Q 1294 353 1759 353 
Q 2266 353 2483 678 
Q 2700 1003 2700 1694 
z
" transform="scale(0.015625)"/>
        <path id="LiberationSans-66" d="M 1128 2972 
L 1128 0 
L 566 0 
L 566 2972 
L 91 2972 
L 91 3381 
L 566 3381 
L 566 3763 
Q 566 4225 769 4428 
Q 972 4631 1391 4631 
Q 1625 4631 1788 4594 
L 1788 4166 
Q 1647 4191 1538 4191 
Q 1322 4191 1225 4081 
Q 1128 3972 1128 3684 
L 1128 3381 
L 1788 3381 
L 1788 2972 
L 1128 2972 
z
" transform="scale(0.015625)"/>
        <path id="LiberationSans-53" d="M 3975 1216 
Q 3975 606 3498 271 
Q 3022 -63 2156 -63 
Q 547 -63 291 1056 
L 869 1172 
Q 969 775 1294 589 
Q 1619 403 2178 403 
Q 2756 403 3070 601 
Q 3384 800 3384 1184 
Q 3384 1400 3286 1534 
Q 3188 1669 3009 1756 
Q 2831 1844 2584 1903 
Q 2338 1963 2038 2031 
Q 1516 2147 1245 2262 
Q 975 2378 819 2520 
Q 663 2663 580 2853 
Q 497 3044 497 3291 
Q 497 3856 930 4162 
Q 1363 4469 2169 4469 
Q 2919 4469 3316 4239 
Q 3713 4009 3872 3456 
L 3284 3353 
Q 3188 3703 2916 3861 
Q 2644 4019 2163 4019 
Q 1634 4019 1356 3844 
Q 1078 3669 1078 3322 
Q 1078 3119 1186 2986 
Q 1294 2853 1497 2761 
Q 1700 2669 2306 2534 
Q 2509 2488 2711 2439 
Q 2913 2391 3097 2323 
Q 3281 2256 3442 2165 
Q 3603 2075 3722 1944 
Q 3841 1813 3908 1634 
Q 3975 1456 3975 1216 
z
" transform="scale(0.015625)"/>
        <path id="LiberationSans-72" d="M 444 0 
L 444 2594 
Q 444 2950 425 3381 
L 956 3381 
Q 981 2806 981 2691 
L 994 2691 
Q 1128 3125 1303 3284 
Q 1478 3444 1797 3444 
Q 1909 3444 2025 3413 
L 2025 2897 
Q 1913 2928 1725 2928 
Q 1375 2928 1190 2626 
Q 1006 2325 1006 1763 
L 1006 0 
L 444 0 
z
" transform="scale(0.015625)"/>
        <path id="LiberationSans-70" d="M 3291 1706 
Q 3291 -63 2047 -63 
Q 1266 -63 997 525 
L 981 525 
Q 994 500 994 -6 
L 994 -1328 
L 431 -1328 
L 431 2691 
Q 431 3213 413 3381 
L 956 3381 
Q 959 3369 965 3292 
Q 972 3216 980 3056 
Q 988 2897 988 2838 
L 1000 2838 
Q 1150 3150 1397 3295 
Q 1644 3441 2047 3441 
Q 2672 3441 2981 3022 
Q 3291 2603 3291 1706 
z
M 2700 1694 
Q 2700 2400 2509 2703 
Q 2319 3006 1903 3006 
Q 1569 3006 1380 2865 
Q 1191 2725 1092 2426 
Q 994 2128 994 1650 
Q 994 984 1206 668 
Q 1419 353 1897 353 
Q 2316 353 2508 661 
Q 2700 969 2700 1694 
z
" transform="scale(0.015625)"/>
       </defs>
       <use xlink:href="#LiberationSans-43"/>
       <use xlink:href="#LiberationSans-6f" x="72.216797"/>
       <use xlink:href="#LiberationSans-66" x="127.832031"/>
       <use xlink:href="#LiberationSans-66" x="153.865234"/>
       <use xlink:href="#LiberationSans-65" x="181.648438"/>
       <use xlink:href="#LiberationSans-65" x="237.263672"/>
       <use xlink:href="#LiberationSans-53" x="292.878906"/>
       <use xlink:href="#LiberationSans-63" x="359.578125"/>
       <use xlink:href="#LiberationSans-72" x="409.578125"/>
       <use xlink:href="#LiberationSans-69" x="442.878906"/>
       <use xlink:href="#LiberationSans-70" x="465.095703"/>
       <use xlink:href="#LiberationSans-74" x="520.710938"/>
      </g>
     </g>
    </g>
    <g id="ytick_3">
     <g id="line2d_23">
      <path d="M 74.615625 389.901176 
L 431.735625 389.901176 
" clip-path="url(#p32362e940f)" style="fill: none; stroke: #2a3459; stroke-width: 0.8; stroke-linecap: round"/>
     </g>
     <g id="line2d_24"/>
     <g id="text_12">
      <!-- Assembly -->
      <g style="fill: #e6e6e6" transform="translate(27.771875 393.524614) scale(0.1 -0.1)">
       <defs>
        <path id="LiberationSans-41" d="M 3647 0 
L 3144 1288 
L 1138 1288 
L 631 0 
L 13 0 
L 1809 4403 
L 2488 4403 
L 4256 0 
L 3647 0 
z
M 2141 3953 
L 2113 3866 
Q 2034 3606 1881 3200 
L 1319 1753 
L 2966 1753 
L 2400 3206 
Q 2313 3422 2225 3694 
L 2141 3953 
z
" transform="scale(0.015625)"/>
        <path id="LiberationSans-73" d="M 2969 934 
Q 2969 456 2608 196 
Q 2247 -63 1597 -63 
Q 966 -63 623 145 
Q 281 353 178 794 
L 675 891 
Q 747 619 972 492 
Q 1197 366 1597 366 
Q 2025 366 2223 497 
Q 2422 628 2422 891 
Q 2422 1091 2284 1216 
Q 2147 1341 1841 1422 
L 1438 1528 
Q 953 1653 748 1773 
Q 544 1894 428 2066 
Q 313 2238 313 2488 
Q 313 2950 642 3192 
Q 972 3434 1603 3434 
Q 2163 3434 2492 3237 
Q 2822 3041 2909 2606 
L 2403 2544 
Q 2356 2769 2151 2889 
Q 1947 3009 1603 3009 
Q 1222 3009 1040 2893 
Q 859 2778 859 2544 
Q 859 2400 934 2306 
Q 1009 2213 1156 2147 
Q 1303 2081 1775 1966 
Q 2222 1853 2419 1758 
Q 2616 1663 2730 1547 
Q 2844 1431 2906 1279 
Q 2969 1128 2969 934 
z
" transform="scale(0.015625)"/>
        <path id="LiberationSans-6d" d="M 2400 0 
L 2400 2144 
Q 2400 2634 2265 2821 
Q 2131 3009 1781 3009 
Q 1422 3009 1212 2734 
Q 1003 2459 1003 1959 
L 1003 0 
L 444 0 
L 444 2659 
Q 444 3250 425 3381 
L 956 3381 
Q 959 3366 962 3297 
Q 966 3228 970 3139 
Q 975 3050 981 2803 
L 991 2803 
Q 1172 3163 1406 3303 
Q 1641 3444 1978 3444 
Q 2363 3444 2586 3291 
Q 2809 3138 2897 2803 
L 2906 2803 
Q 3081 3144 3329 3294 
Q 3578 3444 3931 3444 
Q 4444 3444 4676 3166 
Q 4909 2888 4909 2253 
L 4909 0 
L 4353 0 
L 4353 2144 
Q 4353 2634 4218 2821 
Q 4084 3009 3734 3009 
Q 3366 3009 3161 2736 
Q 2956 2463 2956 1959 
L 2956 0 
L 2400 0 
z
" transform="scale(0.015625)"/>
        <path id="LiberationSans-6c" d="M 431 0 
L 431 4638 
L 994 4638 
L 994 0 
L 431 0 
z
" transform="scale(0.015625)"/>
        <path id="LiberationSans-79" d="M 597 -1328 
Q 366 -1328 209 -1294 
L 209 -872 
Q 328 -891 472 -891 
Q 997 -891 1303 -119 
L 1356 16 
L 16 3381 
L 616 3381 
L 1328 1513 
Q 1344 1469 1366 1408 
Q 1388 1347 1506 1000 
Q 1625 653 1634 613 
L 1853 1228 
L 2594 3381 
L 3188 3381 
L 1888 0 
Q 1678 -541 1497 -805 
Q 1316 -1069 1095 -1198 
Q 875 -1328 597 -1328 
z
" transform="scale(0.015625)"/>
       </defs>
       <use xlink:href="#LiberationSans-41"/>
       <use xlink:href="#LiberationSans-73" x="66.699219"/>
       <use xlink:href="#LiberationSans-73" x="116.699219"/>
       <use xlink:href="#LiberationSans-65" x="166.699219"/>
       <use xlink:href="#LiberationSans-6d" x="222.314453"/>
       <use xlink:href="#LiberationSans-62" x="305.615234"/>
       <use xlink:href="#LiberationSans-6c" x="361.230469"/>
       <use xlink:href="#LiberationSans-79" x="383.447266"/>
      </g>
     </g>
    </g>
    <g id="ytick_4">
     <g id="line2d_25">
      <path d="M 74.615625 372.96 
L 431.735625 372.96 
" clip-path="url(#p32362e940f)" style="fill: none; stroke: #2a3459; stroke-width: 0.8; stroke-linecap: round"/>
     </g>
     <g id="line2d_26"/>
     <g id="text_13">
      <!-- Objective-C -->
      <g style="fill: #e6e6e6" transform="translate(18.88125 376.583437) scale(0.1 -0.1)">
       <use xlink:href="#LiberationSans-4f"/>
       <use xlink:href="#LiberationSans-62" x="77.783203"/>
       <use xlink:href="#LiberationSans-6a" x="133.398438"/>
       <use xlink:href="#LiberationSans-65" x="155.615234"/>
       <use xlink:href="#LiberationSans-63" x="211.230469"/>
       <use xlink:href="#LiberationSans-74" x="261.230469"/>
       <use xlink:href="#LiberationSans-69" x="289.013672"/>
       <use xlink:href="#LiberationSans-76" x="311.230469"/>
       <use xlink:href="#LiberationSans-65" x="361.230469"/>
       <use xlink:href="#LiberationSans-2d" x="416.845703"/>
       <use xlink:href="#LiberationSans-43" x="450.146484"/>
      </g>
     </g>
    </g>
    <g id="ytick_5">
     <g id="line2d_27">
      <path d="M 74.615625 356.018824 
L 431.735625 356.018824 
" clip-path="url(#p32362e940f)" style="fill: none; stroke: #2a3459; stroke-width: 0.8; stroke-linecap: round"/>
     </g>
     <g id="line2d_28"/>
     <g id="text_14">
      <!-- Clojure -->
      <g style="fill: #e6e6e6" transform="translate(39.4375 359.642261) scale(0.1 -0.1)">
       <defs>
        <path id="LiberationSans-75" d="M 981 3381 
L 981 1238 
Q 981 903 1047 718 
Q 1113 534 1256 453 
Q 1400 372 1678 372 
Q 2084 372 2318 650 
Q 2553 928 2553 1422 
L 2553 3381 
L 3116 3381 
L 3116 722 
Q 3116 131 3134 0 
L 2603 0 
Q 2600 16 2597 84 
Q 2594 153 2589 242 
Q 2584 331 2578 578 
L 2569 578 
Q 2375 228 2120 82 
Q 1866 -63 1488 -63 
Q 931 -63 673 214 
Q 416 491 416 1128 
L 416 3381 
L 981 3381 
z
" transform="scale(0.015625)"/>
       </defs>
       <use xlink:href="#LiberationSans-43"/>
       <use xlink:href="#LiberationSans-6c" x="72.216797"/>
       <use xlink:href="#LiberationSans-6f" x="94.433594"/>
       <use xlink:href="#LiberationSans-6a" x="150.048828"/>
       <use xlink:href="#LiberationSans-75" x="172.265625"/>
       <use xlink:href="#LiberationSans-72" x="227.880859"/>
       <use xlink:href="#LiberationSans-65" x="261.181641"/>
      </g>
     </g>
    </g>
    <g id="ytick_6">
     <g id="line2d_29">
      <path d="M 74.615625 339.077647 
L 431.735625 339.077647 
" clip-path="url(#p32362e940f)" style="fill: none; stroke: #2a3459; stroke-width: 0.8; stroke-linecap: round"/>
     </g>
     <g id="line2d_30"/>
     <g id="text_15">
      <!-- Perl -->
      <g style="fill: #e6e6e6" transform="translate(53.332813 342.701085) scale(0.1 -0.1)">
       <defs>
        <path id="LiberationSans-50" d="M 3931 3078 
Q 3931 2453 3523 2084 
Q 3116 1716 2416 1716 
L 1122 1716 
L 1122 0 
L 525 0 
L 525 4403 
L 2378 4403 
Q 3119 4403 3525 4056 
Q 3931 3709 3931 3078 
z
M 3331 3072 
Q 3331 3925 2306 3925 
L 1122 3925 
L 1122 2188 
L 2331 2188 
Q 3331 2188 3331 3072 
z
" transform="scale(0.015625)"/>
       </defs>
       <use xlink:href="#LiberationSans-50"/>
       <use xlink:href="#LiberationSans-65" x="66.699219"/>
       <use xlink:href="#LiberationSans-72" x="122.314453"/>
       <use xlink:href="#LiberationSans-6c" x="155.615234"/>
      </g>
     </g>
    </g>
    <g id="ytick_7">
     <g id="line2d_31">
      <path d="M 74.615625 322.136471 
L 431.735625 322.136471 
" clip-path="url(#p32362e940f)" style="fill: none; stroke: #2a3459; stroke-width: 0.8; stroke-linecap: round"/>
     </g>
     <g id="line2d_32"/>
     <g id="text_16">
      <!-- Ruby -->
      <g style="fill: #e6e6e6" transform="translate(47.771875 325.759908) scale(0.1 -0.1)">
       <defs>
        <path id="LiberationSans-52" d="M 3638 0 
L 2494 1828 
L 1122 1828 
L 1122 0 
L 525 0 
L 525 4403 
L 2597 4403 
Q 3341 4403 3745 4070 
Q 4150 3738 4150 3144 
Q 4150 2653 3864 2318 
Q 3578 1984 3075 1897 
L 4325 0 
L 3638 0 
z
M 3550 3138 
Q 3550 3522 3289 3723 
Q 3028 3925 2538 3925 
L 1122 3925 
L 1122 2300 
L 2563 2300 
Q 3034 2300 3292 2520 
Q 3550 2741 3550 3138 
z
" transform="scale(0.015625)"/>
       </defs>
       <use xlink:href="#LiberationSans-52"/>
       <use xlink:href="#LiberationSans-75" x="72.216797"/>
       <use xlink:href="#LiberationSans-62" x="127.832031"/>
       <use xlink:href="#LiberationSans-79" x="183.447266"/>
      </g>
     </g>
    </g>
    <g id="ytick_8">
     <g id="line2d_33">
      <path d="M 74.615625 305.195294 
L 431.735625 305.195294 
" clip-path="url(#p32362e940f)" style="fill: none; stroke: #2a3459; stroke-width: 0.8; stroke-linecap: round"/>
     </g>
     <g id="line2d_34"/>
     <g id="text_17">
      <!-- Erlang -->
      <g style="fill: #e6e6e6" transform="translate(42.210938 308.818732) scale(0.1 -0.1)">
       <defs>
        <path id="LiberationSans-45" d="M 525 0 
L 525 4403 
L 3866 4403 
L 3866 3916 
L 1122 3916 
L 1122 2503 
L 3678 2503 
L 3678 2022 
L 1122 2022 
L 1122 488 
L 3994 488 
L 3994 0 
L 525 0 
z
" transform="scale(0.015625)"/>
        <path id="LiberationSans-61" d="M 1294 -63 
Q 784 -63 528 206 
Q 272 475 272 944 
Q 272 1469 617 1750 
Q 963 2031 1731 2050 
L 2491 2063 
L 2491 2247 
Q 2491 2659 2316 2837 
Q 2141 3016 1766 3016 
Q 1388 3016 1216 2887 
Q 1044 2759 1009 2478 
L 422 2531 
Q 566 3444 1778 3444 
Q 2416 3444 2737 3151 
Q 3059 2859 3059 2306 
L 3059 850 
Q 3059 600 3125 473 
Q 3191 347 3375 347 
Q 3456 347 3559 369 
L 3559 19 
Q 3347 -31 3125 -31 
Q 2813 -31 2670 133 
Q 2528 297 2509 647 
L 2491 647 
Q 2275 259 1989 98 
Q 1703 -63 1294 -63 
z
M 1422 359 
Q 1731 359 1972 500 
Q 2213 641 2352 886 
Q 2491 1131 2491 1391 
L 2491 1669 
L 1875 1656 
Q 1478 1650 1273 1575 
Q 1069 1500 959 1344 
Q 850 1188 850 934 
Q 850 659 998 509 
Q 1147 359 1422 359 
z
" transform="scale(0.015625)"/>
        <path id="LiberationSans-6e" d="M 2578 0 
L 2578 2144 
Q 2578 2478 2512 2662 
Q 2447 2847 2303 2928 
Q 2159 3009 1881 3009 
Q 1475 3009 1240 2731 
Q 1006 2453 1006 1959 
L 1006 0 
L 444 0 
L 444 2659 
Q 444 3250 425 3381 
L 956 3381 
Q 959 3366 962 3297 
Q 966 3228 970 3139 
Q 975 3050 981 2803 
L 991 2803 
Q 1184 3153 1439 3298 
Q 1694 3444 2072 3444 
Q 2628 3444 2886 3167 
Q 3144 2891 3144 2253 
L 3144 0 
L 2578 0 
z
" transform="scale(0.015625)"/>
        <path id="LiberationSans-67" d="M 1713 -1328 
Q 1159 -1328 831 -1111 
Q 503 -894 409 -494 
L 975 -413 
Q 1031 -647 1223 -773 
Q 1416 -900 1728 -900 
Q 2569 -900 2569 84 
L 2569 628 
L 2563 628 
Q 2403 303 2125 139 
Q 1847 -25 1475 -25 
Q 853 -25 561 387 
Q 269 800 269 1684 
Q 269 2581 583 3007 
Q 897 3434 1538 3434 
Q 1897 3434 2161 3270 
Q 2425 3106 2569 2803 
L 2575 2803 
Q 2575 2897 2587 3128 
Q 2600 3359 2613 3381 
L 3147 3381 
Q 3128 3213 3128 2681 
L 3128 97 
Q 3128 -1328 1713 -1328 
z
M 2569 1691 
Q 2569 2103 2456 2401 
Q 2344 2700 2139 2858 
Q 1934 3016 1675 3016 
Q 1244 3016 1047 2703 
Q 850 2391 850 1691 
Q 850 997 1034 694 
Q 1219 391 1666 391 
Q 1931 391 2137 547 
Q 2344 703 2456 995 
Q 2569 1288 2569 1691 
z
" transform="scale(0.015625)"/>
       </defs>
       <use xlink:href="#LiberationSans-45"/>
       <use xlink:href="#LiberationSans-72" x="66.699219"/>
       <use xlink:href="#LiberationSans-6c" x="100"/>
       <use xlink:href="#LiberationSans-61" x="122.216797"/>
       <use xlink:href="#LiberationSans-6e" x="177.832031"/>
       <use xlink:href="#LiberationSans-67" x="233.447266"/>
      </g>
     </g>
    </g>
    <g id="ytick_9">
     <g id="line2d_35">
      <path d="M 74.615625 288.254118 
L 431.735625 288.254118 
" clip-path="url(#p32362e940f)" style="fill: none; stroke: #2a3459; stroke-width: 0.8; stroke-linecap: round"/>
     </g>
     <g id="line2d_36"/>
     <g id="text_18">
      <!-- R -->
      <g style="fill: #e6e6e6" transform="translate(63.89375 291.877555) scale(0.1 -0.1)">
       <use xlink:href="#LiberationSans-52"/>
      </g>
     </g>
    </g>
    <g id="ytick_10">
     <g id="line2d_37">
      <path d="M 74.615625 271.312941 
L 431.735625 271.312941 
" clip-path="url(#p32362e940f)" style="fill: none; stroke: #2a3459; stroke-width: 0.8; stroke-linecap: round"/>
     </g>
     <g id="line2d_38"/>
     <g id="text_19">
      <!-- Haskell -->
      <g style="fill: #e6e6e6" transform="translate(38.328125 274.936379) scale(0.1 -0.1)">
       <defs>
        <path id="LiberationSans-48" d="M 3503 0 
L 3503 2041 
L 1122 2041 
L 1122 0 
L 525 0 
L 525 4403 
L 1122 4403 
L 1122 2541 
L 3503 2541 
L 3503 4403 
L 4100 4403 
L 4100 0 
L 3503 0 
z
" transform="scale(0.015625)"/>
        <path id="LiberationSans-6b" d="M 2550 0 
L 1406 1544 
L 994 1203 
L 994 0 
L 431 0 
L 431 4638 
L 994 4638 
L 994 1741 
L 2478 3381 
L 3138 3381 
L 1766 1928 
L 3209 0 
L 2550 0 
z
" transform="scale(0.015625)"/>
       </defs>
       <use xlink:href="#LiberationSans-48"/>
       <use xlink:href="#LiberationSans-61" x="72.216797"/>
       <use xlink:href="#LiberationSans-73" x="127.832031"/>
       <use xlink:href="#LiberationSans-6b" x="177.832031"/>
       <use xlink:href="#LiberationSans-65" x="227.832031"/>
       <use xlink:href="#LiberationSans-6c" x="283.447266"/>
       <use xlink:href="#LiberationSans-6c" x="305.664062"/>
      </g>
     </g>
    </g>
    <g id="ytick_11">
     <g id="line2d_39">
      <path d="M 74.615625 254.371765 
L 431.735625 254.371765 
" clip-path="url(#p32362e940f)" style="fill: none; stroke: #2a3459; stroke-width: 0.8; stroke-linecap: round"/>
     </g>
     <g id="line2d_40"/>
     <g id="text_20">
      <!-- JavaScript -->
      <g style="fill: #e6e6e6" transform="translate(24.432813 257.995202) scale(0.1 -0.1)">
       <defs>
        <path id="LiberationSans-4a" d="M 1428 -63 
Q 309 -63 100 1094 
L 684 1191 
Q 741 828 937 625 
Q 1134 422 1431 422 
Q 1756 422 1943 645 
Q 2131 869 2131 1300 
L 2131 3916 
L 1284 3916 
L 1284 4403 
L 2725 4403 
L 2725 1313 
Q 2725 672 2378 304 
Q 2031 -63 1428 -63 
z
" transform="scale(0.015625)"/>
       </defs>
       <use xlink:href="#LiberationSans-4a"/>
       <use xlink:href="#LiberationSans-61" x="50"/>
       <use xlink:href="#LiberationSans-76" x="105.615234"/>
       <use xlink:href="#LiberationSans-61" x="155.615234"/>
       <use xlink:href="#LiberationSans-53" x="211.230469"/>
       <use xlink:href="#LiberationSans-63" x="277.929688"/>
       <use xlink:href="#LiberationSans-72" x="327.929688"/>
       <use xlink:href="#LiberationSans-69" x="361.230469"/>
       <use xlink:href="#LiberationSans-70" x="383.447266"/>
       <use xlink:href="#LiberationSans-74" x="439.0625"/>
      </g>
     </g>
    </g>
    <g id="ytick_12">
     <g id="line2d_41">
      <path d="M 74.615625 237.430588 
L 431.735625 237.430588 
" clip-path="url(#p32362e940f)" style="fill: none; stroke: #2a3459; stroke-width: 0.8; stroke-linecap: round"/>
     </g>
     <g id="line2d_42"/>
     <g id="text_21">
      <!-- Lua -->
      <g style="fill: #e6e6e6" transform="translate(54.432813 241.054026) scale(0.1 -0.1)">
       <defs>
        <path id="LiberationSans-4c" d="M 525 0 
L 525 4403 
L 1122 4403 
L 1122 488 
L 3347 488 
L 3347 0 
L 525 0 
z
" transform="scale(0.015625)"/>
       </defs>
       <use xlink:href="#LiberationSans-4c"/>
       <use xlink:href="#LiberationSans-75" x="55.615234"/>
       <use xlink:href="#LiberationSans-61" x="111.230469"/>
      </g>
     </g>
    </g>
    <g id="ytick_13">
     <g id="line2d_43">
      <path d="M 74.615625 220.489412 
L 431.735625 220.489412 
" clip-path="url(#p32362e940f)" style="fill: none; stroke: #2a3459; stroke-width: 0.8; stroke-linecap: round"/>
     </g>
     <g id="line2d_44"/>
     <g id="text_22">
      <!-- Scala -->
      <g style="fill: #e6e6e6" transform="translate(46.101563 224.112849) scale(0.1 -0.1)">
       <use xlink:href="#LiberationSans-53"/>
       <use xlink:href="#LiberationSans-63" x="66.699219"/>
       <use xlink:href="#LiberationSans-61" x="116.699219"/>
       <use xlink:href="#LiberationSans-6c" x="172.314453"/>
       <use xlink:href="#LiberationSans-61" x="194.53125"/>
      </g>
     </g>
    </g>
    <g id="ytick_14">
     <g id="line2d_45">
      <path d="M 74.615625 203.548235 
L 431.735625 203.548235 
" clip-path="url(#p32362e940f)" style="fill: none; stroke: #2a3459; stroke-width: 0.8; stroke-linecap: round"/>
     </g>
     <g id="line2d_46"/>
     <g id="text_23">
      <!-- PHP -->
      <g style="fill: #e6e6e6" transform="translate(50.553125 207.171673) scale(0.1 -0.1)">
       <use xlink:href="#LiberationSans-50"/>
       <use xlink:href="#LiberationSans-48" x="66.699219"/>
       <use xlink:href="#LiberationSans-50" x="138.916016"/>
      </g>
     </g>
    </g>
    <g id="ytick_15">
     <g id="line2d_47">
      <path d="M 74.615625 186.607059 
L 431.735625 186.607059 
" clip-path="url(#p32362e940f)" style="fill: none; stroke: #2a3459; stroke-width: 0.8; stroke-linecap: round"/>
     </g>
     <g id="line2d_48"/>
     <g id="text_24">
      <!-- C -->
      <g style="fill: #e6e6e6" transform="translate(63.89375 190.230496) scale(0.1 -0.1)">
       <use xlink:href="#LiberationSans-43"/>
      </g>
     </g>
    </g>
    <g id="ytick_16">
     <g id="line2d_49">
      <path d="M 74.615625 169.665882 
L 431.735625 169.665882 
" clip-path="url(#p32362e940f)" style="fill: none; stroke: #2a3459; stroke-width: 0.8; stroke-linecap: round"/>
     </g>
     <g id="line2d_50"/>
     <g id="text_25">
      <!-- Swift -->
      <g style="fill: #e6e6e6" transform="translate(49.445313 173.28932) scale(0.1 -0.1)">
       <defs>
        <path id="LiberationSans-77" d="M 3669 0 
L 3016 0 
L 2425 2391 
L 2313 2919 
Q 2284 2778 2225 2514 
Q 2166 2250 1588 0 
L 938 0 
L -9 3381 
L 547 3381 
L 1119 1084 
Q 1141 1009 1253 466 
L 1306 697 
L 2013 3381 
L 2616 3381 
L 3206 1059 
L 3350 466 
L 3447 900 
L 4088 3381 
L 4638 3381 
L 3669 0 
z
" transform="scale(0.015625)"/>
       </defs>
       <use xlink:href="#LiberationSans-53"/>
       <use xlink:href="#LiberationSans-77" x="66.699219"/>
       <use xlink:href="#LiberationSans-69" x="138.916016"/>
       <use xlink:href="#LiberationSans-66" x="161.132812"/>
       <use xlink:href="#LiberationSans-74" x="188.916016"/>
      </g>
     </g>
    </g>
    <g id="ytick_17">
     <g id="line2d_51">
      <path d="M 74.615625 152.724706 
L 431.735625 152.724706 
" clip-path="url(#p32362e940f)" style="fill: none; stroke: #2a3459; stroke-width: 0.8; stroke-linecap: round"/>
     </g>
     <g id="line2d_52"/>
     <g id="text_26">
      <!-- Java -->
      <g style="fill: #e6e6e6" transform="translate(49.99375 156.348143) scale(0.1 -0.1)">
       <use xlink:href="#LiberationSans-4a"/>
       <use xlink:href="#LiberationSans-61" x="50"/>
       <use xlink:href="#LiberationSans-76" x="105.615234"/>
       <use xlink:href="#LiberationSans-61" x="155.615234"/>
      </g>
     </g>
    </g>
    <g id="ytick_18">
     <g id="line2d_53">
      <path d="M 74.615625 135.783529 
L 431.735625 135.783529 
" clip-path="url(#p32362e940f)" style="fill: none; stroke: #2a3459; stroke-width: 0.8; stroke-linecap: round"/>
     </g>
     <g id="line2d_54"/>
     <g id="text_27">
      <!-- Python -->
      <g style="fill: #e6e6e6" transform="translate(39.984375 139.406967) scale(0.1 -0.1)">
       <defs>
        <path id="LiberationSans-68" d="M 991 2803 
Q 1172 3134 1426 3289 
Q 1681 3444 2072 3444 
Q 2622 3444 2883 3170 
Q 3144 2897 3144 2253 
L 3144 0 
L 2578 0 
L 2578 2144 
Q 2578 2500 2512 2673 
Q 2447 2847 2297 2928 
Q 2147 3009 1881 3009 
Q 1484 3009 1245 2734 
Q 1006 2459 1006 1994 
L 1006 0 
L 444 0 
L 444 4638 
L 1006 4638 
L 1006 3431 
Q 1006 3241 995 3037 
Q 984 2834 981 2803 
L 991 2803 
z
" transform="scale(0.015625)"/>
       </defs>
       <use xlink:href="#LiberationSans-50"/>
       <use xlink:href="#LiberationSans-79" x="66.699219"/>
       <use xlink:href="#LiberationSans-74" x="116.699219"/>
       <use xlink:href="#LiberationSans-68" x="144.482422"/>
       <use xlink:href="#LiberationSans-6f" x="200.097656"/>
       <use xlink:href="#LiberationSans-6e" x="255.712891"/>
      </g>
     </g>
    </g>
    <g id="ytick_19">
     <g id="line2d_55">
      <path d="M 74.615625 118.842353 
L 431.735625 118.842353 
" clip-path="url(#p32362e940f)" style="fill: none; stroke: #2a3459; stroke-width: 0.8; stroke-linecap: round"/>
     </g>
     <g id="line2d_56"/>
     <g id="text_28">
      <!-- C# -->
      <g style="fill: #e6e6e6" transform="translate(58.332813 122.46579) scale(0.1 -0.1)">
       <defs>
        <path id="LiberationSans-23" d="M 2800 2766 
L 2556 1613 
L 3369 1613 
L 3369 1275 
L 2484 1275 
L 2209 0 
L 1866 0 
L 2134 1275 
L 1000 1275 
L 738 0 
L 394 0 
L 656 1275 
L 28 1275 
L 28 1613 
L 731 1613 
L 975 2766 
L 188 2766 
L 188 3103 
L 1044 3103 
L 1322 4378 
L 1666 4378 
L 1391 3103 
L 2525 3103 
L 2800 4378 
L 3144 4378 
L 2869 3103 
L 3528 3103 
L 3528 2766 
L 2800 2766 
z
M 1328 2766 
L 1078 1613 
L 2209 1613 
L 2453 2766 
L 1328 2766 
z
" transform="scale(0.015625)"/>
       </defs>
       <use xlink:href="#LiberationSans-43"/>
       <use xlink:href="#LiberationSans-23" x="72.216797"/>
      </g>
     </g>
    </g>
    <g id="ytick_20">
     <g id="line2d_57">
      <path d="M 74.615625 101.901176 
L 431.735625 101.901176 
" clip-path="url(#p32362e940f)" style="fill: none; stroke: #2a3459; stroke-width: 0.8; stroke-linecap: round"/>
     </g>
     <g id="line2d_58"/>
     <g id="text_29">
      <!-- C++ -->
      <g style="fill: #e6e6e6" transform="translate(52.2125 105.524614) scale(0.1 -0.1)">
       <use xlink:href="#LiberationSans-43"/>
       <use xlink:href="#LiberationSans-2b" x="72.216797"/>
       <use xlink:href="#LiberationSans-2b" x="130.615234"/>
      </g>
     </g>
    </g>
    <g id="ytick_21">
     <g id="line2d_59">
      <path d="M 74.615625 84.96 
L 431.735625 84.96 
" clip-path="url(#p32362e940f)" style="fill: none; stroke: #2a3459; stroke-width: 0.8; stroke-linecap: round"/>
     </g>
     <g id="line2d_60"/>
     <g id="text_30">
      <!-- OCaml -->
      <g style="fill: #e6e6e6" transform="translate(40.003125 88.583438) scale(0.1 -0.1)">
       <use xlink:href="#LiberationSans-4f"/>
       <use xlink:href="#LiberationSans-43" x="77.783203"/>
       <use xlink:href="#LiberationSans-61" x="150"/>
       <use xlink:href="#LiberationSans-6d" x="205.615234"/>
       <use xlink:href="#LiberationSans-6c" x="288.916016"/>
      </g>
     </g>
    </g>
    <g id="ytick_22">
     <g id="line2d_61">
      <path d="M 74.615625 68.018824 
L 431.735625 68.018824 
" clip-path="url(#p32362e940f)" style="fill: none; stroke: #2a3459; stroke-width: 0.8; stroke-linecap: round"/>
     </g>
     <g id="line2d_62"/>
     <g id="text_31">
      <!-- Rust -->
      <g style="fill: #e6e6e6" transform="translate(50.554688 71.642261) scale(0.1 -0.1)">
       <use xlink:href="#LiberationSans-52"/>
       <use xlink:href="#LiberationSans-75" x="72.216797"/>
       <use xlink:href="#LiberationSans-73" x="127.832031"/>
       <use xlink:href="#LiberationSans-74" x="177.832031"/>
      </g>
     </g>
    </g>
    <g id="ytick_23">
     <g id="line2d_63">
      <path d="M 74.615625 51.077647 
L 431.735625 51.077647 
" clip-path="url(#p32362e940f)" style="fill: none; stroke: #2a3459; stroke-width: 0.8; stroke-linecap: round"/>
     </g>
     <g id="line2d_64"/>
     <g id="text_32">
      <!-- Go -->
      <g style="fill: #e6e6e6" transform="translate(57.776563 54.701085) scale(0.1 -0.1)">
       <defs>
        <path id="LiberationSans-47" d="M 322 2222 
Q 322 3294 897 3881 
Q 1472 4469 2513 4469 
Q 3244 4469 3700 4222 
Q 4156 3975 4403 3431 
L 3834 3263 
Q 3647 3638 3317 3809 
Q 2988 3981 2497 3981 
Q 1734 3981 1331 3520 
Q 928 3059 928 2222 
Q 928 1388 1356 905 
Q 1784 422 2541 422 
Q 2972 422 3345 553 
Q 3719 684 3950 909 
L 3950 1703 
L 2634 1703 
L 2634 2203 
L 4500 2203 
L 4500 684 
Q 4150 328 3642 132 
Q 3134 -63 2541 -63 
Q 1850 -63 1350 212 
Q 850 488 586 1005 
Q 322 1522 322 2222 
z
" transform="scale(0.015625)"/>
       </defs>
       <use xlink:href="#LiberationSans-47"/>
       <use xlink:href="#LiberationSans-6f" x="77.783203"/>
      </g>
     </g>
    </g>
    <g id="ytick_24">
     <g id="line2d_65">
      <path d="M 74.615625 34.136471 
L 431.735625 34.136471 
" clip-path="url(#p32362e940f)" style="fill: none; stroke: #2a3459; stroke-width: 0.8; stroke-linecap: round"/>
     </g>
     <g id="line2d_66"/>
     <g id="text_33">
      <!-- TypeScript -->
      <g style="fill: #e6e6e6" transform="translate(23.875 37.759908) scale(0.1 -0.1)">
       <defs>
        <path id="LiberationSans-54" d="M 2250 3916 
L 2250 0 
L 1656 0 
L 1656 3916 
L 144 3916 
L 144 4403 
L 3763 4403 
L 3763 3916 
L 2250 3916 
z
" transform="scale(0.015625)"/>
       </defs>
       <use xlink:href="#LiberationSans-54"/>
       <use xlink:href="#LiberationSans-79" x="55.583984"/>
       <use xlink:href="#LiberationSans-70" x="105.583984"/>
       <use xlink:href="#LiberationSans-65" x="161.199219"/>
       <use xlink:href="#LiberationSans-53" x="216.814453"/>
       <use xlink:href="#LiberationSans-63" x="283.513672"/>
       <use xlink:href="#LiberationSans-72" x="333.513672"/>
       <use xlink:href="#LiberationSans-69" x="366.814453"/>
       <use xlink:href="#LiberationSans-70" x="389.03125"/>
       <use xlink:href="#LiberationSans-74" x="444.646484"/>
      </g>
     </g>
    </g>
   </g>
   <g id="patch_3">
    <path d="M 74.615625 430.56 
L 74.615625 430.56 
L 74.615625 417.007059 
L 74.615625 417.007059 
z
" clip-path="url(#p32362e940f)" style="fill: #18c0c4"/>
   </g>
   <g id="patch_4">
    <path d="M 74.615625 413.618824 
L 75.815744 413.618824 
L 75.815744 400.065882 
L 74.615625 400.065882 
z
" clip-path="url(#p32362e940f)" style="fill: #18c0c4"/>
   </g>
   <g id="patch_5">
    <path d="M 74.615625 396.677647 
L 76.430525 396.677647 
L 76.430525 383.124706 
L 74.615625 383.124706 
z
" clip-path="url(#p32362e940f)" style="fill: #18c0c4"/>
   </g>
   <g id="patch_6">
    <path d="M 74.615625 379.736471 
L 78.660911 379.736471 
L 78.660911 366.183529 
L 74.615625 366.183529 
z
" clip-path="url(#p32362e940f)" style="fill: #18c0c4"/>
   </g>
   <g id="patch_7">
    <path d="M 74.615625 362.795294 
L 78.674549 362.795294 
L 78.674549 349.242353 
L 74.615625 349.242353 
z
" clip-path="url(#p32362e940f)" style="fill: #18c0c4"/>
   </g>
   <g id="patch_8">
    <path d="M 74.615625 345.854118 
L 80.984985 345.854118 
L 80.984985 332.301176 
L 74.615625 332.301176 
z
" clip-path="url(#p32362e940f)" style="fill: #18c0c4"/>
   </g>
   <g id="patch_9">
    <path d="M 74.615625 328.912941 
L 82.995569 328.912941 
L 82.995569 315.36 
L 74.615625 315.36 
z
" clip-path="url(#p32362e940f)" style="fill: #18c0c4"/>
   </g>
   <g id="patch_10">
    <path d="M 74.615625 311.971765 
L 84.21395 311.971765 
L 84.21395 298.418824 
L 74.615625 298.418824 
z
" clip-path="url(#p32362e940f)" style="fill: #18c0c4"/>
   </g>
   <g id="patch_11">
    <path d="M 74.615625 295.030588 
L 85.184645 295.030588 
L 85.184645 281.477647 
L 74.615625 281.477647 
z
" clip-path="url(#p32362e940f)" style="fill: #18c0c4"/>
   </g>
   <g id="patch_12">
    <path d="M 74.615625 278.089412 
L 86.537609 278.089412 
L 86.537609 264.536471 
L 74.615625 264.536471 
z
" clip-path="url(#p32362e940f)" style="fill: #18c0c4"/>
   </g>
   <g id="patch_13">
    <path d="M 74.615625 261.148235 
L 88.783066 261.148235 
L 88.783066 247.595294 
L 74.615625 247.595294 
z
" clip-path="url(#p32362e940f)" style="fill: #18c0c4"/>
   </g>
   <g id="patch_14">
    <path d="M 74.615625 244.207059 
L 96.266992 244.207059 
L 96.266992 230.654118 
L 74.615625 230.654118 
z
" clip-path="url(#p32362e940f)" style="fill: #18c0c4"/>
   </g>
   <g id="patch_15">
    <path d="M 74.615625 227.265882 
L 100.911609 227.265882 
L 100.911609 213.712941 
L 74.615625 213.712941 
z
" clip-path="url(#p32362e940f)" style="fill: #18c0c4"/>
   </g>
   <g id="patch_16">
    <path d="M 74.615625 210.324706 
L 101.933702 210.324706 
L 101.933702 196.771765 
L 74.615625 196.771765 
z
" clip-path="url(#p32362e940f)" style="fill: #18c0c4"/>
   </g>
   <g id="patch_17">
    <path d="M 74.615625 193.383529 
L 102.962302 193.383529 
L 102.962302 179.830588 
L 74.615625 179.830588 
z
" clip-path="url(#p32362e940f)" style="fill: #18c0c4"/>
   </g>
   <g id="patch_18">
    <path d="M 74.615625 176.442353 
L 110.036537 176.442353 
L 110.036537 162.889412 
L 74.615625 162.889412 
z
" clip-path="url(#p32362e940f)" style="fill: #18c0c4"/>
   </g>
   <g id="patch_19">
    <path d="M 74.615625 159.501176 
L 121.902678 159.501176 
L 121.902678 145.948235 
L 74.615625 145.948235 
z
" clip-path="url(#p32362e940f)" style="fill: #18c0c4"/>
   </g>
   <g id="patch_20">
    <path d="M 74.615625 142.56 
L 122.868359 142.56 
L 122.868359 129.007059 
L 74.615625 129.007059 
z
" clip-path="url(#p32362e940f)" style="fill: #18c0c4"/>
   </g>
   <g id="patch_21">
    <path d="M 74.615625 125.618824 
L 128.419436 125.618824 
L 128.419436 112.065882 
L 74.615625 112.065882 
z
" clip-path="url(#p32362e940f)" style="fill: #18c0c4"/>
   </g>
   <g id="patch_22">
    <path d="M 74.615625 108.677647 
L 138.83319 108.677647 
L 138.83319 95.124706 
L 74.615625 95.124706 
z
" clip-path="url(#p32362e940f)" style="fill: #18c0c4"/>
   </g>
   <g id="patch_23">
    <path d="M 74.615625 91.736471 
L 144.982771 91.736471 
L 144.982771 78.183529 
L 74.615625 78.183529 
z
" clip-path="url(#p32362e940f)" style="fill: #18c0c4"/>
   </g>
   <g id="patch_24">
    <path d="M 74.615625 74.795294 
L 233.096105 74.795294 
L 233.096105 61.242353 
L 74.615625 61.242353 
z
" clip-path="url(#p32362e940f)" style="fill: #18c0c4"/>
   </g>
   <g id="patch_25">
    <path d="M 74.615625 57.854118 
L 241.041627 57.854118 
L 241.041627 44.301176 
L 74.615625 44.301176 
z
" clip-path="url(#p32362e940f)" style="fill: #18c0c4"/>
   </g>
   <g id="patch_26">
    <path d="M 74.615625 40.912941 
L 414.729911 40.912941 
L 414.729911 27.36 
L 74.615625 27.36 
z
" clip-path="url(#p32362e940f)" style="fill: #18c0c4"/>
   </g>
   <g id="patch_27">
    <path d="M 74.615625 450.72 
L 74.615625 7.2 
" style="fill: none"/>
   </g>
   <g id="patch_28">
    <path d="M 431.735625 450.72 
L 431.735625 7.2 
" style="fill: none"/>
   </g>
   <g id="patch_29">
    <path d="M 74.615625 450.72 
L 431.735625 450.72 
" style="fill: none"/>
   </g>
   <g id="patch_30">
    <path d="M 74.615625 7.2 
L 431.735625 7.2 
" style="fill: none"/>
   </g>
   <g id="text_34">
    <!-- 0.00 -->
    <g style="fill: #e6e6e6" transform="translate(76.615625 426.369467) scale(0.1 -0.1)">
     <use xlink:href="#LiberationSans-30"/>
     <use xlink:href="#LiberationSans-2e" x="55.615234"/>
     <use xlink:href="#LiberationSans-30" x="83.398438"/>
     <use xlink:href="#LiberationSans-30" x="139.013672"/>
    </g>
   </g>
   <g id="text_35">
    <!-- 0.00 -->
    <g style="fill: #e6e6e6" transform="translate(77.815744 409.42829) scale(0.1 -0.1)">
     <use xlink:href="#LiberationSans-30"/>
     <use xlink:href="#LiberationSans-2e" x="55.615234"/>
     <use xlink:href="#LiberationSans-30" x="83.398438"/>
     <use xlink:href="#LiberationSans-30" x="139.013672"/>
    </g>
   </g>
   <g id="text_36">
    <!-- 0.00 -->
    <g style="fill: #e6e6e6" transform="translate(78.430525 392.487114) scale(0.1 -0.1)">
     <use xlink:href="#LiberationSans-30"/>
     <use xlink:href="#LiberationSans-2e" x="55.615234"/>
     <use xlink:href="#LiberationSans-30" x="83.398438"/>
     <use xlink:href="#LiberationSans-30" x="139.013672"/>
    </g>
   </g>
   <g id="text_37">
    <!-- 0.01 -->
    <g style="fill: #e6e6e6" transform="translate(80.660911 375.545937) scale(0.1 -0.1)">
     <use xlink:href="#LiberationSans-30"/>
     <use xlink:href="#LiberationSans-2e" x="55.615234"/>
     <use xlink:href="#LiberationSans-30" x="83.398438"/>
     <use xlink:href="#LiberationSans-31" x="139.013672"/>
    </g>
   </g>
   <g id="text_38">
    <!-- 0.01 -->
    <g style="fill: #e6e6e6" transform="translate(80.674549 358.604761) scale(0.1 -0.1)">
     <use xlink:href="#LiberationSans-30"/>
     <use xlink:href="#LiberationSans-2e" x="55.615234"/>
     <use xlink:href="#LiberationSans-30" x="83.398438"/>
     <use xlink:href="#LiberationSans-31" x="139.013672"/>
    </g>
   </g>
   <g id="text_39">
    <!-- 0.02 -->
    <g style="fill: #e6e6e6" transform="translate(82.984985 341.663585) scale(0.1 -0.1)">
     <use xlink:href="#LiberationSans-30"/>
     <use xlink:href="#LiberationSans-2e" x="55.615234"/>
     <use xlink:href="#LiberationSans-30" x="83.398438"/>
     <use xlink:href="#LiberationSans-32" x="139.013672"/>
    </g>
   </g>
   <g id="text_40">
    <!-- 0.02 -->
    <g style="fill: #e6e6e6" transform="translate(84.995569 324.722408) scale(0.1 -0.1)">
     <use xlink:href="#LiberationSans-30"/>
     <use xlink:href="#LiberationSans-2e" x="55.615234"/>
     <use xlink:href="#LiberationSans-30" x="83.398438"/>
     <use xlink:href="#LiberationSans-32" x="139.013672"/>
    </g>
   </g>
   <g id="text_41">
    <!-- 0.02 -->
    <g style="fill: #e6e6e6" transform="translate(86.21395 307.781232) scale(0.1 -0.1)">
     <use xlink:href="#LiberationSans-30"/>
     <use xlink:href="#LiberationSans-2e" x="55.615234"/>
     <use xlink:href="#LiberationSans-30" x="83.398438"/>
     <use xlink:href="#LiberationSans-32" x="139.013672"/>
    </g>
   </g>
   <g id="text_42">
    <!-- 0.03 -->
    <g style="fill: #e6e6e6" transform="translate(87.184645 290.840055) scale(0.1 -0.1)">
     <use xlink:href="#LiberationSans-30"/>
     <use xlink:href="#LiberationSans-2e" x="55.615234"/>
     <use xlink:href="#LiberationSans-30" x="83.398438"/>
     <use xlink:href="#LiberationSans-33" x="139.013672"/>
    </g>
   </g>
   <g id="text_43">
    <!-- 0.03 -->
    <g style="fill: #e6e6e6" transform="translate(88.537609 273.898879) scale(0.1 -0.1)">
     <use xlink:href="#LiberationSans-30"/>
     <use xlink:href="#LiberationSans-2e" x="55.615234"/>
     <use xlink:href="#LiberationSans-30" x="83.398438"/>
     <use xlink:href="#LiberationSans-33" x="139.013672"/>
    </g>
   </g>
   <g id="text_44">
    <!-- 0.03 -->
    <g style="fill: #e6e6e6" transform="translate(90.783066 256.957702) scale(0.1 -0.1)">
     <use xlink:href="#LiberationSans-30"/>
     <use xlink:href="#LiberationSans-2e" x="55.615234"/>
     <use xlink:href="#LiberationSans-30" x="83.398438"/>
     <use xlink:href="#LiberationSans-33" x="139.013672"/>
    </g>
   </g>
   <g id="text_45">
    <!-- 0.05 -->
    <g style="fill: #e6e6e6" transform="translate(98.266992 240.016526) scale(0.1 -0.1)">
     <use xlink:href="#LiberationSans-30"/>
     <use xlink:href="#LiberationSans-2e" x="55.615234"/>
     <use xlink:href="#LiberationSans-30" x="83.398438"/>
     <use xlink:href="#LiberationSans-35" x="139.013672"/>
    </g>
   </g>
   <g id="text_46">
    <!-- 0.06 -->
    <g style="fill: #e6e6e6" transform="translate(102.911609 223.075349) scale(0.1 -0.1)">
     <use xlink:href="#LiberationSans-30"/>
     <use xlink:href="#LiberationSans-2e" x="55.615234"/>
     <use xlink:href="#LiberationSans-30" x="83.398438"/>
     <use xlink:href="#LiberationSans-36" x="139.013672"/>
    </g>
   </g>
   <g id="text_47">
    <!-- 0.06 -->
    <g style="fill: #e6e6e6" transform="translate(103.933702 206.134173) scale(0.1 -0.1)">
     <use xlink:href="#LiberationSans-30"/>
     <use xlink:href="#LiberationSans-2e" x="55.615234"/>
     <use xlink:href="#LiberationSans-30" x="83.398438"/>
     <use xlink:href="#LiberationSans-36" x="139.013672"/>
    </g>
   </g>
   <g id="text_48">
    <!-- 0.07 -->
    <g style="fill: #e6e6e6" transform="translate(104.962302 189.192996) scale(0.1 -0.1)">
     <use xlink:href="#LiberationSans-30"/>
     <use xlink:href="#LiberationSans-2e" x="55.615234"/>
     <use xlink:href="#LiberationSans-30" x="83.398438"/>
     <use xlink:href="#LiberationSans-37" x="139.013672"/>
    </g>
   </g>
   <g id="text_49">
    <!-- 0.08 -->
    <g style="fill: #e6e6e6" transform="translate(112.036537 172.25182) scale(0.1 -0.1)">
     <use xlink:href="#LiberationSans-30"/>
     <use xlink:href="#LiberationSans-2e" x="55.615234"/>
     <use xlink:href="#LiberationSans-30" x="83.398438"/>
     <use xlink:href="#LiberationSans-38" x="139.013672"/>
    </g>
   </g>
   <g id="text_50">
    <!-- 0.11 -->
    <g style="fill: #e6e6e6" transform="translate(123.902678 155.310643) scale(0.1 -0.1)">
     <use xlink:href="#LiberationSans-30"/>
     <use xlink:href="#LiberationSans-2e" x="55.615234"/>
     <use xlink:href="#LiberationSans-31" x="83.398438"/>
     <use xlink:href="#LiberationSans-31" x="131.638672"/>
    </g>
   </g>
   <g id="text_51">
    <!-- 0.11 -->
    <g style="fill: #e6e6e6" transform="translate(124.868359 138.369467) scale(0.1 -0.1)">
     <use xlink:href="#LiberationSans-30"/>
     <use xlink:href="#LiberationSans-2e" x="55.615234"/>
     <use xlink:href="#LiberationSans-31" x="83.398438"/>
     <use xlink:href="#LiberationSans-31" x="131.638672"/>
    </g>
   </g>
   <g id="text_52">
    <!-- 0.13 -->
    <g style="fill: #e6e6e6" transform="translate(130.419436 121.42829) scale(0.1 -0.1)">
     <use xlink:href="#LiberationSans-30"/>
     <use xlink:href="#LiberationSans-2e" x="55.615234"/>
     <use xlink:href="#LiberationSans-31" x="83.398438"/>
     <use xlink:href="#LiberationSans-33" x="139.013672"/>
    </g>
   </g>
   <g id="text_53">
    <!-- 0.15 -->
    <g style="fill: #e6e6e6" transform="translate(140.83319 104.487114) scale(0.1 -0.1)">
     <use xlink:href="#LiberationSans-30"/>
     <use xlink:href="#LiberationSans-2e" x="55.615234"/>
     <use xlink:href="#LiberationSans-31" x="83.398438"/>
     <use xlink:href="#LiberationSans-35" x="139.013672"/>
    </g>
   </g>
   <g id="text_54">
    <!-- 0.17 -->
    <g style="fill: #e6e6e6" transform="translate(146.982771 87.545937) scale(0.1 -0.1)">
     <use xlink:href="#LiberationSans-30"/>
     <use xlink:href="#LiberationSans-2e" x="55.615234"/>
     <use xlink:href="#LiberationSans-31" x="83.398438"/>
     <use xlink:href="#LiberationSans-37" x="139.013672"/>
    </g>
   </g>
   <g id="text_55">
    <!-- 0.38 -->
    <g style="fill: #e6e6e6" transform="translate(235.096105 70.604761) scale(0.1 -0.1)">
     <use xlink:href="#LiberationSans-30"/>
     <use xlink:href="#LiberationSans-2e" x="55.615234"/>
     <use xlink:href="#LiberationSans-33" x="83.398438"/>
     <use xlink:href="#LiberationSans-38" x="139.013672"/>
    </g>
   </g>
   <g id="text_56">
    <!-- 0.39 -->
    <g style="fill: #e6e6e6" transform="translate(243.041627 53.663585) scale(0.1 -0.1)">
     <defs>
      <path id="LiberationSans-39" d="M 3256 2291 
Q 3256 1156 2842 546 
Q 2428 -63 1663 -63 
Q 1147 -63 836 154 
Q 525 372 391 856 
L 928 941 
Q 1097 391 1672 391 
Q 2156 391 2422 841 
Q 2688 1291 2700 2125 
Q 2575 1844 2272 1673 
Q 1969 1503 1606 1503 
Q 1013 1503 656 1909 
Q 300 2316 300 2988 
Q 300 3678 687 4073 
Q 1075 4469 1766 4469 
Q 2500 4469 2878 3925 
Q 3256 3381 3256 2291 
z
M 2644 2834 
Q 2644 3366 2400 3689 
Q 2156 4013 1747 4013 
Q 1341 4013 1106 3736 
Q 872 3459 872 2988 
Q 872 2506 1106 2226 
Q 1341 1947 1741 1947 
Q 1984 1947 2193 2058 
Q 2403 2169 2523 2372 
Q 2644 2575 2644 2834 
z
" transform="scale(0.015625)"/>
     </defs>
     <use xlink:href="#LiberationSans-30"/>
     <use xlink:href="#LiberationSans-2e" x="55.615234"/>
     <use xlink:href="#LiberationSans-33" x="83.398438"/>
     <use xlink:href="#LiberationSans-39" x="139.013672"/>
    </g>
   </g>
   <g id="text_57">
    <!-- 0.81 -->
    <g style="fill: #e6e6e6" transform="translate(416.729911 36.722408) scale(0.1 -0.1)">
     <use xlink:href="#LiberationSans-30"/>
     <use xlink:href="#LiberationSans-2e" x="55.615234"/>
     <use xlink:href="#LiberationSans-38" x="83.398438"/>
     <use xlink:href="#LiberationSans-31" x="139.013672"/>
    </g>
   </g>
  </g>
 </g>
 <defs>
  <clipPath id="p32362e940f">
   <rect x="74.615625" y="7.2" width="357.12" height="443.52"/>
  </clipPath>
 </defs>
</svg>
