<?xml version="1.0" encoding="utf-8" standalone="no"?>
<!DOCTYPE svg PUBLIC "-//W3C//DTD SVG 1.1//EN"
  "http://www.w3.org/Graphics/SVG/1.1/DTD/svg11.dtd">
<svg xmlns:xlink="http://www.w3.org/1999/xlink" width="533.515937pt" height="417.598125pt" viewBox="0 0 533.515937 417.598125" xmlns="http://www.w3.org/2000/svg" version="1.1">
 <metadata>
  <rdf:RDF xmlns:dc="http://purl.org/dc/elements/1.1/" xmlns:cc="http://creativecommons.org/ns#" xmlns:rdf="http://www.w3.org/1999/02/22-rdf-syntax-ns#">
   <cc:Work>
    <dc:type rdf:resource="http://purl.org/dc/dcmitype/StillImage"/>
    <dc:date>2023-12-18T23:07:37.014892</dc:date>
    <dc:format>image/svg+xml</dc:format>
    <dc:creator>
     <cc:Agent>
      <dc:title>Matplotlib v3.8.1, https://matplotlib.org/</dc:title>
     </cc:Agent>
    </dc:creator>
   </cc:Work>
  </rdf:RDF>
 </metadata>
 <defs>
  <style type="text/css">*{stroke-linejoin: round; stroke-linecap: butt}</style>
 </defs>
 <g id="figure_1">
  <g id="patch_1">
   <path d="M 0 417.598125 
L 533.515937 417.598125 
L 533.515937 0 
L 0 0 
z
" style="fill: #ffffff"/>
  </g>
  <g id="axes_1">
   <g id="patch_2">
    <path d="M 191.47418 50.209409 
C 168.431644 50.209409 145.675593 55.340037 124.862384 65.227849 
C 104.049175 75.11566 85.696345 89.514786 71.139751 107.37715 
L 191.47418 205.441409 
z
" style="fill: #4d062c; opacity: 0.5; stroke: #4d062c; stroke-linejoin: miter"/>
   </g>
   <g id="patch_3">
    <path d="M 55.992905 113.238119 
C 45.322357 126.331924 36.860135 141.08 30.940493 156.899802 
C 25.020852 172.719604 21.722772 189.40006 21.176528 206.282296 
L 176.327334 211.302378 
z
" style="fill: #13433e; opacity: 0.5; stroke: #13433e; stroke-linejoin: miter"/>
   </g>
   <g id="patch_4">
    <path d="M 28.070703 218.74928 
C 27.545095 234.993719 29.573947 251.220383 34.082995 266.835329 
C 38.592043 282.450275 45.525594 297.260634 54.629861 310.724304 
L 183.221509 223.769362 
z
" style="fill: #423042; opacity: 0.5; stroke: #423042; stroke-linejoin: miter"/>
   </g>
   <g id="patch_5">
    <path d="M 54.228457 323.956945 
C 61.728771 335.04864 70.632737 345.123456 80.718403 353.930256 
C 90.80407 362.737056 101.986932 370.20205 113.988231 376.139155 
L 182.820105 237.002003 
z
" style="fill: #420612; opacity: 0.5; stroke: #420612; stroke-linejoin: miter"/>
   </g>
   <g id="patch_6">
    <path d="M 127.479072 366.14405 
C 137.791644 371.245733 148.639516 375.185119 159.822643 377.88956 
C 171.00577 380.594001 182.454986 382.046772 193.959157 382.221082 
L 196.310945 227.006898 
z
" style="fill: #1e2d47; opacity: 0.5; stroke: #1e2d47; stroke-linejoin: miter"/>
   </g>
   <g id="patch_7">
    <path d="M 198.934972 397.747506 
C 206.746407 397.865864 214.555644 397.394366 222.296094 396.337033 
C 230.036545 395.279701 237.686145 393.639546 245.179668 391.430556 
L 201.28676 242.533322 
z
" style="fill: #13433e; opacity: 0.5; stroke: #13433e; stroke-linejoin: miter"/>
   </g>
   <g id="patch_8">
    <path d="M 255.131811 396.505623 
C 262.533089 394.323825 269.761401 391.593215 276.756615 388.336506 
C 283.75183 385.079798 290.494495 381.306048 296.928521 377.046649 
L 211.238903 247.608389 
z
" style="fill: #123622; opacity: 0.5; stroke: #123622; stroke-linejoin: miter"/>
   </g>
   <g id="patch_9">
    <path d="M 314.589291 383.862213 
C 320.49645 379.951606 326.128985 375.641205 331.447384 370.961247 
C 336.765783 366.281289 341.757582 361.242742 346.387763 355.880952 
L 228.899673 254.423953 
z
" style="fill: #4d3025; opacity: 0.5; stroke: #4d3025; stroke-linejoin: miter"/>
   </g>
   <g id="patch_10">
    <path d="M 341.350521 338.297818 
C 345.350151 333.666212 349.072404 328.802145 352.497785 323.731092 
C 355.923167 318.660038 359.045688 313.390866 361.848995 307.95117 
L 223.862431 236.840819 
z
" style="fill: #4d2036; opacity: 0.5; stroke: #4d2036; stroke-linejoin: miter"/>
   </g>
   <g id="patch_11">
    <path d="M 336.121924 290.573116 
C 338.778309 285.418515 341.143778 280.119113 343.207204 274.699836 
C 345.27063 269.280558 347.028773 263.749914 348.473366 258.133915 
L 198.13536 219.462765 
z
" style="fill: #381a3f; opacity: 0.5; stroke: #381a3f; stroke-linejoin: miter"/>
   </g>
   <g id="patch_12">
    <path d="M 371.495244 261.623188 
C 372.801981 256.543118 373.850387 251.400077 374.636427 246.213863 
C 375.422467 241.027649 375.945131 235.804925 376.202408 230.565794 
L 221.157238 222.952039 
z
" style="fill: #4d3a3d; opacity: 0.5; stroke: #4d3a3d; stroke-linejoin: miter"/>
   </g>
   <g id="patch_13">
    <path d="M 368.701144 226.793211 
C 368.87201 223.313719 368.925699 219.829462 368.862119 216.346357 
C 368.798539 212.863253 368.617727 209.383276 368.319989 205.912338 
L 213.655974 219.179455 
z
" style="fill: #354747; opacity: 0.5; stroke: #354747; stroke-linejoin: miter"/>
   </g>
   <g id="patch_14">
    <path d="M 383.545296 201.886672 
C 383.307932 199.119555 382.99635 196.359306 382.610888 193.608906 
C 382.225425 190.858507 381.76622 188.118948 381.233769 185.393186 
L 228.881281 215.153789 
z
" style="fill: #4a4336; opacity: 0.5; stroke: #4a4336; stroke-linejoin: miter"/>
   </g>
   <g id="patch_15">
    <path d="M 388.239555 180.709418 
C 387.833424 178.630327 387.384777 176.559768 386.893896 174.499041 
C 386.403016 172.438314 385.870003 170.387851 385.295194 168.34894 
L 235.887067 210.47002 
z
" style="fill: #152736; opacity: 0.5; stroke: #152736; stroke-linejoin: miter"/>
   </g>
   <g id="patch_16">
    <path d="M 362.3065 172.543436 
C 361.752441 170.578128 361.159659 168.623944 360.528499 166.682024 
C 359.89734 164.740104 359.227926 162.810827 358.520648 160.895318 
L 212.898373 214.664516 
z
" style="fill: #42222c; opacity: 0.5; stroke: #42222c; stroke-linejoin: miter"/>
   </g>
   <g id="patch_17">
    <path d="M 372.463872 153.868553 
C 371.799965 152.070505 371.102814 150.284907 370.372776 148.512679 
C 369.642739 146.74045 368.87994 144.981895 368.084774 143.237917 
L 226.841596 207.637751 
z
" style="fill: #251f47; opacity: 0.5; stroke: #251f47; stroke-linejoin: miter"/>
   </g>
   <g id="patch_18">
    <path d="M 339.378538 155.062931 
C 338.784864 153.760873 338.173214 152.467086 337.543764 151.181942 
C 336.914313 149.896798 336.267122 148.620419 335.602376 147.353172 
L 198.13536 219.462765 
z
" style="fill: #004d4d; opacity: 0.5; stroke: #004d4d; stroke-linejoin: miter"/>
   </g>
   <g id="patch_19">
    <path d="M 349.144698 139.765336 
C 348.480814 138.499733 347.799484 137.243358 347.100903 135.996572 
C 346.402321 134.749785 345.686556 133.512705 344.95381 132.285686 
L 211.677682 211.874929 
z
" style="fill: #472747; opacity: 0.5; stroke: #472747; stroke-linejoin: miter"/>
   </g>
   <g id="patch_20">
    <path d="M 351.124507 127.480831 
C 350.517411 126.464219 349.898703 125.454587 349.268505 124.452132 
C 348.638307 123.449678 347.99666 122.454467 347.343689 121.466695 
L 217.848379 207.070074 
z
" style="fill: #4d2618; opacity: 0.5; stroke: #4d2618; stroke-linejoin: miter"/>
   </g>
   <g id="patch_21">
    <path d="M 340.412016 125.049906 
C 339.859454 124.214026 339.298811 123.383514 338.730167 122.55849 
C 338.161523 121.733465 337.584904 120.913965 337.000391 120.100106 
L 210.916706 210.653285 
z
" style="fill: #4d373a; opacity: 0.5; stroke: #4d373a; stroke-linejoin: miter"/>
   </g>
   <g id="patch_22">
    <path d="M 334.846957 108.191734 
C 320.473531 88.178582 301.539529 71.872293 279.61602 60.625899 
C 257.692511 49.379505 233.403119 43.512914 208.76328 43.512913 
L 208.763272 198.744913 
z
" style="fill: #4d4100; opacity: 0.5; stroke: #4d4100; stroke-linejoin: miter"/>
   </g>
   <g id="patch_23">
    <path d="M 194.57882 47.104769 
C 171.536284 47.104769 148.780233 52.235397 127.967024 62.123209 
C 107.153815 72.01102 88.800985 86.410146 74.244391 104.27251 
L 194.57882 202.336769 
z
" style="fill: #ff1493; stroke: #00008b; stroke-linejoin: miter"/>
   </g>
   <g id="patch_24">
    <path d="M 59.097545 110.133479 
C 48.426997 123.227284 39.964775 137.97536 34.045133 153.795162 
C 28.125492 169.614964 24.827412 186.29542 24.281168 203.177656 
L 179.431974 208.197738 
z
" style="fill: #40e0d0; stroke: #00008b; stroke-linejoin: miter"/>
   </g>
   <g id="patch_25">
    <path d="M 31.175343 215.64464 
C 30.649735 231.889079 32.678587 248.115743 37.187635 263.730689 
C 41.696683 279.345635 48.630234 294.155994 57.734501 307.619664 
L 186.326149 220.664722 
z
" style="fill: #dda0dd; stroke: #00008b; stroke-linejoin: miter"/>
   </g>
   <g id="patch_26">
    <path d="M 57.333097 320.852305 
C 64.833411 331.944 73.737377 342.018816 83.823043 350.825616 
C 93.90871 359.632416 105.091572 367.09741 117.092871 373.034515 
L 185.924745 233.897363 
z
" style="fill: #dc143c; stroke: #00008b; stroke-linejoin: miter"/>
   </g>
   <g id="patch_27">
    <path d="M 130.583712 363.03941 
C 140.896284 368.141093 151.744156 372.080479 162.927283 374.78492 
C 174.11041 377.489361 185.559626 378.942132 197.063797 379.116442 
L 199.415585 223.902258 
z
" style="fill: #6495ed; stroke: #00008b; stroke-linejoin: miter"/>
   </g>
   <g id="patch_28">
    <path d="M 202.039612 394.642866 
C 209.851047 394.761224 217.660284 394.289726 225.400734 393.232393 
C 233.141185 392.175061 240.790785 390.534906 248.284308 388.325916 
L 204.3914 239.428682 
z
" style="fill: #40e0d0; stroke: #00008b; stroke-linejoin: miter"/>
   </g>
   <g id="patch_29">
    <path d="M 258.236451 393.400983 
C 265.637729 391.219185 272.866041 388.488575 279.861255 385.231866 
C 286.85647 381.975158 293.599135 378.201408 300.033161 373.942009 
L 214.343543 244.503749 
z
" style="fill: #3cb371; stroke: #00008b; stroke-linejoin: miter"/>
   </g>
   <g id="patch_30">
    <path d="M 317.693931 380.757573 
C 323.60109 376.846966 329.233625 372.536565 334.552024 367.856607 
C 339.870423 363.176649 344.862222 358.138102 349.492403 352.776312 
L 232.004313 251.319313 
z
" style="fill: #ffa07a; stroke: #00008b; stroke-linejoin: miter"/>
   </g>
   <g id="patch_31">
    <path d="M 344.455161 335.193178 
C 348.454791 330.561572 352.177044 325.697505 355.602425 320.626452 
C 359.027807 315.555398 362.150328 310.286226 364.953635 304.84653 
L 226.967071 233.736179 
z
" style="fill: #ff69b4; stroke: #00008b; stroke-linejoin: miter"/>
   </g>
   <g id="patch_32">
    <path d="M 339.226564 287.468476 
C 341.882949 282.313875 344.248418 277.014473 346.311844 271.595196 
C 348.37527 266.175918 350.133413 260.645274 351.578006 255.029275 
L 201.24 216.358125 
z
" style="fill: #ba55d3; stroke: #00008b; stroke-linejoin: miter"/>
   </g>
   <g id="patch_33">
    <path d="M 374.599884 258.518548 
C 375.906621 253.438478 376.955027 248.295437 377.741067 243.109223 
C 378.527107 237.923009 379.049771 232.700285 379.307048 227.461154 
L 224.261878 219.847399 
z
" style="fill: #ffc0cb; stroke: #00008b; stroke-linejoin: miter"/>
   </g>
   <g id="patch_34">
    <path d="M 371.805784 223.688571 
C 371.97665 220.209079 372.030339 216.724822 371.966759 213.241717 
C 371.903179 209.758613 371.722367 206.278636 371.424629 202.807698 
L 216.760614 216.074815 
z
" style="fill: #afeeee; stroke: #00008b; stroke-linejoin: miter"/>
   </g>
   <g id="patch_35">
    <path d="M 386.649936 198.782032 
C 386.412572 196.014915 386.10099 193.254666 385.715528 190.504266 
C 385.330065 187.753867 384.87086 185.014308 384.338409 182.288546 
L 231.985921 212.049149 
z
" style="fill: #f5deb3; stroke: #00008b; stroke-linejoin: miter"/>
   </g>
   <g id="patch_36">
    <path d="M 391.344195 177.604778 
C 390.938064 175.525687 390.489417 173.455128 389.998536 171.394401 
C 389.507656 169.333674 388.974643 167.283211 388.399834 165.2443 
L 238.991707 207.36538 
z
" style="fill: #4682b4; stroke: #00008b; stroke-linejoin: miter"/>
   </g>
   <g id="patch_37">
    <path d="M 365.41114 169.438796 
C 364.857081 167.473488 364.264299 165.519304 363.633139 163.577384 
C 363.00198 161.635464 362.332566 159.706187 361.625288 157.790678 
L 216.003013 211.559876 
z
" style="fill: #db7093; stroke: #00008b; stroke-linejoin: miter"/>
   </g>
   <g id="patch_38">
    <path d="M 375.568512 150.763913 
C 374.904605 148.965865 374.207454 147.180267 373.477416 145.408039 
C 372.747379 143.63581 371.98458 141.877255 371.189414 140.133277 
L 229.946236 204.533111 
z
" style="fill: #7b68ee; stroke: #00008b; stroke-linejoin: miter"/>
   </g>
   <g id="patch_39">
    <path d="M 342.483178 151.958291 
C 341.889504 150.656233 341.277854 149.362446 340.648404 148.077302 
C 340.018953 146.792158 339.371762 145.515779 338.707016 144.248532 
L 201.24 216.358125 
z
" style="fill: #00ffff; stroke: #00008b; stroke-linejoin: miter"/>
   </g>
   <g id="patch_40">
    <path d="M 352.249338 136.660696 
C 351.585454 135.395093 350.904124 134.138718 350.205543 132.891932 
C 349.506961 131.645145 348.791196 130.408065 348.05845 129.181046 
L 214.782322 208.770289 
z
" style="fill: #ee82ee; stroke: #00008b; stroke-linejoin: miter"/>
   </g>
   <g id="patch_41">
    <path d="M 354.229147 124.376191 
C 353.622051 123.359579 353.003343 122.349947 352.373145 121.347492 
C 351.742947 120.345038 351.1013 119.349827 350.448329 118.362055 
L 220.953019 203.965434 
z
" style="fill: #ff7f50; stroke: #00008b; stroke-linejoin: miter"/>
   </g>
   <g id="patch_42">
    <path d="M 343.516656 121.945266 
C 342.964094 121.109386 342.403451 120.278874 341.834807 119.45385 
C 341.266163 118.628825 340.689544 117.809325 340.105031 116.995466 
L 214.021346 207.548645 
z
" style="fill: #ffb6c1; stroke: #00008b; stroke-linejoin: miter"/>
   </g>
   <g id="patch_43">
    <path d="M 337.951597 105.087094 
C 323.578171 85.073942 304.644169 68.767653 282.72066 57.521259 
C 260.797151 46.274865 236.507759 40.408274 211.86792 40.408273 
L 211.867912 195.640273 
z
" style="fill: #ffd700; stroke: #00008b; stroke-linejoin: miter"/>
   </g>
   <g id="matplotlib.axis_1"/>
   <g id="matplotlib.axis_2"/>
   <g id="text_1">
    <!-- Percentage of Repositories on Github by Language -->
    <g transform="translate(48.901875 16.318125) scale(0.12 -0.12)">
     <defs>
      <path id="DejaVuSans-50" d="M 1259 4147 
L 1259 2394 
L 2053 2394 
Q 2494 2394 2734 2622 
Q 2975 2850 2975 3272 
Q 2975 3691 2734 3919 
Q 2494 4147 2053 4147 
L 1259 4147 
z
M 628 4666 
L 2053 4666 
Q 2838 4666 3239 4311 
Q 3641 3956 3641 3272 
Q 3641 2581 3239 2228 
Q 2838 1875 2053 1875 
L 1259 1875 
L 1259 0 
L 628 0 
L 628 4666 
z
" transform="scale(0.015625)"/>
      <path id="DejaVuSans-65" d="M 3597 1894 
L 3597 1613 
L 953 1613 
Q 991 1019 1311 708 
Q 1631 397 2203 397 
Q 2534 397 2845 478 
Q 3156 559 3463 722 
L 3463 178 
Q 3153 47 2828 -22 
Q 2503 -91 2169 -91 
Q 1331 -91 842 396 
Q 353 884 353 1716 
Q 353 2575 817 3079 
Q 1281 3584 2069 3584 
Q 2775 3584 3186 3129 
Q 3597 2675 3597 1894 
z
M 3022 2063 
Q 3016 2534 2758 2815 
Q 2500 3097 2075 3097 
Q 1594 3097 1305 2825 
Q 1016 2553 972 2059 
L 3022 2063 
z
" transform="scale(0.015625)"/>
      <path id="DejaVuSans-72" d="M 2631 2963 
Q 2534 3019 2420 3045 
Q 2306 3072 2169 3072 
Q 1681 3072 1420 2755 
Q 1159 2438 1159 1844 
L 1159 0 
L 581 0 
L 581 3500 
L 1159 3500 
L 1159 2956 
Q 1341 3275 1631 3429 
Q 1922 3584 2338 3584 
Q 2397 3584 2469 3576 
Q 2541 3569 2628 3553 
L 2631 2963 
z
" transform="scale(0.015625)"/>
      <path id="DejaVuSans-63" d="M 3122 3366 
L 3122 2828 
Q 2878 2963 2633 3030 
Q 2388 3097 2138 3097 
Q 1578 3097 1268 2742 
Q 959 2388 959 1747 
Q 959 1106 1268 751 
Q 1578 397 2138 397 
Q 2388 397 2633 464 
Q 2878 531 3122 666 
L 3122 134 
Q 2881 22 2623 -34 
Q 2366 -91 2075 -91 
Q 1284 -91 818 406 
Q 353 903 353 1747 
Q 353 2603 823 3093 
Q 1294 3584 2113 3584 
Q 2378 3584 2631 3529 
Q 2884 3475 3122 3366 
z
" transform="scale(0.015625)"/>
      <path id="DejaVuSans-6e" d="M 3513 2113 
L 3513 0 
L 2938 0 
L 2938 2094 
Q 2938 2591 2744 2837 
Q 2550 3084 2163 3084 
Q 1697 3084 1428 2787 
Q 1159 2491 1159 1978 
L 1159 0 
L 581 0 
L 581 3500 
L 1159 3500 
L 1159 2956 
Q 1366 3272 1645 3428 
Q 1925 3584 2291 3584 
Q 2894 3584 3203 3211 
Q 3513 2838 3513 2113 
z
" transform="scale(0.015625)"/>
      <path id="DejaVuSans-74" d="M 1172 4494 
L 1172 3500 
L 2356 3500 
L 2356 3053 
L 1172 3053 
L 1172 1153 
Q 1172 725 1289 603 
Q 1406 481 1766 481 
L 2356 481 
L 2356 0 
L 1766 0 
Q 1100 0 847 248 
Q 594 497 594 1153 
L 594 3053 
L 172 3053 
L 172 3500 
L 594 3500 
L 594 4494 
L 1172 4494 
z
" transform="scale(0.015625)"/>
      <path id="DejaVuSans-61" d="M 2194 1759 
Q 1497 1759 1228 1600 
Q 959 1441 959 1056 
Q 959 750 1161 570 
Q 1363 391 1709 391 
Q 2188 391 2477 730 
Q 2766 1069 2766 1631 
L 2766 1759 
L 2194 1759 
z
M 3341 1997 
L 3341 0 
L 2766 0 
L 2766 531 
Q 2569 213 2275 61 
Q 1981 -91 1556 -91 
Q 1019 -91 701 211 
Q 384 513 384 1019 
Q 384 1609 779 1909 
Q 1175 2209 1959 2209 
L 2766 2209 
L 2766 2266 
Q 2766 2663 2505 2880 
Q 2244 3097 1772 3097 
Q 1472 3097 1187 3025 
Q 903 2953 641 2809 
L 641 3341 
Q 956 3463 1253 3523 
Q 1550 3584 1831 3584 
Q 2591 3584 2966 3190 
Q 3341 2797 3341 1997 
z
" transform="scale(0.015625)"/>
      <path id="DejaVuSans-67" d="M 2906 1791 
Q 2906 2416 2648 2759 
Q 2391 3103 1925 3103 
Q 1463 3103 1205 2759 
Q 947 2416 947 1791 
Q 947 1169 1205 825 
Q 1463 481 1925 481 
Q 2391 481 2648 825 
Q 2906 1169 2906 1791 
z
M 3481 434 
Q 3481 -459 3084 -895 
Q 2688 -1331 1869 -1331 
Q 1566 -1331 1297 -1286 
Q 1028 -1241 775 -1147 
L 775 -588 
Q 1028 -725 1275 -790 
Q 1522 -856 1778 -856 
Q 2344 -856 2625 -561 
Q 2906 -266 2906 331 
L 2906 616 
Q 2728 306 2450 153 
Q 2172 0 1784 0 
Q 1141 0 747 490 
Q 353 981 353 1791 
Q 353 2603 747 3093 
Q 1141 3584 1784 3584 
Q 2172 3584 2450 3431 
Q 2728 3278 2906 2969 
L 2906 3500 
L 3481 3500 
L 3481 434 
z
" transform="scale(0.015625)"/>
      <path id="DejaVuSans-20" transform="scale(0.015625)"/>
      <path id="DejaVuSans-6f" d="M 1959 3097 
Q 1497 3097 1228 2736 
Q 959 2375 959 1747 
Q 959 1119 1226 758 
Q 1494 397 1959 397 
Q 2419 397 2687 759 
Q 2956 1122 2956 1747 
Q 2956 2369 2687 2733 
Q 2419 3097 1959 3097 
z
M 1959 3584 
Q 2709 3584 3137 3096 
Q 3566 2609 3566 1747 
Q 3566 888 3137 398 
Q 2709 -91 1959 -91 
Q 1206 -91 779 398 
Q 353 888 353 1747 
Q 353 2609 779 3096 
Q 1206 3584 1959 3584 
z
" transform="scale(0.015625)"/>
      <path id="DejaVuSans-66" d="M 2375 4863 
L 2375 4384 
L 1825 4384 
Q 1516 4384 1395 4259 
Q 1275 4134 1275 3809 
L 1275 3500 
L 2222 3500 
L 2222 3053 
L 1275 3053 
L 1275 0 
L 697 0 
L 697 3053 
L 147 3053 
L 147 3500 
L 697 3500 
L 697 3744 
Q 697 4328 969 4595 
Q 1241 4863 1831 4863 
L 2375 4863 
z
" transform="scale(0.015625)"/>
      <path id="DejaVuSans-52" d="M 2841 2188 
Q 3044 2119 3236 1894 
Q 3428 1669 3622 1275 
L 4263 0 
L 3584 0 
L 2988 1197 
Q 2756 1666 2539 1819 
Q 2322 1972 1947 1972 
L 1259 1972 
L 1259 0 
L 628 0 
L 628 4666 
L 2053 4666 
Q 2853 4666 3247 4331 
Q 3641 3997 3641 3322 
Q 3641 2881 3436 2590 
Q 3231 2300 2841 2188 
z
M 1259 4147 
L 1259 2491 
L 2053 2491 
Q 2509 2491 2742 2702 
Q 2975 2913 2975 3322 
Q 2975 3731 2742 3939 
Q 2509 4147 2053 4147 
L 1259 4147 
z
" transform="scale(0.015625)"/>
      <path id="DejaVuSans-70" d="M 1159 525 
L 1159 -1331 
L 581 -1331 
L 581 3500 
L 1159 3500 
L 1159 2969 
Q 1341 3281 1617 3432 
Q 1894 3584 2278 3584 
Q 2916 3584 3314 3078 
Q 3713 2572 3713 1747 
Q 3713 922 3314 415 
Q 2916 -91 2278 -91 
Q 1894 -91 1617 61 
Q 1341 213 1159 525 
z
M 3116 1747 
Q 3116 2381 2855 2742 
Q 2594 3103 2138 3103 
Q 1681 3103 1420 2742 
Q 1159 2381 1159 1747 
Q 1159 1113 1420 752 
Q 1681 391 2138 391 
Q 2594 391 2855 752 
Q 3116 1113 3116 1747 
z
" transform="scale(0.015625)"/>
      <path id="DejaVuSans-73" d="M 2834 3397 
L 2834 2853 
Q 2591 2978 2328 3040 
Q 2066 3103 1784 3103 
Q 1356 3103 1142 2972 
Q 928 2841 928 2578 
Q 928 2378 1081 2264 
Q 1234 2150 1697 2047 
L 1894 2003 
Q 2506 1872 2764 1633 
Q 3022 1394 3022 966 
Q 3022 478 2636 193 
Q 2250 -91 1575 -91 
Q 1294 -91 989 -36 
Q 684 19 347 128 
L 347 722 
Q 666 556 975 473 
Q 1284 391 1588 391 
Q 1994 391 2212 530 
Q 2431 669 2431 922 
Q 2431 1156 2273 1281 
Q 2116 1406 1581 1522 
L 1381 1569 
Q 847 1681 609 1914 
Q 372 2147 372 2553 
Q 372 3047 722 3315 
Q 1072 3584 1716 3584 
Q 2034 3584 2315 3537 
Q 2597 3491 2834 3397 
z
" transform="scale(0.015625)"/>
      <path id="DejaVuSans-69" d="M 603 3500 
L 1178 3500 
L 1178 0 
L 603 0 
L 603 3500 
z
M 603 4863 
L 1178 4863 
L 1178 4134 
L 603 4134 
L 603 4863 
z
" transform="scale(0.015625)"/>
      <path id="DejaVuSans-47" d="M 3809 666 
L 3809 1919 
L 2778 1919 
L 2778 2438 
L 4434 2438 
L 4434 434 
Q 4069 175 3628 42 
Q 3188 -91 2688 -91 
Q 1594 -91 976 548 
Q 359 1188 359 2328 
Q 359 3472 976 4111 
Q 1594 4750 2688 4750 
Q 3144 4750 3555 4637 
Q 3966 4525 4313 4306 
L 4313 3634 
Q 3963 3931 3569 4081 
Q 3175 4231 2741 4231 
Q 1884 4231 1454 3753 
Q 1025 3275 1025 2328 
Q 1025 1384 1454 906 
Q 1884 428 2741 428 
Q 3075 428 3337 486 
Q 3600 544 3809 666 
z
" transform="scale(0.015625)"/>
      <path id="DejaVuSans-68" d="M 3513 2113 
L 3513 0 
L 2938 0 
L 2938 2094 
Q 2938 2591 2744 2837 
Q 2550 3084 2163 3084 
Q 1697 3084 1428 2787 
Q 1159 2491 1159 1978 
L 1159 0 
L 581 0 
L 581 4863 
L 1159 4863 
L 1159 2956 
Q 1366 3272 1645 3428 
Q 1925 3584 2291 3584 
Q 2894 3584 3203 3211 
Q 3513 2838 3513 2113 
z
" transform="scale(0.015625)"/>
      <path id="DejaVuSans-75" d="M 544 1381 
L 544 3500 
L 1119 3500 
L 1119 1403 
Q 1119 906 1312 657 
Q 1506 409 1894 409 
Q 2359 409 2629 706 
Q 2900 1003 2900 1516 
L 2900 3500 
L 3475 3500 
L 3475 0 
L 2900 0 
L 2900 538 
Q 2691 219 2414 64 
Q 2138 -91 1772 -91 
Q 1169 -91 856 284 
Q 544 659 544 1381 
z
M 1991 3584 
L 1991 3584 
z
" transform="scale(0.015625)"/>
      <path id="DejaVuSans-62" d="M 3116 1747 
Q 3116 2381 2855 2742 
Q 2594 3103 2138 3103 
Q 1681 3103 1420 2742 
Q 1159 2381 1159 1747 
Q 1159 1113 1420 752 
Q 1681 391 2138 391 
Q 2594 391 2855 752 
Q 3116 1113 3116 1747 
z
M 1159 2969 
Q 1341 3281 1617 3432 
Q 1894 3584 2278 3584 
Q 2916 3584 3314 3078 
Q 3713 2572 3713 1747 
Q 3713 922 3314 415 
Q 2916 -91 2278 -91 
Q 1894 -91 1617 61 
Q 1341 213 1159 525 
L 1159 0 
L 581 0 
L 581 4863 
L 1159 4863 
L 1159 2969 
z
" transform="scale(0.015625)"/>
      <path id="DejaVuSans-79" d="M 2059 -325 
Q 1816 -950 1584 -1140 
Q 1353 -1331 966 -1331 
L 506 -1331 
L 506 -850 
L 844 -850 
Q 1081 -850 1212 -737 
Q 1344 -625 1503 -206 
L 1606 56 
L 191 3500 
L 800 3500 
L 1894 763 
L 2988 3500 
L 3597 3500 
L 2059 -325 
z
" transform="scale(0.015625)"/>
      <path id="DejaVuSans-4c" d="M 628 4666 
L 1259 4666 
L 1259 531 
L 3531 531 
L 3531 0 
L 628 0 
L 628 4666 
z
" transform="scale(0.015625)"/>
     </defs>
     <use xlink:href="#DejaVuSans-50"/>
     <use xlink:href="#DejaVuSans-65" x="56.677734"/>
     <use xlink:href="#DejaVuSans-72" x="118.201172"/>
     <use xlink:href="#DejaVuSans-63" x="157.064453"/>
     <use xlink:href="#DejaVuSans-65" x="212.044922"/>
     <use xlink:href="#DejaVuSans-6e" x="273.568359"/>
     <use xlink:href="#DejaVuSans-74" x="336.947266"/>
     <use xlink:href="#DejaVuSans-61" x="376.15625"/>
     <use xlink:href="#DejaVuSans-67" x="437.435547"/>
     <use xlink:href="#DejaVuSans-65" x="500.912109"/>
     <use xlink:href="#DejaVuSans-20" x="562.435547"/>
     <use xlink:href="#DejaVuSans-6f" x="594.222656"/>
     <use xlink:href="#DejaVuSans-66" x="655.404297"/>
     <use xlink:href="#DejaVuSans-20" x="690.609375"/>
     <use xlink:href="#DejaVuSans-52" x="722.396484"/>
     <use xlink:href="#DejaVuSans-65" x="787.378906"/>
     <use xlink:href="#DejaVuSans-70" x="848.902344"/>
     <use xlink:href="#DejaVuSans-6f" x="912.378906"/>
     <use xlink:href="#DejaVuSans-73" x="973.560547"/>
     <use xlink:href="#DejaVuSans-69" x="1025.660156"/>
     <use xlink:href="#DejaVuSans-74" x="1053.443359"/>
     <use xlink:href="#DejaVuSans-6f" x="1092.652344"/>
     <use xlink:href="#DejaVuSans-72" x="1153.833984"/>
     <use xlink:href="#DejaVuSans-69" x="1194.947266"/>
     <use xlink:href="#DejaVuSans-65" x="1222.730469"/>
     <use xlink:href="#DejaVuSans-73" x="1284.253906"/>
     <use xlink:href="#DejaVuSans-20" x="1336.353516"/>
     <use xlink:href="#DejaVuSans-6f" x="1368.140625"/>
     <use xlink:href="#DejaVuSans-6e" x="1429.322266"/>
     <use xlink:href="#DejaVuSans-20" x="1492.701172"/>
     <use xlink:href="#DejaVuSans-47" x="1524.488281"/>
     <use xlink:href="#DejaVuSans-69" x="1601.978516"/>
     <use xlink:href="#DejaVuSans-74" x="1629.761719"/>
     <use xlink:href="#DejaVuSans-68" x="1668.970703"/>
     <use xlink:href="#DejaVuSans-75" x="1732.349609"/>
     <use xlink:href="#DejaVuSans-62" x="1795.728516"/>
     <use xlink:href="#DejaVuSans-20" x="1859.205078"/>
     <use xlink:href="#DejaVuSans-62" x="1890.992188"/>
     <use xlink:href="#DejaVuSans-79" x="1954.46875"/>
     <use xlink:href="#DejaVuSans-20" x="2013.648438"/>
     <use xlink:href="#DejaVuSans-4c" x="2045.435547"/>
     <use xlink:href="#DejaVuSans-61" x="2101.148438"/>
     <use xlink:href="#DejaVuSans-6e" x="2162.427734"/>
     <use xlink:href="#DejaVuSans-67" x="2225.806641"/>
     <use xlink:href="#DejaVuSans-75" x="2289.283203"/>
     <use xlink:href="#DejaVuSans-61" x="2352.662109"/>
     <use xlink:href="#DejaVuSans-67" x="2413.941406"/>
     <use xlink:href="#DejaVuSans-65" x="2477.417969"/>
    </g>
   </g>
   <g id="legend_1">
    <g id="patch_44">
     <path d="M 402.28 379.3175 
L 524.315938 379.3175 
Q 526.315938 379.3175 526.315938 377.3175 
L 526.315938 55.39875 
Q 526.315938 53.39875 524.315938 53.39875 
L 402.28 53.39875 
Q 400.28 53.39875 400.28 55.39875 
L 400.28 377.3175 
Q 400.28 379.3175 402.28 379.3175 
z
" style="fill: #ffffff; opacity: 0.8; stroke: #cccccc; stroke-linejoin: miter"/>
    </g>
    <g id="text_2">
     <!-- Ages -->
     <g transform="translate(451.022187 64.997187) scale(0.1 -0.1)">
      <defs>
       <path id="DejaVuSans-41" d="M 2188 4044 
L 1331 1722 
L 3047 1722 
L 2188 4044 
z
M 1831 4666 
L 2547 4666 
L 4325 0 
L 3669 0 
L 3244 1197 
L 1141 1197 
L 716 0 
L 50 0 
L 1831 4666 
z
" transform="scale(0.015625)"/>
      </defs>
      <use xlink:href="#DejaVuSans-41"/>
      <use xlink:href="#DejaVuSans-67" x="68.408203"/>
      <use xlink:href="#DejaVuSans-65" x="131.884766"/>
      <use xlink:href="#DejaVuSans-73" x="193.408203"/>
     </g>
    </g>
    <g id="patch_45">
     <path d="M 404.28 79.675312 
L 424.28 79.675312 
L 424.28 72.675312 
L 404.28 72.675312 
z
" style="fill: #ff1493; stroke: #00008b; stroke-linejoin: miter"/>
    </g>
    <g id="text_3">
     <!-- JavaScript 14.1% -->
     <g transform="translate(432.28 79.675312) scale(0.1 -0.1)">
      <defs>
       <path id="DejaVuSans-4a" d="M 628 4666 
L 1259 4666 
L 1259 325 
Q 1259 -519 939 -900 
Q 619 -1281 -91 -1281 
L -331 -1281 
L -331 -750 
L -134 -750 
Q 284 -750 456 -515 
Q 628 -281 628 325 
L 628 4666 
z
" transform="scale(0.015625)"/>
       <path id="DejaVuSans-76" d="M 191 3500 
L 800 3500 
L 1894 563 
L 2988 3500 
L 3597 3500 
L 2284 0 
L 1503 0 
L 191 3500 
z
" transform="scale(0.015625)"/>
       <path id="DejaVuSans-53" d="M 3425 4513 
L 3425 3897 
Q 3066 4069 2747 4153 
Q 2428 4238 2131 4238 
Q 1616 4238 1336 4038 
Q 1056 3838 1056 3469 
Q 1056 3159 1242 3001 
Q 1428 2844 1947 2747 
L 2328 2669 
Q 3034 2534 3370 2195 
Q 3706 1856 3706 1288 
Q 3706 609 3251 259 
Q 2797 -91 1919 -91 
Q 1588 -91 1214 -16 
Q 841 59 441 206 
L 441 856 
Q 825 641 1194 531 
Q 1563 422 1919 422 
Q 2459 422 2753 634 
Q 3047 847 3047 1241 
Q 3047 1584 2836 1778 
Q 2625 1972 2144 2069 
L 1759 2144 
Q 1053 2284 737 2584 
Q 422 2884 422 3419 
Q 422 4038 858 4394 
Q 1294 4750 2059 4750 
Q 2388 4750 2728 4690 
Q 3069 4631 3425 4513 
z
" transform="scale(0.015625)"/>
       <path id="DejaVuSans-31" d="M 794 531 
L 1825 531 
L 1825 4091 
L 703 3866 
L 703 4441 
L 1819 4666 
L 2450 4666 
L 2450 531 
L 3481 531 
L 3481 0 
L 794 0 
L 794 531 
z
" transform="scale(0.015625)"/>
       <path id="DejaVuSans-34" d="M 2419 4116 
L 825 1625 
L 2419 1625 
L 2419 4116 
z
M 2253 4666 
L 3047 4666 
L 3047 1625 
L 3713 1625 
L 3713 1100 
L 3047 1100 
L 3047 0 
L 2419 0 
L 2419 1100 
L 313 1100 
L 313 1709 
L 2253 4666 
z
" transform="scale(0.015625)"/>
       <path id="DejaVuSans-2e" d="M 684 794 
L 1344 794 
L 1344 0 
L 684 0 
L 684 794 
z
" transform="scale(0.015625)"/>
       <path id="DejaVuSans-25" d="M 4653 2053 
Q 4381 2053 4226 1822 
Q 4072 1591 4072 1178 
Q 4072 772 4226 539 
Q 4381 306 4653 306 
Q 4919 306 5073 539 
Q 5228 772 5228 1178 
Q 5228 1588 5073 1820 
Q 4919 2053 4653 2053 
z
M 4653 2450 
Q 5147 2450 5437 2106 
Q 5728 1763 5728 1178 
Q 5728 594 5436 251 
Q 5144 -91 4653 -91 
Q 4153 -91 3862 251 
Q 3572 594 3572 1178 
Q 3572 1766 3864 2108 
Q 4156 2450 4653 2450 
z
M 1428 4353 
Q 1159 4353 1004 4120 
Q 850 3888 850 3481 
Q 850 3069 1003 2837 
Q 1156 2606 1428 2606 
Q 1700 2606 1854 2837 
Q 2009 3069 2009 3481 
Q 2009 3884 1853 4118 
Q 1697 4353 1428 4353 
z
M 4250 4750 
L 4750 4750 
L 1831 -91 
L 1331 -91 
L 4250 4750 
z
M 1428 4750 
Q 1922 4750 2215 4408 
Q 2509 4066 2509 3481 
Q 2509 2891 2217 2550 
Q 1925 2209 1428 2209 
Q 931 2209 642 2551 
Q 353 2894 353 3481 
Q 353 4063 643 4406 
Q 934 4750 1428 4750 
z
" transform="scale(0.015625)"/>
      </defs>
      <use xlink:href="#DejaVuSans-4a"/>
      <use xlink:href="#DejaVuSans-61" x="29.492188"/>
      <use xlink:href="#DejaVuSans-76" x="90.771484"/>
      <use xlink:href="#DejaVuSans-61" x="149.951172"/>
      <use xlink:href="#DejaVuSans-53" x="211.230469"/>
      <use xlink:href="#DejaVuSans-63" x="274.707031"/>
      <use xlink:href="#DejaVuSans-72" x="329.6875"/>
      <use xlink:href="#DejaVuSans-69" x="370.800781"/>
      <use xlink:href="#DejaVuSans-70" x="398.583984"/>
      <use xlink:href="#DejaVuSans-74" x="462.060547"/>
      <use xlink:href="#DejaVuSans-20" x="501.269531"/>
      <use xlink:href="#DejaVuSans-31" x="533.056641"/>
      <use xlink:href="#DejaVuSans-34" x="596.679688"/>
      <use xlink:href="#DejaVuSans-2e" x="660.302734"/>
      <use xlink:href="#DejaVuSans-31" x="692.089844"/>
      <use xlink:href="#DejaVuSans-25" x="755.712891"/>
     </g>
    </g>
    <g id="patch_46">
     <path d="M 404.28 94.353437 
L 424.28 94.353437 
L 424.28 87.353437 
L 404.28 87.353437 
z
" style="fill: #40e0d0; stroke: #00008b; stroke-linejoin: miter"/>
    </g>
    <g id="text_4">
     <!-- CSS 10.4% -->
     <g transform="translate(432.28 94.353437) scale(0.1 -0.1)">
      <defs>
       <path id="DejaVuSans-43" d="M 4122 4306 
L 4122 3641 
Q 3803 3938 3442 4084 
Q 3081 4231 2675 4231 
Q 1875 4231 1450 3742 
Q 1025 3253 1025 2328 
Q 1025 1406 1450 917 
Q 1875 428 2675 428 
Q 3081 428 3442 575 
Q 3803 722 4122 1019 
L 4122 359 
Q 3791 134 3420 21 
Q 3050 -91 2638 -91 
Q 1578 -91 968 557 
Q 359 1206 359 2328 
Q 359 3453 968 4101 
Q 1578 4750 2638 4750 
Q 3056 4750 3426 4639 
Q 3797 4528 4122 4306 
z
" transform="scale(0.015625)"/>
       <path id="DejaVuSans-30" d="M 2034 4250 
Q 1547 4250 1301 3770 
Q 1056 3291 1056 2328 
Q 1056 1369 1301 889 
Q 1547 409 2034 409 
Q 2525 409 2770 889 
Q 3016 1369 3016 2328 
Q 3016 3291 2770 3770 
Q 2525 4250 2034 4250 
z
M 2034 4750 
Q 2819 4750 3233 4129 
Q 3647 3509 3647 2328 
Q 3647 1150 3233 529 
Q 2819 -91 2034 -91 
Q 1250 -91 836 529 
Q 422 1150 422 2328 
Q 422 3509 836 4129 
Q 1250 4750 2034 4750 
z
" transform="scale(0.015625)"/>
      </defs>
      <use xlink:href="#DejaVuSans-43"/>
      <use xlink:href="#DejaVuSans-53" x="69.824219"/>
      <use xlink:href="#DejaVuSans-53" x="133.300781"/>
      <use xlink:href="#DejaVuSans-20" x="196.777344"/>
      <use xlink:href="#DejaVuSans-31" x="228.564453"/>
      <use xlink:href="#DejaVuSans-30" x="292.1875"/>
      <use xlink:href="#DejaVuSans-2e" x="355.810547"/>
      <use xlink:href="#DejaVuSans-34" x="387.597656"/>
      <use xlink:href="#DejaVuSans-25" x="451.220703"/>
     </g>
    </g>
    <g id="patch_47">
     <path d="M 404.28 109.031562 
L 424.28 109.031562 
L 424.28 102.031562 
L 404.28 102.031562 
z
" style="fill: #dda0dd; stroke: #00008b; stroke-linejoin: miter"/>
    </g>
    <g id="text_5">
     <!-- HTML 10.0% -->
     <g transform="translate(432.28 109.031562) scale(0.1 -0.1)">
      <defs>
       <path id="DejaVuSans-48" d="M 628 4666 
L 1259 4666 
L 1259 2753 
L 3553 2753 
L 3553 4666 
L 4184 4666 
L 4184 0 
L 3553 0 
L 3553 2222 
L 1259 2222 
L 1259 0 
L 628 0 
L 628 4666 
z
" transform="scale(0.015625)"/>
       <path id="DejaVuSans-54" d="M -19 4666 
L 3928 4666 
L 3928 4134 
L 2272 4134 
L 2272 0 
L 1638 0 
L 1638 4134 
L -19 4134 
L -19 4666 
z
" transform="scale(0.015625)"/>
       <path id="DejaVuSans-4d" d="M 628 4666 
L 1569 4666 
L 2759 1491 
L 3956 4666 
L 4897 4666 
L 4897 0 
L 4281 0 
L 4281 4097 
L 3078 897 
L 2444 897 
L 1241 4097 
L 1241 0 
L 628 0 
L 628 4666 
z
" transform="scale(0.015625)"/>
      </defs>
      <use xlink:href="#DejaVuSans-48"/>
      <use xlink:href="#DejaVuSans-54" x="75.195312"/>
      <use xlink:href="#DejaVuSans-4d" x="136.279297"/>
      <use xlink:href="#DejaVuSans-4c" x="222.558594"/>
      <use xlink:href="#DejaVuSans-20" x="278.271484"/>
      <use xlink:href="#DejaVuSans-31" x="310.058594"/>
      <use xlink:href="#DejaVuSans-30" x="373.681641"/>
      <use xlink:href="#DejaVuSans-2e" x="437.304688"/>
      <use xlink:href="#DejaVuSans-30" x="469.091797"/>
      <use xlink:href="#DejaVuSans-25" x="532.714844"/>
     </g>
    </g>
    <g id="patch_48">
     <path d="M 404.28 123.709687 
L 424.28 123.709687 
L 424.28 116.709687 
L 404.28 116.709687 
z
" style="fill: #dc143c; stroke: #00008b; stroke-linejoin: miter"/>
    </g>
    <g id="text_6">
     <!-- Shell 8.2% -->
     <g transform="translate(432.28 123.709687) scale(0.1 -0.1)">
      <defs>
       <path id="DejaVuSans-6c" d="M 603 4863 
L 1178 4863 
L 1178 0 
L 603 0 
L 603 4863 
z
" transform="scale(0.015625)"/>
       <path id="DejaVuSans-38" d="M 2034 2216 
Q 1584 2216 1326 1975 
Q 1069 1734 1069 1313 
Q 1069 891 1326 650 
Q 1584 409 2034 409 
Q 2484 409 2743 651 
Q 3003 894 3003 1313 
Q 3003 1734 2745 1975 
Q 2488 2216 2034 2216 
z
M 1403 2484 
Q 997 2584 770 2862 
Q 544 3141 544 3541 
Q 544 4100 942 4425 
Q 1341 4750 2034 4750 
Q 2731 4750 3128 4425 
Q 3525 4100 3525 3541 
Q 3525 3141 3298 2862 
Q 3072 2584 2669 2484 
Q 3125 2378 3379 2068 
Q 3634 1759 3634 1313 
Q 3634 634 3220 271 
Q 2806 -91 2034 -91 
Q 1263 -91 848 271 
Q 434 634 434 1313 
Q 434 1759 690 2068 
Q 947 2378 1403 2484 
z
M 1172 3481 
Q 1172 3119 1398 2916 
Q 1625 2713 2034 2713 
Q 2441 2713 2670 2916 
Q 2900 3119 2900 3481 
Q 2900 3844 2670 4047 
Q 2441 4250 2034 4250 
Q 1625 4250 1398 4047 
Q 1172 3844 1172 3481 
z
" transform="scale(0.015625)"/>
       <path id="DejaVuSans-32" d="M 1228 531 
L 3431 531 
L 3431 0 
L 469 0 
L 469 531 
Q 828 903 1448 1529 
Q 2069 2156 2228 2338 
Q 2531 2678 2651 2914 
Q 2772 3150 2772 3378 
Q 2772 3750 2511 3984 
Q 2250 4219 1831 4219 
Q 1534 4219 1204 4116 
Q 875 4013 500 3803 
L 500 4441 
Q 881 4594 1212 4672 
Q 1544 4750 1819 4750 
Q 2544 4750 2975 4387 
Q 3406 4025 3406 3419 
Q 3406 3131 3298 2873 
Q 3191 2616 2906 2266 
Q 2828 2175 2409 1742 
Q 1991 1309 1228 531 
z
" transform="scale(0.015625)"/>
      </defs>
      <use xlink:href="#DejaVuSans-53"/>
      <use xlink:href="#DejaVuSans-68" x="63.476562"/>
      <use xlink:href="#DejaVuSans-65" x="126.855469"/>
      <use xlink:href="#DejaVuSans-6c" x="188.378906"/>
      <use xlink:href="#DejaVuSans-6c" x="216.162109"/>
      <use xlink:href="#DejaVuSans-20" x="243.945312"/>
      <use xlink:href="#DejaVuSans-38" x="275.732422"/>
      <use xlink:href="#DejaVuSans-2e" x="339.355469"/>
      <use xlink:href="#DejaVuSans-32" x="371.142578"/>
      <use xlink:href="#DejaVuSans-25" x="434.765625"/>
     </g>
    </g>
    <g id="patch_49">
     <path d="M 404.28 138.387812 
L 424.28 138.387812 
L 424.28 131.387812 
L 404.28 131.387812 
z
" style="fill: #6495ed; stroke: #00008b; stroke-linejoin: miter"/>
    </g>
    <g id="text_7">
     <!-- Python 7.1% -->
     <g transform="translate(432.28 138.387812) scale(0.1 -0.1)">
      <defs>
       <path id="DejaVuSans-37" d="M 525 4666 
L 3525 4666 
L 3525 4397 
L 1831 0 
L 1172 0 
L 2766 4134 
L 525 4134 
L 525 4666 
z
" transform="scale(0.015625)"/>
      </defs>
      <use xlink:href="#DejaVuSans-50"/>
      <use xlink:href="#DejaVuSans-79" x="60.302734"/>
      <use xlink:href="#DejaVuSans-74" x="119.482422"/>
      <use xlink:href="#DejaVuSans-68" x="158.691406"/>
      <use xlink:href="#DejaVuSans-6f" x="222.070312"/>
      <use xlink:href="#DejaVuSans-6e" x="283.251953"/>
      <use xlink:href="#DejaVuSans-20" x="346.630859"/>
      <use xlink:href="#DejaVuSans-37" x="378.417969"/>
      <use xlink:href="#DejaVuSans-2e" x="442.041016"/>
      <use xlink:href="#DejaVuSans-31" x="473.828125"/>
      <use xlink:href="#DejaVuSans-25" x="537.451172"/>
     </g>
    </g>
    <g id="patch_50">
     <path d="M 404.28 153.065937 
L 424.28 153.065937 
L 424.28 146.065937 
L 404.28 146.065937 
z
" style="fill: #40e0d0; stroke: #00008b; stroke-linejoin: miter"/>
    </g>
    <g id="text_8">
     <!-- Ruby 4.8% -->
     <g transform="translate(432.28 153.065937) scale(0.1 -0.1)">
      <use xlink:href="#DejaVuSans-52"/>
      <use xlink:href="#DejaVuSans-75" x="64.982422"/>
      <use xlink:href="#DejaVuSans-62" x="128.361328"/>
      <use xlink:href="#DejaVuSans-79" x="191.837891"/>
      <use xlink:href="#DejaVuSans-20" x="251.017578"/>
      <use xlink:href="#DejaVuSans-34" x="282.804688"/>
      <use xlink:href="#DejaVuSans-2e" x="346.427734"/>
      <use xlink:href="#DejaVuSans-38" x="378.214844"/>
      <use xlink:href="#DejaVuSans-25" x="441.837891"/>
     </g>
    </g>
    <g id="patch_51">
     <path d="M 404.28 167.744062 
L 424.28 167.744062 
L 424.28 160.744062 
L 404.28 160.744062 
z
" style="fill: #3cb371; stroke: #00008b; stroke-linejoin: miter"/>
    </g>
    <g id="text_9">
     <!-- Java 4.7% -->
     <g transform="translate(432.28 167.744062) scale(0.1 -0.1)">
      <use xlink:href="#DejaVuSans-4a"/>
      <use xlink:href="#DejaVuSans-61" x="29.492188"/>
      <use xlink:href="#DejaVuSans-76" x="90.771484"/>
      <use xlink:href="#DejaVuSans-61" x="149.951172"/>
      <use xlink:href="#DejaVuSans-20" x="211.230469"/>
      <use xlink:href="#DejaVuSans-34" x="243.017578"/>
      <use xlink:href="#DejaVuSans-2e" x="306.640625"/>
      <use xlink:href="#DejaVuSans-37" x="338.427734"/>
      <use xlink:href="#DejaVuSans-25" x="402.050781"/>
     </g>
    </g>
    <g id="patch_52">
     <path d="M 404.28 182.422187 
L 424.28 182.422187 
L 424.28 175.422187 
L 404.28 175.422187 
z
" style="fill: #ffa07a; stroke: #00008b; stroke-linejoin: miter"/>
    </g>
    <g id="text_10">
     <!-- PHP 4.4% -->
     <g transform="translate(432.28 182.422187) scale(0.1 -0.1)">
      <use xlink:href="#DejaVuSans-50"/>
      <use xlink:href="#DejaVuSans-48" x="60.302734"/>
      <use xlink:href="#DejaVuSans-50" x="135.498047"/>
      <use xlink:href="#DejaVuSans-20" x="195.800781"/>
      <use xlink:href="#DejaVuSans-34" x="227.587891"/>
      <use xlink:href="#DejaVuSans-2e" x="291.210938"/>
      <use xlink:href="#DejaVuSans-34" x="322.998047"/>
      <use xlink:href="#DejaVuSans-25" x="386.621094"/>
     </g>
    </g>
    <g id="patch_53">
     <path d="M 404.28 197.100312 
L 424.28 197.100312 
L 424.28 190.100312 
L 404.28 190.100312 
z
" style="fill: #ff69b4; stroke: #00008b; stroke-linejoin: miter"/>
    </g>
    <g id="text_11">
     <!-- C 3.8% -->
     <g transform="translate(432.28 197.100312) scale(0.1 -0.1)">
      <defs>
       <path id="DejaVuSans-33" d="M 2597 2516 
Q 3050 2419 3304 2112 
Q 3559 1806 3559 1356 
Q 3559 666 3084 287 
Q 2609 -91 1734 -91 
Q 1441 -91 1130 -33 
Q 819 25 488 141 
L 488 750 
Q 750 597 1062 519 
Q 1375 441 1716 441 
Q 2309 441 2620 675 
Q 2931 909 2931 1356 
Q 2931 1769 2642 2001 
Q 2353 2234 1838 2234 
L 1294 2234 
L 1294 2753 
L 1863 2753 
Q 2328 2753 2575 2939 
Q 2822 3125 2822 3475 
Q 2822 3834 2567 4026 
Q 2313 4219 1838 4219 
Q 1578 4219 1281 4162 
Q 984 4106 628 3988 
L 628 4550 
Q 988 4650 1302 4700 
Q 1616 4750 1894 4750 
Q 2613 4750 3031 4423 
Q 3450 4097 3450 3541 
Q 3450 3153 3228 2886 
Q 3006 2619 2597 2516 
z
" transform="scale(0.015625)"/>
      </defs>
      <use xlink:href="#DejaVuSans-43"/>
      <use xlink:href="#DejaVuSans-20" x="69.824219"/>
      <use xlink:href="#DejaVuSans-33" x="101.611328"/>
      <use xlink:href="#DejaVuSans-2e" x="165.234375"/>
      <use xlink:href="#DejaVuSans-38" x="197.021484"/>
      <use xlink:href="#DejaVuSans-25" x="260.644531"/>
     </g>
    </g>
    <g id="patch_54">
     <path d="M 404.28 211.778437 
L 424.28 211.778437 
L 424.28 204.778437 
L 404.28 204.778437 
z
" style="fill: #ba55d3; stroke: #00008b; stroke-linejoin: miter"/>
    </g>
    <g id="text_12">
     <!-- C++ 3.6% -->
     <g transform="translate(432.28 211.778437) scale(0.1 -0.1)">
      <defs>
       <path id="DejaVuSans-2b" d="M 2944 4013 
L 2944 2272 
L 4684 2272 
L 4684 1741 
L 2944 1741 
L 2944 0 
L 2419 0 
L 2419 1741 
L 678 1741 
L 678 2272 
L 2419 2272 
L 2419 4013 
L 2944 4013 
z
" transform="scale(0.015625)"/>
       <path id="DejaVuSans-36" d="M 2113 2584 
Q 1688 2584 1439 2293 
Q 1191 2003 1191 1497 
Q 1191 994 1439 701 
Q 1688 409 2113 409 
Q 2538 409 2786 701 
Q 3034 994 3034 1497 
Q 3034 2003 2786 2293 
Q 2538 2584 2113 2584 
z
M 3366 4563 
L 3366 3988 
Q 3128 4100 2886 4159 
Q 2644 4219 2406 4219 
Q 1781 4219 1451 3797 
Q 1122 3375 1075 2522 
Q 1259 2794 1537 2939 
Q 1816 3084 2150 3084 
Q 2853 3084 3261 2657 
Q 3669 2231 3669 1497 
Q 3669 778 3244 343 
Q 2819 -91 2113 -91 
Q 1303 -91 875 529 
Q 447 1150 447 2328 
Q 447 3434 972 4092 
Q 1497 4750 2381 4750 
Q 2619 4750 2861 4703 
Q 3103 4656 3366 4563 
z
" transform="scale(0.015625)"/>
      </defs>
      <use xlink:href="#DejaVuSans-43"/>
      <use xlink:href="#DejaVuSans-2b" x="69.824219"/>
      <use xlink:href="#DejaVuSans-2b" x="153.613281"/>
      <use xlink:href="#DejaVuSans-20" x="237.402344"/>
      <use xlink:href="#DejaVuSans-33" x="269.189453"/>
      <use xlink:href="#DejaVuSans-2e" x="332.8125"/>
      <use xlink:href="#DejaVuSans-36" x="364.599609"/>
      <use xlink:href="#DejaVuSans-25" x="428.222656"/>
     </g>
    </g>
    <g id="patch_55">
     <path d="M 404.28 226.456562 
L 424.28 226.456562 
L 424.28 219.456562 
L 404.28 219.456562 
z
" style="fill: #ffc0cb; stroke: #00008b; stroke-linejoin: miter"/>
    </g>
    <g id="text_13">
     <!-- Makefile 3.2% -->
     <g transform="translate(432.28 226.456562) scale(0.1 -0.1)">
      <defs>
       <path id="DejaVuSans-6b" d="M 581 4863 
L 1159 4863 
L 1159 1991 
L 2875 3500 
L 3609 3500 
L 1753 1863 
L 3688 0 
L 2938 0 
L 1159 1709 
L 1159 0 
L 581 0 
L 581 4863 
z
" transform="scale(0.015625)"/>
      </defs>
      <use xlink:href="#DejaVuSans-4d"/>
      <use xlink:href="#DejaVuSans-61" x="86.279297"/>
      <use xlink:href="#DejaVuSans-6b" x="147.558594"/>
      <use xlink:href="#DejaVuSans-65" x="201.84375"/>
      <use xlink:href="#DejaVuSans-66" x="263.367188"/>
      <use xlink:href="#DejaVuSans-69" x="298.572266"/>
      <use xlink:href="#DejaVuSans-6c" x="326.355469"/>
      <use xlink:href="#DejaVuSans-65" x="354.138672"/>
      <use xlink:href="#DejaVuSans-20" x="415.662109"/>
      <use xlink:href="#DejaVuSans-33" x="447.449219"/>
      <use xlink:href="#DejaVuSans-2e" x="511.072266"/>
      <use xlink:href="#DejaVuSans-32" x="542.859375"/>
      <use xlink:href="#DejaVuSans-25" x="606.482422"/>
     </g>
    </g>
    <g id="patch_56">
     <path d="M 404.28 241.134687 
L 424.28 241.134687 
L 424.28 234.134687 
L 404.28 234.134687 
z
" style="fill: #afeeee; stroke: #00008b; stroke-linejoin: miter"/>
    </g>
    <g id="text_14">
     <!-- Objective-C 2.1% -->
     <g transform="translate(432.28 241.134687) scale(0.1 -0.1)">
      <defs>
       <path id="DejaVuSans-4f" d="M 2522 4238 
Q 1834 4238 1429 3725 
Q 1025 3213 1025 2328 
Q 1025 1447 1429 934 
Q 1834 422 2522 422 
Q 3209 422 3611 934 
Q 4013 1447 4013 2328 
Q 4013 3213 3611 3725 
Q 3209 4238 2522 4238 
z
M 2522 4750 
Q 3503 4750 4090 4092 
Q 4678 3434 4678 2328 
Q 4678 1225 4090 567 
Q 3503 -91 2522 -91 
Q 1538 -91 948 565 
Q 359 1222 359 2328 
Q 359 3434 948 4092 
Q 1538 4750 2522 4750 
z
" transform="scale(0.015625)"/>
       <path id="DejaVuSans-6a" d="M 603 3500 
L 1178 3500 
L 1178 -63 
Q 1178 -731 923 -1031 
Q 669 -1331 103 -1331 
L -116 -1331 
L -116 -844 
L 38 -844 
Q 366 -844 484 -692 
Q 603 -541 603 -63 
L 603 3500 
z
M 603 4863 
L 1178 4863 
L 1178 4134 
L 603 4134 
L 603 4863 
z
" transform="scale(0.015625)"/>
       <path id="DejaVuSans-2d" d="M 313 2009 
L 1997 2009 
L 1997 1497 
L 313 1497 
L 313 2009 
z
" transform="scale(0.015625)"/>
      </defs>
      <use xlink:href="#DejaVuSans-4f"/>
      <use xlink:href="#DejaVuSans-62" x="78.710938"/>
      <use xlink:href="#DejaVuSans-6a" x="142.1875"/>
      <use xlink:href="#DejaVuSans-65" x="169.970703"/>
      <use xlink:href="#DejaVuSans-63" x="231.494141"/>
      <use xlink:href="#DejaVuSans-74" x="286.474609"/>
      <use xlink:href="#DejaVuSans-69" x="325.683594"/>
      <use xlink:href="#DejaVuSans-76" x="353.466797"/>
      <use xlink:href="#DejaVuSans-65" x="412.646484"/>
      <use xlink:href="#DejaVuSans-2d" x="474.169922"/>
      <use xlink:href="#DejaVuSans-43" x="510.253906"/>
      <use xlink:href="#DejaVuSans-20" x="580.078125"/>
      <use xlink:href="#DejaVuSans-32" x="611.865234"/>
      <use xlink:href="#DejaVuSans-2e" x="675.488281"/>
      <use xlink:href="#DejaVuSans-31" x="707.275391"/>
      <use xlink:href="#DejaVuSans-25" x="770.898438"/>
     </g>
    </g>
    <g id="patch_57">
     <path d="M 404.28 255.812812 
L 424.28 255.812812 
L 424.28 248.812812 
L 404.28 248.812812 
z
" style="fill: #f5deb3; stroke: #00008b; stroke-linejoin: miter"/>
    </g>
    <g id="text_15">
     <!-- C# 1.7% -->
     <g transform="translate(432.28 255.812812) scale(0.1 -0.1)">
      <defs>
       <path id="DejaVuSans-23" d="M 3272 2816 
L 2363 2816 
L 2100 1772 
L 3016 1772 
L 3272 2816 
z
M 2803 4594 
L 2478 3297 
L 3391 3297 
L 3719 4594 
L 4219 4594 
L 3897 3297 
L 4872 3297 
L 4872 2816 
L 3775 2816 
L 3519 1772 
L 4513 1772 
L 4513 1294 
L 3397 1294 
L 3072 0 
L 2572 0 
L 2894 1294 
L 1978 1294 
L 1656 0 
L 1153 0 
L 1478 1294 
L 494 1294 
L 494 1772 
L 1594 1772 
L 1856 2816 
L 850 2816 
L 850 3297 
L 1978 3297 
L 2297 4594 
L 2803 4594 
z
" transform="scale(0.015625)"/>
      </defs>
      <use xlink:href="#DejaVuSans-43"/>
      <use xlink:href="#DejaVuSans-23" x="69.824219"/>
      <use xlink:href="#DejaVuSans-20" x="153.613281"/>
      <use xlink:href="#DejaVuSans-31" x="185.400391"/>
      <use xlink:href="#DejaVuSans-2e" x="249.023438"/>
      <use xlink:href="#DejaVuSans-37" x="280.810547"/>
      <use xlink:href="#DejaVuSans-25" x="344.433594"/>
     </g>
    </g>
    <g id="patch_58">
     <path d="M 404.28 270.490937 
L 424.28 270.490937 
L 424.28 263.490937 
L 404.28 263.490937 
z
" style="fill: #4682b4; stroke: #00008b; stroke-linejoin: miter"/>
    </g>
    <g id="text_16">
     <!-- Perl 1.3% -->
     <g transform="translate(432.28 270.490937) scale(0.1 -0.1)">
      <use xlink:href="#DejaVuSans-50"/>
      <use xlink:href="#DejaVuSans-65" x="56.677734"/>
      <use xlink:href="#DejaVuSans-72" x="118.201172"/>
      <use xlink:href="#DejaVuSans-6c" x="159.314453"/>
      <use xlink:href="#DejaVuSans-20" x="187.097656"/>
      <use xlink:href="#DejaVuSans-31" x="218.884766"/>
      <use xlink:href="#DejaVuSans-2e" x="282.507812"/>
      <use xlink:href="#DejaVuSans-33" x="314.294922"/>
      <use xlink:href="#DejaVuSans-25" x="377.917969"/>
     </g>
    </g>
    <g id="patch_59">
     <path d="M 404.28 285.169062 
L 424.28 285.169062 
L 424.28 278.169062 
L 404.28 278.169062 
z
" style="fill: #db7093; stroke: #00008b; stroke-linejoin: miter"/>
    </g>
    <g id="text_17">
     <!-- Batchfile 1.3% -->
     <g transform="translate(432.28 285.169062) scale(0.1 -0.1)">
      <defs>
       <path id="DejaVuSans-42" d="M 1259 2228 
L 1259 519 
L 2272 519 
Q 2781 519 3026 730 
Q 3272 941 3272 1375 
Q 3272 1813 3026 2020 
Q 2781 2228 2272 2228 
L 1259 2228 
z
M 1259 4147 
L 1259 2741 
L 2194 2741 
Q 2656 2741 2882 2914 
Q 3109 3088 3109 3444 
Q 3109 3797 2882 3972 
Q 2656 4147 2194 4147 
L 1259 4147 
z
M 628 4666 
L 2241 4666 
Q 2963 4666 3353 4366 
Q 3744 4066 3744 3513 
Q 3744 3084 3544 2831 
Q 3344 2578 2956 2516 
Q 3422 2416 3680 2098 
Q 3938 1781 3938 1306 
Q 3938 681 3513 340 
Q 3088 0 2303 0 
L 628 0 
L 628 4666 
z
" transform="scale(0.015625)"/>
      </defs>
      <use xlink:href="#DejaVuSans-42"/>
      <use xlink:href="#DejaVuSans-61" x="68.603516"/>
      <use xlink:href="#DejaVuSans-74" x="129.882812"/>
      <use xlink:href="#DejaVuSans-63" x="169.091797"/>
      <use xlink:href="#DejaVuSans-68" x="224.072266"/>
      <use xlink:href="#DejaVuSans-66" x="287.451172"/>
      <use xlink:href="#DejaVuSans-69" x="322.65625"/>
      <use xlink:href="#DejaVuSans-6c" x="350.439453"/>
      <use xlink:href="#DejaVuSans-65" x="378.222656"/>
      <use xlink:href="#DejaVuSans-20" x="439.746094"/>
      <use xlink:href="#DejaVuSans-31" x="471.533203"/>
      <use xlink:href="#DejaVuSans-2e" x="535.15625"/>
      <use xlink:href="#DejaVuSans-33" x="566.943359"/>
      <use xlink:href="#DejaVuSans-25" x="630.566406"/>
     </g>
    </g>
    <g id="patch_60">
     <path d="M 404.28 299.847187 
L 424.28 299.847187 
L 424.28 292.847187 
L 404.28 292.847187 
z
" style="fill: #7b68ee; stroke: #00008b; stroke-linejoin: miter"/>
    </g>
    <g id="text_18">
     <!-- Go 1.2% -->
     <g transform="translate(432.28 299.847187) scale(0.1 -0.1)">
      <use xlink:href="#DejaVuSans-47"/>
      <use xlink:href="#DejaVuSans-6f" x="77.490234"/>
      <use xlink:href="#DejaVuSans-20" x="138.671875"/>
      <use xlink:href="#DejaVuSans-31" x="170.458984"/>
      <use xlink:href="#DejaVuSans-2e" x="234.082031"/>
      <use xlink:href="#DejaVuSans-32" x="265.869141"/>
      <use xlink:href="#DejaVuSans-25" x="329.492188"/>
     </g>
    </g>
    <g id="patch_61">
     <path d="M 404.28 314.525312 
L 424.28 314.525312 
L 424.28 307.525312 
L 404.28 307.525312 
z
" style="fill: #00ffff; stroke: #00008b; stroke-linejoin: miter"/>
    </g>
    <g id="text_19">
     <!-- CoffeeScript 0.9% -->
     <g transform="translate(432.28 314.525312) scale(0.1 -0.1)">
      <defs>
       <path id="DejaVuSans-39" d="M 703 97 
L 703 672 
Q 941 559 1184 500 
Q 1428 441 1663 441 
Q 2288 441 2617 861 
Q 2947 1281 2994 2138 
Q 2813 1869 2534 1725 
Q 2256 1581 1919 1581 
Q 1219 1581 811 2004 
Q 403 2428 403 3163 
Q 403 3881 828 4315 
Q 1253 4750 1959 4750 
Q 2769 4750 3195 4129 
Q 3622 3509 3622 2328 
Q 3622 1225 3098 567 
Q 2575 -91 1691 -91 
Q 1453 -91 1209 -44 
Q 966 3 703 97 
z
M 1959 2075 
Q 2384 2075 2632 2365 
Q 2881 2656 2881 3163 
Q 2881 3666 2632 3958 
Q 2384 4250 1959 4250 
Q 1534 4250 1286 3958 
Q 1038 3666 1038 3163 
Q 1038 2656 1286 2365 
Q 1534 2075 1959 2075 
z
" transform="scale(0.015625)"/>
      </defs>
      <use xlink:href="#DejaVuSans-43"/>
      <use xlink:href="#DejaVuSans-6f" x="69.824219"/>
      <use xlink:href="#DejaVuSans-66" x="131.005859"/>
      <use xlink:href="#DejaVuSans-66" x="166.210938"/>
      <use xlink:href="#DejaVuSans-65" x="201.416016"/>
      <use xlink:href="#DejaVuSans-65" x="262.939453"/>
      <use xlink:href="#DejaVuSans-53" x="324.462891"/>
      <use xlink:href="#DejaVuSans-63" x="387.939453"/>
      <use xlink:href="#DejaVuSans-72" x="442.919922"/>
      <use xlink:href="#DejaVuSans-69" x="484.033203"/>
      <use xlink:href="#DejaVuSans-70" x="511.816406"/>
      <use xlink:href="#DejaVuSans-74" x="575.292969"/>
      <use xlink:href="#DejaVuSans-20" x="614.501953"/>
      <use xlink:href="#DejaVuSans-30" x="646.289062"/>
      <use xlink:href="#DejaVuSans-2e" x="709.912109"/>
      <use xlink:href="#DejaVuSans-39" x="741.699219"/>
      <use xlink:href="#DejaVuSans-25" x="805.322266"/>
     </g>
    </g>
    <g id="patch_62">
     <path d="M 404.28 329.203437 
L 424.28 329.203437 
L 424.28 322.203437 
L 404.28 322.203437 
z
" style="fill: #ee82ee; stroke: #00008b; stroke-linejoin: miter"/>
    </g>
    <g id="text_20">
     <!-- ApacheConf 0.9% -->
     <g transform="translate(432.28 329.203437) scale(0.1 -0.1)">
      <use xlink:href="#DejaVuSans-41"/>
      <use xlink:href="#DejaVuSans-70" x="68.408203"/>
      <use xlink:href="#DejaVuSans-61" x="131.884766"/>
      <use xlink:href="#DejaVuSans-63" x="193.164062"/>
      <use xlink:href="#DejaVuSans-68" x="248.144531"/>
      <use xlink:href="#DejaVuSans-65" x="311.523438"/>
      <use xlink:href="#DejaVuSans-43" x="373.046875"/>
      <use xlink:href="#DejaVuSans-6f" x="442.871094"/>
      <use xlink:href="#DejaVuSans-6e" x="504.052734"/>
      <use xlink:href="#DejaVuSans-66" x="567.431641"/>
      <use xlink:href="#DejaVuSans-20" x="602.636719"/>
      <use xlink:href="#DejaVuSans-30" x="634.423828"/>
      <use xlink:href="#DejaVuSans-2e" x="698.046875"/>
      <use xlink:href="#DejaVuSans-39" x="729.833984"/>
      <use xlink:href="#DejaVuSans-25" x="793.457031"/>
     </g>
    </g>
    <g id="patch_63">
     <path d="M 404.28 343.881562 
L 424.28 343.881562 
L 424.28 336.881562 
L 404.28 336.881562 
z
" style="fill: #ff7f50; stroke: #00008b; stroke-linejoin: miter"/>
    </g>
    <g id="text_21">
     <!-- CMake 0.7% -->
     <g transform="translate(432.28 343.881562) scale(0.1 -0.1)">
      <use xlink:href="#DejaVuSans-43"/>
      <use xlink:href="#DejaVuSans-4d" x="69.824219"/>
      <use xlink:href="#DejaVuSans-61" x="156.103516"/>
      <use xlink:href="#DejaVuSans-6b" x="217.382812"/>
      <use xlink:href="#DejaVuSans-65" x="271.667969"/>
      <use xlink:href="#DejaVuSans-20" x="333.191406"/>
      <use xlink:href="#DejaVuSans-30" x="364.978516"/>
      <use xlink:href="#DejaVuSans-2e" x="428.601562"/>
      <use xlink:href="#DejaVuSans-37" x="460.388672"/>
      <use xlink:href="#DejaVuSans-25" x="524.011719"/>
     </g>
    </g>
    <g id="patch_64">
     <path d="M 404.28 358.559687 
L 424.28 358.559687 
L 424.28 351.559687 
L 404.28 351.559687 
z
" style="fill: #ffb6c1; stroke: #00008b; stroke-linejoin: miter"/>
    </g>
    <g id="text_22">
     <!-- TypeScript 0.6% -->
     <g transform="translate(432.28 358.559687) scale(0.1 -0.1)">
      <use xlink:href="#DejaVuSans-54"/>
      <use xlink:href="#DejaVuSans-79" x="45.458984"/>
      <use xlink:href="#DejaVuSans-70" x="104.638672"/>
      <use xlink:href="#DejaVuSans-65" x="168.115234"/>
      <use xlink:href="#DejaVuSans-53" x="229.638672"/>
      <use xlink:href="#DejaVuSans-63" x="293.115234"/>
      <use xlink:href="#DejaVuSans-72" x="348.095703"/>
      <use xlink:href="#DejaVuSans-69" x="389.208984"/>
      <use xlink:href="#DejaVuSans-70" x="416.992188"/>
      <use xlink:href="#DejaVuSans-74" x="480.46875"/>
      <use xlink:href="#DejaVuSans-20" x="519.677734"/>
      <use xlink:href="#DejaVuSans-30" x="551.464844"/>
      <use xlink:href="#DejaVuSans-2e" x="615.087891"/>
      <use xlink:href="#DejaVuSans-36" x="646.875"/>
      <use xlink:href="#DejaVuSans-25" x="710.498047"/>
     </g>
    </g>
    <g id="patch_65">
     <path d="M 404.28 373.237812 
L 424.28 373.237812 
L 424.28 366.237812 
L 404.28 366.237812 
z
" style="fill: #ffd700; stroke: #00008b; stroke-linejoin: miter"/>
    </g>
    <g id="text_23">
     <!-- Other 15.1% -->
     <g transform="translate(432.28 373.237812) scale(0.1 -0.1)">
      <defs>
       <path id="DejaVuSans-35" d="M 691 4666 
L 3169 4666 
L 3169 4134 
L 1269 4134 
L 1269 2991 
Q 1406 3038 1543 3061 
Q 1681 3084 1819 3084 
Q 2600 3084 3056 2656 
Q 3513 2228 3513 1497 
Q 3513 744 3044 326 
Q 2575 -91 1722 -91 
Q 1428 -91 1123 -41 
Q 819 9 494 109 
L 494 744 
Q 775 591 1075 516 
Q 1375 441 1709 441 
Q 2250 441 2565 725 
Q 2881 1009 2881 1497 
Q 2881 1984 2565 2268 
Q 2250 2553 1709 2553 
Q 1456 2553 1204 2497 
Q 953 2441 691 2322 
L 691 4666 
z
" transform="scale(0.015625)"/>
      </defs>
      <use xlink:href="#DejaVuSans-4f"/>
      <use xlink:href="#DejaVuSans-74" x="78.710938"/>
      <use xlink:href="#DejaVuSans-68" x="117.919922"/>
      <use xlink:href="#DejaVuSans-65" x="181.298828"/>
      <use xlink:href="#DejaVuSans-72" x="242.822266"/>
      <use xlink:href="#DejaVuSans-20" x="283.935547"/>
      <use xlink:href="#DejaVuSans-31" x="315.722656"/>
      <use xlink:href="#DejaVuSans-35" x="379.345703"/>
      <use xlink:href="#DejaVuSans-2e" x="442.96875"/>
      <use xlink:href="#DejaVuSans-31" x="474.755859"/>
      <use xlink:href="#DejaVuSans-25" x="538.378906"/>
     </g>
    </g>
   </g>
  </g>
 </g>
</svg>
