<?xml version="1.0" encoding="utf-8" standalone="no"?>
<!DOCTYPE svg PUBLIC "-//W3C//DTD SVG 1.1//EN"
  "http://www.w3.org/Graphics/SVG/1.1/DTD/svg11.dtd">
<svg xmlns:xlink="http://www.w3.org/1999/xlink" width="523.897187pt" height="402.48pt" viewBox="0 0 523.897187 402.48" xmlns="http://www.w3.org/2000/svg" version="1.1">
 <metadata>
  <rdf:RDF xmlns:dc="http://purl.org/dc/elements/1.1/" xmlns:cc="http://creativecommons.org/ns#" xmlns:rdf="http://www.w3.org/1999/02/22-rdf-syntax-ns#">
   <cc:Work>
    <dc:type rdf:resource="http://purl.org/dc/dcmitype/StillImage"/>
    <dc:date>1980-01-01T00:00:00+00:00</dc:date>
    <dc:format>image/svg+xml</dc:format>
    <dc:creator>
     <cc:Agent>
      <dc:title>Matplotlib v3.8.0, https://matplotlib.org/</dc:title>
     </cc:Agent>
    </dc:creator>
   </cc:Work>
  </rdf:RDF>
 </metadata>
 <defs>
  <style type="text/css">*{stroke-linejoin: round; stroke-linecap: butt}</style>
 </defs>
 <g id="figure_1">
  <g id="patch_1">
   <path d="M 0 402.48 
L 523.897187 402.48 
L 523.897187 -0 
L 0 -0 
L 0 402.48 
z
" style="fill: none"/>
  </g>
  <g id="axes_1">
   <g id="matplotlib.axis_1"/>
   <g id="matplotlib.axis_2"/>
   <g id="patch_2">
    <path d="M 201.24 46.008 
C 178.197464 46.008 155.441413 51.138628 134.628204 61.02644 
C 113.814995 70.914251 95.462165 85.313377 80.905571 103.175741 
L 201.24 201.24 
z
" style="fill: #ff1493; stroke: #ffffff; stroke-linejoin: miter"/>
   </g>
   <g id="patch_3">
    <path d="M 80.905571 103.175741 
C 70.235023 116.269545 61.772801 131.017621 55.853159 146.837423 
C 49.933518 162.657225 46.635438 179.337681 46.089194 196.219918 
L 201.24 201.24 
z
" style="fill: #40e0d0; stroke: #ffffff; stroke-linejoin: miter"/>
   </g>
   <g id="patch_4">
    <path d="M 46.089194 196.219918 
C 45.563587 212.464357 47.592438 228.691021 52.101486 244.305967 
C 56.610535 259.920914 63.544086 274.731272 72.648352 288.194942 
L 201.24 201.24 
z
" style="fill: #dda0dd; stroke: #ffffff; stroke-linejoin: miter"/>
   </g>
   <g id="patch_5">
    <path d="M 72.648352 288.194942 
C 80.148666 299.286637 89.052632 309.361453 99.138299 318.168253 
C 109.223965 326.975053 120.406827 334.440047 132.408127 340.377152 
L 201.24 201.24 
z
" style="fill: #dc143c; stroke: #ffffff; stroke-linejoin: miter"/>
   </g>
   <g id="patch_6">
    <path d="M 132.408127 340.377152 
C 142.7207 345.478835 153.568571 349.418221 164.751698 352.122662 
C 175.934826 354.827103 187.384041 356.279874 198.888212 356.454184 
L 201.24 201.24 
z
" style="fill: #6495ed; stroke: #ffffff; stroke-linejoin: miter"/>
   </g>
   <g id="patch_7">
    <path d="M 198.888212 356.454184 
C 206.699647 356.572542 214.508884 356.101044 222.249334 355.043712 
C 229.989785 353.986379 237.639385 352.346225 245.132908 350.137235 
L 201.24 201.24 
z
" style="fill: #40e0d0; stroke: #ffffff; stroke-linejoin: miter"/>
   </g>
   <g id="patch_8">
    <path d="M 245.132908 350.137235 
C 252.534187 347.955437 259.762499 345.224826 266.757713 341.968118 
C 273.752927 338.711409 280.495592 334.937659 286.929618 330.67826 
L 201.24 201.24 
z
" style="fill: #3cb371; stroke: #ffffff; stroke-linejoin: miter"/>
   </g>
   <g id="patch_9">
    <path d="M 286.929618 330.67826 
C 292.836777 326.767653 298.469312 322.457252 303.787711 317.777294 
C 309.10611 313.097336 314.097908 308.058789 318.72809 302.696999 
L 201.24 201.24 
z
" style="fill: #ffa07a; stroke: #ffffff; stroke-linejoin: miter"/>
   </g>
   <g id="patch_10">
    <path d="M 318.72809 302.696999 
C 322.72772 298.065392 326.449973 293.201326 329.875354 288.130272 
C 333.300736 283.059219 336.423257 277.790047 339.226564 272.350351 
L 201.24 201.24 
z
" style="fill: #ff69b4; stroke: #ffffff; stroke-linejoin: miter"/>
   </g>
   <g id="patch_11">
    <path d="M 339.226564 272.350351 
C 341.882949 267.19575 344.248418 261.896348 346.311844 256.477071 
C 348.37527 251.057793 350.133413 245.527149 351.578006 239.91115 
L 201.24 201.24 
z
" style="fill: #ba55d3; stroke: #ffffff; stroke-linejoin: miter"/>
   </g>
   <g id="patch_12">
    <path d="M 351.578006 239.91115 
C 352.884742 234.831079 353.933149 229.688038 354.719189 224.501824 
C 355.505229 219.31561 356.027893 214.092886 356.285169 208.853756 
L 201.24 201.24 
z
" style="fill: #ffc0cb; stroke: #ffffff; stroke-linejoin: miter"/>
   </g>
   <g id="patch_13">
    <path d="M 356.285169 208.853756 
C 356.456036 205.374264 356.509725 201.890006 356.446145 198.406902 
C 356.382565 194.923798 356.201753 191.443821 355.904015 187.972883 
L 201.24 201.24 
z
" style="fill: #afeeee; stroke: #ffffff; stroke-linejoin: miter"/>
   </g>
   <g id="patch_14">
    <path d="M 355.904015 187.972883 
C 355.666651 185.205766 355.355069 182.445517 354.969606 179.695118 
C 354.584144 176.944719 354.124939 174.205159 353.592487 171.479398 
L 201.24 201.24 
z
" style="fill: #f5deb3; stroke: #ffffff; stroke-linejoin: miter"/>
   </g>
   <g id="patch_15">
    <path d="M 353.592487 171.479398 
C 353.186357 169.400307 352.73771 167.329748 352.246829 165.269021 
C 351.755948 163.208293 351.222936 161.15783 350.648127 159.11892 
L 201.24 201.24 
z
" style="fill: #4682b4; stroke: #ffffff; stroke-linejoin: miter"/>
   </g>
   <g id="patch_16">
    <path d="M 350.648127 159.11892 
C 350.094068 157.153613 349.501286 155.199428 348.870127 153.257508 
C 348.238967 151.315588 347.569553 149.386311 346.862276 147.470802 
L 201.24 201.24 
z
" style="fill: #db7093; stroke: #ffffff; stroke-linejoin: miter"/>
   </g>
   <g id="patch_17">
    <path d="M 346.862276 147.470802 
C 346.198369 145.672754 345.501218 143.887157 344.77118 142.114928 
C 344.041143 140.3427 343.278344 138.584144 342.483178 136.840166 
L 201.24 201.24 
z
" style="fill: #7b68ee; stroke: #ffffff; stroke-linejoin: miter"/>
   </g>
   <g id="patch_18">
    <path d="M 342.483178 136.840166 
C 341.889504 135.538108 341.277854 134.244321 340.648404 132.959177 
C 340.018953 131.674033 339.371762 130.397654 338.707016 129.130407 
L 201.24 201.24 
z
" style="fill: #00ffff; stroke: #ffffff; stroke-linejoin: miter"/>
   </g>
   <g id="patch_19">
    <path d="M 338.707016 129.130407 
C 338.043132 127.864804 337.361802 126.608429 336.663221 125.361642 
C 335.964639 124.114856 335.248873 122.877776 334.516128 121.650757 
L 201.24 201.24 
z
" style="fill: #ee82ee; stroke: #ffffff; stroke-linejoin: miter"/>
   </g>
   <g id="patch_20">
    <path d="M 334.516128 121.650757 
C 333.909032 120.634145 333.290324 119.624513 332.660126 118.622059 
C 332.029928 117.619604 331.388281 116.624393 330.73531 115.636621 
L 201.24 201.24 
z
" style="fill: #ff7f50; stroke: #ffffff; stroke-linejoin: miter"/>
   </g>
   <g id="patch_21">
    <path d="M 330.73531 115.636621 
C 330.182748 114.80074 329.622105 113.970229 329.053461 113.145204 
C 328.484817 112.320179 327.908198 111.50068 327.323685 110.686821 
L 201.24 201.24 
z
" style="fill: #ffb6c1; stroke: #ffffff; stroke-linejoin: miter"/>
   </g>
   <g id="patch_22">
    <path d="M 327.323685 110.686821 
C 312.950259 90.673669 294.016257 74.36738 272.092748 63.120986 
C 250.169239 51.874592 225.879846 46.008001 201.240008 46.008 
L 201.24 201.24 
z
" style="fill: #ffd700; stroke: #ffffff; stroke-linejoin: miter"/>
   </g>
   <g id="legend_1">
    <g id="text_1">
     <!-- Languages -->
     <g style="fill: #e6e6e6" transform="translate(433.744844 53.44625) scale(0.1 -0.1)">
      <defs>
       <path id="LiberationSans-4c" d="M 525 0 
L 525 4403 
L 1122 4403 
L 1122 488 
L 3347 488 
L 3347 0 
L 525 0 
z
" transform="scale(0.015625)"/>
       <path id="LiberationSans-61" d="M 1294 -63 
Q 784 -63 528 206 
Q 272 475 272 944 
Q 272 1469 617 1750 
Q 963 2031 1731 2050 
L 2491 2063 
L 2491 2247 
Q 2491 2659 2316 2837 
Q 2141 3016 1766 3016 
Q 1388 3016 1216 2887 
Q 1044 2759 1009 2478 
L 422 2531 
Q 566 3444 1778 3444 
Q 2416 3444 2737 3151 
Q 3059 2859 3059 2306 
L 3059 850 
Q 3059 600 3125 473 
Q 3191 347 3375 347 
Q 3456 347 3559 369 
L 3559 19 
Q 3347 -31 3125 -31 
Q 2813 -31 2670 133 
Q 2528 297 2509 647 
L 2491 647 
Q 2275 259 1989 98 
Q 1703 -63 1294 -63 
z
M 1422 359 
Q 1731 359 1972 500 
Q 2213 641 2352 886 
Q 2491 1131 2491 1391 
L 2491 1669 
L 1875 1656 
Q 1478 1650 1273 1575 
Q 1069 1500 959 1344 
Q 850 1188 850 934 
Q 850 659 998 509 
Q 1147 359 1422 359 
z
" transform="scale(0.015625)"/>
       <path id="LiberationSans-6e" d="M 2578 0 
L 2578 2144 
Q 2578 2478 2512 2662 
Q 2447 2847 2303 2928 
Q 2159 3009 1881 3009 
Q 1475 3009 1240 2731 
Q 1006 2453 1006 1959 
L 1006 0 
L 444 0 
L 444 2659 
Q 444 3250 425 3381 
L 956 3381 
Q 959 3366 962 3297 
Q 966 3228 970 3139 
Q 975 3050 981 2803 
L 991 2803 
Q 1184 3153 1439 3298 
Q 1694 3444 2072 3444 
Q 2628 3444 2886 3167 
Q 3144 2891 3144 2253 
L 3144 0 
L 2578 0 
z
" transform="scale(0.015625)"/>
       <path id="LiberationSans-67" d="M 1713 -1328 
Q 1159 -1328 831 -1111 
Q 503 -894 409 -494 
L 975 -413 
Q 1031 -647 1223 -773 
Q 1416 -900 1728 -900 
Q 2569 -900 2569 84 
L 2569 628 
L 2563 628 
Q 2403 303 2125 139 
Q 1847 -25 1475 -25 
Q 853 -25 561 387 
Q 269 800 269 1684 
Q 269 2581 583 3007 
Q 897 3434 1538 3434 
Q 1897 3434 2161 3270 
Q 2425 3106 2569 2803 
L 2575 2803 
Q 2575 2897 2587 3128 
Q 2600 3359 2613 3381 
L 3147 3381 
Q 3128 3213 3128 2681 
L 3128 97 
Q 3128 -1328 1713 -1328 
z
M 2569 1691 
Q 2569 2103 2456 2401 
Q 2344 2700 2139 2858 
Q 1934 3016 1675 3016 
Q 1244 3016 1047 2703 
Q 850 2391 850 1691 
Q 850 997 1034 694 
Q 1219 391 1666 391 
Q 1931 391 2137 547 
Q 2344 703 2456 995 
Q 2569 1288 2569 1691 
z
" transform="scale(0.015625)"/>
       <path id="LiberationSans-75" d="M 981 3381 
L 981 1238 
Q 981 903 1047 718 
Q 1113 534 1256 453 
Q 1400 372 1678 372 
Q 2084 372 2318 650 
Q 2553 928 2553 1422 
L 2553 3381 
L 3116 3381 
L 3116 722 
Q 3116 131 3134 0 
L 2603 0 
Q 2600 16 2597 84 
Q 2594 153 2589 242 
Q 2584 331 2578 578 
L 2569 578 
Q 2375 228 2120 82 
Q 1866 -63 1488 -63 
Q 931 -63 673 214 
Q 416 491 416 1128 
L 416 3381 
L 981 3381 
z
" transform="scale(0.015625)"/>
       <path id="LiberationSans-65" d="M 863 1572 
Q 863 991 1103 675 
Q 1344 359 1806 359 
Q 2172 359 2392 506 
Q 2613 653 2691 878 
L 3184 738 
Q 2881 -63 1806 -63 
Q 1056 -63 664 384 
Q 272 831 272 1713 
Q 272 2550 664 2997 
Q 1056 3444 1784 3444 
Q 3275 3444 3275 1647 
L 3275 1572 
L 863 1572 
z
M 2694 2003 
Q 2647 2538 2422 2783 
Q 2197 3028 1775 3028 
Q 1366 3028 1127 2754 
Q 888 2481 869 2003 
L 2694 2003 
z
" transform="scale(0.015625)"/>
       <path id="LiberationSans-73" d="M 2969 934 
Q 2969 456 2608 196 
Q 2247 -63 1597 -63 
Q 966 -63 623 145 
Q 281 353 178 794 
L 675 891 
Q 747 619 972 492 
Q 1197 366 1597 366 
Q 2025 366 2223 497 
Q 2422 628 2422 891 
Q 2422 1091 2284 1216 
Q 2147 1341 1841 1422 
L 1438 1528 
Q 953 1653 748 1773 
Q 544 1894 428 2066 
Q 313 2238 313 2488 
Q 313 2950 642 3192 
Q 972 3434 1603 3434 
Q 2163 3434 2492 3237 
Q 2822 3041 2909 2606 
L 2403 2544 
Q 2356 2769 2151 2889 
Q 1947 3009 1603 3009 
Q 1222 3009 1040 2893 
Q 859 2778 859 2544 
Q 859 2400 934 2306 
Q 1009 2213 1156 2147 
Q 1303 2081 1775 1966 
Q 2222 1853 2419 1758 
Q 2616 1663 2730 1547 
Q 2844 1431 2906 1279 
Q 2969 1128 2969 934 
z
" transform="scale(0.015625)"/>
      </defs>
      <use xlink:href="#LiberationSans-4c"/>
      <use xlink:href="#LiberationSans-61" x="55.615234"/>
      <use xlink:href="#LiberationSans-6e" x="111.230469"/>
      <use xlink:href="#LiberationSans-67" x="166.845703"/>
      <use xlink:href="#LiberationSans-75" x="222.460938"/>
      <use xlink:href="#LiberationSans-61" x="278.076172"/>
      <use xlink:href="#LiberationSans-67" x="333.691406"/>
      <use xlink:href="#LiberationSans-65" x="389.306641"/>
      <use xlink:href="#LiberationSans-73" x="444.921875"/>
     </g>
    </g>
    <g id="patch_23">
     <path d="M 404.28 67.768125 
L 424.28 67.768125 
L 424.28 60.768125 
L 404.28 60.768125 
z
" style="fill: #ff1493; stroke: #ffffff; stroke-linejoin: miter"/>
    </g>
    <g id="text_2">
     <!-- 14.1% JavaScript -->
     <g style="fill: #e6e6e6" transform="translate(432.28 67.768125) scale(0.1 -0.1)">
      <defs>
       <path id="LiberationSans-31" d="M 488 0 
L 488 478 
L 1609 478 
L 1609 3866 
L 616 3156 
L 616 3688 
L 1656 4403 
L 2175 4403 
L 2175 478 
L 3247 478 
L 3247 0 
L 488 0 
z
" transform="scale(0.015625)"/>
       <path id="LiberationSans-34" d="M 2753 997 
L 2753 0 
L 2222 0 
L 2222 997 
L 147 997 
L 147 1434 
L 2163 4403 
L 2753 4403 
L 2753 1441 
L 3372 1441 
L 3372 997 
L 2753 997 
z
M 2222 3769 
Q 2216 3750 2134 3603 
Q 2053 3456 2013 3397 
L 884 1734 
L 716 1503 
L 666 1441 
L 2222 1441 
L 2222 3769 
z
" transform="scale(0.015625)"/>
       <path id="LiberationSans-2e" d="M 584 0 
L 584 684 
L 1194 684 
L 1194 0 
L 584 0 
z
" transform="scale(0.015625)"/>
       <path id="LiberationSans-25" d="M 5463 1356 
Q 5463 684 5209 323 
Q 4956 -38 4463 -38 
Q 3975 -38 3726 314 
Q 3478 666 3478 1356 
Q 3478 2069 3717 2417 
Q 3956 2766 4475 2766 
Q 4988 2766 5225 2408 
Q 5463 2050 5463 1356 
z
M 1647 0 
L 1163 0 
L 4044 4403 
L 4534 4403 
L 1647 0 
z
M 1231 4441 
Q 1728 4441 1968 4091 
Q 2209 3741 2209 3047 
Q 2209 2369 1961 2003 
Q 1713 1638 1219 1638 
Q 725 1638 476 2000 
Q 228 2363 228 3047 
Q 228 3744 468 4092 
Q 709 4441 1231 4441 
z
M 5000 1356 
Q 5000 1916 4879 2167 
Q 4759 2419 4475 2419 
Q 4191 2419 4064 2172 
Q 3938 1925 3938 1356 
Q 3938 822 4061 564 
Q 4184 306 4469 306 
Q 4744 306 4872 567 
Q 5000 828 5000 1356 
z
M 1750 3047 
Q 1750 3597 1631 3850 
Q 1513 4103 1231 4103 
Q 938 4103 813 3854 
Q 688 3606 688 3047 
Q 688 2506 813 2248 
Q 938 1991 1225 1991 
Q 1497 1991 1623 2253 
Q 1750 2516 1750 3047 
z
" transform="scale(0.015625)"/>
       <path id="LiberationSans-20" transform="scale(0.015625)"/>
       <path id="LiberationSans-4a" d="M 1428 -63 
Q 309 -63 100 1094 
L 684 1191 
Q 741 828 937 625 
Q 1134 422 1431 422 
Q 1756 422 1943 645 
Q 2131 869 2131 1300 
L 2131 3916 
L 1284 3916 
L 1284 4403 
L 2725 4403 
L 2725 1313 
Q 2725 672 2378 304 
Q 2031 -63 1428 -63 
z
" transform="scale(0.015625)"/>
       <path id="LiberationSans-76" d="M 1916 0 
L 1250 0 
L 22 3381 
L 622 3381 
L 1366 1181 
Q 1406 1056 1581 441 
L 1691 806 
L 1813 1175 
L 2581 3381 
L 3178 3381 
L 1916 0 
z
" transform="scale(0.015625)"/>
       <path id="LiberationSans-53" d="M 3975 1216 
Q 3975 606 3498 271 
Q 3022 -63 2156 -63 
Q 547 -63 291 1056 
L 869 1172 
Q 969 775 1294 589 
Q 1619 403 2178 403 
Q 2756 403 3070 601 
Q 3384 800 3384 1184 
Q 3384 1400 3286 1534 
Q 3188 1669 3009 1756 
Q 2831 1844 2584 1903 
Q 2338 1963 2038 2031 
Q 1516 2147 1245 2262 
Q 975 2378 819 2520 
Q 663 2663 580 2853 
Q 497 3044 497 3291 
Q 497 3856 930 4162 
Q 1363 4469 2169 4469 
Q 2919 4469 3316 4239 
Q 3713 4009 3872 3456 
L 3284 3353 
Q 3188 3703 2916 3861 
Q 2644 4019 2163 4019 
Q 1634 4019 1356 3844 
Q 1078 3669 1078 3322 
Q 1078 3119 1186 2986 
Q 1294 2853 1497 2761 
Q 1700 2669 2306 2534 
Q 2509 2488 2711 2439 
Q 2913 2391 3097 2323 
Q 3281 2256 3442 2165 
Q 3603 2075 3722 1944 
Q 3841 1813 3908 1634 
Q 3975 1456 3975 1216 
z
" transform="scale(0.015625)"/>
       <path id="LiberationSans-63" d="M 859 1706 
Q 859 1031 1071 706 
Q 1284 381 1713 381 
Q 2013 381 2214 543 
Q 2416 706 2463 1044 
L 3031 1006 
Q 2966 519 2616 228 
Q 2266 -63 1728 -63 
Q 1019 -63 645 385 
Q 272 834 272 1694 
Q 272 2547 647 2995 
Q 1022 3444 1722 3444 
Q 2241 3444 2583 3175 
Q 2925 2906 3013 2434 
L 2434 2391 
Q 2391 2672 2212 2837 
Q 2034 3003 1706 3003 
Q 1259 3003 1059 2706 
Q 859 2409 859 1706 
z
" transform="scale(0.015625)"/>
       <path id="LiberationSans-72" d="M 444 0 
L 444 2594 
Q 444 2950 425 3381 
L 956 3381 
Q 981 2806 981 2691 
L 994 2691 
Q 1128 3125 1303 3284 
Q 1478 3444 1797 3444 
Q 1909 3444 2025 3413 
L 2025 2897 
Q 1913 2928 1725 2928 
Q 1375 2928 1190 2626 
Q 1006 2325 1006 1763 
L 1006 0 
L 444 0 
z
" transform="scale(0.015625)"/>
       <path id="LiberationSans-69" d="M 428 4100 
L 428 4638 
L 991 4638 
L 991 4100 
L 428 4100 
z
M 428 0 
L 428 3381 
L 991 3381 
L 991 0 
L 428 0 
z
" transform="scale(0.015625)"/>
       <path id="LiberationSans-70" d="M 3291 1706 
Q 3291 -63 2047 -63 
Q 1266 -63 997 525 
L 981 525 
Q 994 500 994 -6 
L 994 -1328 
L 431 -1328 
L 431 2691 
Q 431 3213 413 3381 
L 956 3381 
Q 959 3369 965 3292 
Q 972 3216 980 3056 
Q 988 2897 988 2838 
L 1000 2838 
Q 1150 3150 1397 3295 
Q 1644 3441 2047 3441 
Q 2672 3441 2981 3022 
Q 3291 2603 3291 1706 
z
M 2700 1694 
Q 2700 2400 2509 2703 
Q 2319 3006 1903 3006 
Q 1569 3006 1380 2865 
Q 1191 2725 1092 2426 
Q 994 2128 994 1650 
Q 994 984 1206 668 
Q 1419 353 1897 353 
Q 2316 353 2508 661 
Q 2700 969 2700 1694 
z
" transform="scale(0.015625)"/>
       <path id="LiberationSans-74" d="M 1731 25 
Q 1453 -50 1163 -50 
Q 488 -50 488 716 
L 488 2972 
L 97 2972 
L 97 3381 
L 509 3381 
L 675 4138 
L 1050 4138 
L 1050 3381 
L 1675 3381 
L 1675 2972 
L 1050 2972 
L 1050 838 
Q 1050 594 1129 495 
Q 1209 397 1406 397 
Q 1519 397 1731 441 
L 1731 25 
z
" transform="scale(0.015625)"/>
      </defs>
      <use xlink:href="#LiberationSans-31"/>
      <use xlink:href="#LiberationSans-34" x="55.615234"/>
      <use xlink:href="#LiberationSans-2e" x="111.230469"/>
      <use xlink:href="#LiberationSans-31" x="139.013672"/>
      <use xlink:href="#LiberationSans-25" x="194.628906"/>
      <use xlink:href="#LiberationSans-20" x="283.544922"/>
      <use xlink:href="#LiberationSans-4a" x="311.328125"/>
      <use xlink:href="#LiberationSans-61" x="361.328125"/>
      <use xlink:href="#LiberationSans-76" x="416.943359"/>
      <use xlink:href="#LiberationSans-61" x="466.943359"/>
      <use xlink:href="#LiberationSans-53" x="522.558594"/>
      <use xlink:href="#LiberationSans-63" x="589.257812"/>
      <use xlink:href="#LiberationSans-72" x="639.257812"/>
      <use xlink:href="#LiberationSans-69" x="672.558594"/>
      <use xlink:href="#LiberationSans-70" x="694.775391"/>
      <use xlink:href="#LiberationSans-74" x="750.390625"/>
     </g>
    </g>
    <g id="patch_24">
     <path d="M 404.28 82.09 
L 424.28 82.09 
L 424.28 75.09 
L 404.28 75.09 
z
" style="fill: #40e0d0; stroke: #ffffff; stroke-linejoin: miter"/>
    </g>
    <g id="text_3">
     <!-- 10.4% CSS -->
     <g style="fill: #e6e6e6" transform="translate(432.28 82.09) scale(0.1 -0.1)">
      <defs>
       <path id="LiberationSans-30" d="M 3309 2203 
Q 3309 1100 2920 518 
Q 2531 -63 1772 -63 
Q 1013 -63 631 515 
Q 250 1094 250 2203 
Q 250 3338 620 3903 
Q 991 4469 1791 4469 
Q 2569 4469 2939 3897 
Q 3309 3325 3309 2203 
z
M 2738 2203 
Q 2738 3156 2517 3584 
Q 2297 4013 1791 4013 
Q 1272 4013 1045 3591 
Q 819 3169 819 2203 
Q 819 1266 1048 831 
Q 1278 397 1778 397 
Q 2275 397 2506 840 
Q 2738 1284 2738 2203 
z
" transform="scale(0.015625)"/>
       <path id="LiberationSans-43" d="M 2475 3981 
Q 1744 3981 1337 3511 
Q 931 3041 931 2222 
Q 931 1413 1354 920 
Q 1778 428 2500 428 
Q 3425 428 3891 1344 
L 4378 1100 
Q 4106 531 3614 234 
Q 3122 -63 2472 -63 
Q 1806 -63 1320 214 
Q 834 491 579 1005 
Q 325 1519 325 2222 
Q 325 3275 894 3872 
Q 1463 4469 2469 4469 
Q 3172 4469 3644 4194 
Q 4116 3919 4338 3378 
L 3772 3191 
Q 3619 3575 3280 3778 
Q 2941 3981 2475 3981 
z
" transform="scale(0.015625)"/>
      </defs>
      <use xlink:href="#LiberationSans-31"/>
      <use xlink:href="#LiberationSans-30" x="55.615234"/>
      <use xlink:href="#LiberationSans-2e" x="111.230469"/>
      <use xlink:href="#LiberationSans-34" x="139.013672"/>
      <use xlink:href="#LiberationSans-25" x="194.628906"/>
      <use xlink:href="#LiberationSans-20" x="283.544922"/>
      <use xlink:href="#LiberationSans-43" x="311.328125"/>
      <use xlink:href="#LiberationSans-53" x="383.544922"/>
      <use xlink:href="#LiberationSans-53" x="450.244141"/>
     </g>
    </g>
    <g id="patch_25">
     <path d="M 404.28 96.411875 
L 424.28 96.411875 
L 424.28 89.411875 
L 404.28 89.411875 
z
" style="fill: #dda0dd; stroke: #ffffff; stroke-linejoin: miter"/>
    </g>
    <g id="text_4">
     <!-- 10.0% HTML -->
     <g style="fill: #e6e6e6" transform="translate(432.28 96.411875) scale(0.1 -0.1)">
      <defs>
       <path id="LiberationSans-48" d="M 3503 0 
L 3503 2041 
L 1122 2041 
L 1122 0 
L 525 0 
L 525 4403 
L 1122 4403 
L 1122 2541 
L 3503 2541 
L 3503 4403 
L 4100 4403 
L 4100 0 
L 3503 0 
z
" transform="scale(0.015625)"/>
       <path id="LiberationSans-54" d="M 2250 3916 
L 2250 0 
L 1656 0 
L 1656 3916 
L 144 3916 
L 144 4403 
L 3763 4403 
L 3763 3916 
L 2250 3916 
z
" transform="scale(0.015625)"/>
       <path id="LiberationSans-4d" d="M 4269 0 
L 4269 2938 
Q 4269 3425 4297 3875 
Q 4144 3316 4022 3000 
L 2884 0 
L 2466 0 
L 1313 3000 
L 1138 3531 
L 1034 3875 
L 1044 3528 
L 1056 2938 
L 1056 0 
L 525 0 
L 525 4403 
L 1309 4403 
L 2481 1350 
Q 2544 1166 2601 955 
Q 2659 744 2678 650 
Q 2703 775 2783 1029 
Q 2863 1284 2891 1350 
L 4041 4403 
L 4806 4403 
L 4806 0 
L 4269 0 
z
" transform="scale(0.015625)"/>
      </defs>
      <use xlink:href="#LiberationSans-31"/>
      <use xlink:href="#LiberationSans-30" x="55.615234"/>
      <use xlink:href="#LiberationSans-2e" x="111.230469"/>
      <use xlink:href="#LiberationSans-30" x="139.013672"/>
      <use xlink:href="#LiberationSans-25" x="194.628906"/>
      <use xlink:href="#LiberationSans-20" x="283.544922"/>
      <use xlink:href="#LiberationSans-48" x="311.328125"/>
      <use xlink:href="#LiberationSans-54" x="383.544922"/>
      <use xlink:href="#LiberationSans-4d" x="444.628906"/>
      <use xlink:href="#LiberationSans-4c" x="527.929688"/>
     </g>
    </g>
    <g id="patch_26">
     <path d="M 404.28 110.73375 
L 424.28 110.73375 
L 424.28 103.73375 
L 404.28 103.73375 
z
" style="fill: #dc143c; stroke: #ffffff; stroke-linejoin: miter"/>
    </g>
    <g id="text_5">
     <!-- 8.2% Shell -->
     <g style="fill: #e6e6e6" transform="translate(432.28 110.73375) scale(0.1 -0.1)">
      <defs>
       <path id="LiberationSans-38" d="M 3281 1228 
Q 3281 619 2893 278 
Q 2506 -63 1781 -63 
Q 1075 -63 676 271 
Q 278 606 278 1222 
Q 278 1653 525 1947 
Q 772 2241 1156 2303 
L 1156 2316 
Q 797 2400 589 2681 
Q 381 2963 381 3341 
Q 381 3844 757 4156 
Q 1134 4469 1769 4469 
Q 2419 4469 2795 4162 
Q 3172 3856 3172 3334 
Q 3172 2956 2962 2675 
Q 2753 2394 2391 2322 
L 2391 2309 
Q 2813 2241 3047 1952 
Q 3281 1663 3281 1228 
z
M 2588 3303 
Q 2588 4050 1769 4050 
Q 1372 4050 1164 3862 
Q 956 3675 956 3303 
Q 956 2925 1170 2726 
Q 1384 2528 1775 2528 
Q 2172 2528 2380 2711 
Q 2588 2894 2588 3303 
z
M 2697 1281 
Q 2697 1691 2453 1898 
Q 2209 2106 1769 2106 
Q 1341 2106 1100 1882 
Q 859 1659 859 1269 
Q 859 359 1788 359 
Q 2247 359 2472 579 
Q 2697 800 2697 1281 
z
" transform="scale(0.015625)"/>
       <path id="LiberationSans-32" d="M 322 0 
L 322 397 
Q 481 763 711 1042 
Q 941 1322 1194 1548 
Q 1447 1775 1695 1969 
Q 1944 2163 2144 2356 
Q 2344 2550 2467 2762 
Q 2591 2975 2591 3244 
Q 2591 3606 2378 3806 
Q 2166 4006 1788 4006 
Q 1428 4006 1195 3811 
Q 963 3616 922 3263 
L 347 3316 
Q 409 3844 795 4156 
Q 1181 4469 1788 4469 
Q 2453 4469 2811 4155 
Q 3169 3841 3169 3263 
Q 3169 3006 3051 2753 
Q 2934 2500 2703 2247 
Q 2472 1994 1819 1463 
Q 1459 1169 1246 933 
Q 1034 697 941 478 
L 3238 478 
L 3238 0 
L 322 0 
z
" transform="scale(0.015625)"/>
       <path id="LiberationSans-68" d="M 991 2803 
Q 1172 3134 1426 3289 
Q 1681 3444 2072 3444 
Q 2622 3444 2883 3170 
Q 3144 2897 3144 2253 
L 3144 0 
L 2578 0 
L 2578 2144 
Q 2578 2500 2512 2673 
Q 2447 2847 2297 2928 
Q 2147 3009 1881 3009 
Q 1484 3009 1245 2734 
Q 1006 2459 1006 1994 
L 1006 0 
L 444 0 
L 444 4638 
L 1006 4638 
L 1006 3431 
Q 1006 3241 995 3037 
Q 984 2834 981 2803 
L 991 2803 
z
" transform="scale(0.015625)"/>
       <path id="LiberationSans-6c" d="M 431 0 
L 431 4638 
L 994 4638 
L 994 0 
L 431 0 
z
" transform="scale(0.015625)"/>
      </defs>
      <use xlink:href="#LiberationSans-38"/>
      <use xlink:href="#LiberationSans-2e" x="55.615234"/>
      <use xlink:href="#LiberationSans-32" x="83.398438"/>
      <use xlink:href="#LiberationSans-25" x="139.013672"/>
      <use xlink:href="#LiberationSans-20" x="227.929688"/>
      <use xlink:href="#LiberationSans-53" x="255.712891"/>
      <use xlink:href="#LiberationSans-68" x="322.412109"/>
      <use xlink:href="#LiberationSans-65" x="378.027344"/>
      <use xlink:href="#LiberationSans-6c" x="433.642578"/>
      <use xlink:href="#LiberationSans-6c" x="455.859375"/>
     </g>
    </g>
    <g id="patch_27">
     <path d="M 404.28 125.055625 
L 424.28 125.055625 
L 424.28 118.055625 
L 404.28 118.055625 
z
" style="fill: #6495ed; stroke: #ffffff; stroke-linejoin: miter"/>
    </g>
    <g id="text_6">
     <!-- 7.1% Python -->
     <g style="fill: #e6e6e6" transform="translate(432.28 125.055625) scale(0.1 -0.1)">
      <defs>
       <path id="LiberationSans-37" d="M 3238 3947 
Q 2563 2916 2284 2331 
Q 2006 1747 1867 1178 
Q 1728 609 1728 0 
L 1141 0 
Q 1141 844 1498 1776 
Q 1856 2709 2694 3925 
L 328 3925 
L 328 4403 
L 3238 4403 
L 3238 3947 
z
" transform="scale(0.015625)"/>
       <path id="LiberationSans-50" d="M 3931 3078 
Q 3931 2453 3523 2084 
Q 3116 1716 2416 1716 
L 1122 1716 
L 1122 0 
L 525 0 
L 525 4403 
L 2378 4403 
Q 3119 4403 3525 4056 
Q 3931 3709 3931 3078 
z
M 3331 3072 
Q 3331 3925 2306 3925 
L 1122 3925 
L 1122 2188 
L 2331 2188 
Q 3331 2188 3331 3072 
z
" transform="scale(0.015625)"/>
       <path id="LiberationSans-79" d="M 597 -1328 
Q 366 -1328 209 -1294 
L 209 -872 
Q 328 -891 472 -891 
Q 997 -891 1303 -119 
L 1356 16 
L 16 3381 
L 616 3381 
L 1328 1513 
Q 1344 1469 1366 1408 
Q 1388 1347 1506 1000 
Q 1625 653 1634 613 
L 1853 1228 
L 2594 3381 
L 3188 3381 
L 1888 0 
Q 1678 -541 1497 -805 
Q 1316 -1069 1095 -1198 
Q 875 -1328 597 -1328 
z
" transform="scale(0.015625)"/>
       <path id="LiberationSans-6f" d="M 3291 1694 
Q 3291 806 2900 371 
Q 2509 -63 1766 -63 
Q 1025 -63 647 389 
Q 269 841 269 1694 
Q 269 3444 1784 3444 
Q 2559 3444 2925 3017 
Q 3291 2591 3291 1694 
z
M 2700 1694 
Q 2700 2394 2492 2711 
Q 2284 3028 1794 3028 
Q 1300 3028 1079 2704 
Q 859 2381 859 1694 
Q 859 1025 1076 689 
Q 1294 353 1759 353 
Q 2266 353 2483 678 
Q 2700 1003 2700 1694 
z
" transform="scale(0.015625)"/>
      </defs>
      <use xlink:href="#LiberationSans-37"/>
      <use xlink:href="#LiberationSans-2e" x="55.615234"/>
      <use xlink:href="#LiberationSans-31" x="83.398438"/>
      <use xlink:href="#LiberationSans-25" x="139.013672"/>
      <use xlink:href="#LiberationSans-20" x="227.929688"/>
      <use xlink:href="#LiberationSans-50" x="255.712891"/>
      <use xlink:href="#LiberationSans-79" x="322.412109"/>
      <use xlink:href="#LiberationSans-74" x="372.412109"/>
      <use xlink:href="#LiberationSans-68" x="400.195312"/>
      <use xlink:href="#LiberationSans-6f" x="455.810547"/>
      <use xlink:href="#LiberationSans-6e" x="511.425781"/>
     </g>
    </g>
    <g id="patch_28">
     <path d="M 404.28 139.3775 
L 424.28 139.3775 
L 424.28 132.3775 
L 404.28 132.3775 
z
" style="fill: #40e0d0; stroke: #ffffff; stroke-linejoin: miter"/>
    </g>
    <g id="text_7">
     <!-- 4.8% Ruby -->
     <g style="fill: #e6e6e6" transform="translate(432.28 139.3775) scale(0.1 -0.1)">
      <defs>
       <path id="LiberationSans-52" d="M 3638 0 
L 2494 1828 
L 1122 1828 
L 1122 0 
L 525 0 
L 525 4403 
L 2597 4403 
Q 3341 4403 3745 4070 
Q 4150 3738 4150 3144 
Q 4150 2653 3864 2318 
Q 3578 1984 3075 1897 
L 4325 0 
L 3638 0 
z
M 3550 3138 
Q 3550 3522 3289 3723 
Q 3028 3925 2538 3925 
L 1122 3925 
L 1122 2300 
L 2563 2300 
Q 3034 2300 3292 2520 
Q 3550 2741 3550 3138 
z
" transform="scale(0.015625)"/>
       <path id="LiberationSans-62" d="M 3291 1706 
Q 3291 -63 2047 -63 
Q 1663 -63 1408 76 
Q 1153 216 994 525 
L 988 525 
Q 988 428 975 229 
Q 963 31 956 0 
L 413 0 
Q 431 169 431 697 
L 431 4638 
L 994 4638 
L 994 3316 
Q 994 3113 981 2838 
L 994 2838 
Q 1150 3163 1408 3303 
Q 1666 3444 2047 3444 
Q 2688 3444 2989 3012 
Q 3291 2581 3291 1706 
z
M 2700 1688 
Q 2700 2397 2512 2703 
Q 2325 3009 1903 3009 
Q 1428 3009 1211 2684 
Q 994 2359 994 1653 
Q 994 988 1206 670 
Q 1419 353 1897 353 
Q 2322 353 2511 667 
Q 2700 981 2700 1688 
z
" transform="scale(0.015625)"/>
      </defs>
      <use xlink:href="#LiberationSans-34"/>
      <use xlink:href="#LiberationSans-2e" x="55.615234"/>
      <use xlink:href="#LiberationSans-38" x="83.398438"/>
      <use xlink:href="#LiberationSans-25" x="139.013672"/>
      <use xlink:href="#LiberationSans-20" x="227.929688"/>
      <use xlink:href="#LiberationSans-52" x="255.712891"/>
      <use xlink:href="#LiberationSans-75" x="327.929688"/>
      <use xlink:href="#LiberationSans-62" x="383.544922"/>
      <use xlink:href="#LiberationSans-79" x="439.160156"/>
     </g>
    </g>
    <g id="patch_29">
     <path d="M 404.28 153.699375 
L 424.28 153.699375 
L 424.28 146.699375 
L 404.28 146.699375 
z
" style="fill: #3cb371; stroke: #ffffff; stroke-linejoin: miter"/>
    </g>
    <g id="text_8">
     <!-- 4.7% Java -->
     <g style="fill: #e6e6e6" transform="translate(432.28 153.699375) scale(0.1 -0.1)">
      <use xlink:href="#LiberationSans-34"/>
      <use xlink:href="#LiberationSans-2e" x="55.615234"/>
      <use xlink:href="#LiberationSans-37" x="83.398438"/>
      <use xlink:href="#LiberationSans-25" x="139.013672"/>
      <use xlink:href="#LiberationSans-20" x="227.929688"/>
      <use xlink:href="#LiberationSans-4a" x="255.712891"/>
      <use xlink:href="#LiberationSans-61" x="305.712891"/>
      <use xlink:href="#LiberationSans-76" x="361.328125"/>
      <use xlink:href="#LiberationSans-61" x="411.328125"/>
     </g>
    </g>
    <g id="patch_30">
     <path d="M 404.28 168.02125 
L 424.28 168.02125 
L 424.28 161.02125 
L 404.28 161.02125 
z
" style="fill: #ffa07a; stroke: #ffffff; stroke-linejoin: miter"/>
    </g>
    <g id="text_9">
     <!-- 4.4% PHP -->
     <g style="fill: #e6e6e6" transform="translate(432.28 168.02125) scale(0.1 -0.1)">
      <use xlink:href="#LiberationSans-34"/>
      <use xlink:href="#LiberationSans-2e" x="55.615234"/>
      <use xlink:href="#LiberationSans-34" x="83.398438"/>
      <use xlink:href="#LiberationSans-25" x="139.013672"/>
      <use xlink:href="#LiberationSans-20" x="227.929688"/>
      <use xlink:href="#LiberationSans-50" x="255.712891"/>
      <use xlink:href="#LiberationSans-48" x="322.412109"/>
      <use xlink:href="#LiberationSans-50" x="394.628906"/>
     </g>
    </g>
    <g id="patch_31">
     <path d="M 404.28 182.343125 
L 424.28 182.343125 
L 424.28 175.343125 
L 404.28 175.343125 
z
" style="fill: #ff69b4; stroke: #ffffff; stroke-linejoin: miter"/>
    </g>
    <g id="text_10">
     <!-- 3.8% C -->
     <g style="fill: #e6e6e6" transform="translate(432.28 182.343125) scale(0.1 -0.1)">
      <defs>
       <path id="LiberationSans-33" d="M 3278 1216 
Q 3278 606 2890 271 
Q 2503 -63 1784 -63 
Q 1116 -63 717 239 
Q 319 541 244 1131 
L 825 1184 
Q 938 403 1784 403 
Q 2209 403 2451 612 
Q 2694 822 2694 1234 
Q 2694 1594 2417 1795 
Q 2141 1997 1619 1997 
L 1300 1997 
L 1300 2484 
L 1606 2484 
Q 2069 2484 2323 2686 
Q 2578 2888 2578 3244 
Q 2578 3597 2370 3801 
Q 2163 4006 1753 4006 
Q 1381 4006 1151 3815 
Q 922 3625 884 3278 
L 319 3322 
Q 381 3863 767 4166 
Q 1153 4469 1759 4469 
Q 2422 4469 2789 4161 
Q 3156 3853 3156 3303 
Q 3156 2881 2920 2617 
Q 2684 2353 2234 2259 
L 2234 2247 
Q 2728 2194 3003 1916 
Q 3278 1638 3278 1216 
z
" transform="scale(0.015625)"/>
      </defs>
      <use xlink:href="#LiberationSans-33"/>
      <use xlink:href="#LiberationSans-2e" x="55.615234"/>
      <use xlink:href="#LiberationSans-38" x="83.398438"/>
      <use xlink:href="#LiberationSans-25" x="139.013672"/>
      <use xlink:href="#LiberationSans-20" x="227.929688"/>
      <use xlink:href="#LiberationSans-43" x="255.712891"/>
     </g>
    </g>
    <g id="patch_32">
     <path d="M 404.28 196.665 
L 424.28 196.665 
L 424.28 189.665 
L 404.28 189.665 
z
" style="fill: #ba55d3; stroke: #ffffff; stroke-linejoin: miter"/>
    </g>
    <g id="text_11">
     <!-- 3.6% C++ -->
     <g style="fill: #e6e6e6" transform="translate(432.28 196.665) scale(0.1 -0.1)">
      <defs>
       <path id="LiberationSans-36" d="M 3278 1441 
Q 3278 744 2900 340 
Q 2522 -63 1856 -63 
Q 1113 -63 719 490 
Q 325 1044 325 2100 
Q 325 3244 734 3856 
Q 1144 4469 1900 4469 
Q 2897 4469 3156 3572 
L 2619 3475 
Q 2453 4013 1894 4013 
Q 1413 4013 1148 3564 
Q 884 3116 884 2266 
Q 1038 2550 1316 2698 
Q 1594 2847 1953 2847 
Q 2563 2847 2920 2465 
Q 3278 2084 3278 1441 
z
M 2706 1416 
Q 2706 1894 2472 2153 
Q 2238 2413 1819 2413 
Q 1425 2413 1183 2183 
Q 941 1953 941 1550 
Q 941 1041 1192 716 
Q 1444 391 1838 391 
Q 2244 391 2475 664 
Q 2706 938 2706 1416 
z
" transform="scale(0.015625)"/>
       <path id="LiberationSans-2b" d="M 2097 1900 
L 2097 563 
L 1638 563 
L 1638 1900 
L 313 1900 
L 313 2356 
L 1638 2356 
L 1638 3694 
L 2097 3694 
L 2097 2356 
L 3422 2356 
L 3422 1900 
L 2097 1900 
z
" transform="scale(0.015625)"/>
      </defs>
      <use xlink:href="#LiberationSans-33"/>
      <use xlink:href="#LiberationSans-2e" x="55.615234"/>
      <use xlink:href="#LiberationSans-36" x="83.398438"/>
      <use xlink:href="#LiberationSans-25" x="139.013672"/>
      <use xlink:href="#LiberationSans-20" x="227.929688"/>
      <use xlink:href="#LiberationSans-43" x="255.712891"/>
      <use xlink:href="#LiberationSans-2b" x="327.929688"/>
      <use xlink:href="#LiberationSans-2b" x="386.328125"/>
     </g>
    </g>
    <g id="patch_33">
     <path d="M 404.28 210.986875 
L 424.28 210.986875 
L 424.28 203.986875 
L 404.28 203.986875 
z
" style="fill: #ffc0cb; stroke: #ffffff; stroke-linejoin: miter"/>
    </g>
    <g id="text_12">
     <!-- 3.2% Makefile -->
     <g style="fill: #e6e6e6" transform="translate(432.28 210.986875) scale(0.1 -0.1)">
      <defs>
       <path id="LiberationSans-6b" d="M 2550 0 
L 1406 1544 
L 994 1203 
L 994 0 
L 431 0 
L 431 4638 
L 994 4638 
L 994 1741 
L 2478 3381 
L 3138 3381 
L 1766 1928 
L 3209 0 
L 2550 0 
z
" transform="scale(0.015625)"/>
       <path id="LiberationSans-66" d="M 1128 2972 
L 1128 0 
L 566 0 
L 566 2972 
L 91 2972 
L 91 3381 
L 566 3381 
L 566 3763 
Q 566 4225 769 4428 
Q 972 4631 1391 4631 
Q 1625 4631 1788 4594 
L 1788 4166 
Q 1647 4191 1538 4191 
Q 1322 4191 1225 4081 
Q 1128 3972 1128 3684 
L 1128 3381 
L 1788 3381 
L 1788 2972 
L 1128 2972 
z
" transform="scale(0.015625)"/>
      </defs>
      <use xlink:href="#LiberationSans-33"/>
      <use xlink:href="#LiberationSans-2e" x="55.615234"/>
      <use xlink:href="#LiberationSans-32" x="83.398438"/>
      <use xlink:href="#LiberationSans-25" x="139.013672"/>
      <use xlink:href="#LiberationSans-20" x="227.929688"/>
      <use xlink:href="#LiberationSans-4d" x="255.712891"/>
      <use xlink:href="#LiberationSans-61" x="339.013672"/>
      <use xlink:href="#LiberationSans-6b" x="394.628906"/>
      <use xlink:href="#LiberationSans-65" x="444.628906"/>
      <use xlink:href="#LiberationSans-66" x="500.244141"/>
      <use xlink:href="#LiberationSans-69" x="528.027344"/>
      <use xlink:href="#LiberationSans-6c" x="550.244141"/>
      <use xlink:href="#LiberationSans-65" x="572.460938"/>
     </g>
    </g>
    <g id="patch_34">
     <path d="M 404.28 225.30875 
L 424.28 225.30875 
L 424.28 218.30875 
L 404.28 218.30875 
z
" style="fill: #afeeee; stroke: #ffffff; stroke-linejoin: miter"/>
    </g>
    <g id="text_13">
     <!-- 2.1% Objective-C -->
     <g style="fill: #e6e6e6" transform="translate(432.28 225.30875) scale(0.1 -0.1)">
      <defs>
       <path id="LiberationSans-4f" d="M 4672 2222 
Q 4672 1531 4408 1012 
Q 4144 494 3650 215 
Q 3156 -63 2484 -63 
Q 1806 -63 1314 212 
Q 822 488 562 1008 
Q 303 1528 303 2222 
Q 303 3278 881 3873 
Q 1459 4469 2491 4469 
Q 3163 4469 3656 4201 
Q 4150 3934 4411 3425 
Q 4672 2916 4672 2222 
z
M 4063 2222 
Q 4063 3044 3652 3512 
Q 3241 3981 2491 3981 
Q 1734 3981 1321 3518 
Q 909 3056 909 2222 
Q 909 1394 1326 908 
Q 1744 422 2484 422 
Q 3247 422 3655 892 
Q 4063 1363 4063 2222 
z
" transform="scale(0.015625)"/>
       <path id="LiberationSans-6a" d="M 428 4100 
L 428 4638 
L 991 4638 
L 991 4100 
L 428 4100 
z
M 991 -419 
Q 991 -897 803 -1112 
Q 616 -1328 241 -1328 
Q 0 -1328 -156 -1300 
L -156 -866 
L 38 -884 
Q 253 -884 340 -771 
Q 428 -659 428 -334 
L 428 3381 
L 991 3381 
L 991 -419 
z
" transform="scale(0.015625)"/>
       <path id="LiberationSans-2d" d="M 284 1450 
L 284 1950 
L 1847 1950 
L 1847 1450 
L 284 1450 
z
" transform="scale(0.015625)"/>
      </defs>
      <use xlink:href="#LiberationSans-32"/>
      <use xlink:href="#LiberationSans-2e" x="55.615234"/>
      <use xlink:href="#LiberationSans-31" x="83.398438"/>
      <use xlink:href="#LiberationSans-25" x="139.013672"/>
      <use xlink:href="#LiberationSans-20" x="227.929688"/>
      <use xlink:href="#LiberationSans-4f" x="255.712891"/>
      <use xlink:href="#LiberationSans-62" x="333.496094"/>
      <use xlink:href="#LiberationSans-6a" x="389.111328"/>
      <use xlink:href="#LiberationSans-65" x="411.328125"/>
      <use xlink:href="#LiberationSans-63" x="466.943359"/>
      <use xlink:href="#LiberationSans-74" x="516.943359"/>
      <use xlink:href="#LiberationSans-69" x="544.726562"/>
      <use xlink:href="#LiberationSans-76" x="566.943359"/>
      <use xlink:href="#LiberationSans-65" x="616.943359"/>
      <use xlink:href="#LiberationSans-2d" x="672.558594"/>
      <use xlink:href="#LiberationSans-43" x="705.859375"/>
     </g>
    </g>
    <g id="patch_35">
     <path d="M 404.28 239.630625 
L 424.28 239.630625 
L 424.28 232.630625 
L 404.28 232.630625 
z
" style="fill: #f5deb3; stroke: #ffffff; stroke-linejoin: miter"/>
    </g>
    <g id="text_14">
     <!-- 1.7% C# -->
     <g style="fill: #e6e6e6" transform="translate(432.28 239.630625) scale(0.1 -0.1)">
      <defs>
       <path id="LiberationSans-23" d="M 2800 2766 
L 2556 1613 
L 3369 1613 
L 3369 1275 
L 2484 1275 
L 2209 0 
L 1866 0 
L 2134 1275 
L 1000 1275 
L 738 0 
L 394 0 
L 656 1275 
L 28 1275 
L 28 1613 
L 731 1613 
L 975 2766 
L 188 2766 
L 188 3103 
L 1044 3103 
L 1322 4378 
L 1666 4378 
L 1391 3103 
L 2525 3103 
L 2800 4378 
L 3144 4378 
L 2869 3103 
L 3528 3103 
L 3528 2766 
L 2800 2766 
z
M 1328 2766 
L 1078 1613 
L 2209 1613 
L 2453 2766 
L 1328 2766 
z
" transform="scale(0.015625)"/>
      </defs>
      <use xlink:href="#LiberationSans-31"/>
      <use xlink:href="#LiberationSans-2e" x="55.615234"/>
      <use xlink:href="#LiberationSans-37" x="83.398438"/>
      <use xlink:href="#LiberationSans-25" x="139.013672"/>
      <use xlink:href="#LiberationSans-20" x="227.929688"/>
      <use xlink:href="#LiberationSans-43" x="255.712891"/>
      <use xlink:href="#LiberationSans-23" x="327.929688"/>
     </g>
    </g>
    <g id="patch_36">
     <path d="M 404.28 253.9525 
L 424.28 253.9525 
L 424.28 246.9525 
L 404.28 246.9525 
z
" style="fill: #4682b4; stroke: #ffffff; stroke-linejoin: miter"/>
    </g>
    <g id="text_15">
     <!-- 1.3% Perl -->
     <g style="fill: #e6e6e6" transform="translate(432.28 253.9525) scale(0.1 -0.1)">
      <use xlink:href="#LiberationSans-31"/>
      <use xlink:href="#LiberationSans-2e" x="55.615234"/>
      <use xlink:href="#LiberationSans-33" x="83.398438"/>
      <use xlink:href="#LiberationSans-25" x="139.013672"/>
      <use xlink:href="#LiberationSans-20" x="227.929688"/>
      <use xlink:href="#LiberationSans-50" x="255.712891"/>
      <use xlink:href="#LiberationSans-65" x="322.412109"/>
      <use xlink:href="#LiberationSans-72" x="378.027344"/>
      <use xlink:href="#LiberationSans-6c" x="411.328125"/>
     </g>
    </g>
    <g id="patch_37">
     <path d="M 404.28 268.274375 
L 424.28 268.274375 
L 424.28 261.274375 
L 404.28 261.274375 
z
" style="fill: #db7093; stroke: #ffffff; stroke-linejoin: miter"/>
    </g>
    <g id="text_16">
     <!-- 1.3% Batchfile -->
     <g style="fill: #e6e6e6" transform="translate(432.28 268.274375) scale(0.1 -0.1)">
      <defs>
       <path id="LiberationSans-42" d="M 3931 1241 
Q 3931 653 3503 326 
Q 3075 0 2313 0 
L 525 0 
L 525 4403 
L 2125 4403 
Q 3675 4403 3675 3334 
Q 3675 2944 3456 2678 
Q 3238 2413 2838 2322 
Q 3363 2259 3647 1970 
Q 3931 1681 3931 1241 
z
M 3075 3263 
Q 3075 3619 2831 3772 
Q 2588 3925 2125 3925 
L 1122 3925 
L 1122 2531 
L 2125 2531 
Q 2603 2531 2839 2711 
Q 3075 2891 3075 3263 
z
M 3328 1288 
Q 3328 2066 2234 2066 
L 1122 2066 
L 1122 478 
L 2281 478 
Q 2828 478 3078 681 
Q 3328 884 3328 1288 
z
" transform="scale(0.015625)"/>
      </defs>
      <use xlink:href="#LiberationSans-31"/>
      <use xlink:href="#LiberationSans-2e" x="55.615234"/>
      <use xlink:href="#LiberationSans-33" x="83.398438"/>
      <use xlink:href="#LiberationSans-25" x="139.013672"/>
      <use xlink:href="#LiberationSans-20" x="227.929688"/>
      <use xlink:href="#LiberationSans-42" x="255.712891"/>
      <use xlink:href="#LiberationSans-61" x="322.412109"/>
      <use xlink:href="#LiberationSans-74" x="378.027344"/>
      <use xlink:href="#LiberationSans-63" x="405.810547"/>
      <use xlink:href="#LiberationSans-68" x="455.810547"/>
      <use xlink:href="#LiberationSans-66" x="511.425781"/>
      <use xlink:href="#LiberationSans-69" x="539.208984"/>
      <use xlink:href="#LiberationSans-6c" x="561.425781"/>
      <use xlink:href="#LiberationSans-65" x="583.642578"/>
     </g>
    </g>
    <g id="patch_38">
     <path d="M 404.28 282.59625 
L 424.28 282.59625 
L 424.28 275.59625 
L 404.28 275.59625 
z
" style="fill: #7b68ee; stroke: #ffffff; stroke-linejoin: miter"/>
    </g>
    <g id="text_17">
     <!-- 1.2% Go -->
     <g style="fill: #e6e6e6" transform="translate(432.28 282.59625) scale(0.1 -0.1)">
      <defs>
       <path id="LiberationSans-47" d="M 322 2222 
Q 322 3294 897 3881 
Q 1472 4469 2513 4469 
Q 3244 4469 3700 4222 
Q 4156 3975 4403 3431 
L 3834 3263 
Q 3647 3638 3317 3809 
Q 2988 3981 2497 3981 
Q 1734 3981 1331 3520 
Q 928 3059 928 2222 
Q 928 1388 1356 905 
Q 1784 422 2541 422 
Q 2972 422 3345 553 
Q 3719 684 3950 909 
L 3950 1703 
L 2634 1703 
L 2634 2203 
L 4500 2203 
L 4500 684 
Q 4150 328 3642 132 
Q 3134 -63 2541 -63 
Q 1850 -63 1350 212 
Q 850 488 586 1005 
Q 322 1522 322 2222 
z
" transform="scale(0.015625)"/>
      </defs>
      <use xlink:href="#LiberationSans-31"/>
      <use xlink:href="#LiberationSans-2e" x="55.615234"/>
      <use xlink:href="#LiberationSans-32" x="83.398438"/>
      <use xlink:href="#LiberationSans-25" x="139.013672"/>
      <use xlink:href="#LiberationSans-20" x="227.929688"/>
      <use xlink:href="#LiberationSans-47" x="255.712891"/>
      <use xlink:href="#LiberationSans-6f" x="333.496094"/>
     </g>
    </g>
    <g id="patch_39">
     <path d="M 404.28 296.918125 
L 424.28 296.918125 
L 424.28 289.918125 
L 404.28 289.918125 
z
" style="fill: #00ffff; stroke: #ffffff; stroke-linejoin: miter"/>
    </g>
    <g id="text_18">
     <!-- 0.9% CoffeeScript -->
     <g style="fill: #e6e6e6" transform="translate(432.28 296.918125) scale(0.1 -0.1)">
      <defs>
       <path id="LiberationSans-39" d="M 3256 2291 
Q 3256 1156 2842 546 
Q 2428 -63 1663 -63 
Q 1147 -63 836 154 
Q 525 372 391 856 
L 928 941 
Q 1097 391 1672 391 
Q 2156 391 2422 841 
Q 2688 1291 2700 2125 
Q 2575 1844 2272 1673 
Q 1969 1503 1606 1503 
Q 1013 1503 656 1909 
Q 300 2316 300 2988 
Q 300 3678 687 4073 
Q 1075 4469 1766 4469 
Q 2500 4469 2878 3925 
Q 3256 3381 3256 2291 
z
M 2644 2834 
Q 2644 3366 2400 3689 
Q 2156 4013 1747 4013 
Q 1341 4013 1106 3736 
Q 872 3459 872 2988 
Q 872 2506 1106 2226 
Q 1341 1947 1741 1947 
Q 1984 1947 2193 2058 
Q 2403 2169 2523 2372 
Q 2644 2575 2644 2834 
z
" transform="scale(0.015625)"/>
      </defs>
      <use xlink:href="#LiberationSans-30"/>
      <use xlink:href="#LiberationSans-2e" x="55.615234"/>
      <use xlink:href="#LiberationSans-39" x="83.398438"/>
      <use xlink:href="#LiberationSans-25" x="139.013672"/>
      <use xlink:href="#LiberationSans-20" x="227.929688"/>
      <use xlink:href="#LiberationSans-43" x="255.712891"/>
      <use xlink:href="#LiberationSans-6f" x="327.929688"/>
      <use xlink:href="#LiberationSans-66" x="383.544922"/>
      <use xlink:href="#LiberationSans-66" x="409.578125"/>
      <use xlink:href="#LiberationSans-65" x="437.361328"/>
      <use xlink:href="#LiberationSans-65" x="492.976562"/>
      <use xlink:href="#LiberationSans-53" x="548.591797"/>
      <use xlink:href="#LiberationSans-63" x="615.291016"/>
      <use xlink:href="#LiberationSans-72" x="665.291016"/>
      <use xlink:href="#LiberationSans-69" x="698.591797"/>
      <use xlink:href="#LiberationSans-70" x="720.808594"/>
      <use xlink:href="#LiberationSans-74" x="776.423828"/>
     </g>
    </g>
    <g id="patch_40">
     <path d="M 404.28 311.24 
L 424.28 311.24 
L 424.28 304.24 
L 404.28 304.24 
z
" style="fill: #ee82ee; stroke: #ffffff; stroke-linejoin: miter"/>
    </g>
    <g id="text_19">
     <!-- 0.9% ApacheConf -->
     <g style="fill: #e6e6e6" transform="translate(432.28 311.24) scale(0.1 -0.1)">
      <defs>
       <path id="LiberationSans-41" d="M 3647 0 
L 3144 1288 
L 1138 1288 
L 631 0 
L 13 0 
L 1809 4403 
L 2488 4403 
L 4256 0 
L 3647 0 
z
M 2141 3953 
L 2113 3866 
Q 2034 3606 1881 3200 
L 1319 1753 
L 2966 1753 
L 2400 3206 
Q 2313 3422 2225 3694 
L 2141 3953 
z
" transform="scale(0.015625)"/>
      </defs>
      <use xlink:href="#LiberationSans-30"/>
      <use xlink:href="#LiberationSans-2e" x="55.615234"/>
      <use xlink:href="#LiberationSans-39" x="83.398438"/>
      <use xlink:href="#LiberationSans-25" x="139.013672"/>
      <use xlink:href="#LiberationSans-20" x="227.929688"/>
      <use xlink:href="#LiberationSans-41" x="250.212891"/>
      <use xlink:href="#LiberationSans-70" x="316.912109"/>
      <use xlink:href="#LiberationSans-61" x="372.527344"/>
      <use xlink:href="#LiberationSans-63" x="428.142578"/>
      <use xlink:href="#LiberationSans-68" x="478.142578"/>
      <use xlink:href="#LiberationSans-65" x="533.757812"/>
      <use xlink:href="#LiberationSans-43" x="589.373047"/>
      <use xlink:href="#LiberationSans-6f" x="661.589844"/>
      <use xlink:href="#LiberationSans-6e" x="717.205078"/>
      <use xlink:href="#LiberationSans-66" x="772.820312"/>
     </g>
    </g>
    <g id="patch_41">
     <path d="M 404.28 325.561875 
L 424.28 325.561875 
L 424.28 318.561875 
L 404.28 318.561875 
z
" style="fill: #ff7f50; stroke: #ffffff; stroke-linejoin: miter"/>
    </g>
    <g id="text_20">
     <!-- 0.7% CMake -->
     <g style="fill: #e6e6e6" transform="translate(432.28 325.561875) scale(0.1 -0.1)">
      <use xlink:href="#LiberationSans-30"/>
      <use xlink:href="#LiberationSans-2e" x="55.615234"/>
      <use xlink:href="#LiberationSans-37" x="83.398438"/>
      <use xlink:href="#LiberationSans-25" x="139.013672"/>
      <use xlink:href="#LiberationSans-20" x="227.929688"/>
      <use xlink:href="#LiberationSans-43" x="255.712891"/>
      <use xlink:href="#LiberationSans-4d" x="327.929688"/>
      <use xlink:href="#LiberationSans-61" x="411.230469"/>
      <use xlink:href="#LiberationSans-6b" x="466.845703"/>
      <use xlink:href="#LiberationSans-65" x="516.845703"/>
     </g>
    </g>
    <g id="patch_42">
     <path d="M 404.28 339.88375 
L 424.28 339.88375 
L 424.28 332.88375 
L 404.28 332.88375 
z
" style="fill: #ffb6c1; stroke: #ffffff; stroke-linejoin: miter"/>
    </g>
    <g id="text_21">
     <!-- 0.6% TypeScript -->
     <g style="fill: #e6e6e6" transform="translate(432.28 339.88375) scale(0.1 -0.1)">
      <use xlink:href="#LiberationSans-30"/>
      <use xlink:href="#LiberationSans-2e" x="55.615234"/>
      <use xlink:href="#LiberationSans-36" x="83.398438"/>
      <use xlink:href="#LiberationSans-25" x="139.013672"/>
      <use xlink:href="#LiberationSans-20" x="227.929688"/>
      <use xlink:href="#LiberationSans-54" x="253.962891"/>
      <use xlink:href="#LiberationSans-79" x="309.546875"/>
      <use xlink:href="#LiberationSans-70" x="359.546875"/>
      <use xlink:href="#LiberationSans-65" x="415.162109"/>
      <use xlink:href="#LiberationSans-53" x="470.777344"/>
      <use xlink:href="#LiberationSans-63" x="537.476562"/>
      <use xlink:href="#LiberationSans-72" x="587.476562"/>
      <use xlink:href="#LiberationSans-69" x="620.777344"/>
      <use xlink:href="#LiberationSans-70" x="642.994141"/>
      <use xlink:href="#LiberationSans-74" x="698.609375"/>
     </g>
    </g>
    <g id="patch_43">
     <path d="M 404.28 354.205625 
L 424.28 354.205625 
L 424.28 347.205625 
L 404.28 347.205625 
z
" style="fill: #ffd700; stroke: #ffffff; stroke-linejoin: miter"/>
    </g>
    <g id="text_22">
     <!-- 15.1% Other -->
     <g style="fill: #e6e6e6" transform="translate(432.28 354.205625) scale(0.1 -0.1)">
      <defs>
       <path id="LiberationSans-35" d="M 3291 1434 
Q 3291 738 2877 337 
Q 2463 -63 1728 -63 
Q 1113 -63 734 206 
Q 356 475 256 984 
L 825 1050 
Q 1003 397 1741 397 
Q 2194 397 2450 670 
Q 2706 944 2706 1422 
Q 2706 1838 2448 2094 
Q 2191 2350 1753 2350 
Q 1525 2350 1328 2278 
Q 1131 2206 934 2034 
L 384 2034 
L 531 4403 
L 3034 4403 
L 3034 3925 
L 1044 3925 
L 959 2528 
Q 1325 2809 1869 2809 
Q 2519 2809 2905 2428 
Q 3291 2047 3291 1434 
z
" transform="scale(0.015625)"/>
      </defs>
      <use xlink:href="#LiberationSans-31"/>
      <use xlink:href="#LiberationSans-35" x="55.615234"/>
      <use xlink:href="#LiberationSans-2e" x="111.230469"/>
      <use xlink:href="#LiberationSans-31" x="139.013672"/>
      <use xlink:href="#LiberationSans-25" x="194.628906"/>
      <use xlink:href="#LiberationSans-20" x="283.544922"/>
      <use xlink:href="#LiberationSans-4f" x="311.328125"/>
      <use xlink:href="#LiberationSans-74" x="389.111328"/>
      <use xlink:href="#LiberationSans-68" x="416.894531"/>
      <use xlink:href="#LiberationSans-65" x="472.509766"/>
      <use xlink:href="#LiberationSans-72" x="528.125"/>
     </g>
    </g>
   </g>
  </g>
 </g>
</svg>
