<?xml version="1.0" encoding="utf-8" standalone="no"?>
<!DOCTYPE svg PUBLIC "-//W3C//DTD SVG 1.1//EN"
  "http://www.w3.org/Graphics/SVG/1.1/DTD/svg11.dtd">
<svg xmlns:xlink="http://www.w3.org/1999/xlink" width="477.852812pt" height="297.190125pt" viewBox="0 0 477.852812 297.190125" xmlns="http://www.w3.org/2000/svg" version="1.1">
 <metadata>
  <rdf:RDF xmlns:dc="http://purl.org/dc/elements/1.1/" xmlns:cc="http://creativecommons.org/ns#" xmlns:rdf="http://www.w3.org/1999/02/22-rdf-syntax-ns#">
   <cc:Work>
    <dc:type rdf:resource="http://purl.org/dc/dcmitype/StillImage"/>
    <dc:date>2024-01-07T17:21:52.832653</dc:date>
    <dc:format>image/svg+xml</dc:format>
    <dc:creator>
     <cc:Agent>
      <dc:title>Matplotlib v3.8.2, https://matplotlib.org/</dc:title>
     </cc:Agent>
    </dc:creator>
   </cc:Work>
  </rdf:RDF>
 </metadata>
 <defs>
  <style type="text/css">*{stroke-linejoin: round; stroke-linecap: butt}</style>
 </defs>
 <g id="figure_1">
  <g id="patch_1">
   <path d="M 0 297.190125 
L 477.852812 297.190125 
L 477.852812 0 
L 0 0 
L 0 297.190125 
z
" style="fill: none"/>
  </g>
  <g id="axes_1">
   <g id="patch_2">
    <path d="M 20.5625 273.312 
L 377.6825 273.312 
L 377.6825 7.2 
L 20.5625 7.2 
L 20.5625 273.312 
z
" style="fill: none"/>
   </g>
   <g id="PathCollection_1">
    <defs>
     <path id="mafdef57b64" d="M 0 3 
C 0.795609 3 1.55874 2.683901 2.12132 2.12132 
C 2.683901 1.55874 3 0.795609 3 0 
C 3 -0.795609 2.683901 -1.55874 2.12132 -2.12132 
C 1.55874 -2.683901 0.795609 -3 0 -3 
C -0.795609 -3 -1.55874 -2.683901 -2.12132 -2.12132 
C -2.683901 -1.55874 -3 -0.795609 -3 0 
C -3 0.795609 -2.683901 1.55874 -2.12132 2.12132 
C -1.55874 2.683901 -0.795609 3 0 3 
z
" style="stroke: #8dd3c7"/>
    </defs>
    <g clip-path="url(#p60c6ca55fb)">
     <use xlink:href="#mafdef57b64" x="36.795227" y="91.78515" style="fill: #8dd3c7; stroke: #8dd3c7"/>
     <use xlink:href="#mafdef57b64" x="57.086136" y="40.440942" style="fill: #8dd3c7; stroke: #8dd3c7"/>
     <use xlink:href="#mafdef57b64" x="77.377045" y="39.094977" style="fill: #8dd3c7; stroke: #8dd3c7"/>
     <use xlink:href="#mafdef57b64" x="97.667955" y="39.094977" style="fill: #8dd3c7; stroke: #8dd3c7"/>
     <use xlink:href="#mafdef57b64" x="117.958864" y="39.094977" style="fill: #8dd3c7; stroke: #8dd3c7"/>
     <use xlink:href="#mafdef57b64" x="138.249773" y="39.094977" style="fill: #8dd3c7; stroke: #8dd3c7"/>
     <use xlink:href="#mafdef57b64" x="158.540682" y="40.045603" style="fill: #8dd3c7; stroke: #8dd3c7"/>
     <use xlink:href="#mafdef57b64" x="178.831591" y="52.692869" style="fill: #8dd3c7; stroke: #8dd3c7"/>
     <use xlink:href="#mafdef57b64" x="199.1225" y="63.674289" style="fill: #8dd3c7; stroke: #8dd3c7"/>
     <use xlink:href="#mafdef57b64" x="219.413409" y="74.164642" style="fill: #8dd3c7; stroke: #8dd3c7"/>
     <use xlink:href="#mafdef57b64" x="239.704318" y="94.160432" style="fill: #8dd3c7; stroke: #8dd3c7"/>
     <use xlink:href="#mafdef57b64" x="259.995227" y="139.124035" style="fill: #8dd3c7; stroke: #8dd3c7"/>
    </g>
   </g>
   <g id="PathCollection_2">
    <defs>
     <path id="m95b9d476f4" d="M 0 3 
C 0.795609 3 1.55874 2.683901 2.12132 2.12132 
C 2.683901 1.55874 3 0.795609 3 0 
C 3 -0.795609 2.683901 -1.55874 2.12132 -2.12132 
C 1.55874 -2.683901 0.795609 -3 0 -3 
C -0.795609 -3 -1.55874 -2.683901 -2.12132 -2.12132 
C -2.683901 -1.55874 -3 -0.795609 -3 0 
C -3 0.795609 -2.683901 1.55874 -2.12132 2.12132 
C -1.55874 2.683901 -0.795609 3 0 3 
z
" style="stroke: #feffb3"/>
    </defs>
    <g clip-path="url(#p60c6ca55fb)">
     <use xlink:href="#m95b9d476f4" x="36.795227" y="129.980294" style="fill: #feffb3; stroke: #feffb3"/>
     <use xlink:href="#m95b9d476f4" x="57.086136" y="103.831161" style="fill: #feffb3; stroke: #feffb3"/>
     <use xlink:href="#m95b9d476f4" x="77.377045" y="123.101667" style="fill: #feffb3; stroke: #feffb3"/>
     <use xlink:href="#m95b9d476f4" x="97.667955" y="130.501673" style="fill: #feffb3; stroke: #feffb3"/>
     <use xlink:href="#m95b9d476f4" x="117.958864" y="136.114726" style="fill: #feffb3; stroke: #feffb3"/>
     <use xlink:href="#m95b9d476f4" x="138.249773" y="121.208909" style="fill: #feffb3; stroke: #feffb3"/>
     <use xlink:href="#m95b9d476f4" x="158.540682" y="90.082288" style="fill: #feffb3; stroke: #feffb3"/>
     <use xlink:href="#m95b9d476f4" x="178.831591" y="73.200698" style="fill: #feffb3; stroke: #feffb3"/>
     <use xlink:href="#m95b9d476f4" x="199.1225" y="61.617884" style="fill: #feffb3; stroke: #feffb3"/>
     <use xlink:href="#m95b9d476f4" x="219.413409" y="50.535532" style="fill: #feffb3; stroke: #feffb3"/>
     <use xlink:href="#m95b9d476f4" x="239.704318" y="40.480023" style="fill: #feffb3; stroke: #feffb3"/>
     <use xlink:href="#m95b9d476f4" x="259.995227" y="89.696792" style="fill: #feffb3; stroke: #feffb3"/>
    </g>
   </g>
   <g id="PathCollection_3">
    <defs>
     <path id="m3083b04638" d="M 0 3 
C 0.795609 3 1.55874 2.683901 2.12132 2.12132 
C 2.683901 1.55874 3 0.795609 3 0 
C 3 -0.795609 2.683901 -1.55874 2.12132 -2.12132 
C 1.55874 -2.683901 0.795609 -3 0 -3 
C -0.795609 -3 -1.55874 -2.683901 -2.12132 -2.12132 
C -2.683901 -1.55874 -3 -0.795609 -3 0 
C -3 0.795609 -2.683901 1.55874 -2.12132 2.12132 
C -1.55874 2.683901 -0.795609 3 0 3 
z
" style="stroke: #bfbbd9"/>
    </defs>
    <g clip-path="url(#p60c6ca55fb)">
     <use xlink:href="#m3083b04638" x="36.795227" y="175.238529" style="fill: #bfbbd9; stroke: #bfbbd9"/>
     <use xlink:href="#m3083b04638" x="57.086136" y="147.883168" style="fill: #bfbbd9; stroke: #bfbbd9"/>
     <use xlink:href="#m3083b04638" x="77.377045" y="151.247169" style="fill: #bfbbd9; stroke: #bfbbd9"/>
     <use xlink:href="#m3083b04638" x="97.667955" y="145.804852" style="fill: #bfbbd9; stroke: #bfbbd9"/>
     <use xlink:href="#m3083b04638" x="117.958864" y="148.394705" style="fill: #bfbbd9; stroke: #bfbbd9"/>
     <use xlink:href="#m3083b04638" x="138.249773" y="141.947606" style="fill: #bfbbd9; stroke: #bfbbd9"/>
     <use xlink:href="#m3083b04638" x="158.540682" y="129.942834" style="fill: #bfbbd9; stroke: #bfbbd9"/>
     <use xlink:href="#m3083b04638" x="178.831591" y="124.603133" style="fill: #bfbbd9; stroke: #bfbbd9"/>
     <use xlink:href="#m3083b04638" x="199.1225" y="116.156796" style="fill: #bfbbd9; stroke: #bfbbd9"/>
     <use xlink:href="#m3083b04638" x="219.413409" y="114.306633" style="fill: #bfbbd9; stroke: #bfbbd9"/>
     <use xlink:href="#m3083b04638" x="239.704318" y="112.691446" style="fill: #bfbbd9; stroke: #bfbbd9"/>
     <use xlink:href="#m3083b04638" x="259.995227" y="147.990967" style="fill: #bfbbd9; stroke: #bfbbd9"/>
    </g>
   </g>
   <g id="PathCollection_4">
    <defs>
     <path id="m8e20fa3c8b" d="M 0 3 
C 0.795609 3 1.55874 2.683901 2.12132 2.12132 
C 2.683901 1.55874 3 0.795609 3 0 
C 3 -0.795609 2.683901 -1.55874 2.12132 -2.12132 
C 1.55874 -2.683901 0.795609 -3 0 -3 
C -0.795609 -3 -1.55874 -2.683901 -2.12132 -2.12132 
C -2.683901 -1.55874 -3 -0.795609 -3 0 
C -3 0.795609 -2.683901 1.55874 -2.12132 2.12132 
C -1.55874 2.683901 -0.795609 3 0 3 
z
" style="stroke: #fa8174"/>
    </defs>
    <g clip-path="url(#p60c6ca55fb)">
     <use xlink:href="#m8e20fa3c8b" x="36.795227" y="196.621894" style="fill: #fa8174; stroke: #fa8174"/>
     <use xlink:href="#m8e20fa3c8b" x="57.086136" y="190.396002" style="fill: #fa8174; stroke: #fa8174"/>
     <use xlink:href="#m8e20fa3c8b" x="77.377045" y="191.560436" style="fill: #fa8174; stroke: #fa8174"/>
     <use xlink:href="#m8e20fa3c8b" x="97.667955" y="195.398608" style="fill: #fa8174; stroke: #fa8174"/>
     <use xlink:href="#m8e20fa3c8b" x="117.958864" y="195.481889" style="fill: #fa8174; stroke: #fa8174"/>
     <use xlink:href="#m8e20fa3c8b" x="138.249773" y="186.934075" style="fill: #fa8174; stroke: #fa8174"/>
     <use xlink:href="#m8e20fa3c8b" x="158.540682" y="164.243668" style="fill: #fa8174; stroke: #fa8174"/>
     <use xlink:href="#m8e20fa3c8b" x="178.831591" y="154.325006" style="fill: #fa8174; stroke: #fa8174"/>
     <use xlink:href="#m8e20fa3c8b" x="199.1225" y="143.331653" style="fill: #fa8174; stroke: #fa8174"/>
     <use xlink:href="#m8e20fa3c8b" x="219.413409" y="135.134283" style="fill: #fa8174; stroke: #fa8174"/>
     <use xlink:href="#m8e20fa3c8b" x="239.704318" y="125.635986" style="fill: #fa8174; stroke: #fa8174"/>
     <use xlink:href="#m8e20fa3c8b" x="259.995227" y="152.69292" style="fill: #fa8174; stroke: #fa8174"/>
    </g>
   </g>
   <g id="PathCollection_5">
    <defs>
     <path id="macab54481d" d="M 0 3 
C 0.795609 3 1.55874 2.683901 2.12132 2.12132 
C 2.683901 1.55874 3 0.795609 3 0 
C 3 -0.795609 2.683901 -1.55874 2.12132 -2.12132 
C 1.55874 -2.683901 0.795609 -3 0 -3 
C -0.795609 -3 -1.55874 -2.683901 -2.12132 -2.12132 
C -2.683901 -1.55874 -3 -0.795609 -3 0 
C -3 0.795609 -2.683901 1.55874 -2.12132 2.12132 
C -1.55874 2.683901 -0.795609 3 0 3 
z
" style="stroke: #81b1d2"/>
    </defs>
    <g clip-path="url(#p60c6ca55fb)">
     <use xlink:href="#macab54481d" x="36.795227" y="159.877553" style="fill: #81b1d2; stroke: #81b1d2"/>
     <use xlink:href="#macab54481d" x="57.086136" y="145.073438" style="fill: #81b1d2; stroke: #81b1d2"/>
     <use xlink:href="#macab54481d" x="77.377045" y="163.63154" style="fill: #81b1d2; stroke: #81b1d2"/>
     <use xlink:href="#macab54481d" x="97.667955" y="173.161402" style="fill: #81b1d2; stroke: #81b1d2"/>
     <use xlink:href="#macab54481d" x="117.958864" y="184.908423" style="fill: #81b1d2; stroke: #81b1d2"/>
     <use xlink:href="#macab54481d" x="138.249773" y="185.297571" style="fill: #81b1d2; stroke: #81b1d2"/>
     <use xlink:href="#macab54481d" x="158.540682" y="176.956978" style="fill: #81b1d2; stroke: #81b1d2"/>
     <use xlink:href="#macab54481d" x="178.831591" y="175.977191" style="fill: #81b1d2; stroke: #81b1d2"/>
     <use xlink:href="#macab54481d" x="199.1225" y="174.834493" style="fill: #81b1d2; stroke: #81b1d2"/>
     <use xlink:href="#macab54481d" x="219.413409" y="175.657762" style="fill: #81b1d2; stroke: #81b1d2"/>
     <use xlink:href="#macab54481d" x="239.704318" y="175.288104" style="fill: #81b1d2; stroke: #81b1d2"/>
     <use xlink:href="#macab54481d" x="259.995227" y="193.780498" style="fill: #81b1d2; stroke: #81b1d2"/>
    </g>
   </g>
   <g id="PathCollection_6">
    <defs>
     <path id="mce9f4b1d4d" d="M 0 3 
C 0.795609 3 1.55874 2.683901 2.12132 2.12132 
C 2.683901 1.55874 3 0.795609 3 0 
C 3 -0.795609 2.683901 -1.55874 2.12132 -2.12132 
C 1.55874 -2.683901 0.795609 -3 0 -3 
C -0.795609 -3 -1.55874 -2.683901 -2.12132 -2.12132 
C -2.683901 -1.55874 -3 -0.795609 -3 0 
C -3 0.795609 -2.683901 1.55874 -2.12132 2.12132 
C -1.55874 2.683901 -0.795609 3 0 3 
z
" style="stroke: #fdb462"/>
    </defs>
    <g clip-path="url(#p60c6ca55fb)">
     <use xlink:href="#mce9f4b1d4d" x="36.795227" y="235.745546" style="fill: #fdb462; stroke: #fdb462"/>
     <use xlink:href="#mce9f4b1d4d" x="57.086136" y="227.852386" style="fill: #fdb462; stroke: #fdb462"/>
     <use xlink:href="#mce9f4b1d4d" x="77.377045" y="218.609858" style="fill: #fdb462; stroke: #fdb462"/>
     <use xlink:href="#mce9f4b1d4d" x="97.667955" y="207.918572" style="fill: #fdb462; stroke: #fdb462"/>
     <use xlink:href="#mce9f4b1d4d" x="117.958864" y="203.012458" style="fill: #fdb462; stroke: #fdb462"/>
     <use xlink:href="#mce9f4b1d4d" x="138.249773" y="192.392846" style="fill: #fdb462; stroke: #fdb462"/>
     <use xlink:href="#mce9f4b1d4d" x="158.540682" y="173.884689" style="fill: #fdb462; stroke: #fdb462"/>
     <use xlink:href="#mce9f4b1d4d" x="178.831591" y="160.04891" style="fill: #fdb462; stroke: #fdb462"/>
     <use xlink:href="#mce9f4b1d4d" x="199.1225" y="153.077651" style="fill: #fdb462; stroke: #fdb462"/>
     <use xlink:href="#mce9f4b1d4d" x="219.413409" y="149.38523" style="fill: #fdb462; stroke: #fdb462"/>
     <use xlink:href="#mce9f4b1d4d" x="239.704318" y="133.459734" style="fill: #fdb462; stroke: #fdb462"/>
     <use xlink:href="#mce9f4b1d4d" x="259.995227" y="155.459283" style="fill: #fdb462; stroke: #fdb462"/>
    </g>
   </g>
   <g id="PathCollection_7">
    <defs>
     <path id="m346d69e2d4" d="M 0 3 
C 0.795609 3 1.55874 2.683901 2.12132 2.12132 
C 2.683901 1.55874 3 0.795609 3 0 
C 3 -0.795609 2.683901 -1.55874 2.12132 -2.12132 
C 1.55874 -2.683901 0.795609 -3 0 -3 
C -0.795609 -3 -1.55874 -2.683901 -2.12132 -2.12132 
C -2.683901 -1.55874 -3 -0.795609 -3 0 
C -3 0.795609 -2.683901 1.55874 -2.12132 2.12132 
C -1.55874 2.683901 -0.795609 3 0 3 
z
" style="stroke: #b3de69"/>
    </defs>
    <g clip-path="url(#p60c6ca55fb)">
     <use xlink:href="#m346d69e2d4" x="36.795227" y="127.362814" style="fill: #b3de69; stroke: #b3de69"/>
     <use xlink:href="#m346d69e2d4" x="57.086136" y="121.961584" style="fill: #b3de69; stroke: #b3de69"/>
     <use xlink:href="#m346d69e2d4" x="77.377045" y="160.501417" style="fill: #b3de69; stroke: #b3de69"/>
     <use xlink:href="#m346d69e2d4" x="97.667955" y="181.371034" style="fill: #b3de69; stroke: #b3de69"/>
     <use xlink:href="#m346d69e2d4" x="117.958864" y="199.40352" style="fill: #b3de69; stroke: #b3de69"/>
     <use xlink:href="#m346d69e2d4" x="138.249773" y="205.768393" style="fill: #b3de69; stroke: #b3de69"/>
     <use xlink:href="#m346d69e2d4" x="158.540682" y="201.734139" style="fill: #b3de69; stroke: #b3de69"/>
     <use xlink:href="#m346d69e2d4" x="178.831591" y="201.48728" style="fill: #b3de69; stroke: #b3de69"/>
     <use xlink:href="#m346d69e2d4" x="199.1225" y="203.062762" style="fill: #b3de69; stroke: #b3de69"/>
     <use xlink:href="#m346d69e2d4" x="219.413409" y="202.51768" style="fill: #b3de69; stroke: #b3de69"/>
     <use xlink:href="#m346d69e2d4" x="239.704318" y="202.969167" style="fill: #b3de69; stroke: #b3de69"/>
     <use xlink:href="#m346d69e2d4" x="259.995227" y="212.813466" style="fill: #b3de69; stroke: #b3de69"/>
    </g>
   </g>
   <g id="PathCollection_8">
    <defs>
     <path id="mf42dbef987" d="M 0 3 
C 0.795609 3 1.55874 2.683901 2.12132 2.12132 
C 2.683901 1.55874 3 0.795609 3 0 
C 3 -0.795609 2.683901 -1.55874 2.12132 -2.12132 
C 1.55874 -2.683901 0.795609 -3 0 -3 
C -0.795609 -3 -1.55874 -2.683901 -2.12132 -2.12132 
C -2.683901 -1.55874 -3 -0.795609 -3 0 
C -3 0.795609 -2.683901 1.55874 -2.12132 2.12132 
C -1.55874 2.683901 -0.795609 3 0 3 
z
" style="stroke: #bc82bd"/>
    </defs>
    <g clip-path="url(#p60c6ca55fb)">
     <use xlink:href="#mf42dbef987" x="36.795227" y="239.859764" style="fill: #bc82bd; stroke: #bc82bd"/>
     <use xlink:href="#mf42dbef987" x="57.086136" y="237.038163" style="fill: #bc82bd; stroke: #bc82bd"/>
     <use xlink:href="#mf42dbef987" x="77.377045" y="234.602336" style="fill: #bc82bd; stroke: #bc82bd"/>
     <use xlink:href="#mf42dbef987" x="97.667955" y="231.434232" style="fill: #bc82bd; stroke: #bc82bd"/>
     <use xlink:href="#mf42dbef987" x="117.958864" y="221.285607" style="fill: #bc82bd; stroke: #bc82bd"/>
     <use xlink:href="#mf42dbef987" x="138.249773" y="204.859914" style="fill: #bc82bd; stroke: #bc82bd"/>
     <use xlink:href="#mf42dbef987" x="158.540682" y="185.831054" style="fill: #bc82bd; stroke: #bc82bd"/>
     <use xlink:href="#mf42dbef987" x="178.831591" y="179.005235" style="fill: #bc82bd; stroke: #bc82bd"/>
     <use xlink:href="#mf42dbef987" x="199.1225" y="170.646607" style="fill: #bc82bd; stroke: #bc82bd"/>
     <use xlink:href="#mf42dbef987" x="219.413409" y="159.597615" style="fill: #bc82bd; stroke: #bc82bd"/>
     <use xlink:href="#mf42dbef987" x="239.704318" y="141.009428" style="fill: #bc82bd; stroke: #bc82bd"/>
     <use xlink:href="#mf42dbef987" x="259.995227" y="168.567896" style="fill: #bc82bd; stroke: #bc82bd"/>
    </g>
   </g>
   <g id="PathCollection_9">
    <defs>
     <path id="m219e836bca" d="M 0 3 
C 0.795609 3 1.55874 2.683901 2.12132 2.12132 
C 2.683901 1.55874 3 0.795609 3 0 
C 3 -0.795609 2.683901 -1.55874 2.12132 -2.12132 
C 1.55874 -2.683901 0.795609 -3 0 -3 
C -0.795609 -3 -1.55874 -2.683901 -2.12132 -2.12132 
C -2.683901 -1.55874 -3 -0.795609 -3 0 
C -3 0.795609 -2.683901 1.55874 -2.12132 2.12132 
C -1.55874 2.683901 -0.795609 3 0 3 
z
" style="stroke: #ccebc4"/>
    </defs>
    <g clip-path="url(#p60c6ca55fb)">
     <use xlink:href="#m219e836bca" x="36.795227" y="200.463004" style="fill: #ccebc4; stroke: #ccebc4"/>
     <use xlink:href="#m219e836bca" x="57.086136" y="196.849544" style="fill: #ccebc4; stroke: #ccebc4"/>
     <use xlink:href="#m219e836bca" x="77.377045" y="204.329173" style="fill: #ccebc4; stroke: #ccebc4"/>
     <use xlink:href="#m219e836bca" x="97.667955" y="209.39871" style="fill: #ccebc4; stroke: #ccebc4"/>
     <use xlink:href="#m219e836bca" x="117.958864" y="211.779009" style="fill: #ccebc4; stroke: #ccebc4"/>
     <use xlink:href="#m219e836bca" x="138.249773" y="211.703678" style="fill: #ccebc4; stroke: #ccebc4"/>
     <use xlink:href="#m219e836bca" x="158.540682" y="203.379725" style="fill: #ccebc4; stroke: #ccebc4"/>
     <use xlink:href="#m219e836bca" x="178.831591" y="197.525899" style="fill: #ccebc4; stroke: #ccebc4"/>
     <use xlink:href="#m219e836bca" x="199.1225" y="190.622075" style="fill: #ccebc4; stroke: #ccebc4"/>
     <use xlink:href="#m219e836bca" x="219.413409" y="186.536967" style="fill: #ccebc4; stroke: #ccebc4"/>
     <use xlink:href="#m219e836bca" x="239.704318" y="183.493364" style="fill: #ccebc4; stroke: #ccebc4"/>
     <use xlink:href="#m219e836bca" x="259.995227" y="197.200342" style="fill: #ccebc4; stroke: #ccebc4"/>
    </g>
   </g>
   <g id="PathCollection_10">
    <defs>
     <path id="m80e78d89ab" d="M 0 3 
C 0.795609 3 1.55874 2.683901 2.12132 2.12132 
C 2.683901 1.55874 3 0.795609 3 0 
C 3 -0.795609 2.683901 -1.55874 2.12132 -2.12132 
C 1.55874 -2.683901 0.795609 -3 0 -3 
C -0.795609 -3 -1.55874 -2.683901 -2.12132 -2.12132 
C -2.683901 -1.55874 -3 -0.795609 -3 0 
C -3 0.795609 -2.683901 1.55874 -2.12132 2.12132 
C -1.55874 2.683901 -0.795609 3 0 3 
z
" style="stroke: #ffed6f"/>
    </defs>
    <g clip-path="url(#p60c6ca55fb)">
     <use xlink:href="#m80e78d89ab" x="36.795227" y="227.025898" style="fill: #ffed6f; stroke: #ffed6f"/>
     <use xlink:href="#m80e78d89ab" x="57.086136" y="220.925995" style="fill: #ffed6f; stroke: #ffed6f"/>
     <use xlink:href="#m80e78d89ab" x="77.377045" y="219.892479" style="fill: #ffed6f; stroke: #ffed6f"/>
     <use xlink:href="#m80e78d89ab" x="97.667955" y="213.710866" style="fill: #ffed6f; stroke: #ffed6f"/>
     <use xlink:href="#m80e78d89ab" x="117.958864" y="212.236623" style="fill: #ffed6f; stroke: #ffed6f"/>
     <use xlink:href="#m80e78d89ab" x="138.249773" y="208.012109" style="fill: #ffed6f; stroke: #ffed6f"/>
     <use xlink:href="#m80e78d89ab" x="158.540682" y="202.377444" style="fill: #ffed6f; stroke: #ffed6f"/>
     <use xlink:href="#m80e78d89ab" x="178.831591" y="197.963961" style="fill: #ffed6f; stroke: #ffed6f"/>
     <use xlink:href="#m80e78d89ab" x="199.1225" y="196.801236" style="fill: #ffed6f; stroke: #ffed6f"/>
     <use xlink:href="#m80e78d89ab" x="219.413409" y="196.662825" style="fill: #ffed6f; stroke: #ffed6f"/>
     <use xlink:href="#m80e78d89ab" x="239.704318" y="195.458877" style="fill: #ffed6f; stroke: #ffed6f"/>
     <use xlink:href="#m80e78d89ab" x="259.995227" y="207.952126" style="fill: #ffed6f; stroke: #ffed6f"/>
    </g>
   </g>
   <g id="matplotlib.axis_1">
    <g id="xtick_1">
     <g id="line2d_1">
      <defs>
       <path id="m77a989d75b" d="M 0 0 
L 0 3.5 
" style="stroke: #ffffff; stroke-width: 0.8"/>
      </defs>
      <g>
       <use xlink:href="#m77a989d75b" x="36.795227" y="273.312" style="fill: #ffffff; stroke: #ffffff; stroke-width: 0.8"/>
      </g>
     </g>
     <g id="text_1">
      <!-- 2012 -->
      <g style="fill: #ffffff" transform="translate(24.070227 287.910437) scale(0.1 -0.1)">
       <defs>
        <path id="DejaVuSans-32" d="M 1228 531 
L 3431 531 
L 3431 0 
L 469 0 
L 469 531 
Q 828 903 1448 1529 
Q 2069 2156 2228 2338 
Q 2531 2678 2651 2914 
Q 2772 3150 2772 3378 
Q 2772 3750 2511 3984 
Q 2250 4219 1831 4219 
Q 1534 4219 1204 4116 
Q 875 4013 500 3803 
L 500 4441 
Q 881 4594 1212 4672 
Q 1544 4750 1819 4750 
Q 2544 4750 2975 4387 
Q 3406 4025 3406 3419 
Q 3406 3131 3298 2873 
Q 3191 2616 2906 2266 
Q 2828 2175 2409 1742 
Q 1991 1309 1228 531 
z
" transform="scale(0.015625)"/>
        <path id="DejaVuSans-30" d="M 2034 4250 
Q 1547 4250 1301 3770 
Q 1056 3291 1056 2328 
Q 1056 1369 1301 889 
Q 1547 409 2034 409 
Q 2525 409 2770 889 
Q 3016 1369 3016 2328 
Q 3016 3291 2770 3770 
Q 2525 4250 2034 4250 
z
M 2034 4750 
Q 2819 4750 3233 4129 
Q 3647 3509 3647 2328 
Q 3647 1150 3233 529 
Q 2819 -91 2034 -91 
Q 1250 -91 836 529 
Q 422 1150 422 2328 
Q 422 3509 836 4129 
Q 1250 4750 2034 4750 
z
" transform="scale(0.015625)"/>
        <path id="DejaVuSans-31" d="M 794 531 
L 1825 531 
L 1825 4091 
L 703 3866 
L 703 4441 
L 1819 4666 
L 2450 4666 
L 2450 531 
L 3481 531 
L 3481 0 
L 794 0 
L 794 531 
z
" transform="scale(0.015625)"/>
       </defs>
       <use xlink:href="#DejaVuSans-32"/>
       <use xlink:href="#DejaVuSans-30" x="63.623047"/>
       <use xlink:href="#DejaVuSans-31" x="127.246094"/>
       <use xlink:href="#DejaVuSans-32" x="190.869141"/>
      </g>
     </g>
    </g>
    <g id="xtick_2">
     <g id="line2d_2">
      <g>
       <use xlink:href="#m77a989d75b" x="77.377045" y="273.312" style="fill: #ffffff; stroke: #ffffff; stroke-width: 0.8"/>
      </g>
     </g>
     <g id="text_2">
      <!-- 2014 -->
      <g style="fill: #ffffff" transform="translate(64.652045 287.910437) scale(0.1 -0.1)">
       <defs>
        <path id="DejaVuSans-34" d="M 2419 4116 
L 825 1625 
L 2419 1625 
L 2419 4116 
z
M 2253 4666 
L 3047 4666 
L 3047 1625 
L 3713 1625 
L 3713 1100 
L 3047 1100 
L 3047 0 
L 2419 0 
L 2419 1100 
L 313 1100 
L 313 1709 
L 2253 4666 
z
" transform="scale(0.015625)"/>
       </defs>
       <use xlink:href="#DejaVuSans-32"/>
       <use xlink:href="#DejaVuSans-30" x="63.623047"/>
       <use xlink:href="#DejaVuSans-31" x="127.246094"/>
       <use xlink:href="#DejaVuSans-34" x="190.869141"/>
      </g>
     </g>
    </g>
    <g id="xtick_3">
     <g id="line2d_3">
      <g>
       <use xlink:href="#m77a989d75b" x="117.958864" y="273.312" style="fill: #ffffff; stroke: #ffffff; stroke-width: 0.8"/>
      </g>
     </g>
     <g id="text_3">
      <!-- 2016 -->
      <g style="fill: #ffffff" transform="translate(105.233864 287.910437) scale(0.1 -0.1)">
       <defs>
        <path id="DejaVuSans-36" d="M 2113 2584 
Q 1688 2584 1439 2293 
Q 1191 2003 1191 1497 
Q 1191 994 1439 701 
Q 1688 409 2113 409 
Q 2538 409 2786 701 
Q 3034 994 3034 1497 
Q 3034 2003 2786 2293 
Q 2538 2584 2113 2584 
z
M 3366 4563 
L 3366 3988 
Q 3128 4100 2886 4159 
Q 2644 4219 2406 4219 
Q 1781 4219 1451 3797 
Q 1122 3375 1075 2522 
Q 1259 2794 1537 2939 
Q 1816 3084 2150 3084 
Q 2853 3084 3261 2657 
Q 3669 2231 3669 1497 
Q 3669 778 3244 343 
Q 2819 -91 2113 -91 
Q 1303 -91 875 529 
Q 447 1150 447 2328 
Q 447 3434 972 4092 
Q 1497 4750 2381 4750 
Q 2619 4750 2861 4703 
Q 3103 4656 3366 4563 
z
" transform="scale(0.015625)"/>
       </defs>
       <use xlink:href="#DejaVuSans-32"/>
       <use xlink:href="#DejaVuSans-30" x="63.623047"/>
       <use xlink:href="#DejaVuSans-31" x="127.246094"/>
       <use xlink:href="#DejaVuSans-36" x="190.869141"/>
      </g>
     </g>
    </g>
    <g id="xtick_4">
     <g id="line2d_4">
      <g>
       <use xlink:href="#m77a989d75b" x="158.540682" y="273.312" style="fill: #ffffff; stroke: #ffffff; stroke-width: 0.8"/>
      </g>
     </g>
     <g id="text_4">
      <!-- 2018 -->
      <g style="fill: #ffffff" transform="translate(145.815682 287.910437) scale(0.1 -0.1)">
       <defs>
        <path id="DejaVuSans-38" d="M 2034 2216 
Q 1584 2216 1326 1975 
Q 1069 1734 1069 1313 
Q 1069 891 1326 650 
Q 1584 409 2034 409 
Q 2484 409 2743 651 
Q 3003 894 3003 1313 
Q 3003 1734 2745 1975 
Q 2488 2216 2034 2216 
z
M 1403 2484 
Q 997 2584 770 2862 
Q 544 3141 544 3541 
Q 544 4100 942 4425 
Q 1341 4750 2034 4750 
Q 2731 4750 3128 4425 
Q 3525 4100 3525 3541 
Q 3525 3141 3298 2862 
Q 3072 2584 2669 2484 
Q 3125 2378 3379 2068 
Q 3634 1759 3634 1313 
Q 3634 634 3220 271 
Q 2806 -91 2034 -91 
Q 1263 -91 848 271 
Q 434 634 434 1313 
Q 434 1759 690 2068 
Q 947 2378 1403 2484 
z
M 1172 3481 
Q 1172 3119 1398 2916 
Q 1625 2713 2034 2713 
Q 2441 2713 2670 2916 
Q 2900 3119 2900 3481 
Q 2900 3844 2670 4047 
Q 2441 4250 2034 4250 
Q 1625 4250 1398 4047 
Q 1172 3844 1172 3481 
z
" transform="scale(0.015625)"/>
       </defs>
       <use xlink:href="#DejaVuSans-32"/>
       <use xlink:href="#DejaVuSans-30" x="63.623047"/>
       <use xlink:href="#DejaVuSans-31" x="127.246094"/>
       <use xlink:href="#DejaVuSans-38" x="190.869141"/>
      </g>
     </g>
    </g>
    <g id="xtick_5">
     <g id="line2d_5">
      <g>
       <use xlink:href="#m77a989d75b" x="199.1225" y="273.312" style="fill: #ffffff; stroke: #ffffff; stroke-width: 0.8"/>
      </g>
     </g>
     <g id="text_5">
      <!-- 2020 -->
      <g style="fill: #ffffff" transform="translate(186.3975 287.910437) scale(0.1 -0.1)">
       <use xlink:href="#DejaVuSans-32"/>
       <use xlink:href="#DejaVuSans-30" x="63.623047"/>
       <use xlink:href="#DejaVuSans-32" x="127.246094"/>
       <use xlink:href="#DejaVuSans-30" x="190.869141"/>
      </g>
     </g>
    </g>
    <g id="xtick_6">
     <g id="line2d_6">
      <g>
       <use xlink:href="#m77a989d75b" x="239.704318" y="273.312" style="fill: #ffffff; stroke: #ffffff; stroke-width: 0.8"/>
      </g>
     </g>
     <g id="text_6">
      <!-- 2022 -->
      <g style="fill: #ffffff" transform="translate(226.979318 287.910437) scale(0.1 -0.1)">
       <use xlink:href="#DejaVuSans-32"/>
       <use xlink:href="#DejaVuSans-30" x="63.623047"/>
       <use xlink:href="#DejaVuSans-32" x="127.246094"/>
       <use xlink:href="#DejaVuSans-32" x="190.869141"/>
      </g>
     </g>
    </g>
    <g id="xtick_7">
     <g id="line2d_7">
      <g>
       <use xlink:href="#m77a989d75b" x="280.286136" y="273.312" style="fill: #ffffff; stroke: #ffffff; stroke-width: 0.8"/>
      </g>
     </g>
     <g id="text_7">
      <!-- 2024 -->
      <g style="fill: #ffffff" transform="translate(267.561136 287.910437) scale(0.1 -0.1)">
       <use xlink:href="#DejaVuSans-32"/>
       <use xlink:href="#DejaVuSans-30" x="63.623047"/>
       <use xlink:href="#DejaVuSans-32" x="127.246094"/>
       <use xlink:href="#DejaVuSans-34" x="190.869141"/>
      </g>
     </g>
    </g>
    <g id="xtick_8">
     <g id="line2d_8">
      <g>
       <use xlink:href="#m77a989d75b" x="320.867955" y="273.312" style="fill: #ffffff; stroke: #ffffff; stroke-width: 0.8"/>
      </g>
     </g>
     <g id="text_8">
      <!-- 2026 -->
      <g style="fill: #ffffff" transform="translate(308.142955 287.910437) scale(0.1 -0.1)">
       <use xlink:href="#DejaVuSans-32"/>
       <use xlink:href="#DejaVuSans-30" x="63.623047"/>
       <use xlink:href="#DejaVuSans-32" x="127.246094"/>
       <use xlink:href="#DejaVuSans-36" x="190.869141"/>
      </g>
     </g>
    </g>
    <g id="xtick_9">
     <g id="line2d_9">
      <g>
       <use xlink:href="#m77a989d75b" x="361.449773" y="273.312" style="fill: #ffffff; stroke: #ffffff; stroke-width: 0.8"/>
      </g>
     </g>
     <g id="text_9">
      <!-- 2028 -->
      <g style="fill: #ffffff" transform="translate(348.724773 287.910437) scale(0.1 -0.1)">
       <use xlink:href="#DejaVuSans-32"/>
       <use xlink:href="#DejaVuSans-30" x="63.623047"/>
       <use xlink:href="#DejaVuSans-32" x="127.246094"/>
       <use xlink:href="#DejaVuSans-38" x="190.869141"/>
      </g>
     </g>
    </g>
   </g>
   <g id="matplotlib.axis_2">
    <g id="ytick_1">
     <g id="line2d_10">
      <defs>
       <path id="m4ee517ec6d" d="M 0 0 
L -3.5 0 
" style="stroke: #ffffff; stroke-width: 0.8"/>
      </defs>
      <g>
       <use xlink:href="#m4ee517ec6d" x="20.5625" y="241.502238" style="fill: #ffffff; stroke: #ffffff; stroke-width: 0.8"/>
      </g>
     </g>
     <g id="text_10">
      <!-- 0 -->
      <g style="fill: #ffffff" transform="translate(7.2 245.301456) scale(0.1 -0.1)">
       <use xlink:href="#DejaVuSans-30"/>
      </g>
     </g>
    </g>
    <g id="ytick_2">
     <g id="line2d_11">
      <g>
       <use xlink:href="#m4ee517ec6d" x="20.5625" y="190.900422" style="fill: #ffffff; stroke: #ffffff; stroke-width: 0.8"/>
      </g>
     </g>
     <g id="text_11">
      <!-- 1 -->
      <g style="fill: #ffffff" transform="translate(7.2 194.699641) scale(0.1 -0.1)">
       <use xlink:href="#DejaVuSans-31"/>
      </g>
     </g>
    </g>
    <g id="ytick_3">
     <g id="line2d_12">
      <g>
       <use xlink:href="#m4ee517ec6d" x="20.5625" y="140.298607" style="fill: #ffffff; stroke: #ffffff; stroke-width: 0.8"/>
      </g>
     </g>
     <g id="text_12">
      <!-- 2 -->
      <g style="fill: #ffffff" transform="translate(7.2 144.097826) scale(0.1 -0.1)">
       <use xlink:href="#DejaVuSans-32"/>
      </g>
     </g>
    </g>
    <g id="ytick_4">
     <g id="line2d_13">
      <g>
       <use xlink:href="#m4ee517ec6d" x="20.5625" y="89.696792" style="fill: #ffffff; stroke: #ffffff; stroke-width: 0.8"/>
      </g>
     </g>
     <g id="text_13">
      <!-- 3 -->
      <g style="fill: #ffffff" transform="translate(7.2 93.496011) scale(0.1 -0.1)">
       <defs>
        <path id="DejaVuSans-33" d="M 2597 2516 
Q 3050 2419 3304 2112 
Q 3559 1806 3559 1356 
Q 3559 666 3084 287 
Q 2609 -91 1734 -91 
Q 1441 -91 1130 -33 
Q 819 25 488 141 
L 488 750 
Q 750 597 1062 519 
Q 1375 441 1716 441 
Q 2309 441 2620 675 
Q 2931 909 2931 1356 
Q 2931 1769 2642 2001 
Q 2353 2234 1838 2234 
L 1294 2234 
L 1294 2753 
L 1863 2753 
Q 2328 2753 2575 2939 
Q 2822 3125 2822 3475 
Q 2822 3834 2567 4026 
Q 2313 4219 1838 4219 
Q 1578 4219 1281 4162 
Q 984 4106 628 3988 
L 628 4550 
Q 988 4650 1302 4700 
Q 1616 4750 1894 4750 
Q 2613 4750 3031 4423 
Q 3450 4097 3450 3541 
Q 3450 3153 3228 2886 
Q 3006 2619 2597 2516 
z
" transform="scale(0.015625)"/>
       </defs>
       <use xlink:href="#DejaVuSans-33"/>
      </g>
     </g>
    </g>
    <g id="ytick_5">
     <g id="line2d_14">
      <g>
       <use xlink:href="#m4ee517ec6d" x="20.5625" y="39.094977" style="fill: #ffffff; stroke: #ffffff; stroke-width: 0.8"/>
      </g>
     </g>
     <g id="text_14">
      <!-- 4 -->
      <g style="fill: #ffffff" transform="translate(7.2 42.894195) scale(0.1 -0.1)">
       <use xlink:href="#DejaVuSans-34"/>
      </g>
     </g>
    </g>
   </g>
   <g id="line2d_15">
    <path d="M 36.795227 35.50697 
L 58.438864 40.781867 
L 80.0825 46.056763 
L 101.726136 51.33166 
L 123.369773 56.606557 
L 145.013409 61.881453 
L 166.657045 67.15635 
L 188.300682 72.431246 
L 209.944318 77.706143 
L 231.587955 82.98104 
L 253.231591 88.255936 
L 274.875227 93.530833 
L 296.518864 98.80573 
L 318.1625 104.080626 
L 339.806136 109.355523 
L 361.449773 114.63042 
" clip-path="url(#p60c6ca55fb)" style="fill: none; stroke: #8dd3c7; stroke-width: 1.5; stroke-linecap: square"/>
   </g>
   <g id="line2d_16">
    <path d="M 36.795227 135.968971 
L 58.438864 128.190773 
L 80.0825 120.412575 
L 101.726136 112.634377 
L 123.369773 104.856179 
L 145.013409 97.077981 
L 166.657045 89.299783 
L 188.300682 81.521585 
L 209.944318 73.743387 
L 231.587955 65.965189 
L 253.231591 58.18699 
L 274.875227 50.408792 
L 296.518864 42.630594 
L 318.1625 34.852396 
L 339.806136 27.074198 
L 361.449773 19.296 
" clip-path="url(#p60c6ca55fb)" style="fill: none; stroke: #feffb3; stroke-width: 1.5; stroke-linecap: square"/>
   </g>
   <g id="line2d_17">
    <path d="M 36.795227 159.299093 
L 58.438864 155.171719 
L 80.0825 151.044345 
L 101.726136 146.91697 
L 123.369773 142.789596 
L 145.013409 138.662222 
L 166.657045 134.534848 
L 188.300682 130.407474 
L 209.944318 126.2801 
L 231.587955 122.152725 
L 253.231591 118.025351 
L 274.875227 113.897977 
L 296.518864 109.770603 
L 318.1625 105.643229 
L 339.806136 101.515854 
L 361.449773 97.38848 
" clip-path="url(#p60c6ca55fb)" style="fill: none; stroke: #bfbbd9; stroke-width: 1.5; stroke-linecap: square"/>
   </g>
   <g id="line2d_18">
    <path d="M 36.795227 205.227223 
L 58.438864 198.262047 
L 80.0825 191.296871 
L 101.726136 184.331695 
L 123.369773 177.366519 
L 145.013409 170.401344 
L 166.657045 163.436168 
L 188.300682 156.470992 
L 209.944318 149.505816 
L 231.587955 142.54064 
L 253.231591 135.575464 
L 274.875227 128.610289 
L 296.518864 121.645113 
L 318.1625 114.679937 
L 339.806136 107.714761 
L 361.449773 100.749585 
" clip-path="url(#p60c6ca55fb)" style="fill: none; stroke: #fa8174; stroke-width: 1.5; stroke-linecap: square"/>
   </g>
   <g id="line2d_19">
    <path d="M 36.795227 160.198379 
L 58.438864 162.817602 
L 80.0825 165.436824 
L 101.726136 168.056047 
L 123.369773 170.67527 
L 145.013409 173.294493 
L 166.657045 175.913715 
L 188.300682 178.532938 
L 209.944318 181.152161 
L 231.587955 183.771384 
L 253.231591 186.390606 
L 274.875227 189.009829 
L 296.518864 191.629052 
L 318.1625 194.248275 
L 339.806136 196.867497 
L 361.449773 199.48672 
" clip-path="url(#p60c6ca55fb)" style="fill: none; stroke: #81b1d2; stroke-width: 1.5; stroke-linecap: square"/>
   </g>
   <g id="line2d_20">
    <path d="M 36.795227 234.984544 
L 58.438864 225.142647 
L 80.0825 215.30075 
L 101.726136 205.458853 
L 123.369773 195.616957 
L 145.013409 185.77506 
L 166.657045 175.933163 
L 188.300682 166.091266 
L 209.944318 156.24937 
L 231.587955 146.407473 
L 253.231591 136.565576 
L 274.875227 126.72368 
L 296.518864 116.881783 
L 318.1625 107.039886 
L 339.806136 97.197989 
L 361.449773 87.356093 
" clip-path="url(#p60c6ca55fb)" style="fill: none; stroke: #fdb462; stroke-width: 1.5; stroke-linecap: square"/>
   </g>
   <g id="line2d_21">
    <path d="M 36.795227 145.198382 
L 58.438864 152.93289 
L 80.0825 160.667397 
L 101.726136 168.401905 
L 123.369773 176.136413 
L 145.013409 183.870921 
L 166.657045 191.605429 
L 188.300682 199.339937 
L 209.944318 207.074445 
L 231.587955 214.808953 
L 253.231591 222.543461 
L 274.875227 230.277968 
L 296.518864 238.012476 
L 318.1625 245.746984 
L 339.806136 253.481492 
L 361.449773 261.216 
" clip-path="url(#p60c6ca55fb)" style="fill: none; stroke: #b3de69; stroke-width: 1.5; stroke-linecap: square"/>
   </g>
   <g id="line2d_22">
    <path d="M 36.795227 248.259763 
L 58.438864 238.475855 
L 80.0825 228.691947 
L 101.726136 218.908039 
L 123.369773 209.124131 
L 145.013409 199.340223 
L 166.657045 189.556315 
L 188.300682 179.772407 
L 209.944318 169.988499 
L 231.587955 160.204592 
L 253.231591 150.420684 
L 274.875227 140.636776 
L 296.518864 130.852868 
L 318.1625 121.06896 
L 339.806136 111.285052 
L 361.449773 101.501144 
" clip-path="url(#p60c6ca55fb)" style="fill: none; stroke: #bc82bd; stroke-width: 1.5; stroke-linecap: square"/>
   </g>
   <g id="line2d_23">
    <path d="M 36.795227 207.62487 
L 58.438864 206.037526 
L 80.0825 204.450181 
L 101.726136 202.862836 
L 123.369773 201.275491 
L 145.013409 199.688147 
L 166.657045 198.100802 
L 188.300682 196.513457 
L 209.944318 194.926113 
L 231.587955 193.338768 
L 253.231591 191.751423 
L 274.875227 190.164079 
L 296.518864 188.576734 
L 318.1625 186.989389 
L 339.806136 185.402044 
L 361.449773 183.8147 
" clip-path="url(#p60c6ca55fb)" style="fill: none; stroke: #ccebc4; stroke-width: 1.5; stroke-linecap: square"/>
   </g>
   <g id="line2d_24">
    <path d="M 36.795227 222.379087 
L 58.438864 219.639231 
L 80.0825 216.899374 
L 101.726136 214.159518 
L 123.369773 211.419662 
L 145.013409 208.679806 
L 166.657045 205.93995 
L 188.300682 203.200093 
L 209.944318 200.460237 
L 231.587955 197.720381 
L 253.231591 194.980525 
L 274.875227 192.240669 
L 296.518864 189.500813 
L 318.1625 186.760956 
L 339.806136 184.0211 
L 361.449773 181.281244 
" clip-path="url(#p60c6ca55fb)" style="fill: none; stroke: #ffed6f; stroke-width: 1.5; stroke-linecap: square"/>
   </g>
   <g id="patch_3">
    <path d="M 20.5625 273.312 
L 20.5625 7.2 
" style="fill: none; stroke: #ffffff; stroke-width: 0.8; stroke-linejoin: miter; stroke-linecap: square"/>
   </g>
   <g id="patch_4">
    <path d="M 377.6825 273.312 
L 377.6825 7.2 
" style="fill: none; stroke: #ffffff; stroke-width: 0.8; stroke-linejoin: miter; stroke-linecap: square"/>
   </g>
   <g id="patch_5">
    <path d="M 20.5625 273.312 
L 377.6825 273.312 
" style="fill: none; stroke: #ffffff; stroke-width: 0.8; stroke-linejoin: miter; stroke-linecap: square"/>
   </g>
   <g id="patch_6">
    <path d="M 20.5625 7.2 
L 377.6825 7.2 
" style="fill: none; stroke: #ffffff; stroke-width: 0.8; stroke-linejoin: miter; stroke-linecap: square"/>
   </g>
   <g id="legend_1">
    <g id="patch_7">
     <path d="M 384.6825 215.20365 
L 468.652813 215.20365 
Q 470.652813 215.20365 470.652813 213.20365 
L 470.652813 67.4224 
Q 470.652813 65.4224 468.652813 65.4224 
L 384.6825 65.4224 
Q 382.6825 65.4224 382.6825 67.4224 
L 382.6825 213.20365 
Q 382.6825 215.20365 384.6825 215.20365 
z
" style="opacity: 0.8; stroke: #cccccc; stroke-linejoin: miter"/>
    </g>
    <g id="PathCollection_11">
     <g>
      <use xlink:href="#mafdef57b64" x="396.6825" y="74.395837" style="fill: #8dd3c7; stroke: #8dd3c7"/>
     </g>
    </g>
    <g id="text_15">
     <!-- JavaScript -->
     <g style="fill: #ffffff" transform="translate(414.6825 77.020837) scale(0.1 -0.1)">
      <defs>
       <path id="DejaVuSans-4a" d="M 628 4666 
L 1259 4666 
L 1259 325 
Q 1259 -519 939 -900 
Q 619 -1281 -91 -1281 
L -331 -1281 
L -331 -750 
L -134 -750 
Q 284 -750 456 -515 
Q 628 -281 628 325 
L 628 4666 
z
" transform="scale(0.015625)"/>
       <path id="DejaVuSans-61" d="M 2194 1759 
Q 1497 1759 1228 1600 
Q 959 1441 959 1056 
Q 959 750 1161 570 
Q 1363 391 1709 391 
Q 2188 391 2477 730 
Q 2766 1069 2766 1631 
L 2766 1759 
L 2194 1759 
z
M 3341 1997 
L 3341 0 
L 2766 0 
L 2766 531 
Q 2569 213 2275 61 
Q 1981 -91 1556 -91 
Q 1019 -91 701 211 
Q 384 513 384 1019 
Q 384 1609 779 1909 
Q 1175 2209 1959 2209 
L 2766 2209 
L 2766 2266 
Q 2766 2663 2505 2880 
Q 2244 3097 1772 3097 
Q 1472 3097 1187 3025 
Q 903 2953 641 2809 
L 641 3341 
Q 956 3463 1253 3523 
Q 1550 3584 1831 3584 
Q 2591 3584 2966 3190 
Q 3341 2797 3341 1997 
z
" transform="scale(0.015625)"/>
       <path id="DejaVuSans-76" d="M 191 3500 
L 800 3500 
L 1894 563 
L 2988 3500 
L 3597 3500 
L 2284 0 
L 1503 0 
L 191 3500 
z
" transform="scale(0.015625)"/>
       <path id="DejaVuSans-53" d="M 3425 4513 
L 3425 3897 
Q 3066 4069 2747 4153 
Q 2428 4238 2131 4238 
Q 1616 4238 1336 4038 
Q 1056 3838 1056 3469 
Q 1056 3159 1242 3001 
Q 1428 2844 1947 2747 
L 2328 2669 
Q 3034 2534 3370 2195 
Q 3706 1856 3706 1288 
Q 3706 609 3251 259 
Q 2797 -91 1919 -91 
Q 1588 -91 1214 -16 
Q 841 59 441 206 
L 441 856 
Q 825 641 1194 531 
Q 1563 422 1919 422 
Q 2459 422 2753 634 
Q 3047 847 3047 1241 
Q 3047 1584 2836 1778 
Q 2625 1972 2144 2069 
L 1759 2144 
Q 1053 2284 737 2584 
Q 422 2884 422 3419 
Q 422 4038 858 4394 
Q 1294 4750 2059 4750 
Q 2388 4750 2728 4690 
Q 3069 4631 3425 4513 
z
" transform="scale(0.015625)"/>
       <path id="DejaVuSans-63" d="M 3122 3366 
L 3122 2828 
Q 2878 2963 2633 3030 
Q 2388 3097 2138 3097 
Q 1578 3097 1268 2742 
Q 959 2388 959 1747 
Q 959 1106 1268 751 
Q 1578 397 2138 397 
Q 2388 397 2633 464 
Q 2878 531 3122 666 
L 3122 134 
Q 2881 22 2623 -34 
Q 2366 -91 2075 -91 
Q 1284 -91 818 406 
Q 353 903 353 1747 
Q 353 2603 823 3093 
Q 1294 3584 2113 3584 
Q 2378 3584 2631 3529 
Q 2884 3475 3122 3366 
z
" transform="scale(0.015625)"/>
       <path id="DejaVuSans-72" d="M 2631 2963 
Q 2534 3019 2420 3045 
Q 2306 3072 2169 3072 
Q 1681 3072 1420 2755 
Q 1159 2438 1159 1844 
L 1159 0 
L 581 0 
L 581 3500 
L 1159 3500 
L 1159 2956 
Q 1341 3275 1631 3429 
Q 1922 3584 2338 3584 
Q 2397 3584 2469 3576 
Q 2541 3569 2628 3553 
L 2631 2963 
z
" transform="scale(0.015625)"/>
       <path id="DejaVuSans-69" d="M 603 3500 
L 1178 3500 
L 1178 0 
L 603 0 
L 603 3500 
z
M 603 4863 
L 1178 4863 
L 1178 4134 
L 603 4134 
L 603 4863 
z
" transform="scale(0.015625)"/>
       <path id="DejaVuSans-70" d="M 1159 525 
L 1159 -1331 
L 581 -1331 
L 581 3500 
L 1159 3500 
L 1159 2969 
Q 1341 3281 1617 3432 
Q 1894 3584 2278 3584 
Q 2916 3584 3314 3078 
Q 3713 2572 3713 1747 
Q 3713 922 3314 415 
Q 2916 -91 2278 -91 
Q 1894 -91 1617 61 
Q 1341 213 1159 525 
z
M 3116 1747 
Q 3116 2381 2855 2742 
Q 2594 3103 2138 3103 
Q 1681 3103 1420 2742 
Q 1159 2381 1159 1747 
Q 1159 1113 1420 752 
Q 1681 391 2138 391 
Q 2594 391 2855 752 
Q 3116 1113 3116 1747 
z
" transform="scale(0.015625)"/>
       <path id="DejaVuSans-74" d="M 1172 4494 
L 1172 3500 
L 2356 3500 
L 2356 3053 
L 1172 3053 
L 1172 1153 
Q 1172 725 1289 603 
Q 1406 481 1766 481 
L 2356 481 
L 2356 0 
L 1766 0 
Q 1100 0 847 248 
Q 594 497 594 1153 
L 594 3053 
L 172 3053 
L 172 3500 
L 594 3500 
L 594 4494 
L 1172 4494 
z
" transform="scale(0.015625)"/>
      </defs>
      <use xlink:href="#DejaVuSans-4a"/>
      <use xlink:href="#DejaVuSans-61" x="29.492188"/>
      <use xlink:href="#DejaVuSans-76" x="90.771484"/>
      <use xlink:href="#DejaVuSans-61" x="149.951172"/>
      <use xlink:href="#DejaVuSans-53" x="211.230469"/>
      <use xlink:href="#DejaVuSans-63" x="274.707031"/>
      <use xlink:href="#DejaVuSans-72" x="329.6875"/>
      <use xlink:href="#DejaVuSans-69" x="370.800781"/>
      <use xlink:href="#DejaVuSans-70" x="398.583984"/>
      <use xlink:href="#DejaVuSans-74" x="462.060547"/>
     </g>
    </g>
    <g id="PathCollection_12">
     <g>
      <use xlink:href="#m95b9d476f4" x="396.6825" y="89.073962" style="fill: #feffb3; stroke: #feffb3"/>
     </g>
    </g>
    <g id="text_16">
     <!-- Python -->
     <g style="fill: #ffffff" transform="translate(414.6825 91.698962) scale(0.1 -0.1)">
      <defs>
       <path id="DejaVuSans-50" d="M 1259 4147 
L 1259 2394 
L 2053 2394 
Q 2494 2394 2734 2622 
Q 2975 2850 2975 3272 
Q 2975 3691 2734 3919 
Q 2494 4147 2053 4147 
L 1259 4147 
z
M 628 4666 
L 2053 4666 
Q 2838 4666 3239 4311 
Q 3641 3956 3641 3272 
Q 3641 2581 3239 2228 
Q 2838 1875 2053 1875 
L 1259 1875 
L 1259 0 
L 628 0 
L 628 4666 
z
" transform="scale(0.015625)"/>
       <path id="DejaVuSans-79" d="M 2059 -325 
Q 1816 -950 1584 -1140 
Q 1353 -1331 966 -1331 
L 506 -1331 
L 506 -850 
L 844 -850 
Q 1081 -850 1212 -737 
Q 1344 -625 1503 -206 
L 1606 56 
L 191 3500 
L 800 3500 
L 1894 763 
L 2988 3500 
L 3597 3500 
L 2059 -325 
z
" transform="scale(0.015625)"/>
       <path id="DejaVuSans-68" d="M 3513 2113 
L 3513 0 
L 2938 0 
L 2938 2094 
Q 2938 2591 2744 2837 
Q 2550 3084 2163 3084 
Q 1697 3084 1428 2787 
Q 1159 2491 1159 1978 
L 1159 0 
L 581 0 
L 581 4863 
L 1159 4863 
L 1159 2956 
Q 1366 3272 1645 3428 
Q 1925 3584 2291 3584 
Q 2894 3584 3203 3211 
Q 3513 2838 3513 2113 
z
" transform="scale(0.015625)"/>
       <path id="DejaVuSans-6f" d="M 1959 3097 
Q 1497 3097 1228 2736 
Q 959 2375 959 1747 
Q 959 1119 1226 758 
Q 1494 397 1959 397 
Q 2419 397 2687 759 
Q 2956 1122 2956 1747 
Q 2956 2369 2687 2733 
Q 2419 3097 1959 3097 
z
M 1959 3584 
Q 2709 3584 3137 3096 
Q 3566 2609 3566 1747 
Q 3566 888 3137 398 
Q 2709 -91 1959 -91 
Q 1206 -91 779 398 
Q 353 888 353 1747 
Q 353 2609 779 3096 
Q 1206 3584 1959 3584 
z
" transform="scale(0.015625)"/>
       <path id="DejaVuSans-6e" d="M 3513 2113 
L 3513 0 
L 2938 0 
L 2938 2094 
Q 2938 2591 2744 2837 
Q 2550 3084 2163 3084 
Q 1697 3084 1428 2787 
Q 1159 2491 1159 1978 
L 1159 0 
L 581 0 
L 581 3500 
L 1159 3500 
L 1159 2956 
Q 1366 3272 1645 3428 
Q 1925 3584 2291 3584 
Q 2894 3584 3203 3211 
Q 3513 2838 3513 2113 
z
" transform="scale(0.015625)"/>
      </defs>
      <use xlink:href="#DejaVuSans-50"/>
      <use xlink:href="#DejaVuSans-79" x="60.302734"/>
      <use xlink:href="#DejaVuSans-74" x="119.482422"/>
      <use xlink:href="#DejaVuSans-68" x="158.691406"/>
      <use xlink:href="#DejaVuSans-6f" x="222.070312"/>
      <use xlink:href="#DejaVuSans-6e" x="283.251953"/>
     </g>
    </g>
    <g id="PathCollection_13">
     <g>
      <use xlink:href="#m3083b04638" x="396.6825" y="103.752087" style="fill: #bfbbd9; stroke: #bfbbd9"/>
     </g>
    </g>
    <g id="text_17">
     <!-- Java -->
     <g style="fill: #ffffff" transform="translate(414.6825 106.377087) scale(0.1 -0.1)">
      <use xlink:href="#DejaVuSans-4a"/>
      <use xlink:href="#DejaVuSans-61" x="29.492188"/>
      <use xlink:href="#DejaVuSans-76" x="90.771484"/>
      <use xlink:href="#DejaVuSans-61" x="149.951172"/>
     </g>
    </g>
    <g id="PathCollection_14">
     <g>
      <use xlink:href="#m8e20fa3c8b" x="396.6825" y="118.430212" style="fill: #fa8174; stroke: #fa8174"/>
     </g>
    </g>
    <g id="text_18">
     <!-- C++ -->
     <g style="fill: #ffffff" transform="translate(414.6825 121.055212) scale(0.1 -0.1)">
      <defs>
       <path id="DejaVuSans-43" d="M 4122 4306 
L 4122 3641 
Q 3803 3938 3442 4084 
Q 3081 4231 2675 4231 
Q 1875 4231 1450 3742 
Q 1025 3253 1025 2328 
Q 1025 1406 1450 917 
Q 1875 428 2675 428 
Q 3081 428 3442 575 
Q 3803 722 4122 1019 
L 4122 359 
Q 3791 134 3420 21 
Q 3050 -91 2638 -91 
Q 1578 -91 968 557 
Q 359 1206 359 2328 
Q 359 3453 968 4101 
Q 1578 4750 2638 4750 
Q 3056 4750 3426 4639 
Q 3797 4528 4122 4306 
z
" transform="scale(0.015625)"/>
       <path id="DejaVuSans-2b" d="M 2944 4013 
L 2944 2272 
L 4684 2272 
L 4684 1741 
L 2944 1741 
L 2944 0 
L 2419 0 
L 2419 1741 
L 678 1741 
L 678 2272 
L 2419 2272 
L 2419 4013 
L 2944 4013 
z
" transform="scale(0.015625)"/>
      </defs>
      <use xlink:href="#DejaVuSans-43"/>
      <use xlink:href="#DejaVuSans-2b" x="69.824219"/>
      <use xlink:href="#DejaVuSans-2b" x="153.613281"/>
     </g>
    </g>
    <g id="PathCollection_15">
     <g>
      <use xlink:href="#macab54481d" x="396.6825" y="133.108337" style="fill: #81b1d2; stroke: #81b1d2"/>
     </g>
    </g>
    <g id="text_19">
     <!-- PHP -->
     <g style="fill: #ffffff" transform="translate(414.6825 135.733337) scale(0.1 -0.1)">
      <defs>
       <path id="DejaVuSans-48" d="M 628 4666 
L 1259 4666 
L 1259 2753 
L 3553 2753 
L 3553 4666 
L 4184 4666 
L 4184 0 
L 3553 0 
L 3553 2222 
L 1259 2222 
L 1259 0 
L 628 0 
L 628 4666 
z
" transform="scale(0.015625)"/>
      </defs>
      <use xlink:href="#DejaVuSans-50"/>
      <use xlink:href="#DejaVuSans-48" x="60.302734"/>
      <use xlink:href="#DejaVuSans-50" x="135.498047"/>
     </g>
    </g>
    <g id="PathCollection_16">
     <g>
      <use xlink:href="#mce9f4b1d4d" x="396.6825" y="147.786462" style="fill: #fdb462; stroke: #fdb462"/>
     </g>
    </g>
    <g id="text_20">
     <!-- Go -->
     <g style="fill: #ffffff" transform="translate(414.6825 150.411462) scale(0.1 -0.1)">
      <defs>
       <path id="DejaVuSans-47" d="M 3809 666 
L 3809 1919 
L 2778 1919 
L 2778 2438 
L 4434 2438 
L 4434 434 
Q 4069 175 3628 42 
Q 3188 -91 2688 -91 
Q 1594 -91 976 548 
Q 359 1188 359 2328 
Q 359 3472 976 4111 
Q 1594 4750 2688 4750 
Q 3144 4750 3555 4637 
Q 3966 4525 4313 4306 
L 4313 3634 
Q 3963 3931 3569 4081 
Q 3175 4231 2741 4231 
Q 1884 4231 1454 3753 
Q 1025 3275 1025 2328 
Q 1025 1384 1454 906 
Q 1884 428 2741 428 
Q 3075 428 3337 486 
Q 3600 544 3809 666 
z
" transform="scale(0.015625)"/>
      </defs>
      <use xlink:href="#DejaVuSans-47"/>
      <use xlink:href="#DejaVuSans-6f" x="77.490234"/>
     </g>
    </g>
    <g id="PathCollection_17">
     <g>
      <use xlink:href="#m346d69e2d4" x="396.6825" y="162.464587" style="fill: #b3de69; stroke: #b3de69"/>
     </g>
    </g>
    <g id="text_21">
     <!-- Ruby -->
     <g style="fill: #ffffff" transform="translate(414.6825 165.089587) scale(0.1 -0.1)">
      <defs>
       <path id="DejaVuSans-52" d="M 2841 2188 
Q 3044 2119 3236 1894 
Q 3428 1669 3622 1275 
L 4263 0 
L 3584 0 
L 2988 1197 
Q 2756 1666 2539 1819 
Q 2322 1972 1947 1972 
L 1259 1972 
L 1259 0 
L 628 0 
L 628 4666 
L 2053 4666 
Q 2853 4666 3247 4331 
Q 3641 3997 3641 3322 
Q 3641 2881 3436 2590 
Q 3231 2300 2841 2188 
z
M 1259 4147 
L 1259 2491 
L 2053 2491 
Q 2509 2491 2742 2702 
Q 2975 2913 2975 3322 
Q 2975 3731 2742 3939 
Q 2509 4147 2053 4147 
L 1259 4147 
z
" transform="scale(0.015625)"/>
       <path id="DejaVuSans-75" d="M 544 1381 
L 544 3500 
L 1119 3500 
L 1119 1403 
Q 1119 906 1312 657 
Q 1506 409 1894 409 
Q 2359 409 2629 706 
Q 2900 1003 2900 1516 
L 2900 3500 
L 3475 3500 
L 3475 0 
L 2900 0 
L 2900 538 
Q 2691 219 2414 64 
Q 2138 -91 1772 -91 
Q 1169 -91 856 284 
Q 544 659 544 1381 
z
M 1991 3584 
L 1991 3584 
z
" transform="scale(0.015625)"/>
       <path id="DejaVuSans-62" d="M 3116 1747 
Q 3116 2381 2855 2742 
Q 2594 3103 2138 3103 
Q 1681 3103 1420 2742 
Q 1159 2381 1159 1747 
Q 1159 1113 1420 752 
Q 1681 391 2138 391 
Q 2594 391 2855 752 
Q 3116 1113 3116 1747 
z
M 1159 2969 
Q 1341 3281 1617 3432 
Q 1894 3584 2278 3584 
Q 2916 3584 3314 3078 
Q 3713 2572 3713 1747 
Q 3713 922 3314 415 
Q 2916 -91 2278 -91 
Q 1894 -91 1617 61 
Q 1341 213 1159 525 
L 1159 0 
L 581 0 
L 581 4863 
L 1159 4863 
L 1159 2969 
z
" transform="scale(0.015625)"/>
      </defs>
      <use xlink:href="#DejaVuSans-52"/>
      <use xlink:href="#DejaVuSans-75" x="64.982422"/>
      <use xlink:href="#DejaVuSans-62" x="128.361328"/>
      <use xlink:href="#DejaVuSans-79" x="191.837891"/>
     </g>
    </g>
    <g id="PathCollection_18">
     <g>
      <use xlink:href="#mf42dbef987" x="396.6825" y="177.142712" style="fill: #bc82bd; stroke: #bc82bd"/>
     </g>
    </g>
    <g id="text_22">
     <!-- TypeScript -->
     <g style="fill: #ffffff" transform="translate(414.6825 179.767712) scale(0.1 -0.1)">
      <defs>
       <path id="DejaVuSans-54" d="M -19 4666 
L 3928 4666 
L 3928 4134 
L 2272 4134 
L 2272 0 
L 1638 0 
L 1638 4134 
L -19 4134 
L -19 4666 
z
" transform="scale(0.015625)"/>
       <path id="DejaVuSans-65" d="M 3597 1894 
L 3597 1613 
L 953 1613 
Q 991 1019 1311 708 
Q 1631 397 2203 397 
Q 2534 397 2845 478 
Q 3156 559 3463 722 
L 3463 178 
Q 3153 47 2828 -22 
Q 2503 -91 2169 -91 
Q 1331 -91 842 396 
Q 353 884 353 1716 
Q 353 2575 817 3079 
Q 1281 3584 2069 3584 
Q 2775 3584 3186 3129 
Q 3597 2675 3597 1894 
z
M 3022 2063 
Q 3016 2534 2758 2815 
Q 2500 3097 2075 3097 
Q 1594 3097 1305 2825 
Q 1016 2553 972 2059 
L 3022 2063 
z
" transform="scale(0.015625)"/>
      </defs>
      <use xlink:href="#DejaVuSans-54"/>
      <use xlink:href="#DejaVuSans-79" x="45.458984"/>
      <use xlink:href="#DejaVuSans-70" x="104.638672"/>
      <use xlink:href="#DejaVuSans-65" x="168.115234"/>
      <use xlink:href="#DejaVuSans-53" x="229.638672"/>
      <use xlink:href="#DejaVuSans-63" x="293.115234"/>
      <use xlink:href="#DejaVuSans-72" x="348.095703"/>
      <use xlink:href="#DejaVuSans-69" x="389.208984"/>
      <use xlink:href="#DejaVuSans-70" x="416.992188"/>
      <use xlink:href="#DejaVuSans-74" x="480.46875"/>
     </g>
    </g>
    <g id="PathCollection_19">
     <g>
      <use xlink:href="#m219e836bca" x="396.6825" y="191.820837" style="fill: #ccebc4; stroke: #ccebc4"/>
     </g>
    </g>
    <g id="text_23">
     <!-- C -->
     <g style="fill: #ffffff" transform="translate(414.6825 194.445837) scale(0.1 -0.1)">
      <use xlink:href="#DejaVuSans-43"/>
     </g>
    </g>
    <g id="PathCollection_20">
     <g>
      <use xlink:href="#m80e78d89ab" x="396.6825" y="206.498962" style="fill: #ffed6f; stroke: #ffed6f"/>
     </g>
    </g>
    <g id="text_24">
     <!-- C# -->
     <g style="fill: #ffffff" transform="translate(414.6825 209.123962) scale(0.1 -0.1)">
      <defs>
       <path id="DejaVuSans-23" d="M 3272 2816 
L 2363 2816 
L 2100 1772 
L 3016 1772 
L 3272 2816 
z
M 2803 4594 
L 2478 3297 
L 3391 3297 
L 3719 4594 
L 4219 4594 
L 3897 3297 
L 4872 3297 
L 4872 2816 
L 3775 2816 
L 3519 1772 
L 4513 1772 
L 4513 1294 
L 3397 1294 
L 3072 0 
L 2572 0 
L 2894 1294 
L 1978 1294 
L 1656 0 
L 1153 0 
L 1478 1294 
L 494 1294 
L 494 1772 
L 1594 1772 
L 1856 2816 
L 850 2816 
L 850 3297 
L 1978 3297 
L 2297 4594 
L 2803 4594 
z
" transform="scale(0.015625)"/>
      </defs>
      <use xlink:href="#DejaVuSans-43"/>
      <use xlink:href="#DejaVuSans-23" x="69.824219"/>
     </g>
    </g>
   </g>
  </g>
 </g>
 <defs>
  <clipPath id="p60c6ca55fb">
   <rect x="20.5625" y="7.2" width="357.12" height="266.112"/>
  </clipPath>
 </defs>
</svg>
