<?xml version="1.0" encoding="utf-8" standalone="no"?>
<!DOCTYPE svg PUBLIC "-//W3C//DTD SVG 1.1//EN"
  "http://www.w3.org/Graphics/SVG/1.1/DTD/svg11.dtd">
<svg xmlns:xlink="http://www.w3.org/1999/xlink" width="477.852812pt" height="297.190125pt" viewBox="0 0 477.852812 297.190125" xmlns="http://www.w3.org/2000/svg" version="1.1">
 <metadata>
  <rdf:RDF xmlns:dc="http://purl.org/dc/elements/1.1/" xmlns:cc="http://creativecommons.org/ns#" xmlns:rdf="http://www.w3.org/1999/02/22-rdf-syntax-ns#">
   <cc:Work>
    <dc:type rdf:resource="http://purl.org/dc/dcmitype/StillImage"/>
    <dc:date>2024-01-07T16:53:30.332989</dc:date>
    <dc:format>image/svg+xml</dc:format>
    <dc:creator>
     <cc:Agent>
      <dc:title>Matplotlib v3.8.2, https://matplotlib.org/</dc:title>
     </cc:Agent>
    </dc:creator>
   </cc:Work>
  </rdf:RDF>
 </metadata>
 <defs>
  <style type="text/css">*{stroke-linejoin: round; stroke-linecap: butt}</style>
 </defs>
 <g id="figure_1">
  <g id="patch_1">
   <path d="M 0 297.190125 
L 477.852812 297.190125 
L 477.852812 0 
L 0 0 
L 0 297.190125 
z
" style="fill: none"/>
  </g>
  <g id="axes_1">
   <g id="patch_2">
    <path d="M 20.5625 273.312 
L 377.6825 273.312 
L 377.6825 7.2 
L 20.5625 7.2 
L 20.5625 273.312 
z
" style="fill: none"/>
   </g>
   <g id="PathCollection_1">
    <defs>
     <path id="me0e878b73e" d="M 0 3 
C 0.795609 3 1.55874 2.683901 2.12132 2.12132 
C 2.683901 1.55874 3 0.795609 3 0 
C 3 -0.795609 2.683901 -1.55874 2.12132 -2.12132 
C 1.55874 -2.683901 0.795609 -3 0 -3 
C -0.795609 -3 -1.55874 -2.683901 -2.12132 -2.12132 
C -2.683901 -1.55874 -3 -0.795609 -3 0 
C -3 0.795609 -2.683901 1.55874 -2.12132 2.12132 
C -1.55874 2.683901 -0.795609 3 0 3 
z
" style="stroke: #8dd3c7"/>
    </defs>
    <g clip-path="url(#p8f1d384777)">
     <use xlink:href="#me0e878b73e" x="36.795227" y="83.289601" style="fill: #8dd3c7; stroke: #8dd3c7"/>
     <use xlink:href="#me0e878b73e" x="66.309277" y="24.906392" style="fill: #8dd3c7; stroke: #8dd3c7"/>
     <use xlink:href="#me0e878b73e" x="95.823326" y="23.375902" style="fill: #8dd3c7; stroke: #8dd3c7"/>
     <use xlink:href="#me0e878b73e" x="125.337376" y="23.375902" style="fill: #8dd3c7; stroke: #8dd3c7"/>
     <use xlink:href="#me0e878b73e" x="154.851426" y="23.375902" style="fill: #8dd3c7; stroke: #8dd3c7"/>
     <use xlink:href="#me0e878b73e" x="184.365475" y="23.375902" style="fill: #8dd3c7; stroke: #8dd3c7"/>
     <use xlink:href="#me0e878b73e" x="213.879525" y="24.456854" style="fill: #8dd3c7; stroke: #8dd3c7"/>
     <use xlink:href="#me0e878b73e" x="243.393574" y="38.837989" style="fill: #8dd3c7; stroke: #8dd3c7"/>
     <use xlink:href="#me0e878b73e" x="272.907624" y="51.324899" style="fill: #8dd3c7; stroke: #8dd3c7"/>
     <use xlink:href="#me0e878b73e" x="302.421674" y="63.253421" style="fill: #8dd3c7; stroke: #8dd3c7"/>
     <use xlink:href="#me0e878b73e" x="331.935723" y="85.990521" style="fill: #8dd3c7; stroke: #8dd3c7"/>
     <use xlink:href="#me0e878b73e" x="361.449773" y="137.11838" style="fill: #8dd3c7; stroke: #8dd3c7"/>
    </g>
   </g>
   <g id="PathCollection_2">
    <defs>
     <path id="m14752eaddd" d="M 0 3 
C 0.795609 3 1.55874 2.683901 2.12132 2.12132 
C 2.683901 1.55874 3 0.795609 3 0 
C 3 -0.795609 2.683901 -1.55874 2.12132 -2.12132 
C 1.55874 -2.683901 0.795609 -3 0 -3 
C -0.795609 -3 -1.55874 -2.683901 -2.12132 -2.12132 
C -2.683901 -1.55874 -3 -0.795609 -3 0 
C -3 0.795609 -2.683901 1.55874 -2.12132 2.12132 
C -1.55874 2.683901 -0.795609 3 0 3 
z
" style="stroke: #feffb3"/>
    </defs>
    <g clip-path="url(#p8f1d384777)">
     <use xlink:href="#m14752eaddd" x="36.795227" y="126.721084" style="fill: #feffb3; stroke: #feffb3"/>
     <use xlink:href="#m14752eaddd" x="66.309277" y="96.987052" style="fill: #feffb3; stroke: #feffb3"/>
     <use xlink:href="#m14752eaddd" x="95.823326" y="118.899436" style="fill: #feffb3; stroke: #feffb3"/>
     <use xlink:href="#m14752eaddd" x="125.337376" y="127.31394" style="fill: #feffb3; stroke: #feffb3"/>
     <use xlink:href="#m14752eaddd" x="154.851426" y="133.696512" style="fill: #feffb3; stroke: #feffb3"/>
     <use xlink:href="#m14752eaddd" x="184.365475" y="116.747192" style="fill: #feffb3; stroke: #feffb3"/>
     <use xlink:href="#m14752eaddd" x="213.879525" y="81.353287" style="fill: #feffb3; stroke: #feffb3"/>
     <use xlink:href="#m14752eaddd" x="243.393574" y="62.157325" style="fill: #feffb3; stroke: #feffb3"/>
     <use xlink:href="#m14752eaddd" x="272.907624" y="48.986573" style="fill: #feffb3; stroke: #feffb3"/>
     <use xlink:href="#m14752eaddd" x="302.421674" y="36.384894" style="fill: #feffb3; stroke: #feffb3"/>
     <use xlink:href="#m14752eaddd" x="331.935723" y="24.950831" style="fill: #feffb3; stroke: #feffb3"/>
     <use xlink:href="#m14752eaddd" x="361.449773" y="80.914941" style="fill: #feffb3; stroke: #feffb3"/>
    </g>
   </g>
   <g id="PathCollection_3">
    <defs>
     <path id="m6b0a0d22b8" d="M 0 3 
C 0.795609 3 1.55874 2.683901 2.12132 2.12132 
C 2.683901 1.55874 3 0.795609 3 0 
C 3 -0.795609 2.683901 -1.55874 2.12132 -2.12132 
C 1.55874 -2.683901 0.795609 -3 0 -3 
C -0.795609 -3 -1.55874 -2.683901 -2.12132 -2.12132 
C -2.683901 -1.55874 -3 -0.795609 -3 0 
C -3 0.795609 -2.683901 1.55874 -2.12132 2.12132 
C -1.55874 2.683901 -0.795609 3 0 3 
z
" style="stroke: #bfbbd9"/>
    </defs>
    <g clip-path="url(#p8f1d384777)">
     <use xlink:href="#m6b0a0d22b8" x="36.795227" y="178.183967" style="fill: #bfbbd9; stroke: #bfbbd9"/>
     <use xlink:href="#m6b0a0d22b8" x="66.309277" y="147.078341" style="fill: #bfbbd9; stroke: #bfbbd9"/>
     <use xlink:href="#m6b0a0d22b8" x="95.823326" y="150.903527" style="fill: #bfbbd9; stroke: #bfbbd9"/>
     <use xlink:href="#m6b0a0d22b8" x="125.337376" y="144.715099" style="fill: #bfbbd9; stroke: #bfbbd9"/>
     <use xlink:href="#m6b0a0d22b8" x="154.851426" y="147.660007" style="fill: #bfbbd9; stroke: #bfbbd9"/>
     <use xlink:href="#m6b0a0d22b8" x="184.365475" y="140.329046" style="fill: #bfbbd9; stroke: #bfbbd9"/>
     <use xlink:href="#m6b0a0d22b8" x="213.879525" y="126.678488" style="fill: #bfbbd9; stroke: #bfbbd9"/>
     <use xlink:href="#m6b0a0d22b8" x="243.393574" y="120.606744" style="fill: #bfbbd9; stroke: #bfbbd9"/>
     <use xlink:href="#m6b0a0d22b8" x="272.907624" y="111.002462" style="fill: #bfbbd9; stroke: #bfbbd9"/>
     <use xlink:href="#m6b0a0d22b8" x="302.421674" y="108.898652" style="fill: #bfbbd9; stroke: #bfbbd9"/>
     <use xlink:href="#m6b0a0d22b8" x="331.935723" y="107.062032" style="fill: #bfbbd9; stroke: #bfbbd9"/>
     <use xlink:href="#m6b0a0d22b8" x="361.449773" y="147.200918" style="fill: #bfbbd9; stroke: #bfbbd9"/>
    </g>
   </g>
   <g id="PathCollection_4">
    <defs>
     <path id="m95c8ed2ef9" d="M 0 3 
C 0.795609 3 1.55874 2.683901 2.12132 2.12132 
C 2.683901 1.55874 3 0.795609 3 0 
C 3 -0.795609 2.683901 -1.55874 2.12132 -2.12132 
C 1.55874 -2.683901 0.795609 -3 0 -3 
C -0.795609 -3 -1.55874 -2.683901 -2.12132 -2.12132 
C -2.683901 -1.55874 -3 -0.795609 -3 0 
C -3 0.795609 -2.683901 1.55874 -2.12132 2.12132 
C -1.55874 2.683901 -0.795609 3 0 3 
z
" style="stroke: #fa8174"/>
    </defs>
    <g clip-path="url(#p8f1d384777)">
     <use xlink:href="#m95c8ed2ef9" x="36.795227" y="202.498871" style="fill: #fa8174; stroke: #fa8174"/>
     <use xlink:href="#m95c8ed2ef9" x="66.309277" y="195.419444" style="fill: #fa8174; stroke: #fa8174"/>
     <use xlink:href="#m95c8ed2ef9" x="95.823326" y="196.743516" style="fill: #fa8174; stroke: #fa8174"/>
     <use xlink:href="#m95c8ed2ef9" x="125.337376" y="201.10788" style="fill: #fa8174; stroke: #fa8174"/>
     <use xlink:href="#m95c8ed2ef9" x="154.851426" y="201.202577" style="fill: #fa8174; stroke: #fa8174"/>
     <use xlink:href="#m95c8ed2ef9" x="184.365475" y="191.482906" style="fill: #fa8174; stroke: #fa8174"/>
     <use xlink:href="#m95c8ed2ef9" x="213.879525" y="165.681772" style="fill: #fa8174; stroke: #fa8174"/>
     <use xlink:href="#m95c8ed2ef9" x="243.393574" y="154.403318" style="fill: #fa8174; stroke: #fa8174"/>
     <use xlink:href="#m95c8ed2ef9" x="272.907624" y="141.902838" style="fill: #fa8174; stroke: #fa8174"/>
     <use xlink:href="#m95c8ed2ef9" x="302.421674" y="132.581655" style="fill: #fa8174; stroke: #fa8174"/>
     <use xlink:href="#m95c8ed2ef9" x="331.935723" y="121.781195" style="fill: #fa8174; stroke: #fa8174"/>
     <use xlink:href="#m95c8ed2ef9" x="361.449773" y="152.547482" style="fill: #fa8174; stroke: #fa8174"/>
    </g>
   </g>
   <g id="PathCollection_5">
    <defs>
     <path id="m87999b9d52" d="M 0 3 
C 0.795609 3 1.55874 2.683901 2.12132 2.12132 
C 2.683901 1.55874 3 0.795609 3 0 
C 3 -0.795609 2.683901 -1.55874 2.12132 -2.12132 
C 1.55874 -2.683901 0.795609 -3 0 -3 
C -0.795609 -3 -1.55874 -2.683901 -2.12132 -2.12132 
C -2.683901 -1.55874 -3 -0.795609 -3 0 
C -3 0.795609 -2.683901 1.55874 -2.12132 2.12132 
C -1.55874 2.683901 -0.795609 3 0 3 
z
" style="stroke: #81b1d2"/>
    </defs>
    <g clip-path="url(#p8f1d384777)">
     <use xlink:href="#m87999b9d52" x="36.795227" y="160.717088" style="fill: #81b1d2; stroke: #81b1d2"/>
     <use xlink:href="#m87999b9d52" x="66.309277" y="143.883412" style="fill: #81b1d2; stroke: #81b1d2"/>
     <use xlink:href="#m87999b9d52" x="95.823326" y="164.985726" style="fill: #81b1d2; stroke: #81b1d2"/>
     <use xlink:href="#m87999b9d52" x="125.337376" y="175.822078" style="fill: #81b1d2; stroke: #81b1d2"/>
     <use xlink:href="#m87999b9d52" x="154.851426" y="189.179549" style="fill: #81b1d2; stroke: #81b1d2"/>
     <use xlink:href="#m87999b9d52" x="184.365475" y="189.622047" style="fill: #81b1d2; stroke: #81b1d2"/>
     <use xlink:href="#m87999b9d52" x="213.879525" y="180.138006" style="fill: #81b1d2; stroke: #81b1d2"/>
     <use xlink:href="#m87999b9d52" x="243.393574" y="179.023895" style="fill: #81b1d2; stroke: #81b1d2"/>
     <use xlink:href="#m87999b9d52" x="272.907624" y="177.72454" style="fill: #81b1d2; stroke: #81b1d2"/>
     <use xlink:href="#m87999b9d52" x="302.421674" y="178.660675" style="fill: #81b1d2; stroke: #81b1d2"/>
     <use xlink:href="#m87999b9d52" x="331.935723" y="178.240338" style="fill: #81b1d2; stroke: #81b1d2"/>
     <use xlink:href="#m87999b9d52" x="361.449773" y="199.267935" style="fill: #81b1d2; stroke: #81b1d2"/>
    </g>
   </g>
   <g id="PathCollection_6">
    <defs>
     <path id="m70a1626bfd" d="M 0 3 
C 0.795609 3 1.55874 2.683901 2.12132 2.12132 
C 2.683901 1.55874 3 0.795609 3 0 
C 3 -0.795609 2.683901 -1.55874 2.12132 -2.12132 
C 1.55874 -2.683901 0.795609 -3 0 -3 
C -0.795609 -3 -1.55874 -2.683901 -2.12132 -2.12132 
C -2.683901 -1.55874 -3 -0.795609 -3 0 
C -3 0.795609 -2.683901 1.55874 -2.12132 2.12132 
C -1.55874 2.683901 -0.795609 3 0 3 
z
" style="stroke: #fdb462"/>
    </defs>
    <g clip-path="url(#p8f1d384777)">
     <use xlink:href="#m70a1626bfd" x="36.795227" y="246.986154" style="fill: #fdb462; stroke: #fdb462"/>
     <use xlink:href="#m70a1626bfd" x="66.309277" y="238.010887" style="fill: #fdb462; stroke: #fdb462"/>
     <use xlink:href="#m70a1626bfd" x="95.823326" y="227.50126" style="fill: #fdb462; stroke: #fdb462"/>
     <use xlink:href="#m70a1626bfd" x="125.337376" y="215.344259" style="fill: #fdb462; stroke: #fdb462"/>
     <use xlink:href="#m70a1626bfd" x="154.851426" y="209.765545" style="fill: #fdb462; stroke: #fdb462"/>
     <use xlink:href="#m70a1626bfd" x="184.365475" y="197.690044" style="fill: #fdb462; stroke: #fdb462"/>
     <use xlink:href="#m70a1626bfd" x="213.879525" y="176.644523" style="fill: #fdb462; stroke: #fdb462"/>
     <use xlink:href="#m70a1626bfd" x="243.393574" y="160.911937" style="fill: #fdb462; stroke: #fdb462"/>
     <use xlink:href="#m70a1626bfd" x="272.907624" y="152.984958" style="fill: #fdb462; stroke: #fdb462"/>
     <use xlink:href="#m70a1626bfd" x="302.421674" y="148.786326" style="fill: #fdb462; stroke: #fdb462"/>
     <use xlink:href="#m70a1626bfd" x="331.935723" y="130.677535" style="fill: #fdb462; stroke: #fdb462"/>
     <use xlink:href="#m70a1626bfd" x="361.449773" y="155.693098" style="fill: #fdb462; stroke: #fdb462"/>
    </g>
   </g>
   <g id="PathCollection_7">
    <defs>
     <path id="m468d3d1d28" d="M 0 3 
C 0.795609 3 1.55874 2.683901 2.12132 2.12132 
C 2.683901 1.55874 3 0.795609 3 0 
C 3 -0.795609 2.683901 -1.55874 2.12132 -2.12132 
C 1.55874 -2.683901 0.795609 -3 0 -3 
C -0.795609 -3 -1.55874 -2.683901 -2.12132 -2.12132 
C -2.683901 -1.55874 -3 -0.795609 -3 0 
C -3 0.795609 -2.683901 1.55874 -2.12132 2.12132 
C -1.55874 2.683901 -0.795609 3 0 3 
z
" style="stroke: #b3de69"/>
    </defs>
    <g clip-path="url(#p8f1d384777)">
     <use xlink:href="#m468d3d1d28" x="36.795227" y="123.744762" style="fill: #b3de69; stroke: #b3de69"/>
     <use xlink:href="#m468d3d1d28" x="66.309277" y="117.603054" style="fill: #b3de69; stroke: #b3de69"/>
     <use xlink:href="#m468d3d1d28" x="95.823326" y="161.42648" style="fill: #b3de69; stroke: #b3de69"/>
     <use xlink:href="#m468d3d1d28" x="125.337376" y="185.157204" style="fill: #b3de69; stroke: #b3de69"/>
     <use xlink:href="#m468d3d1d28" x="154.851426" y="205.661842" style="fill: #b3de69; stroke: #b3de69"/>
     <use xlink:href="#m468d3d1d28" x="184.365475" y="212.899303" style="fill: #b3de69; stroke: #b3de69"/>
     <use xlink:href="#m468d3d1d28" x="213.879525" y="208.311976" style="fill: #b3de69; stroke: #b3de69"/>
     <use xlink:href="#m468d3d1d28" x="243.393574" y="208.031274" style="fill: #b3de69; stroke: #b3de69"/>
     <use xlink:href="#m468d3d1d28" x="272.907624" y="209.822746" style="fill: #b3de69; stroke: #b3de69"/>
     <use xlink:href="#m468d3d1d28" x="302.421674" y="209.202936" style="fill: #b3de69; stroke: #b3de69"/>
     <use xlink:href="#m468d3d1d28" x="331.935723" y="209.716319" style="fill: #b3de69; stroke: #b3de69"/>
     <use xlink:href="#m468d3d1d28" x="361.449773" y="220.910216" style="fill: #b3de69; stroke: #b3de69"/>
    </g>
   </g>
   <g id="PathCollection_8">
    <defs>
     <path id="mcdd39145d7" d="M 0 3 
C 0.795609 3 1.55874 2.683901 2.12132 2.12132 
C 2.683901 1.55874 3 0.795609 3 0 
C 3 -0.795609 2.683901 -1.55874 2.12132 -2.12132 
C 1.55874 -2.683901 0.795609 -3 0 -3 
C -0.795609 -3 -1.55874 -2.683901 -2.12132 -2.12132 
C -2.683901 -1.55874 -3 -0.795609 -3 0 
C -3 0.795609 -2.683901 1.55874 -2.12132 2.12132 
C -1.55874 2.683901 -0.795609 3 0 3 
z
" style="stroke: #bc82bd"/>
    </defs>
    <g clip-path="url(#p8f1d384777)">
     <use xlink:href="#mcdd39145d7" x="36.795227" y="251.664409" style="fill: #bc82bd; stroke: #bc82bd"/>
     <use xlink:href="#mcdd39145d7" x="66.309277" y="248.455982" style="fill: #bc82bd; stroke: #bc82bd"/>
     <use xlink:href="#mcdd39145d7" x="95.823326" y="245.686217" style="fill: #bc82bd; stroke: #bc82bd"/>
     <use xlink:href="#mcdd39145d7" x="125.337376" y="242.083784" style="fill: #bc82bd; stroke: #bc82bd"/>
     <use xlink:href="#mcdd39145d7" x="154.851426" y="230.54384" style="fill: #bc82bd; stroke: #bc82bd"/>
     <use xlink:href="#mcdd39145d7" x="184.365475" y="211.866277" style="fill: #bc82bd; stroke: #bc82bd"/>
     <use xlink:href="#mcdd39145d7" x="213.879525" y="190.228668" style="fill: #bc82bd; stroke: #bc82bd"/>
     <use xlink:href="#mcdd39145d7" x="243.393574" y="182.467067" style="fill: #bc82bd; stroke: #bc82bd"/>
     <use xlink:href="#mcdd39145d7" x="272.907624" y="172.962519" style="fill: #bc82bd; stroke: #bc82bd"/>
     <use xlink:href="#mcdd39145d7" x="302.421674" y="160.398772" style="fill: #bc82bd; stroke: #bc82bd"/>
     <use xlink:href="#mcdd39145d7" x="331.935723" y="139.26225" style="fill: #bc82bd; stroke: #bc82bd"/>
     <use xlink:href="#mcdd39145d7" x="361.449773" y="170.598828" style="fill: #bc82bd; stroke: #bc82bd"/>
    </g>
   </g>
   <g id="PathCollection_9">
    <defs>
     <path id="m2efb6cdae6" d="M 0 3 
C 0.795609 3 1.55874 2.683901 2.12132 2.12132 
C 2.683901 1.55874 3 0.795609 3 0 
C 3 -0.795609 2.683901 -1.55874 2.12132 -2.12132 
C 1.55874 -2.683901 0.795609 -3 0 -3 
C -0.795609 -3 -1.55874 -2.683901 -2.12132 -2.12132 
C -2.683901 -1.55874 -3 -0.795609 -3 0 
C -3 0.795609 -2.683901 1.55874 -2.12132 2.12132 
C -1.55874 2.683901 -0.795609 3 0 3 
z
" style="stroke: #ccebc4"/>
    </defs>
    <g clip-path="url(#p8f1d384777)">
     <use xlink:href="#m2efb6cdae6" x="36.795227" y="206.866575" style="fill: #ccebc4; stroke: #ccebc4"/>
     <use xlink:href="#m2efb6cdae6" x="66.309277" y="202.75773" style="fill: #ccebc4; stroke: #ccebc4"/>
     <use xlink:href="#m2efb6cdae6" x="95.823326" y="211.262774" style="fill: #ccebc4; stroke: #ccebc4"/>
     <use xlink:href="#m2efb6cdae6" x="125.337376" y="217.027316" style="fill: #ccebc4; stroke: #ccebc4"/>
     <use xlink:href="#m2efb6cdae6" x="154.851426" y="219.73394" style="fill: #ccebc4; stroke: #ccebc4"/>
     <use xlink:href="#m2efb6cdae6" x="184.365475" y="219.648282" style="fill: #ccebc4; stroke: #ccebc4"/>
     <use xlink:href="#m2efb6cdae6" x="213.879525" y="210.183162" style="fill: #ccebc4; stroke: #ccebc4"/>
     <use xlink:href="#m2efb6cdae6" x="243.393574" y="203.52681" style="fill: #ccebc4; stroke: #ccebc4"/>
     <use xlink:href="#m2efb6cdae6" x="272.907624" y="195.67651" style="fill: #ccebc4; stroke: #ccebc4"/>
     <use xlink:href="#m2efb6cdae6" x="302.421674" y="191.031357" style="fill: #ccebc4; stroke: #ccebc4"/>
     <use xlink:href="#m2efb6cdae6" x="331.935723" y="187.570494" style="fill: #ccebc4; stroke: #ccebc4"/>
     <use xlink:href="#m2efb6cdae6" x="361.449773" y="203.156621" style="fill: #ccebc4; stroke: #ccebc4"/>
    </g>
   </g>
   <g id="PathCollection_10">
    <defs>
     <path id="m40d1f6f341" d="M 0 3 
C 0.795609 3 1.55874 2.683901 2.12132 2.12132 
C 2.683901 1.55874 3 0.795609 3 0 
C 3 -0.795609 2.683901 -1.55874 2.12132 -2.12132 
C 1.55874 -2.683901 0.795609 -3 0 -3 
C -0.795609 -3 -1.55874 -2.683901 -2.12132 -2.12132 
C -2.683901 -1.55874 -3 -0.795609 -3 0 
C -3 0.795609 -2.683901 1.55874 -2.12132 2.12132 
C -1.55874 2.683901 -0.795609 3 0 3 
z
" style="stroke: #ffed6f"/>
    </defs>
    <g clip-path="url(#p8f1d384777)">
     <use xlink:href="#m40d1f6f341" x="36.795227" y="237.071092" style="fill: #ffed6f; stroke: #ffed6f"/>
     <use xlink:href="#m40d1f6f341" x="66.309277" y="230.134927" style="fill: #ffed6f; stroke: #ffed6f"/>
     <use xlink:href="#m40d1f6f341" x="95.823326" y="228.959722" style="fill: #ffed6f; stroke: #ffed6f"/>
     <use xlink:href="#m40d1f6f341" x="125.337376" y="221.930644" style="fill: #ffed6f; stroke: #ffed6f"/>
     <use xlink:href="#m40d1f6f341" x="154.851426" y="220.254291" style="fill: #ffed6f; stroke: #ffed6f"/>
     <use xlink:href="#m40d1f6f341" x="184.365475" y="215.450619" style="fill: #ffed6f; stroke: #ffed6f"/>
     <use xlink:href="#m40d1f6f341" x="213.879525" y="209.043475" style="fill: #ffed6f; stroke: #ffed6f"/>
     <use xlink:href="#m40d1f6f341" x="243.393574" y="204.024928" style="fill: #ffed6f; stroke: #ffed6f"/>
     <use xlink:href="#m40d1f6f341" x="272.907624" y="202.702799" style="fill: #ffed6f; stroke: #ffed6f"/>
     <use xlink:href="#m40d1f6f341" x="302.421674" y="202.545413" style="fill: #ffed6f; stroke: #ffed6f"/>
     <use xlink:href="#m40d1f6f341" x="331.935723" y="201.17641" style="fill: #ffed6f; stroke: #ffed6f"/>
     <use xlink:href="#m40d1f6f341" x="361.449773" y="215.382414" style="fill: #ffed6f; stroke: #ffed6f"/>
    </g>
   </g>
   <g id="matplotlib.axis_1">
    <g id="xtick_1">
     <g id="line2d_1">
      <defs>
       <path id="mcea2d7db19" d="M 0 0 
L 0 3.5 
" style="stroke: #ffffff; stroke-width: 0.8"/>
      </defs>
      <g>
       <use xlink:href="#mcea2d7db19" x="36.795227" y="273.312" style="fill: #ffffff; stroke: #ffffff; stroke-width: 0.8"/>
      </g>
     </g>
     <g id="text_1">
      <!-- 2012 -->
      <g style="fill: #ffffff" transform="translate(24.070227 287.910437) scale(0.1 -0.1)">
       <defs>
        <path id="DejaVuSans-32" d="M 1228 531 
L 3431 531 
L 3431 0 
L 469 0 
L 469 531 
Q 828 903 1448 1529 
Q 2069 2156 2228 2338 
Q 2531 2678 2651 2914 
Q 2772 3150 2772 3378 
Q 2772 3750 2511 3984 
Q 2250 4219 1831 4219 
Q 1534 4219 1204 4116 
Q 875 4013 500 3803 
L 500 4441 
Q 881 4594 1212 4672 
Q 1544 4750 1819 4750 
Q 2544 4750 2975 4387 
Q 3406 4025 3406 3419 
Q 3406 3131 3298 2873 
Q 3191 2616 2906 2266 
Q 2828 2175 2409 1742 
Q 1991 1309 1228 531 
z
" transform="scale(0.015625)"/>
        <path id="DejaVuSans-30" d="M 2034 4250 
Q 1547 4250 1301 3770 
Q 1056 3291 1056 2328 
Q 1056 1369 1301 889 
Q 1547 409 2034 409 
Q 2525 409 2770 889 
Q 3016 1369 3016 2328 
Q 3016 3291 2770 3770 
Q 2525 4250 2034 4250 
z
M 2034 4750 
Q 2819 4750 3233 4129 
Q 3647 3509 3647 2328 
Q 3647 1150 3233 529 
Q 2819 -91 2034 -91 
Q 1250 -91 836 529 
Q 422 1150 422 2328 
Q 422 3509 836 4129 
Q 1250 4750 2034 4750 
z
" transform="scale(0.015625)"/>
        <path id="DejaVuSans-31" d="M 794 531 
L 1825 531 
L 1825 4091 
L 703 3866 
L 703 4441 
L 1819 4666 
L 2450 4666 
L 2450 531 
L 3481 531 
L 3481 0 
L 794 0 
L 794 531 
z
" transform="scale(0.015625)"/>
       </defs>
       <use xlink:href="#DejaVuSans-32"/>
       <use xlink:href="#DejaVuSans-30" x="63.623047"/>
       <use xlink:href="#DejaVuSans-31" x="127.246094"/>
       <use xlink:href="#DejaVuSans-32" x="190.869141"/>
      </g>
     </g>
    </g>
    <g id="xtick_2">
     <g id="line2d_2">
      <g>
       <use xlink:href="#mcea2d7db19" x="95.823326" y="273.312" style="fill: #ffffff; stroke: #ffffff; stroke-width: 0.8"/>
      </g>
     </g>
     <g id="text_2">
      <!-- 2014 -->
      <g style="fill: #ffffff" transform="translate(83.098326 287.910437) scale(0.1 -0.1)">
       <defs>
        <path id="DejaVuSans-34" d="M 2419 4116 
L 825 1625 
L 2419 1625 
L 2419 4116 
z
M 2253 4666 
L 3047 4666 
L 3047 1625 
L 3713 1625 
L 3713 1100 
L 3047 1100 
L 3047 0 
L 2419 0 
L 2419 1100 
L 313 1100 
L 313 1709 
L 2253 4666 
z
" transform="scale(0.015625)"/>
       </defs>
       <use xlink:href="#DejaVuSans-32"/>
       <use xlink:href="#DejaVuSans-30" x="63.623047"/>
       <use xlink:href="#DejaVuSans-31" x="127.246094"/>
       <use xlink:href="#DejaVuSans-34" x="190.869141"/>
      </g>
     </g>
    </g>
    <g id="xtick_3">
     <g id="line2d_3">
      <g>
       <use xlink:href="#mcea2d7db19" x="154.851426" y="273.312" style="fill: #ffffff; stroke: #ffffff; stroke-width: 0.8"/>
      </g>
     </g>
     <g id="text_3">
      <!-- 2016 -->
      <g style="fill: #ffffff" transform="translate(142.126426 287.910437) scale(0.1 -0.1)">
       <defs>
        <path id="DejaVuSans-36" d="M 2113 2584 
Q 1688 2584 1439 2293 
Q 1191 2003 1191 1497 
Q 1191 994 1439 701 
Q 1688 409 2113 409 
Q 2538 409 2786 701 
Q 3034 994 3034 1497 
Q 3034 2003 2786 2293 
Q 2538 2584 2113 2584 
z
M 3366 4563 
L 3366 3988 
Q 3128 4100 2886 4159 
Q 2644 4219 2406 4219 
Q 1781 4219 1451 3797 
Q 1122 3375 1075 2522 
Q 1259 2794 1537 2939 
Q 1816 3084 2150 3084 
Q 2853 3084 3261 2657 
Q 3669 2231 3669 1497 
Q 3669 778 3244 343 
Q 2819 -91 2113 -91 
Q 1303 -91 875 529 
Q 447 1150 447 2328 
Q 447 3434 972 4092 
Q 1497 4750 2381 4750 
Q 2619 4750 2861 4703 
Q 3103 4656 3366 4563 
z
" transform="scale(0.015625)"/>
       </defs>
       <use xlink:href="#DejaVuSans-32"/>
       <use xlink:href="#DejaVuSans-30" x="63.623047"/>
       <use xlink:href="#DejaVuSans-31" x="127.246094"/>
       <use xlink:href="#DejaVuSans-36" x="190.869141"/>
      </g>
     </g>
    </g>
    <g id="xtick_4">
     <g id="line2d_4">
      <g>
       <use xlink:href="#mcea2d7db19" x="213.879525" y="273.312" style="fill: #ffffff; stroke: #ffffff; stroke-width: 0.8"/>
      </g>
     </g>
     <g id="text_4">
      <!-- 2018 -->
      <g style="fill: #ffffff" transform="translate(201.154525 287.910437) scale(0.1 -0.1)">
       <defs>
        <path id="DejaVuSans-38" d="M 2034 2216 
Q 1584 2216 1326 1975 
Q 1069 1734 1069 1313 
Q 1069 891 1326 650 
Q 1584 409 2034 409 
Q 2484 409 2743 651 
Q 3003 894 3003 1313 
Q 3003 1734 2745 1975 
Q 2488 2216 2034 2216 
z
M 1403 2484 
Q 997 2584 770 2862 
Q 544 3141 544 3541 
Q 544 4100 942 4425 
Q 1341 4750 2034 4750 
Q 2731 4750 3128 4425 
Q 3525 4100 3525 3541 
Q 3525 3141 3298 2862 
Q 3072 2584 2669 2484 
Q 3125 2378 3379 2068 
Q 3634 1759 3634 1313 
Q 3634 634 3220 271 
Q 2806 -91 2034 -91 
Q 1263 -91 848 271 
Q 434 634 434 1313 
Q 434 1759 690 2068 
Q 947 2378 1403 2484 
z
M 1172 3481 
Q 1172 3119 1398 2916 
Q 1625 2713 2034 2713 
Q 2441 2713 2670 2916 
Q 2900 3119 2900 3481 
Q 2900 3844 2670 4047 
Q 2441 4250 2034 4250 
Q 1625 4250 1398 4047 
Q 1172 3844 1172 3481 
z
" transform="scale(0.015625)"/>
       </defs>
       <use xlink:href="#DejaVuSans-32"/>
       <use xlink:href="#DejaVuSans-30" x="63.623047"/>
       <use xlink:href="#DejaVuSans-31" x="127.246094"/>
       <use xlink:href="#DejaVuSans-38" x="190.869141"/>
      </g>
     </g>
    </g>
    <g id="xtick_5">
     <g id="line2d_5">
      <g>
       <use xlink:href="#mcea2d7db19" x="272.907624" y="273.312" style="fill: #ffffff; stroke: #ffffff; stroke-width: 0.8"/>
      </g>
     </g>
     <g id="text_5">
      <!-- 2020 -->
      <g style="fill: #ffffff" transform="translate(260.182624 287.910437) scale(0.1 -0.1)">
       <use xlink:href="#DejaVuSans-32"/>
       <use xlink:href="#DejaVuSans-30" x="63.623047"/>
       <use xlink:href="#DejaVuSans-32" x="127.246094"/>
       <use xlink:href="#DejaVuSans-30" x="190.869141"/>
      </g>
     </g>
    </g>
    <g id="xtick_6">
     <g id="line2d_6">
      <g>
       <use xlink:href="#mcea2d7db19" x="331.935723" y="273.312" style="fill: #ffffff; stroke: #ffffff; stroke-width: 0.8"/>
      </g>
     </g>
     <g id="text_6">
      <!-- 2022 -->
      <g style="fill: #ffffff" transform="translate(319.210723 287.910437) scale(0.1 -0.1)">
       <use xlink:href="#DejaVuSans-32"/>
       <use xlink:href="#DejaVuSans-30" x="63.623047"/>
       <use xlink:href="#DejaVuSans-32" x="127.246094"/>
       <use xlink:href="#DejaVuSans-32" x="190.869141"/>
      </g>
     </g>
    </g>
   </g>
   <g id="matplotlib.axis_2">
    <g id="ytick_1">
     <g id="line2d_7">
      <defs>
       <path id="me4a85a5318" d="M 0 0 
L -3.5 0 
" style="stroke: #ffffff; stroke-width: 0.8"/>
      </defs>
      <g>
       <use xlink:href="#me4a85a5318" x="20.5625" y="253.532056" style="fill: #ffffff; stroke: #ffffff; stroke-width: 0.8"/>
      </g>
     </g>
     <g id="text_7">
      <!-- 0 -->
      <g style="fill: #ffffff" transform="translate(7.2 257.331275) scale(0.1 -0.1)">
       <use xlink:href="#DejaVuSans-30"/>
      </g>
     </g>
    </g>
    <g id="ytick_2">
     <g id="line2d_8">
      <g>
       <use xlink:href="#me4a85a5318" x="20.5625" y="195.993018" style="fill: #ffffff; stroke: #ffffff; stroke-width: 0.8"/>
      </g>
     </g>
     <g id="text_8">
      <!-- 1 -->
      <g style="fill: #ffffff" transform="translate(7.2 199.792236) scale(0.1 -0.1)">
       <use xlink:href="#DejaVuSans-31"/>
      </g>
     </g>
    </g>
    <g id="ytick_3">
     <g id="line2d_9">
      <g>
       <use xlink:href="#me4a85a5318" x="20.5625" y="138.453979" style="fill: #ffffff; stroke: #ffffff; stroke-width: 0.8"/>
      </g>
     </g>
     <g id="text_9">
      <!-- 2 -->
      <g style="fill: #ffffff" transform="translate(7.2 142.253198) scale(0.1 -0.1)">
       <use xlink:href="#DejaVuSans-32"/>
      </g>
     </g>
    </g>
    <g id="ytick_4">
     <g id="line2d_10">
      <g>
       <use xlink:href="#me4a85a5318" x="20.5625" y="80.914941" style="fill: #ffffff; stroke: #ffffff; stroke-width: 0.8"/>
      </g>
     </g>
     <g id="text_10">
      <!-- 3 -->
      <g style="fill: #ffffff" transform="translate(7.2 84.714159) scale(0.1 -0.1)">
       <defs>
        <path id="DejaVuSans-33" d="M 2597 2516 
Q 3050 2419 3304 2112 
Q 3559 1806 3559 1356 
Q 3559 666 3084 287 
Q 2609 -91 1734 -91 
Q 1441 -91 1130 -33 
Q 819 25 488 141 
L 488 750 
Q 750 597 1062 519 
Q 1375 441 1716 441 
Q 2309 441 2620 675 
Q 2931 909 2931 1356 
Q 2931 1769 2642 2001 
Q 2353 2234 1838 2234 
L 1294 2234 
L 1294 2753 
L 1863 2753 
Q 2328 2753 2575 2939 
Q 2822 3125 2822 3475 
Q 2822 3834 2567 4026 
Q 2313 4219 1838 4219 
Q 1578 4219 1281 4162 
Q 984 4106 628 3988 
L 628 4550 
Q 988 4650 1302 4700 
Q 1616 4750 1894 4750 
Q 2613 4750 3031 4423 
Q 3450 4097 3450 3541 
Q 3450 3153 3228 2886 
Q 3006 2619 2597 2516 
z
" transform="scale(0.015625)"/>
       </defs>
       <use xlink:href="#DejaVuSans-33"/>
      </g>
     </g>
    </g>
    <g id="ytick_5">
     <g id="line2d_11">
      <g>
       <use xlink:href="#me4a85a5318" x="20.5625" y="23.375902" style="fill: #ffffff; stroke: #ffffff; stroke-width: 0.8"/>
      </g>
     </g>
     <g id="text_11">
      <!-- 4 -->
      <g style="fill: #ffffff" transform="translate(7.2 27.175121) scale(0.1 -0.1)">
       <use xlink:href="#DejaVuSans-34"/>
      </g>
     </g>
    </g>
   </g>
   <g id="line2d_12">
    <path d="M 36.795227 19.296 
L 66.309277 24.919177 
L 95.823326 30.542354 
L 125.337376 36.16553 
L 154.851426 41.788707 
L 184.365475 47.411884 
L 213.879525 53.035061 
L 243.393574 58.658237 
L 272.907624 64.281414 
L 302.421674 69.904591 
L 331.935723 75.527768 
L 361.449773 81.150944 
" clip-path="url(#p8f1d384777)" style="fill: none; stroke: #8dd3c7; stroke-width: 1.5; stroke-linecap: square"/>
   </g>
   <g id="line2d_13">
    <path d="M 36.795227 133.530775 
L 66.309277 125.239014 
L 95.823326 116.947253 
L 125.337376 108.655492 
L 154.851426 100.36373 
L 184.365475 92.071969 
L 213.879525 83.780208 
L 243.393574 75.488447 
L 272.907624 67.196686 
L 302.421674 58.904925 
L 331.935723 50.613164 
L 361.449773 42.321403 
" clip-path="url(#p8f1d384777)" style="fill: none; stroke: #feffb3; stroke-width: 1.5; stroke-linecap: square"/>
   </g>
   <g id="line2d_14">
    <path d="M 36.795227 160.059324 
L 66.309277 155.659436 
L 95.823326 151.259548 
L 125.337376 146.85966 
L 154.851426 142.459772 
L 184.365475 138.059884 
L 213.879525 133.659996 
L 243.393574 129.260108 
L 272.907624 124.86022 
L 302.421674 120.460332 
L 331.935723 116.060444 
L 361.449773 111.660556 
" clip-path="url(#p8f1d384777)" style="fill: none; stroke: #bfbbd9; stroke-width: 1.5; stroke-linecap: square"/>
   </g>
   <g id="line2d_15">
    <path d="M 36.795227 212.283942 
L 66.309277 204.858883 
L 95.823326 197.433825 
L 125.337376 190.008767 
L 154.851426 182.583709 
L 184.365475 175.15865 
L 213.879525 167.733592 
L 243.393574 160.308534 
L 272.907624 152.883476 
L 302.421674 145.458417 
L 331.935723 138.033359 
L 361.449773 130.608301 
" clip-path="url(#p8f1d384777)" style="fill: none; stroke: #fa8174; stroke-width: 1.5; stroke-linecap: square"/>
   </g>
   <g id="line2d_16">
    <path d="M 36.795227 161.081897 
L 66.309277 163.874057 
L 95.823326 166.666216 
L 125.337376 169.458376 
L 154.851426 172.250535 
L 184.365475 175.042694 
L 213.879525 177.834854 
L 243.393574 180.627013 
L 272.907624 183.419173 
L 302.421674 186.211332 
L 331.935723 189.003492 
L 361.449773 191.795651 
" clip-path="url(#p8f1d384777)" style="fill: none; stroke: #81b1d2; stroke-width: 1.5; stroke-linecap: square"/>
   </g>
   <g id="line2d_17">
    <path d="M 36.795227 246.120823 
L 66.309277 235.629106 
L 95.823326 225.137388 
L 125.337376 214.645671 
L 154.851426 204.153953 
L 184.365475 193.662236 
L 213.879525 183.170519 
L 243.393574 172.678801 
L 272.907624 162.187084 
L 302.421674 151.695366 
L 331.935723 141.203649 
L 361.449773 130.711932 
" clip-path="url(#p8f1d384777)" style="fill: none; stroke: #fdb462; stroke-width: 1.5; stroke-linecap: square"/>
   </g>
   <g id="line2d_18">
    <path d="M 36.795227 144.025485 
L 66.309277 152.270671 
L 95.823326 160.515857 
L 125.337376 168.761044 
L 154.851426 177.00623 
L 184.365475 185.251416 
L 213.879525 193.496602 
L 243.393574 201.741788 
L 272.907624 209.986975 
L 302.421674 218.232161 
L 331.935723 226.477347 
L 361.449773 234.722533 
" clip-path="url(#p8f1d384777)" style="fill: none; stroke: #b3de69; stroke-width: 1.5; stroke-linecap: square"/>
   </g>
   <g id="line2d_19">
    <path d="M 36.795227 261.216 
L 66.309277 250.7861 
L 95.823326 240.3562 
L 125.337376 229.926301 
L 154.851426 219.496401 
L 184.365475 209.066501 
L 213.879525 198.636601 
L 243.393574 188.206701 
L 272.907624 177.776801 
L 302.421674 167.346902 
L 331.935723 156.917002 
L 361.449773 146.487102 
" clip-path="url(#p8f1d384777)" style="fill: none; stroke: #bc82bd; stroke-width: 1.5; stroke-linecap: square"/>
   </g>
   <g id="line2d_20">
    <path d="M 36.795227 215.010293 
L 66.309277 213.318142 
L 95.823326 211.625992 
L 125.337376 209.933841 
L 154.851426 208.24169 
L 184.365475 206.54954 
L 213.879525 204.857389 
L 243.393574 203.165238 
L 272.907624 201.473088 
L 302.421674 199.780937 
L 331.935723 198.088786 
L 361.449773 196.396636 
" clip-path="url(#p8f1d384777)" style="fill: none; stroke: #ccebc4; stroke-width: 1.5; stroke-linecap: square"/>
   </g>
   <g id="line2d_21">
    <path d="M 36.795227 231.787229 
L 66.309277 228.866471 
L 95.823326 225.945714 
L 125.337376 223.024956 
L 154.851426 220.104198 
L 184.365475 217.18344 
L 213.879525 214.262682 
L 243.393574 211.341924 
L 272.907624 208.421167 
L 302.421674 205.500409 
L 331.935723 202.579651 
L 361.449773 199.658893 
" clip-path="url(#p8f1d384777)" style="fill: none; stroke: #ffed6f; stroke-width: 1.5; stroke-linecap: square"/>
   </g>
   <g id="patch_3">
    <path d="M 20.5625 273.312 
L 20.5625 7.2 
" style="fill: none; stroke: #ffffff; stroke-width: 0.8; stroke-linejoin: miter; stroke-linecap: square"/>
   </g>
   <g id="patch_4">
    <path d="M 377.6825 273.312 
L 377.6825 7.2 
" style="fill: none; stroke: #ffffff; stroke-width: 0.8; stroke-linejoin: miter; stroke-linecap: square"/>
   </g>
   <g id="patch_5">
    <path d="M 20.5625 273.312 
L 377.6825 273.312 
" style="fill: none; stroke: #ffffff; stroke-width: 0.8; stroke-linejoin: miter; stroke-linecap: square"/>
   </g>
   <g id="patch_6">
    <path d="M 20.5625 7.2 
L 377.6825 7.2 
" style="fill: none; stroke: #ffffff; stroke-width: 0.8; stroke-linejoin: miter; stroke-linecap: square"/>
   </g>
   <g id="legend_1">
    <g id="patch_7">
     <path d="M 384.6825 215.20365 
L 468.652813 215.20365 
Q 470.652813 215.20365 470.652813 213.20365 
L 470.652813 67.4224 
Q 470.652813 65.4224 468.652813 65.4224 
L 384.6825 65.4224 
Q 382.6825 65.4224 382.6825 67.4224 
L 382.6825 213.20365 
Q 382.6825 215.20365 384.6825 215.20365 
z
" style="opacity: 0.8; stroke: #cccccc; stroke-linejoin: miter"/>
    </g>
    <g id="PathCollection_11">
     <g>
      <use xlink:href="#me0e878b73e" x="396.6825" y="74.395837" style="fill: #8dd3c7; stroke: #8dd3c7"/>
     </g>
    </g>
    <g id="text_12">
     <!-- JavaScript -->
     <g style="fill: #ffffff" transform="translate(414.6825 77.020837) scale(0.1 -0.1)">
      <defs>
       <path id="DejaVuSans-4a" d="M 628 4666 
L 1259 4666 
L 1259 325 
Q 1259 -519 939 -900 
Q 619 -1281 -91 -1281 
L -331 -1281 
L -331 -750 
L -134 -750 
Q 284 -750 456 -515 
Q 628 -281 628 325 
L 628 4666 
z
" transform="scale(0.015625)"/>
       <path id="DejaVuSans-61" d="M 2194 1759 
Q 1497 1759 1228 1600 
Q 959 1441 959 1056 
Q 959 750 1161 570 
Q 1363 391 1709 391 
Q 2188 391 2477 730 
Q 2766 1069 2766 1631 
L 2766 1759 
L 2194 1759 
z
M 3341 1997 
L 3341 0 
L 2766 0 
L 2766 531 
Q 2569 213 2275 61 
Q 1981 -91 1556 -91 
Q 1019 -91 701 211 
Q 384 513 384 1019 
Q 384 1609 779 1909 
Q 1175 2209 1959 2209 
L 2766 2209 
L 2766 2266 
Q 2766 2663 2505 2880 
Q 2244 3097 1772 3097 
Q 1472 3097 1187 3025 
Q 903 2953 641 2809 
L 641 3341 
Q 956 3463 1253 3523 
Q 1550 3584 1831 3584 
Q 2591 3584 2966 3190 
Q 3341 2797 3341 1997 
z
" transform="scale(0.015625)"/>
       <path id="DejaVuSans-76" d="M 191 3500 
L 800 3500 
L 1894 563 
L 2988 3500 
L 3597 3500 
L 2284 0 
L 1503 0 
L 191 3500 
z
" transform="scale(0.015625)"/>
       <path id="DejaVuSans-53" d="M 3425 4513 
L 3425 3897 
Q 3066 4069 2747 4153 
Q 2428 4238 2131 4238 
Q 1616 4238 1336 4038 
Q 1056 3838 1056 3469 
Q 1056 3159 1242 3001 
Q 1428 2844 1947 2747 
L 2328 2669 
Q 3034 2534 3370 2195 
Q 3706 1856 3706 1288 
Q 3706 609 3251 259 
Q 2797 -91 1919 -91 
Q 1588 -91 1214 -16 
Q 841 59 441 206 
L 441 856 
Q 825 641 1194 531 
Q 1563 422 1919 422 
Q 2459 422 2753 634 
Q 3047 847 3047 1241 
Q 3047 1584 2836 1778 
Q 2625 1972 2144 2069 
L 1759 2144 
Q 1053 2284 737 2584 
Q 422 2884 422 3419 
Q 422 4038 858 4394 
Q 1294 4750 2059 4750 
Q 2388 4750 2728 4690 
Q 3069 4631 3425 4513 
z
" transform="scale(0.015625)"/>
       <path id="DejaVuSans-63" d="M 3122 3366 
L 3122 2828 
Q 2878 2963 2633 3030 
Q 2388 3097 2138 3097 
Q 1578 3097 1268 2742 
Q 959 2388 959 1747 
Q 959 1106 1268 751 
Q 1578 397 2138 397 
Q 2388 397 2633 464 
Q 2878 531 3122 666 
L 3122 134 
Q 2881 22 2623 -34 
Q 2366 -91 2075 -91 
Q 1284 -91 818 406 
Q 353 903 353 1747 
Q 353 2603 823 3093 
Q 1294 3584 2113 3584 
Q 2378 3584 2631 3529 
Q 2884 3475 3122 3366 
z
" transform="scale(0.015625)"/>
       <path id="DejaVuSans-72" d="M 2631 2963 
Q 2534 3019 2420 3045 
Q 2306 3072 2169 3072 
Q 1681 3072 1420 2755 
Q 1159 2438 1159 1844 
L 1159 0 
L 581 0 
L 581 3500 
L 1159 3500 
L 1159 2956 
Q 1341 3275 1631 3429 
Q 1922 3584 2338 3584 
Q 2397 3584 2469 3576 
Q 2541 3569 2628 3553 
L 2631 2963 
z
" transform="scale(0.015625)"/>
       <path id="DejaVuSans-69" d="M 603 3500 
L 1178 3500 
L 1178 0 
L 603 0 
L 603 3500 
z
M 603 4863 
L 1178 4863 
L 1178 4134 
L 603 4134 
L 603 4863 
z
" transform="scale(0.015625)"/>
       <path id="DejaVuSans-70" d="M 1159 525 
L 1159 -1331 
L 581 -1331 
L 581 3500 
L 1159 3500 
L 1159 2969 
Q 1341 3281 1617 3432 
Q 1894 3584 2278 3584 
Q 2916 3584 3314 3078 
Q 3713 2572 3713 1747 
Q 3713 922 3314 415 
Q 2916 -91 2278 -91 
Q 1894 -91 1617 61 
Q 1341 213 1159 525 
z
M 3116 1747 
Q 3116 2381 2855 2742 
Q 2594 3103 2138 3103 
Q 1681 3103 1420 2742 
Q 1159 2381 1159 1747 
Q 1159 1113 1420 752 
Q 1681 391 2138 391 
Q 2594 391 2855 752 
Q 3116 1113 3116 1747 
z
" transform="scale(0.015625)"/>
       <path id="DejaVuSans-74" d="M 1172 4494 
L 1172 3500 
L 2356 3500 
L 2356 3053 
L 1172 3053 
L 1172 1153 
Q 1172 725 1289 603 
Q 1406 481 1766 481 
L 2356 481 
L 2356 0 
L 1766 0 
Q 1100 0 847 248 
Q 594 497 594 1153 
L 594 3053 
L 172 3053 
L 172 3500 
L 594 3500 
L 594 4494 
L 1172 4494 
z
" transform="scale(0.015625)"/>
      </defs>
      <use xlink:href="#DejaVuSans-4a"/>
      <use xlink:href="#DejaVuSans-61" x="29.492188"/>
      <use xlink:href="#DejaVuSans-76" x="90.771484"/>
      <use xlink:href="#DejaVuSans-61" x="149.951172"/>
      <use xlink:href="#DejaVuSans-53" x="211.230469"/>
      <use xlink:href="#DejaVuSans-63" x="274.707031"/>
      <use xlink:href="#DejaVuSans-72" x="329.6875"/>
      <use xlink:href="#DejaVuSans-69" x="370.800781"/>
      <use xlink:href="#DejaVuSans-70" x="398.583984"/>
      <use xlink:href="#DejaVuSans-74" x="462.060547"/>
     </g>
    </g>
    <g id="PathCollection_12">
     <g>
      <use xlink:href="#m14752eaddd" x="396.6825" y="89.073962" style="fill: #feffb3; stroke: #feffb3"/>
     </g>
    </g>
    <g id="text_13">
     <!-- Python -->
     <g style="fill: #ffffff" transform="translate(414.6825 91.698962) scale(0.1 -0.1)">
      <defs>
       <path id="DejaVuSans-50" d="M 1259 4147 
L 1259 2394 
L 2053 2394 
Q 2494 2394 2734 2622 
Q 2975 2850 2975 3272 
Q 2975 3691 2734 3919 
Q 2494 4147 2053 4147 
L 1259 4147 
z
M 628 4666 
L 2053 4666 
Q 2838 4666 3239 4311 
Q 3641 3956 3641 3272 
Q 3641 2581 3239 2228 
Q 2838 1875 2053 1875 
L 1259 1875 
L 1259 0 
L 628 0 
L 628 4666 
z
" transform="scale(0.015625)"/>
       <path id="DejaVuSans-79" d="M 2059 -325 
Q 1816 -950 1584 -1140 
Q 1353 -1331 966 -1331 
L 506 -1331 
L 506 -850 
L 844 -850 
Q 1081 -850 1212 -737 
Q 1344 -625 1503 -206 
L 1606 56 
L 191 3500 
L 800 3500 
L 1894 763 
L 2988 3500 
L 3597 3500 
L 2059 -325 
z
" transform="scale(0.015625)"/>
       <path id="DejaVuSans-68" d="M 3513 2113 
L 3513 0 
L 2938 0 
L 2938 2094 
Q 2938 2591 2744 2837 
Q 2550 3084 2163 3084 
Q 1697 3084 1428 2787 
Q 1159 2491 1159 1978 
L 1159 0 
L 581 0 
L 581 4863 
L 1159 4863 
L 1159 2956 
Q 1366 3272 1645 3428 
Q 1925 3584 2291 3584 
Q 2894 3584 3203 3211 
Q 3513 2838 3513 2113 
z
" transform="scale(0.015625)"/>
       <path id="DejaVuSans-6f" d="M 1959 3097 
Q 1497 3097 1228 2736 
Q 959 2375 959 1747 
Q 959 1119 1226 758 
Q 1494 397 1959 397 
Q 2419 397 2687 759 
Q 2956 1122 2956 1747 
Q 2956 2369 2687 2733 
Q 2419 3097 1959 3097 
z
M 1959 3584 
Q 2709 3584 3137 3096 
Q 3566 2609 3566 1747 
Q 3566 888 3137 398 
Q 2709 -91 1959 -91 
Q 1206 -91 779 398 
Q 353 888 353 1747 
Q 353 2609 779 3096 
Q 1206 3584 1959 3584 
z
" transform="scale(0.015625)"/>
       <path id="DejaVuSans-6e" d="M 3513 2113 
L 3513 0 
L 2938 0 
L 2938 2094 
Q 2938 2591 2744 2837 
Q 2550 3084 2163 3084 
Q 1697 3084 1428 2787 
Q 1159 2491 1159 1978 
L 1159 0 
L 581 0 
L 581 3500 
L 1159 3500 
L 1159 2956 
Q 1366 3272 1645 3428 
Q 1925 3584 2291 3584 
Q 2894 3584 3203 3211 
Q 3513 2838 3513 2113 
z
" transform="scale(0.015625)"/>
      </defs>
      <use xlink:href="#DejaVuSans-50"/>
      <use xlink:href="#DejaVuSans-79" x="60.302734"/>
      <use xlink:href="#DejaVuSans-74" x="119.482422"/>
      <use xlink:href="#DejaVuSans-68" x="158.691406"/>
      <use xlink:href="#DejaVuSans-6f" x="222.070312"/>
      <use xlink:href="#DejaVuSans-6e" x="283.251953"/>
     </g>
    </g>
    <g id="PathCollection_13">
     <g>
      <use xlink:href="#m6b0a0d22b8" x="396.6825" y="103.752087" style="fill: #bfbbd9; stroke: #bfbbd9"/>
     </g>
    </g>
    <g id="text_14">
     <!-- Java -->
     <g style="fill: #ffffff" transform="translate(414.6825 106.377087) scale(0.1 -0.1)">
      <use xlink:href="#DejaVuSans-4a"/>
      <use xlink:href="#DejaVuSans-61" x="29.492188"/>
      <use xlink:href="#DejaVuSans-76" x="90.771484"/>
      <use xlink:href="#DejaVuSans-61" x="149.951172"/>
     </g>
    </g>
    <g id="PathCollection_14">
     <g>
      <use xlink:href="#m95c8ed2ef9" x="396.6825" y="118.430212" style="fill: #fa8174; stroke: #fa8174"/>
     </g>
    </g>
    <g id="text_15">
     <!-- C++ -->
     <g style="fill: #ffffff" transform="translate(414.6825 121.055212) scale(0.1 -0.1)">
      <defs>
       <path id="DejaVuSans-43" d="M 4122 4306 
L 4122 3641 
Q 3803 3938 3442 4084 
Q 3081 4231 2675 4231 
Q 1875 4231 1450 3742 
Q 1025 3253 1025 2328 
Q 1025 1406 1450 917 
Q 1875 428 2675 428 
Q 3081 428 3442 575 
Q 3803 722 4122 1019 
L 4122 359 
Q 3791 134 3420 21 
Q 3050 -91 2638 -91 
Q 1578 -91 968 557 
Q 359 1206 359 2328 
Q 359 3453 968 4101 
Q 1578 4750 2638 4750 
Q 3056 4750 3426 4639 
Q 3797 4528 4122 4306 
z
" transform="scale(0.015625)"/>
       <path id="DejaVuSans-2b" d="M 2944 4013 
L 2944 2272 
L 4684 2272 
L 4684 1741 
L 2944 1741 
L 2944 0 
L 2419 0 
L 2419 1741 
L 678 1741 
L 678 2272 
L 2419 2272 
L 2419 4013 
L 2944 4013 
z
" transform="scale(0.015625)"/>
      </defs>
      <use xlink:href="#DejaVuSans-43"/>
      <use xlink:href="#DejaVuSans-2b" x="69.824219"/>
      <use xlink:href="#DejaVuSans-2b" x="153.613281"/>
     </g>
    </g>
    <g id="PathCollection_15">
     <g>
      <use xlink:href="#m87999b9d52" x="396.6825" y="133.108337" style="fill: #81b1d2; stroke: #81b1d2"/>
     </g>
    </g>
    <g id="text_16">
     <!-- PHP -->
     <g style="fill: #ffffff" transform="translate(414.6825 135.733337) scale(0.1 -0.1)">
      <defs>
       <path id="DejaVuSans-48" d="M 628 4666 
L 1259 4666 
L 1259 2753 
L 3553 2753 
L 3553 4666 
L 4184 4666 
L 4184 0 
L 3553 0 
L 3553 2222 
L 1259 2222 
L 1259 0 
L 628 0 
L 628 4666 
z
" transform="scale(0.015625)"/>
      </defs>
      <use xlink:href="#DejaVuSans-50"/>
      <use xlink:href="#DejaVuSans-48" x="60.302734"/>
      <use xlink:href="#DejaVuSans-50" x="135.498047"/>
     </g>
    </g>
    <g id="PathCollection_16">
     <g>
      <use xlink:href="#m70a1626bfd" x="396.6825" y="147.786462" style="fill: #fdb462; stroke: #fdb462"/>
     </g>
    </g>
    <g id="text_17">
     <!-- Go -->
     <g style="fill: #ffffff" transform="translate(414.6825 150.411462) scale(0.1 -0.1)">
      <defs>
       <path id="DejaVuSans-47" d="M 3809 666 
L 3809 1919 
L 2778 1919 
L 2778 2438 
L 4434 2438 
L 4434 434 
Q 4069 175 3628 42 
Q 3188 -91 2688 -91 
Q 1594 -91 976 548 
Q 359 1188 359 2328 
Q 359 3472 976 4111 
Q 1594 4750 2688 4750 
Q 3144 4750 3555 4637 
Q 3966 4525 4313 4306 
L 4313 3634 
Q 3963 3931 3569 4081 
Q 3175 4231 2741 4231 
Q 1884 4231 1454 3753 
Q 1025 3275 1025 2328 
Q 1025 1384 1454 906 
Q 1884 428 2741 428 
Q 3075 428 3337 486 
Q 3600 544 3809 666 
z
" transform="scale(0.015625)"/>
      </defs>
      <use xlink:href="#DejaVuSans-47"/>
      <use xlink:href="#DejaVuSans-6f" x="77.490234"/>
     </g>
    </g>
    <g id="PathCollection_17">
     <g>
      <use xlink:href="#m468d3d1d28" x="396.6825" y="162.464587" style="fill: #b3de69; stroke: #b3de69"/>
     </g>
    </g>
    <g id="text_18">
     <!-- Ruby -->
     <g style="fill: #ffffff" transform="translate(414.6825 165.089587) scale(0.1 -0.1)">
      <defs>
       <path id="DejaVuSans-52" d="M 2841 2188 
Q 3044 2119 3236 1894 
Q 3428 1669 3622 1275 
L 4263 0 
L 3584 0 
L 2988 1197 
Q 2756 1666 2539 1819 
Q 2322 1972 1947 1972 
L 1259 1972 
L 1259 0 
L 628 0 
L 628 4666 
L 2053 4666 
Q 2853 4666 3247 4331 
Q 3641 3997 3641 3322 
Q 3641 2881 3436 2590 
Q 3231 2300 2841 2188 
z
M 1259 4147 
L 1259 2491 
L 2053 2491 
Q 2509 2491 2742 2702 
Q 2975 2913 2975 3322 
Q 2975 3731 2742 3939 
Q 2509 4147 2053 4147 
L 1259 4147 
z
" transform="scale(0.015625)"/>
       <path id="DejaVuSans-75" d="M 544 1381 
L 544 3500 
L 1119 3500 
L 1119 1403 
Q 1119 906 1312 657 
Q 1506 409 1894 409 
Q 2359 409 2629 706 
Q 2900 1003 2900 1516 
L 2900 3500 
L 3475 3500 
L 3475 0 
L 2900 0 
L 2900 538 
Q 2691 219 2414 64 
Q 2138 -91 1772 -91 
Q 1169 -91 856 284 
Q 544 659 544 1381 
z
M 1991 3584 
L 1991 3584 
z
" transform="scale(0.015625)"/>
       <path id="DejaVuSans-62" d="M 3116 1747 
Q 3116 2381 2855 2742 
Q 2594 3103 2138 3103 
Q 1681 3103 1420 2742 
Q 1159 2381 1159 1747 
Q 1159 1113 1420 752 
Q 1681 391 2138 391 
Q 2594 391 2855 752 
Q 3116 1113 3116 1747 
z
M 1159 2969 
Q 1341 3281 1617 3432 
Q 1894 3584 2278 3584 
Q 2916 3584 3314 3078 
Q 3713 2572 3713 1747 
Q 3713 922 3314 415 
Q 2916 -91 2278 -91 
Q 1894 -91 1617 61 
Q 1341 213 1159 525 
L 1159 0 
L 581 0 
L 581 4863 
L 1159 4863 
L 1159 2969 
z
" transform="scale(0.015625)"/>
      </defs>
      <use xlink:href="#DejaVuSans-52"/>
      <use xlink:href="#DejaVuSans-75" x="64.982422"/>
      <use xlink:href="#DejaVuSans-62" x="128.361328"/>
      <use xlink:href="#DejaVuSans-79" x="191.837891"/>
     </g>
    </g>
    <g id="PathCollection_18">
     <g>
      <use xlink:href="#mcdd39145d7" x="396.6825" y="177.142712" style="fill: #bc82bd; stroke: #bc82bd"/>
     </g>
    </g>
    <g id="text_19">
     <!-- TypeScript -->
     <g style="fill: #ffffff" transform="translate(414.6825 179.767712) scale(0.1 -0.1)">
      <defs>
       <path id="DejaVuSans-54" d="M -19 4666 
L 3928 4666 
L 3928 4134 
L 2272 4134 
L 2272 0 
L 1638 0 
L 1638 4134 
L -19 4134 
L -19 4666 
z
" transform="scale(0.015625)"/>
       <path id="DejaVuSans-65" d="M 3597 1894 
L 3597 1613 
L 953 1613 
Q 991 1019 1311 708 
Q 1631 397 2203 397 
Q 2534 397 2845 478 
Q 3156 559 3463 722 
L 3463 178 
Q 3153 47 2828 -22 
Q 2503 -91 2169 -91 
Q 1331 -91 842 396 
Q 353 884 353 1716 
Q 353 2575 817 3079 
Q 1281 3584 2069 3584 
Q 2775 3584 3186 3129 
Q 3597 2675 3597 1894 
z
M 3022 2063 
Q 3016 2534 2758 2815 
Q 2500 3097 2075 3097 
Q 1594 3097 1305 2825 
Q 1016 2553 972 2059 
L 3022 2063 
z
" transform="scale(0.015625)"/>
      </defs>
      <use xlink:href="#DejaVuSans-54"/>
      <use xlink:href="#DejaVuSans-79" x="45.458984"/>
      <use xlink:href="#DejaVuSans-70" x="104.638672"/>
      <use xlink:href="#DejaVuSans-65" x="168.115234"/>
      <use xlink:href="#DejaVuSans-53" x="229.638672"/>
      <use xlink:href="#DejaVuSans-63" x="293.115234"/>
      <use xlink:href="#DejaVuSans-72" x="348.095703"/>
      <use xlink:href="#DejaVuSans-69" x="389.208984"/>
      <use xlink:href="#DejaVuSans-70" x="416.992188"/>
      <use xlink:href="#DejaVuSans-74" x="480.46875"/>
     </g>
    </g>
    <g id="PathCollection_19">
     <g>
      <use xlink:href="#m2efb6cdae6" x="396.6825" y="191.820837" style="fill: #ccebc4; stroke: #ccebc4"/>
     </g>
    </g>
    <g id="text_20">
     <!-- C -->
     <g style="fill: #ffffff" transform="translate(414.6825 194.445837) scale(0.1 -0.1)">
      <use xlink:href="#DejaVuSans-43"/>
     </g>
    </g>
    <g id="PathCollection_20">
     <g>
      <use xlink:href="#m40d1f6f341" x="396.6825" y="206.498962" style="fill: #ffed6f; stroke: #ffed6f"/>
     </g>
    </g>
    <g id="text_21">
     <!-- C# -->
     <g style="fill: #ffffff" transform="translate(414.6825 209.123962) scale(0.1 -0.1)">
      <defs>
       <path id="DejaVuSans-23" d="M 3272 2816 
L 2363 2816 
L 2100 1772 
L 3016 1772 
L 3272 2816 
z
M 2803 4594 
L 2478 3297 
L 3391 3297 
L 3719 4594 
L 4219 4594 
L 3897 3297 
L 4872 3297 
L 4872 2816 
L 3775 2816 
L 3519 1772 
L 4513 1772 
L 4513 1294 
L 3397 1294 
L 3072 0 
L 2572 0 
L 2894 1294 
L 1978 1294 
L 1656 0 
L 1153 0 
L 1478 1294 
L 494 1294 
L 494 1772 
L 1594 1772 
L 1856 2816 
L 850 2816 
L 850 3297 
L 1978 3297 
L 2297 4594 
L 2803 4594 
z
" transform="scale(0.015625)"/>
      </defs>
      <use xlink:href="#DejaVuSans-43"/>
      <use xlink:href="#DejaVuSans-23" x="69.824219"/>
     </g>
    </g>
   </g>
  </g>
 </g>
 <defs>
  <clipPath id="p8f1d384777">
   <rect x="20.5625" y="7.2" width="357.12" height="266.112"/>
  </clipPath>
 </defs>
</svg>
