<?xml version="1.0" encoding="utf-8" standalone="no"?>
<!DOCTYPE svg PUBLIC "-//W3C//DTD SVG 1.1//EN"
  "http://www.w3.org/Graphics/SVG/1.1/DTD/svg11.dtd">
<svg xmlns:xlink="http://www.w3.org/1999/xlink" width="384.8825pt" height="297.190125pt" viewBox="0 0 384.8825 297.190125" xmlns="http://www.w3.org/2000/svg" version="1.1">
 <metadata>
  <rdf:RDF xmlns:dc="http://purl.org/dc/elements/1.1/" xmlns:cc="http://creativecommons.org/ns#" xmlns:rdf="http://www.w3.org/1999/02/22-rdf-syntax-ns#">
   <cc:Work>
    <dc:type rdf:resource="http://purl.org/dc/dcmitype/StillImage"/>
    <dc:date>2024-01-06T19:40:02.279437</dc:date>
    <dc:format>image/svg+xml</dc:format>
    <dc:creator>
     <cc:Agent>
      <dc:title>Matplotlib v3.8.2, https://matplotlib.org/</dc:title>
     </cc:Agent>
    </dc:creator>
   </cc:Work>
  </rdf:RDF>
 </metadata>
 <defs>
  <style type="text/css">*{stroke-linejoin: round; stroke-linecap: butt}</style>
 </defs>
 <g id="figure_1">
  <g id="patch_1">
   <path d="M 0 297.190125 
L 384.8825 297.190125 
L 384.8825 0 
L 0 0 
L 0 297.190125 
z
" style="fill: none"/>
  </g>
  <g id="axes_1">
   <g id="patch_2">
    <path d="M 20.5625 273.312 
L 377.6825 273.312 
L 377.6825 7.2 
L 20.5625 7.2 
L 20.5625 273.312 
z
" style="fill: none"/>
   </g>
   <g id="PathCollection_1">
    <defs>
     <path id="mf5c09c7811" d="M 0 3 
C 0.795609 3 1.55874 2.683901 2.12132 2.12132 
C 2.683901 1.55874 3 0.795609 3 0 
C 3 -0.795609 2.683901 -1.55874 2.12132 -2.12132 
C 1.55874 -2.683901 0.795609 -3 0 -3 
C -0.795609 -3 -1.55874 -2.683901 -2.12132 -2.12132 
C -2.683901 -1.55874 -3 -0.795609 -3 0 
C -3 0.795609 -2.683901 1.55874 -2.12132 2.12132 
C -1.55874 2.683901 -0.795609 3 0 3 
z
" style="stroke: #8dd3c7"/>
    </defs>
    <g clip-path="url(#pe2b99d96e7)">
     <use xlink:href="#mf5c09c7811" x="36.795227" y="83.289601" style="fill: #8dd3c7; stroke: #8dd3c7"/>
     <use xlink:href="#mf5c09c7811" x="66.309277" y="24.906392" style="fill: #8dd3c7; stroke: #8dd3c7"/>
     <use xlink:href="#mf5c09c7811" x="95.823326" y="23.375902" style="fill: #8dd3c7; stroke: #8dd3c7"/>
     <use xlink:href="#mf5c09c7811" x="125.337376" y="23.375902" style="fill: #8dd3c7; stroke: #8dd3c7"/>
     <use xlink:href="#mf5c09c7811" x="154.851426" y="23.375902" style="fill: #8dd3c7; stroke: #8dd3c7"/>
     <use xlink:href="#mf5c09c7811" x="184.365475" y="23.375902" style="fill: #8dd3c7; stroke: #8dd3c7"/>
     <use xlink:href="#mf5c09c7811" x="213.879525" y="24.456854" style="fill: #8dd3c7; stroke: #8dd3c7"/>
     <use xlink:href="#mf5c09c7811" x="243.393574" y="38.837989" style="fill: #8dd3c7; stroke: #8dd3c7"/>
     <use xlink:href="#mf5c09c7811" x="272.907624" y="51.324899" style="fill: #8dd3c7; stroke: #8dd3c7"/>
     <use xlink:href="#mf5c09c7811" x="302.421674" y="63.253421" style="fill: #8dd3c7; stroke: #8dd3c7"/>
     <use xlink:href="#mf5c09c7811" x="331.935723" y="85.990521" style="fill: #8dd3c7; stroke: #8dd3c7"/>
     <use xlink:href="#mf5c09c7811" x="361.449773" y="137.11838" style="fill: #8dd3c7; stroke: #8dd3c7"/>
    </g>
   </g>
   <g id="PathCollection_2">
    <defs>
     <path id="mec21ff6531" d="M 0 3 
C 0.795609 3 1.55874 2.683901 2.12132 2.12132 
C 2.683901 1.55874 3 0.795609 3 0 
C 3 -0.795609 2.683901 -1.55874 2.12132 -2.12132 
C 1.55874 -2.683901 0.795609 -3 0 -3 
C -0.795609 -3 -1.55874 -2.683901 -2.12132 -2.12132 
C -2.683901 -1.55874 -3 -0.795609 -3 0 
C -3 0.795609 -2.683901 1.55874 -2.12132 2.12132 
C -1.55874 2.683901 -0.795609 3 0 3 
z
" style="stroke: #feffb3"/>
    </defs>
    <g clip-path="url(#pe2b99d96e7)">
     <use xlink:href="#mec21ff6531" x="36.795227" y="126.721084" style="fill: #feffb3; stroke: #feffb3"/>
     <use xlink:href="#mec21ff6531" x="66.309277" y="96.987052" style="fill: #feffb3; stroke: #feffb3"/>
     <use xlink:href="#mec21ff6531" x="95.823326" y="118.899436" style="fill: #feffb3; stroke: #feffb3"/>
     <use xlink:href="#mec21ff6531" x="125.337376" y="127.31394" style="fill: #feffb3; stroke: #feffb3"/>
     <use xlink:href="#mec21ff6531" x="154.851426" y="133.696512" style="fill: #feffb3; stroke: #feffb3"/>
     <use xlink:href="#mec21ff6531" x="184.365475" y="116.747192" style="fill: #feffb3; stroke: #feffb3"/>
     <use xlink:href="#mec21ff6531" x="213.879525" y="81.353287" style="fill: #feffb3; stroke: #feffb3"/>
     <use xlink:href="#mec21ff6531" x="243.393574" y="62.157325" style="fill: #feffb3; stroke: #feffb3"/>
     <use xlink:href="#mec21ff6531" x="272.907624" y="48.986573" style="fill: #feffb3; stroke: #feffb3"/>
     <use xlink:href="#mec21ff6531" x="302.421674" y="36.384894" style="fill: #feffb3; stroke: #feffb3"/>
     <use xlink:href="#mec21ff6531" x="331.935723" y="24.950831" style="fill: #feffb3; stroke: #feffb3"/>
     <use xlink:href="#mec21ff6531" x="361.449773" y="80.914941" style="fill: #feffb3; stroke: #feffb3"/>
    </g>
   </g>
   <g id="PathCollection_3">
    <defs>
     <path id="mfab6a1f64f" d="M 0 3 
C 0.795609 3 1.55874 2.683901 2.12132 2.12132 
C 2.683901 1.55874 3 0.795609 3 0 
C 3 -0.795609 2.683901 -1.55874 2.12132 -2.12132 
C 1.55874 -2.683901 0.795609 -3 0 -3 
C -0.795609 -3 -1.55874 -2.683901 -2.12132 -2.12132 
C -2.683901 -1.55874 -3 -0.795609 -3 0 
C -3 0.795609 -2.683901 1.55874 -2.12132 2.12132 
C -1.55874 2.683901 -0.795609 3 0 3 
z
" style="stroke: #bfbbd9"/>
    </defs>
    <g clip-path="url(#pe2b99d96e7)">
     <use xlink:href="#mfab6a1f64f" x="36.795227" y="178.183967" style="fill: #bfbbd9; stroke: #bfbbd9"/>
     <use xlink:href="#mfab6a1f64f" x="66.309277" y="147.078341" style="fill: #bfbbd9; stroke: #bfbbd9"/>
     <use xlink:href="#mfab6a1f64f" x="95.823326" y="150.903527" style="fill: #bfbbd9; stroke: #bfbbd9"/>
     <use xlink:href="#mfab6a1f64f" x="125.337376" y="144.715099" style="fill: #bfbbd9; stroke: #bfbbd9"/>
     <use xlink:href="#mfab6a1f64f" x="154.851426" y="147.660007" style="fill: #bfbbd9; stroke: #bfbbd9"/>
     <use xlink:href="#mfab6a1f64f" x="184.365475" y="140.329046" style="fill: #bfbbd9; stroke: #bfbbd9"/>
     <use xlink:href="#mfab6a1f64f" x="213.879525" y="126.678488" style="fill: #bfbbd9; stroke: #bfbbd9"/>
     <use xlink:href="#mfab6a1f64f" x="243.393574" y="120.606744" style="fill: #bfbbd9; stroke: #bfbbd9"/>
     <use xlink:href="#mfab6a1f64f" x="272.907624" y="111.002462" style="fill: #bfbbd9; stroke: #bfbbd9"/>
     <use xlink:href="#mfab6a1f64f" x="302.421674" y="108.898652" style="fill: #bfbbd9; stroke: #bfbbd9"/>
     <use xlink:href="#mfab6a1f64f" x="331.935723" y="107.062032" style="fill: #bfbbd9; stroke: #bfbbd9"/>
     <use xlink:href="#mfab6a1f64f" x="361.449773" y="147.200918" style="fill: #bfbbd9; stroke: #bfbbd9"/>
    </g>
   </g>
   <g id="PathCollection_4">
    <defs>
     <path id="m5769022660" d="M 0 3 
C 0.795609 3 1.55874 2.683901 2.12132 2.12132 
C 2.683901 1.55874 3 0.795609 3 0 
C 3 -0.795609 2.683901 -1.55874 2.12132 -2.12132 
C 1.55874 -2.683901 0.795609 -3 0 -3 
C -0.795609 -3 -1.55874 -2.683901 -2.12132 -2.12132 
C -2.683901 -1.55874 -3 -0.795609 -3 0 
C -3 0.795609 -2.683901 1.55874 -2.12132 2.12132 
C -1.55874 2.683901 -0.795609 3 0 3 
z
" style="stroke: #fa8174"/>
    </defs>
    <g clip-path="url(#pe2b99d96e7)">
     <use xlink:href="#m5769022660" x="36.795227" y="202.498871" style="fill: #fa8174; stroke: #fa8174"/>
     <use xlink:href="#m5769022660" x="66.309277" y="195.419444" style="fill: #fa8174; stroke: #fa8174"/>
     <use xlink:href="#m5769022660" x="95.823326" y="196.743516" style="fill: #fa8174; stroke: #fa8174"/>
     <use xlink:href="#m5769022660" x="125.337376" y="201.10788" style="fill: #fa8174; stroke: #fa8174"/>
     <use xlink:href="#m5769022660" x="154.851426" y="201.202577" style="fill: #fa8174; stroke: #fa8174"/>
     <use xlink:href="#m5769022660" x="184.365475" y="191.482906" style="fill: #fa8174; stroke: #fa8174"/>
     <use xlink:href="#m5769022660" x="213.879525" y="165.681772" style="fill: #fa8174; stroke: #fa8174"/>
     <use xlink:href="#m5769022660" x="243.393574" y="154.403318" style="fill: #fa8174; stroke: #fa8174"/>
     <use xlink:href="#m5769022660" x="272.907624" y="141.902838" style="fill: #fa8174; stroke: #fa8174"/>
     <use xlink:href="#m5769022660" x="302.421674" y="132.581655" style="fill: #fa8174; stroke: #fa8174"/>
     <use xlink:href="#m5769022660" x="331.935723" y="121.781195" style="fill: #fa8174; stroke: #fa8174"/>
     <use xlink:href="#m5769022660" x="361.449773" y="152.547482" style="fill: #fa8174; stroke: #fa8174"/>
    </g>
   </g>
   <g id="PathCollection_5">
    <defs>
     <path id="m08d5abdf66" d="M 0 3 
C 0.795609 3 1.55874 2.683901 2.12132 2.12132 
C 2.683901 1.55874 3 0.795609 3 0 
C 3 -0.795609 2.683901 -1.55874 2.12132 -2.12132 
C 1.55874 -2.683901 0.795609 -3 0 -3 
C -0.795609 -3 -1.55874 -2.683901 -2.12132 -2.12132 
C -2.683901 -1.55874 -3 -0.795609 -3 0 
C -3 0.795609 -2.683901 1.55874 -2.12132 2.12132 
C -1.55874 2.683901 -0.795609 3 0 3 
z
" style="stroke: #81b1d2"/>
    </defs>
    <g clip-path="url(#pe2b99d96e7)">
     <use xlink:href="#m08d5abdf66" x="36.795227" y="160.717088" style="fill: #81b1d2; stroke: #81b1d2"/>
     <use xlink:href="#m08d5abdf66" x="66.309277" y="143.883412" style="fill: #81b1d2; stroke: #81b1d2"/>
     <use xlink:href="#m08d5abdf66" x="95.823326" y="164.985726" style="fill: #81b1d2; stroke: #81b1d2"/>
     <use xlink:href="#m08d5abdf66" x="125.337376" y="175.822078" style="fill: #81b1d2; stroke: #81b1d2"/>
     <use xlink:href="#m08d5abdf66" x="154.851426" y="189.179549" style="fill: #81b1d2; stroke: #81b1d2"/>
     <use xlink:href="#m08d5abdf66" x="184.365475" y="189.622047" style="fill: #81b1d2; stroke: #81b1d2"/>
     <use xlink:href="#m08d5abdf66" x="213.879525" y="180.138006" style="fill: #81b1d2; stroke: #81b1d2"/>
     <use xlink:href="#m08d5abdf66" x="243.393574" y="179.023895" style="fill: #81b1d2; stroke: #81b1d2"/>
     <use xlink:href="#m08d5abdf66" x="272.907624" y="177.72454" style="fill: #81b1d2; stroke: #81b1d2"/>
     <use xlink:href="#m08d5abdf66" x="302.421674" y="178.660675" style="fill: #81b1d2; stroke: #81b1d2"/>
     <use xlink:href="#m08d5abdf66" x="331.935723" y="178.240338" style="fill: #81b1d2; stroke: #81b1d2"/>
     <use xlink:href="#m08d5abdf66" x="361.449773" y="199.267935" style="fill: #81b1d2; stroke: #81b1d2"/>
    </g>
   </g>
   <g id="PathCollection_6">
    <defs>
     <path id="m26df789a5f" d="M 0 3 
C 0.795609 3 1.55874 2.683901 2.12132 2.12132 
C 2.683901 1.55874 3 0.795609 3 0 
C 3 -0.795609 2.683901 -1.55874 2.12132 -2.12132 
C 1.55874 -2.683901 0.795609 -3 0 -3 
C -0.795609 -3 -1.55874 -2.683901 -2.12132 -2.12132 
C -2.683901 -1.55874 -3 -0.795609 -3 0 
C -3 0.795609 -2.683901 1.55874 -2.12132 2.12132 
C -1.55874 2.683901 -0.795609 3 0 3 
z
" style="stroke: #fdb462"/>
    </defs>
    <g clip-path="url(#pe2b99d96e7)">
     <use xlink:href="#m26df789a5f" x="36.795227" y="246.986154" style="fill: #fdb462; stroke: #fdb462"/>
     <use xlink:href="#m26df789a5f" x="66.309277" y="238.010887" style="fill: #fdb462; stroke: #fdb462"/>
     <use xlink:href="#m26df789a5f" x="95.823326" y="227.50126" style="fill: #fdb462; stroke: #fdb462"/>
     <use xlink:href="#m26df789a5f" x="125.337376" y="215.344259" style="fill: #fdb462; stroke: #fdb462"/>
     <use xlink:href="#m26df789a5f" x="154.851426" y="209.765545" style="fill: #fdb462; stroke: #fdb462"/>
     <use xlink:href="#m26df789a5f" x="184.365475" y="197.690044" style="fill: #fdb462; stroke: #fdb462"/>
     <use xlink:href="#m26df789a5f" x="213.879525" y="176.644523" style="fill: #fdb462; stroke: #fdb462"/>
     <use xlink:href="#m26df789a5f" x="243.393574" y="160.911937" style="fill: #fdb462; stroke: #fdb462"/>
     <use xlink:href="#m26df789a5f" x="272.907624" y="152.984958" style="fill: #fdb462; stroke: #fdb462"/>
     <use xlink:href="#m26df789a5f" x="302.421674" y="148.786326" style="fill: #fdb462; stroke: #fdb462"/>
     <use xlink:href="#m26df789a5f" x="331.935723" y="130.677535" style="fill: #fdb462; stroke: #fdb462"/>
     <use xlink:href="#m26df789a5f" x="361.449773" y="155.693098" style="fill: #fdb462; stroke: #fdb462"/>
    </g>
   </g>
   <g id="PathCollection_7">
    <defs>
     <path id="mae21c1cd0a" d="M 0 3 
C 0.795609 3 1.55874 2.683901 2.12132 2.12132 
C 2.683901 1.55874 3 0.795609 3 0 
C 3 -0.795609 2.683901 -1.55874 2.12132 -2.12132 
C 1.55874 -2.683901 0.795609 -3 0 -3 
C -0.795609 -3 -1.55874 -2.683901 -2.12132 -2.12132 
C -2.683901 -1.55874 -3 -0.795609 -3 0 
C -3 0.795609 -2.683901 1.55874 -2.12132 2.12132 
C -1.55874 2.683901 -0.795609 3 0 3 
z
" style="stroke: #b3de69"/>
    </defs>
    <g clip-path="url(#pe2b99d96e7)">
     <use xlink:href="#mae21c1cd0a" x="36.795227" y="123.744762" style="fill: #b3de69; stroke: #b3de69"/>
     <use xlink:href="#mae21c1cd0a" x="66.309277" y="117.603054" style="fill: #b3de69; stroke: #b3de69"/>
     <use xlink:href="#mae21c1cd0a" x="95.823326" y="161.42648" style="fill: #b3de69; stroke: #b3de69"/>
     <use xlink:href="#mae21c1cd0a" x="125.337376" y="185.157204" style="fill: #b3de69; stroke: #b3de69"/>
     <use xlink:href="#mae21c1cd0a" x="154.851426" y="205.661842" style="fill: #b3de69; stroke: #b3de69"/>
     <use xlink:href="#mae21c1cd0a" x="184.365475" y="212.899303" style="fill: #b3de69; stroke: #b3de69"/>
     <use xlink:href="#mae21c1cd0a" x="213.879525" y="208.311976" style="fill: #b3de69; stroke: #b3de69"/>
     <use xlink:href="#mae21c1cd0a" x="243.393574" y="208.031274" style="fill: #b3de69; stroke: #b3de69"/>
     <use xlink:href="#mae21c1cd0a" x="272.907624" y="209.822746" style="fill: #b3de69; stroke: #b3de69"/>
     <use xlink:href="#mae21c1cd0a" x="302.421674" y="209.202936" style="fill: #b3de69; stroke: #b3de69"/>
     <use xlink:href="#mae21c1cd0a" x="331.935723" y="209.716319" style="fill: #b3de69; stroke: #b3de69"/>
     <use xlink:href="#mae21c1cd0a" x="361.449773" y="220.910216" style="fill: #b3de69; stroke: #b3de69"/>
    </g>
   </g>
   <g id="PathCollection_8">
    <defs>
     <path id="mb96fb2464d" d="M 0 3 
C 0.795609 3 1.55874 2.683901 2.12132 2.12132 
C 2.683901 1.55874 3 0.795609 3 0 
C 3 -0.795609 2.683901 -1.55874 2.12132 -2.12132 
C 1.55874 -2.683901 0.795609 -3 0 -3 
C -0.795609 -3 -1.55874 -2.683901 -2.12132 -2.12132 
C -2.683901 -1.55874 -3 -0.795609 -3 0 
C -3 0.795609 -2.683901 1.55874 -2.12132 2.12132 
C -1.55874 2.683901 -0.795609 3 0 3 
z
" style="stroke: #bc82bd"/>
    </defs>
    <g clip-path="url(#pe2b99d96e7)">
     <use xlink:href="#mb96fb2464d" x="36.795227" y="251.664409" style="fill: #bc82bd; stroke: #bc82bd"/>
     <use xlink:href="#mb96fb2464d" x="66.309277" y="248.455982" style="fill: #bc82bd; stroke: #bc82bd"/>
     <use xlink:href="#mb96fb2464d" x="95.823326" y="245.686217" style="fill: #bc82bd; stroke: #bc82bd"/>
     <use xlink:href="#mb96fb2464d" x="125.337376" y="242.083784" style="fill: #bc82bd; stroke: #bc82bd"/>
     <use xlink:href="#mb96fb2464d" x="154.851426" y="230.54384" style="fill: #bc82bd; stroke: #bc82bd"/>
     <use xlink:href="#mb96fb2464d" x="184.365475" y="211.866277" style="fill: #bc82bd; stroke: #bc82bd"/>
     <use xlink:href="#mb96fb2464d" x="213.879525" y="190.228668" style="fill: #bc82bd; stroke: #bc82bd"/>
     <use xlink:href="#mb96fb2464d" x="243.393574" y="182.467067" style="fill: #bc82bd; stroke: #bc82bd"/>
     <use xlink:href="#mb96fb2464d" x="272.907624" y="172.962519" style="fill: #bc82bd; stroke: #bc82bd"/>
     <use xlink:href="#mb96fb2464d" x="302.421674" y="160.398772" style="fill: #bc82bd; stroke: #bc82bd"/>
     <use xlink:href="#mb96fb2464d" x="331.935723" y="139.26225" style="fill: #bc82bd; stroke: #bc82bd"/>
     <use xlink:href="#mb96fb2464d" x="361.449773" y="170.598828" style="fill: #bc82bd; stroke: #bc82bd"/>
    </g>
   </g>
   <g id="PathCollection_9">
    <defs>
     <path id="m996c35694e" d="M 0 3 
C 0.795609 3 1.55874 2.683901 2.12132 2.12132 
C 2.683901 1.55874 3 0.795609 3 0 
C 3 -0.795609 2.683901 -1.55874 2.12132 -2.12132 
C 1.55874 -2.683901 0.795609 -3 0 -3 
C -0.795609 -3 -1.55874 -2.683901 -2.12132 -2.12132 
C -2.683901 -1.55874 -3 -0.795609 -3 0 
C -3 0.795609 -2.683901 1.55874 -2.12132 2.12132 
C -1.55874 2.683901 -0.795609 3 0 3 
z
" style="stroke: #ccebc4"/>
    </defs>
    <g clip-path="url(#pe2b99d96e7)">
     <use xlink:href="#m996c35694e" x="36.795227" y="206.866575" style="fill: #ccebc4; stroke: #ccebc4"/>
     <use xlink:href="#m996c35694e" x="66.309277" y="202.75773" style="fill: #ccebc4; stroke: #ccebc4"/>
     <use xlink:href="#m996c35694e" x="95.823326" y="211.262774" style="fill: #ccebc4; stroke: #ccebc4"/>
     <use xlink:href="#m996c35694e" x="125.337376" y="217.027316" style="fill: #ccebc4; stroke: #ccebc4"/>
     <use xlink:href="#m996c35694e" x="154.851426" y="219.73394" style="fill: #ccebc4; stroke: #ccebc4"/>
     <use xlink:href="#m996c35694e" x="184.365475" y="219.648282" style="fill: #ccebc4; stroke: #ccebc4"/>
     <use xlink:href="#m996c35694e" x="213.879525" y="210.183162" style="fill: #ccebc4; stroke: #ccebc4"/>
     <use xlink:href="#m996c35694e" x="243.393574" y="203.52681" style="fill: #ccebc4; stroke: #ccebc4"/>
     <use xlink:href="#m996c35694e" x="272.907624" y="195.67651" style="fill: #ccebc4; stroke: #ccebc4"/>
     <use xlink:href="#m996c35694e" x="302.421674" y="191.031357" style="fill: #ccebc4; stroke: #ccebc4"/>
     <use xlink:href="#m996c35694e" x="331.935723" y="187.570494" style="fill: #ccebc4; stroke: #ccebc4"/>
     <use xlink:href="#m996c35694e" x="361.449773" y="203.156621" style="fill: #ccebc4; stroke: #ccebc4"/>
    </g>
   </g>
   <g id="PathCollection_10">
    <defs>
     <path id="m1ced668c86" d="M 0 3 
C 0.795609 3 1.55874 2.683901 2.12132 2.12132 
C 2.683901 1.55874 3 0.795609 3 0 
C 3 -0.795609 2.683901 -1.55874 2.12132 -2.12132 
C 1.55874 -2.683901 0.795609 -3 0 -3 
C -0.795609 -3 -1.55874 -2.683901 -2.12132 -2.12132 
C -2.683901 -1.55874 -3 -0.795609 -3 0 
C -3 0.795609 -2.683901 1.55874 -2.12132 2.12132 
C -1.55874 2.683901 -0.795609 3 0 3 
z
" style="stroke: #ffed6f"/>
    </defs>
    <g clip-path="url(#pe2b99d96e7)">
     <use xlink:href="#m1ced668c86" x="36.795227" y="237.071092" style="fill: #ffed6f; stroke: #ffed6f"/>
     <use xlink:href="#m1ced668c86" x="66.309277" y="230.134927" style="fill: #ffed6f; stroke: #ffed6f"/>
     <use xlink:href="#m1ced668c86" x="95.823326" y="228.959722" style="fill: #ffed6f; stroke: #ffed6f"/>
     <use xlink:href="#m1ced668c86" x="125.337376" y="221.930644" style="fill: #ffed6f; stroke: #ffed6f"/>
     <use xlink:href="#m1ced668c86" x="154.851426" y="220.254291" style="fill: #ffed6f; stroke: #ffed6f"/>
     <use xlink:href="#m1ced668c86" x="184.365475" y="215.450619" style="fill: #ffed6f; stroke: #ffed6f"/>
     <use xlink:href="#m1ced668c86" x="213.879525" y="209.043475" style="fill: #ffed6f; stroke: #ffed6f"/>
     <use xlink:href="#m1ced668c86" x="243.393574" y="204.024928" style="fill: #ffed6f; stroke: #ffed6f"/>
     <use xlink:href="#m1ced668c86" x="272.907624" y="202.702799" style="fill: #ffed6f; stroke: #ffed6f"/>
     <use xlink:href="#m1ced668c86" x="302.421674" y="202.545413" style="fill: #ffed6f; stroke: #ffed6f"/>
     <use xlink:href="#m1ced668c86" x="331.935723" y="201.17641" style="fill: #ffed6f; stroke: #ffed6f"/>
     <use xlink:href="#m1ced668c86" x="361.449773" y="215.382414" style="fill: #ffed6f; stroke: #ffed6f"/>
    </g>
   </g>
   <g id="matplotlib.axis_1">
    <g id="xtick_1">
     <g id="line2d_1">
      <defs>
       <path id="m73d52ecc93" d="M 0 0 
L 0 3.5 
" style="stroke: #ffffff; stroke-width: 0.8"/>
      </defs>
      <g>
       <use xlink:href="#m73d52ecc93" x="36.795227" y="273.312" style="fill: #ffffff; stroke: #ffffff; stroke-width: 0.8"/>
      </g>
     </g>
     <g id="text_1">
      <!-- 2012 -->
      <g style="fill: #ffffff" transform="translate(24.070227 287.910437) scale(0.1 -0.1)">
       <defs>
        <path id="DejaVuSans-32" d="M 1228 531 
L 3431 531 
L 3431 0 
L 469 0 
L 469 531 
Q 828 903 1448 1529 
Q 2069 2156 2228 2338 
Q 2531 2678 2651 2914 
Q 2772 3150 2772 3378 
Q 2772 3750 2511 3984 
Q 2250 4219 1831 4219 
Q 1534 4219 1204 4116 
Q 875 4013 500 3803 
L 500 4441 
Q 881 4594 1212 4672 
Q 1544 4750 1819 4750 
Q 2544 4750 2975 4387 
Q 3406 4025 3406 3419 
Q 3406 3131 3298 2873 
Q 3191 2616 2906 2266 
Q 2828 2175 2409 1742 
Q 1991 1309 1228 531 
z
" transform="scale(0.015625)"/>
        <path id="DejaVuSans-30" d="M 2034 4250 
Q 1547 4250 1301 3770 
Q 1056 3291 1056 2328 
Q 1056 1369 1301 889 
Q 1547 409 2034 409 
Q 2525 409 2770 889 
Q 3016 1369 3016 2328 
Q 3016 3291 2770 3770 
Q 2525 4250 2034 4250 
z
M 2034 4750 
Q 2819 4750 3233 4129 
Q 3647 3509 3647 2328 
Q 3647 1150 3233 529 
Q 2819 -91 2034 -91 
Q 1250 -91 836 529 
Q 422 1150 422 2328 
Q 422 3509 836 4129 
Q 1250 4750 2034 4750 
z
" transform="scale(0.015625)"/>
        <path id="DejaVuSans-31" d="M 794 531 
L 1825 531 
L 1825 4091 
L 703 3866 
L 703 4441 
L 1819 4666 
L 2450 4666 
L 2450 531 
L 3481 531 
L 3481 0 
L 794 0 
L 794 531 
z
" transform="scale(0.015625)"/>
       </defs>
       <use xlink:href="#DejaVuSans-32"/>
       <use xlink:href="#DejaVuSans-30" x="63.623047"/>
       <use xlink:href="#DejaVuSans-31" x="127.246094"/>
       <use xlink:href="#DejaVuSans-32" x="190.869141"/>
      </g>
     </g>
    </g>
    <g id="xtick_2">
     <g id="line2d_2">
      <g>
       <use xlink:href="#m73d52ecc93" x="95.823326" y="273.312" style="fill: #ffffff; stroke: #ffffff; stroke-width: 0.8"/>
      </g>
     </g>
     <g id="text_2">
      <!-- 2014 -->
      <g style="fill: #ffffff" transform="translate(83.098326 287.910437) scale(0.1 -0.1)">
       <defs>
        <path id="DejaVuSans-34" d="M 2419 4116 
L 825 1625 
L 2419 1625 
L 2419 4116 
z
M 2253 4666 
L 3047 4666 
L 3047 1625 
L 3713 1625 
L 3713 1100 
L 3047 1100 
L 3047 0 
L 2419 0 
L 2419 1100 
L 313 1100 
L 313 1709 
L 2253 4666 
z
" transform="scale(0.015625)"/>
       </defs>
       <use xlink:href="#DejaVuSans-32"/>
       <use xlink:href="#DejaVuSans-30" x="63.623047"/>
       <use xlink:href="#DejaVuSans-31" x="127.246094"/>
       <use xlink:href="#DejaVuSans-34" x="190.869141"/>
      </g>
     </g>
    </g>
    <g id="xtick_3">
     <g id="line2d_3">
      <g>
       <use xlink:href="#m73d52ecc93" x="154.851426" y="273.312" style="fill: #ffffff; stroke: #ffffff; stroke-width: 0.8"/>
      </g>
     </g>
     <g id="text_3">
      <!-- 2016 -->
      <g style="fill: #ffffff" transform="translate(142.126426 287.910437) scale(0.1 -0.1)">
       <defs>
        <path id="DejaVuSans-36" d="M 2113 2584 
Q 1688 2584 1439 2293 
Q 1191 2003 1191 1497 
Q 1191 994 1439 701 
Q 1688 409 2113 409 
Q 2538 409 2786 701 
Q 3034 994 3034 1497 
Q 3034 2003 2786 2293 
Q 2538 2584 2113 2584 
z
M 3366 4563 
L 3366 3988 
Q 3128 4100 2886 4159 
Q 2644 4219 2406 4219 
Q 1781 4219 1451 3797 
Q 1122 3375 1075 2522 
Q 1259 2794 1537 2939 
Q 1816 3084 2150 3084 
Q 2853 3084 3261 2657 
Q 3669 2231 3669 1497 
Q 3669 778 3244 343 
Q 2819 -91 2113 -91 
Q 1303 -91 875 529 
Q 447 1150 447 2328 
Q 447 3434 972 4092 
Q 1497 4750 2381 4750 
Q 2619 4750 2861 4703 
Q 3103 4656 3366 4563 
z
" transform="scale(0.015625)"/>
       </defs>
       <use xlink:href="#DejaVuSans-32"/>
       <use xlink:href="#DejaVuSans-30" x="63.623047"/>
       <use xlink:href="#DejaVuSans-31" x="127.246094"/>
       <use xlink:href="#DejaVuSans-36" x="190.869141"/>
      </g>
     </g>
    </g>
    <g id="xtick_4">
     <g id="line2d_4">
      <g>
       <use xlink:href="#m73d52ecc93" x="213.879525" y="273.312" style="fill: #ffffff; stroke: #ffffff; stroke-width: 0.8"/>
      </g>
     </g>
     <g id="text_4">
      <!-- 2018 -->
      <g style="fill: #ffffff" transform="translate(201.154525 287.910437) scale(0.1 -0.1)">
       <defs>
        <path id="DejaVuSans-38" d="M 2034 2216 
Q 1584 2216 1326 1975 
Q 1069 1734 1069 1313 
Q 1069 891 1326 650 
Q 1584 409 2034 409 
Q 2484 409 2743 651 
Q 3003 894 3003 1313 
Q 3003 1734 2745 1975 
Q 2488 2216 2034 2216 
z
M 1403 2484 
Q 997 2584 770 2862 
Q 544 3141 544 3541 
Q 544 4100 942 4425 
Q 1341 4750 2034 4750 
Q 2731 4750 3128 4425 
Q 3525 4100 3525 3541 
Q 3525 3141 3298 2862 
Q 3072 2584 2669 2484 
Q 3125 2378 3379 2068 
Q 3634 1759 3634 1313 
Q 3634 634 3220 271 
Q 2806 -91 2034 -91 
Q 1263 -91 848 271 
Q 434 634 434 1313 
Q 434 1759 690 2068 
Q 947 2378 1403 2484 
z
M 1172 3481 
Q 1172 3119 1398 2916 
Q 1625 2713 2034 2713 
Q 2441 2713 2670 2916 
Q 2900 3119 2900 3481 
Q 2900 3844 2670 4047 
Q 2441 4250 2034 4250 
Q 1625 4250 1398 4047 
Q 1172 3844 1172 3481 
z
" transform="scale(0.015625)"/>
       </defs>
       <use xlink:href="#DejaVuSans-32"/>
       <use xlink:href="#DejaVuSans-30" x="63.623047"/>
       <use xlink:href="#DejaVuSans-31" x="127.246094"/>
       <use xlink:href="#DejaVuSans-38" x="190.869141"/>
      </g>
     </g>
    </g>
    <g id="xtick_5">
     <g id="line2d_5">
      <g>
       <use xlink:href="#m73d52ecc93" x="272.907624" y="273.312" style="fill: #ffffff; stroke: #ffffff; stroke-width: 0.8"/>
      </g>
     </g>
     <g id="text_5">
      <!-- 2020 -->
      <g style="fill: #ffffff" transform="translate(260.182624 287.910437) scale(0.1 -0.1)">
       <use xlink:href="#DejaVuSans-32"/>
       <use xlink:href="#DejaVuSans-30" x="63.623047"/>
       <use xlink:href="#DejaVuSans-32" x="127.246094"/>
       <use xlink:href="#DejaVuSans-30" x="190.869141"/>
      </g>
     </g>
    </g>
    <g id="xtick_6">
     <g id="line2d_6">
      <g>
       <use xlink:href="#m73d52ecc93" x="331.935723" y="273.312" style="fill: #ffffff; stroke: #ffffff; stroke-width: 0.8"/>
      </g>
     </g>
     <g id="text_6">
      <!-- 2022 -->
      <g style="fill: #ffffff" transform="translate(319.210723 287.910437) scale(0.1 -0.1)">
       <use xlink:href="#DejaVuSans-32"/>
       <use xlink:href="#DejaVuSans-30" x="63.623047"/>
       <use xlink:href="#DejaVuSans-32" x="127.246094"/>
       <use xlink:href="#DejaVuSans-32" x="190.869141"/>
      </g>
     </g>
    </g>
   </g>
   <g id="matplotlib.axis_2">
    <g id="ytick_1">
     <g id="line2d_7">
      <defs>
       <path id="m4789523578" d="M 0 0 
L -3.5 0 
" style="stroke: #ffffff; stroke-width: 0.8"/>
      </defs>
      <g>
       <use xlink:href="#m4789523578" x="20.5625" y="253.532056" style="fill: #ffffff; stroke: #ffffff; stroke-width: 0.8"/>
      </g>
     </g>
     <g id="text_7">
      <!-- 0 -->
      <g style="fill: #ffffff" transform="translate(7.2 257.331275) scale(0.1 -0.1)">
       <use xlink:href="#DejaVuSans-30"/>
      </g>
     </g>
    </g>
    <g id="ytick_2">
     <g id="line2d_8">
      <g>
       <use xlink:href="#m4789523578" x="20.5625" y="195.993018" style="fill: #ffffff; stroke: #ffffff; stroke-width: 0.8"/>
      </g>
     </g>
     <g id="text_8">
      <!-- 1 -->
      <g style="fill: #ffffff" transform="translate(7.2 199.792236) scale(0.1 -0.1)">
       <use xlink:href="#DejaVuSans-31"/>
      </g>
     </g>
    </g>
    <g id="ytick_3">
     <g id="line2d_9">
      <g>
       <use xlink:href="#m4789523578" x="20.5625" y="138.453979" style="fill: #ffffff; stroke: #ffffff; stroke-width: 0.8"/>
      </g>
     </g>
     <g id="text_9">
      <!-- 2 -->
      <g style="fill: #ffffff" transform="translate(7.2 142.253198) scale(0.1 -0.1)">
       <use xlink:href="#DejaVuSans-32"/>
      </g>
     </g>
    </g>
    <g id="ytick_4">
     <g id="line2d_10">
      <g>
       <use xlink:href="#m4789523578" x="20.5625" y="80.914941" style="fill: #ffffff; stroke: #ffffff; stroke-width: 0.8"/>
      </g>
     </g>
     <g id="text_10">
      <!-- 3 -->
      <g style="fill: #ffffff" transform="translate(7.2 84.714159) scale(0.1 -0.1)">
       <defs>
        <path id="DejaVuSans-33" d="M 2597 2516 
Q 3050 2419 3304 2112 
Q 3559 1806 3559 1356 
Q 3559 666 3084 287 
Q 2609 -91 1734 -91 
Q 1441 -91 1130 -33 
Q 819 25 488 141 
L 488 750 
Q 750 597 1062 519 
Q 1375 441 1716 441 
Q 2309 441 2620 675 
Q 2931 909 2931 1356 
Q 2931 1769 2642 2001 
Q 2353 2234 1838 2234 
L 1294 2234 
L 1294 2753 
L 1863 2753 
Q 2328 2753 2575 2939 
Q 2822 3125 2822 3475 
Q 2822 3834 2567 4026 
Q 2313 4219 1838 4219 
Q 1578 4219 1281 4162 
Q 984 4106 628 3988 
L 628 4550 
Q 988 4650 1302 4700 
Q 1616 4750 1894 4750 
Q 2613 4750 3031 4423 
Q 3450 4097 3450 3541 
Q 3450 3153 3228 2886 
Q 3006 2619 2597 2516 
z
" transform="scale(0.015625)"/>
       </defs>
       <use xlink:href="#DejaVuSans-33"/>
      </g>
     </g>
    </g>
    <g id="ytick_5">
     <g id="line2d_11">
      <g>
       <use xlink:href="#m4789523578" x="20.5625" y="23.375902" style="fill: #ffffff; stroke: #ffffff; stroke-width: 0.8"/>
      </g>
     </g>
     <g id="text_11">
      <!-- 4 -->
      <g style="fill: #ffffff" transform="translate(7.2 27.175121) scale(0.1 -0.1)">
       <use xlink:href="#DejaVuSans-34"/>
      </g>
     </g>
    </g>
   </g>
   <g id="line2d_12">
    <path d="M 36.795227 19.296 
L 66.309277 24.919177 
L 95.823326 30.542354 
L 125.337376 36.16553 
L 154.851426 41.788707 
L 184.365475 47.411884 
L 213.879525 53.035061 
L 243.393574 58.658237 
L 272.907624 64.281414 
L 302.421674 69.904591 
L 331.935723 75.527768 
L 361.449773 81.150944 
" clip-path="url(#pe2b99d96e7)" style="fill: none; stroke: #8dd3c7; stroke-width: 1.5; stroke-linecap: square"/>
   </g>
   <g id="line2d_13">
    <path d="M 36.795227 133.530775 
L 66.309277 125.239014 
L 95.823326 116.947253 
L 125.337376 108.655492 
L 154.851426 100.36373 
L 184.365475 92.071969 
L 213.879525 83.780208 
L 243.393574 75.488447 
L 272.907624 67.196686 
L 302.421674 58.904925 
L 331.935723 50.613164 
L 361.449773 42.321403 
" clip-path="url(#pe2b99d96e7)" style="fill: none; stroke: #feffb3; stroke-width: 1.5; stroke-linecap: square"/>
   </g>
   <g id="line2d_14">
    <path d="M 36.795227 160.059324 
L 66.309277 155.659436 
L 95.823326 151.259548 
L 125.337376 146.85966 
L 154.851426 142.459772 
L 184.365475 138.059884 
L 213.879525 133.659996 
L 243.393574 129.260108 
L 272.907624 124.86022 
L 302.421674 120.460332 
L 331.935723 116.060444 
L 361.449773 111.660556 
" clip-path="url(#pe2b99d96e7)" style="fill: none; stroke: #bfbbd9; stroke-width: 1.5; stroke-linecap: square"/>
   </g>
   <g id="line2d_15">
    <path d="M 36.795227 212.283942 
L 66.309277 204.858883 
L 95.823326 197.433825 
L 125.337376 190.008767 
L 154.851426 182.583709 
L 184.365475 175.15865 
L 213.879525 167.733592 
L 243.393574 160.308534 
L 272.907624 152.883476 
L 302.421674 145.458417 
L 331.935723 138.033359 
L 361.449773 130.608301 
" clip-path="url(#pe2b99d96e7)" style="fill: none; stroke: #fa8174; stroke-width: 1.5; stroke-linecap: square"/>
   </g>
   <g id="line2d_16">
    <path d="M 36.795227 161.081897 
L 66.309277 163.874057 
L 95.823326 166.666216 
L 125.337376 169.458376 
L 154.851426 172.250535 
L 184.365475 175.042694 
L 213.879525 177.834854 
L 243.393574 180.627013 
L 272.907624 183.419173 
L 302.421674 186.211332 
L 331.935723 189.003492 
L 361.449773 191.795651 
" clip-path="url(#pe2b99d96e7)" style="fill: none; stroke: #81b1d2; stroke-width: 1.5; stroke-linecap: square"/>
   </g>
   <g id="line2d_17">
    <path d="M 36.795227 246.120823 
L 66.309277 235.629106 
L 95.823326 225.137388 
L 125.337376 214.645671 
L 154.851426 204.153953 
L 184.365475 193.662236 
L 213.879525 183.170519 
L 243.393574 172.678801 
L 272.907624 162.187084 
L 302.421674 151.695366 
L 331.935723 141.203649 
L 361.449773 130.711932 
" clip-path="url(#pe2b99d96e7)" style="fill: none; stroke: #fdb462; stroke-width: 1.5; stroke-linecap: square"/>
   </g>
   <g id="line2d_18">
    <path d="M 36.795227 144.025485 
L 66.309277 152.270671 
L 95.823326 160.515857 
L 125.337376 168.761044 
L 154.851426 177.00623 
L 184.365475 185.251416 
L 213.879525 193.496602 
L 243.393574 201.741788 
L 272.907624 209.986975 
L 302.421674 218.232161 
L 331.935723 226.477347 
L 361.449773 234.722533 
" clip-path="url(#pe2b99d96e7)" style="fill: none; stroke: #b3de69; stroke-width: 1.5; stroke-linecap: square"/>
   </g>
   <g id="line2d_19">
    <path d="M 36.795227 261.216 
L 66.309277 250.7861 
L 95.823326 240.3562 
L 125.337376 229.926301 
L 154.851426 219.496401 
L 184.365475 209.066501 
L 213.879525 198.636601 
L 243.393574 188.206701 
L 272.907624 177.776801 
L 302.421674 167.346902 
L 331.935723 156.917002 
L 361.449773 146.487102 
" clip-path="url(#pe2b99d96e7)" style="fill: none; stroke: #bc82bd; stroke-width: 1.5; stroke-linecap: square"/>
   </g>
   <g id="line2d_20">
    <path d="M 36.795227 215.010293 
L 66.309277 213.318142 
L 95.823326 211.625992 
L 125.337376 209.933841 
L 154.851426 208.24169 
L 184.365475 206.54954 
L 213.879525 204.857389 
L 243.393574 203.165238 
L 272.907624 201.473088 
L 302.421674 199.780937 
L 331.935723 198.088786 
L 361.449773 196.396636 
" clip-path="url(#pe2b99d96e7)" style="fill: none; stroke: #ccebc4; stroke-width: 1.5; stroke-linecap: square"/>
   </g>
   <g id="line2d_21">
    <path d="M 36.795227 231.787229 
L 66.309277 228.866471 
L 95.823326 225.945714 
L 125.337376 223.024956 
L 154.851426 220.104198 
L 184.365475 217.18344 
L 213.879525 214.262682 
L 243.393574 211.341924 
L 272.907624 208.421167 
L 302.421674 205.500409 
L 331.935723 202.579651 
L 361.449773 199.658893 
" clip-path="url(#pe2b99d96e7)" style="fill: none; stroke: #ffed6f; stroke-width: 1.5; stroke-linecap: square"/>
   </g>
   <g id="patch_3">
    <path d="M 20.5625 273.312 
L 20.5625 7.2 
" style="fill: none; stroke: #ffffff; stroke-width: 0.8; stroke-linejoin: miter; stroke-linecap: square"/>
   </g>
   <g id="patch_4">
    <path d="M 377.6825 273.312 
L 377.6825 7.2 
" style="fill: none; stroke: #ffffff; stroke-width: 0.8; stroke-linejoin: miter; stroke-linecap: square"/>
   </g>
   <g id="patch_5">
    <path d="M 20.5625 273.312 
L 377.6825 273.312 
" style="fill: none; stroke: #ffffff; stroke-width: 0.8; stroke-linejoin: miter; stroke-linecap: square"/>
   </g>
   <g id="patch_6">
    <path d="M 20.5625 7.2 
L 377.6825 7.2 
" style="fill: none; stroke: #ffffff; stroke-width: 0.8; stroke-linejoin: miter; stroke-linecap: square"/>
   </g>
  </g>
 </g>
 <defs>
  <clipPath id="pe2b99d96e7">
   <rect x="20.5625" y="7.2" width="357.12" height="266.112"/>
  </clipPath>
 </defs>
</svg>
